<?xml version="1.0" encoding="utf-8"?>
<!-- Generator: Adobe Illustrator 24.1.3, SVG Export Plug-In . SVG Version: 6.00 Build 0)  -->
<svg version="1.1" id="Layer_1" xmlns="http://www.w3.org/2000/svg" xmlns:xlink="http://www.w3.org/1999/xlink" x="0px" y="0px"
	 viewBox="0 0 1296 1728" style="enable-background:new 0 0 1296 1728;" xml:space="preserve">
<style type="text/css">
	.st0{fill:#FFFFFF;}
</style>
<g>
	<path d="M729.5,831.6c-5.4-0.4-10.8-0.5-15.9-1.4c-9.3-1.7-14.4-6.9-15.7-16.3c-0.6-4.8-0.4-10,0.4-14.8c0.9-5.3,4-9.6,9-11.9
		c9.1-4.2,18.7-4.4,28.2-1.3c4.8,1.6,7,5.6,7.1,10.5c0.2,12,0.4,24,0,35.9c-0.3,9.8-5.4,15.6-15.2,16.7c-6.1,0.7-12.5-0.1-18.7-0.7
		c-4.1-0.4-4.8-3.7-4.2-7.1c0.6-3.8,3.5-3.1,6.2-2.9c4,0.3,8,0.9,11.9,0.7C726.6,838.5,729.7,836.4,729.5,831.6z M729.2,819.7
		c0-7.3,0.1-14.1-0.1-20.9c0-1-0.8-2.3-1.6-2.9c-4.4-3.3-14.4-0.2-16.3,5c-4.4,12.1,1.1,19.8,13.8,19.2
		C726.4,820,727.7,819.9,729.2,819.7z"/>
	<path d="M549.4,783.5c5.2,0.3,9.7,0.1,14.1,0.8c12,2,17.6,8.2,18.4,20.7c0.4,6.6,0.1,13.3,0.2,20c0,4.8-2.9,5.8-6.9,5.8
		c-4.2,0-6.6-1.4-6.5-6.1c0.1-6.2,0.2-12.3-0.2-18.5c-0.6-8.5-3.4-11-12-11.1c-2.1,0-4.2,0-7,0c0,10.1,0,19.5,0,29
		c0,5.5-1.3,6.6-6.8,6.7c-4.6,0-6.6-1.9-6.6-6.6c0.1-17.5,0-35,0-52.5c0-5.3,1.6-6.6,7-6.7c4.7-0.1,6.7,2,6.5,6.6
		C549.2,775.5,549.4,779.5,549.4,783.5z"/>
	<path d="M619.9,802c-0.2-5-3-6.9-6.8-6.9c-4.6-0.1-9.3,0.5-13.9,0.8c-2.7,0.2-5.6,1-6.4-2.7c-0.8-3.6-0.1-7.3,4.2-7.6
		c7.7-0.6,15.6-1.4,23.2-0.3c8.3,1.1,12.6,7.4,12.9,16c0.2,5.8,0.2,11.6,0,17.5c-0.2,7.4-3.7,11.2-10.9,11.6
		c-6.5,0.3-13,0.4-19.4-0.1c-8.7-0.6-12.8-5.2-12.8-13.4c-0.1-8.4,3.8-13,12.3-13.9C607.9,802.2,613.7,802.2,619.9,802z
		 M619.6,812.1c-4.6,0-9-0.4-13.2,0.2c-1.5,0.2-4,2.8-3.8,3.9c0.3,1.7,2.2,3.6,4,4.5c1.6,0.8,3.9,0.3,5.9,0.3
		C620,821.1,620.6,820.3,619.6,812.1z"/>
	<path d="M558,900.2c-15.2,0-24-8.7-23.9-23.8c0.1-15.2,8.7-23.8,23.9-23.7c15,0,23.4,8.5,23.6,23.5
		C581.7,891.4,573.2,900.2,558,900.2z M547.9,876.7c0,0.6,0,1.6,0.1,2.6c0.5,6.3,3.7,9.5,9.7,9.6c6.3,0.1,9.7-3.1,10.2-9.7
		c0.1-1.6,0.1-3.3,0-5c-0.4-7.7-4.5-11.1-12-10.2C550.4,864.7,547.9,868.6,547.9,876.7z"/>
	<path d="M589.9,870.4c0-4-0.1-8,0-12c0.1-4.7,3.4-5.1,7-5.1c3.5,0,6.3,0.8,6.3,5.2c-0.1,6.7,0,13.3,0,20c0,9.7,4.9,11.6,14,10.1
		c4.6-0.8,5.6-4.8,5.6-8.9c0.1-6.7,0.2-13.3,0-20c-0.1-4.5,1.7-6.4,6.2-6.3c4.2,0.1,7.2,0.9,7,6.1c-0.2,6.8,0.1,13.7-0.1,20.5
		c-0.4,13.1-6.8,19.5-19.8,20c-19.9,0.8-26.2-5.2-26.2-25.2C589.9,873.4,589.9,871.9,589.9,870.4
		C589.9,870.4,589.9,870.4,589.9,870.4z"/>
	<path d="M655.9,814.1c0,3.8,0.1,7.7,0,11.5c-0.1,4.8-3.6,4.8-7.1,4.8c-3.4,0-5.9-0.8-5.9-4.9c0.1-8.2-0.2-16.3,0.2-24.5
		c0.5-9.2,5.4-14.9,14.6-16.3c5.6-0.8,11.6-0.6,17.3,0.2c7.7,1.2,12.5,6.5,13,14.3c0.7,8.6,0.5,17.3,0.6,25.9
		c0.1,5.1-3.5,5.1-7.3,5.2c-3.9,0-5.8-1.6-5.8-5.6c0.1-6.5,0.2-13,0-19.5c-0.2-8.9-6.1-13.1-14.4-9.7c-2.3,0.9-4.3,4.4-5,7.1
		c-0.8,3.6-0.2,7.6-0.2,11.4C656,814.1,655.9,814.1,655.9,814.1z"/>
	<path d="M659.1,853.6c4.1,0,7.7,0,11.4,0c3.5,0,5.2,1.7,5.2,5.2c0,3.6-1.6,5.6-5.5,5.4c-3.5-0.1-7,0-11,0c0,7.2-0.3,14.1,0.2,20.9
		c0.1,1.4,3.1,3.1,5.1,3.7c1.8,0.6,3.9,0.1,5.9,0c2.5-0.2,4.8,0.1,5.1,3.3c0.3,3,0.1,6.2-3.5,6.7c-4.7,0.7-9.6,1.3-14.3,0.7
		c-7-0.9-11.4-5.8-11.7-12.9c-0.5-13-0.4-26-0.4-38.9c0-4.1,2.8-4.7,6.2-4.7c3.3,0,6.6-0.1,7,4.4
		C658.9,849.1,658.9,850.9,659.1,853.6z"/>
	<path d="M711.7,885.5c5.5-2.7,7.4-10.3,16.3-7c-4.1,3-7.4,5.3-10.7,7.8c3.9,4.7,6.8,8.2,10,12.1c-8.7,3.2-9.9-5.5-15.6-8.3
		c0,2.2,0.4,4.3-0.1,5.9c-0.4,1.3-2,2.7-3.3,3c-0.7,0.2-2.7-1.8-2.8-2.9c-0.2-8.3-0.3-16.6,0-24.9c0-1.1,2-2.7,3.3-3
		c0.7-0.2,2.7,1.8,2.8,2.9C711.9,875.7,711.7,880.3,711.7,885.5z"/>
	<path d="M694.1,882.9c-0.2-3.8-0.7-7.6-0.5-11.4c0.1-1.2,1.8-3.1,3-3.3c1-0.2,3.3,1.7,3.4,2.7c0.3,8.5,0.3,16.9,0,25.4
		c0,1-1.9,2.7-3,2.7c-1,0-2.9-1.6-3-2.7c-0.3-4.5-0.1-9-0.1-13.4C694,882.9,694,882.9,694.1,882.9z"/>
	<path d="M684,888.5c2.5,3,5.1,4.8,4.9,6.3c-0.2,1.7-2.8,4.4-4.4,4.4c-1.8,0-4.6-2.3-5-4C679.1,893.8,681.7,891.7,684,888.5z"/>
	<path class="st0" d="M729.2,819.7c-1.5,0.1-2.8,0.3-4.1,0.4c-12.8,0.6-18.3-7-13.8-19.2c1.9-5.2,11.9-8.3,16.3-5
		c0.8,0.6,1.6,1.9,1.6,2.9C729.2,805.6,729.2,812.4,729.2,819.7z"/>
	<path class="st0" d="M619.6,812.1c1,8.2,0.4,9-7.1,8.9c-2,0-4.3,0.5-5.9-0.3c-1.7-0.8-3.7-2.7-4-4.5c-0.2-1.1,2.3-3.7,3.8-3.9
		C610.6,811.8,615,812.1,619.6,812.1z"/>
	<path class="st0" d="M547.9,876.7c0-8.2,2.5-12,8-12.6c7.6-0.9,11.6,2.5,12,10.2c0.1,1.7,0.1,3.3,0,5c-0.5,6.5-3.9,9.8-10.2,9.7
		c-6-0.1-9.2-3.2-9.7-9.6C547.9,878.3,547.9,877.3,547.9,876.7z"/>
</g>
</svg>
