<?xml version="1.0" encoding="utf-8"?>
<!-- Generator: Adobe Illustrator 24.2.0, SVG Export Plug-In . SVG Version: 6.00 Build 0)  -->
<svg version="1.1" id="Layer_1" xmlns="http://www.w3.org/2000/svg" xmlns:xlink="http://www.w3.org/1999/xlink" x="0px" y="0px"
	 viewBox="0 0 739.3 820.9" style="enable-background:new 0 0 739.3 820.9;" xml:space="preserve">
<style type="text/css">
	.st0{fill:#FAFAFA;}
	.st1{fill-rule:evenodd;clip-rule:evenodd;fill:#E0E0E0;}
	.st2{fill-rule:evenodd;clip-rule:evenodd;fill:#F5F5F5;}
	.st3{fill-rule:evenodd;clip-rule:evenodd;fill:#EBEBEB;}
	.st4{fill:#EBEBEB;}
	.st5{fill:#E0E0E0;}
	.st6{fill:#F5F5F5;}
	.st7{fill:#455A64;}
	.st8{fill:#263238;}
	.st9{fill:#FF725E;}
	.st10{opacity:0.2;}
	.st11{fill:#FFFFFF;}
	.st12{fill:#FFBE9D;}
	.st13{fill:#EB996E;}
	.st14{opacity:0.3;}
</style>
<g id="freepik--background-complete--inject-16">
	<path class="st0" d="M114,264.4h-6.7c-0.7-0.1-1.4,0-2,0.2c-1.1,0.4-1.8,1.4-2,2.5c0,0.4,0,0.8,0,1.2v1.2c0,0.4,0,0.9-0.1,1.3
		c-0.2,0.9-0.7,1.7-1.5,2.2c-0.4,0.3-0.9,0.4-1.3,0.5c-0.5,0-1,0-1.4,0H74.4c-0.3,0-0.7,0-1-0.1c-0.7-0.2-1.2-0.5-1.7-1
		c-0.5-0.5-0.7-1.1-0.8-1.8c0-0.4,0-0.7,0-1v-1c0.1-0.7,0-1.3-0.2-2c-0.5-1.3-1.7-2.2-3.2-2.1H51.9c-1.6-0.1-3.1,0.2-4.5,0.9
		c-1.5,0.7-2.8,1.6-3.8,2.9c-1,1.2-1.8,2.7-2.1,4.3c-0.1,0.4-0.1,0.8-0.2,1.2s0,0.7,0,1v165.9c-0.1,3.5,1.5,6.8,4.4,8.8
		c2,1.3,4.3,2,6.7,1.8h61.3c2.2,0,4.4,0,6.5,0c2.1-0.1,4.2-0.9,5.9-2.3c0.8-0.7,1.5-1.5,2.1-2.3c0.6-0.9,1-1.8,1.3-2.8
		c0.3-1,0.4-2,0.4-3.1v-15.5c0-32.7,0-62.1,0-86.7c0-24.6,0-44.7,0-58.5V275c0-1.4-0.2-2.8-0.8-4.2c-0.5-1.1-1.1-2.2-2-3.1
		c-0.7-0.8-1.5-1.4-2.4-1.9c-1.2-0.7-2.5-1.2-3.9-1.4c-0.5,0-0.8,0-1.1-0.1H114L114,264.4z"/>
	<path class="st0" d="M700.2,264.4h-6.8c-0.7-0.1-1.4,0-2,0.2c-1,0.4-1.8,1.4-2,2.5c0,0.4,0,0.8,0,1.2v1.2c0,0.4,0,0.9,0,1.3
		c-0.2,0.9-0.7,1.7-1.5,2.2c-0.4,0.3-0.8,0.4-1.3,0.5c-0.5,0-1,0-1.4,0h-24.6c-0.3,0-0.7,0-1-0.1c-0.7-0.2-1.2-0.5-1.7-1
		c-0.4-0.5-0.7-1.1-0.8-1.8c0-0.4,0-0.7,0-1v-1c0.1-0.7,0-1.3-0.2-2c-0.5-1.3-1.7-2.2-3.2-2.1h-15.6c-3.2-0.1-6.3,1.2-8.3,3.7
		c-1,1.2-1.8,2.7-2.1,4.3c-0.1,0.4-0.1,0.8-0.2,1.2s0,0.7,0,1v165.9c0,1.1,0.1,2.3,0.4,3.3c0.7,2.2,2.1,4.2,4,5.5
		c2,1.3,4.3,2,6.7,1.8h61.3c2.2,0,4.4,0,6.5,0c2.1-0.1,4.2-0.9,5.9-2.3c0.8-0.7,1.5-1.5,2.1-2.3c0.6-0.9,1-1.8,1.3-2.8
		c0.3-1,0.4-2,0.4-3.1v-15.5c0-32.7,0-62.1,0-86.7c0-24.6,0-44.7,0-58.5c0-1.7,0-3.3,0-4.9c0.1-2.7-0.9-5.3-2.7-7.3
		c-0.7-0.8-1.5-1.4-2.4-1.9c-1.2-0.7-2.5-1.2-3.9-1.4c-0.5,0-0.8,0-1.1-0.1h-5.9L700.2,264.4z"/>
	<path class="st1" d="M317.5,131.9c0.5,3,0.5,6,0.2,9l6.9,4.7l-5,12.8l-8.2-1.2c-1.8,2.4-3.8,4.6-6.2,6.5l1.7,8.1l-12.6,5.6l-5-6.7
		c-3,0.5-6,0.6-9,0.2l-4.6,6.9l-12.8-5l1.2-8.2c-2.4-1.8-4.6-3.8-6.5-6.2l-8.2,1.7l-5.6-12.6l6.7-5c-0.5-3-0.5-6-0.2-9l-6.9-4.6
		l5-12.8l8.2,1.2c1.8-2.4,3.8-4.6,6.2-6.5l-1.7-8.2l12.5-5.5l5,6.7c3-0.5,6-0.5,9-0.2l4.6-6.9l12.8,5L304,110
		c2.4,1.8,4.6,3.8,6.5,6.2l8.2-1.7l5.6,12.6l-6.7,5L317.5,131.9z M297.8,131.8c-3.3-7.4-12-10.8-19.5-7.5c-7.4,3.3-10.8,12-7.5,19.5
		c3.3,7.4,12,10.8,19.5,7.5c0,0,0,0,0,0C297.7,148,301.1,139.3,297.8,131.8C297.8,131.8,297.8,131.8,297.8,131.8z"/>
	<path class="st2" d="M307.5,57.4c0.3,2,0.4,3.9,0.2,5.9l4.6,3.1l-3.3,8.5l-5.4-0.8c-1.2,1.6-2.5,3-4.1,4.3l1.1,5.4l-8.3,3.7
		l-3.3-4.4c-2,0.3-3.9,0.4-5.9,0.2l-3.1,4.6l-8.5-3.3l0.8-5.4c-1.6-1.2-3.1-2.5-4.3-4.1l-5.4,1.1l-3.7-8.3l4.4-3.3
		c-0.3-2-0.4-3.9-0.1-5.9l-4.4-2.8L262,47l5.4,0.8c1.2-1.6,2.5-3,4.1-4.3l-1.2-5.5l8.3-3.7l3.3,4.4c2-0.3,3.9-0.4,5.9-0.2l3.1-4.6
		l8.5,3.3l-0.8,5.4c1.6,1.2,3.1,2.5,4.3,4.1l5.4-1.1l3.7,8.3l-4.4,3.3L307.5,57.4z M294.4,57.4c-2.2-4.9-7.9-7.2-12.9-5
		c-4.9,2.2-7.2,7.9-5,12.9c2.2,4.9,7.9,7.2,12.8,5C294.4,68.1,296.6,62.4,294.4,57.4C294.5,57.4,294.5,57.4,294.4,57.4L294.4,57.4z"
		/>
	<path class="st1" d="M544.9,609c0.6,3.5,0.6,7,0.3,10.5l8.1,5.4l-5.8,15l-9.6-1.4c-2.1,2.8-4.5,5.4-7.2,7.6l1.9,9.6l-14.7,6.5
		l-5.7-7.8c-3.5,0.6-7,0.6-10.5,0.3l-5.4,8.1l-15-5.8l1.4-9.6c-2.8-2.1-5.4-4.5-7.6-7.2l-9.6,1.9l-6.7-14.8l7.8-5.8
		c-0.6-3.5-0.6-7-0.3-10.5l-8.1-5.4l5.8-15l9.6,1.4c2.1-2.8,4.5-5.4,7.3-7.6l-1.9-9.6l14.8-6.6l5.8,7.8c3.5-0.6,7-0.6,10.5-0.3
		l5.4-8.1l15,5.8l-1.4,9.6c2.8,2.1,5.4,4.5,7.6,7.3l9.6-1.9l6.5,14.7L544.9,609z M521.8,608.9c-3.9-8.7-14.1-12.7-22.8-8.8
		c-8.7,3.9-12.7,14.1-8.8,22.8s14.1,12.7,22.8,8.8c0,0,0,0,0,0C521.7,627.8,525.6,617.6,521.8,608.9z"/>
	<path class="st2" d="M506,698.3c0.3,2,0.4,4.1,0.2,6.1l4.7,3.2l-3.3,8.8l-5.6-0.8c-1.2,1.7-2.6,3.1-4.2,4.4l1.1,5.6l-8.6,3.8
		l-3.3-4.6c-2,0.3-4.1,0.4-6.1,0.1l-3.2,4.7l-8.8-3.3l0.8-5.6c-1.7-1.2-3.2-2.6-4.4-4.2l-5.6,1.1l-3.9-8.6l4.6-3.3
		c-0.3-2-0.4-4.1-0.1-6.1l-4.7-3.2l3.3-8.8l5.6,0.8c1.2-1.7,2.7-3.2,4.3-4.5l-1.1-5.6l8.6-3.8l3.3,4.6c2-0.3,4.1-0.4,6.1-0.2
		l3.2-4.7l8.8,3.3l-0.8,5.6c1.7,1.2,3.1,2.6,4.4,4.2l5.6-1.1l3.8,8.6L506,698.3L506,698.3z M492.5,698.3c-2.3-5-8.2-7.2-13.3-4.9
		c-5,2.3-7.2,8.2-4.9,13.3c2.3,5,8.1,7.2,13.1,5C492.5,709.4,494.8,703.4,492.5,698.3C492.5,698.3,492.5,698.3,492.5,698.3
		L492.5,698.3z"/>
	<path class="st3" d="M362.7,98.6c0.3,1.8,0.3,3.6,0.1,5.3l4.1,2.8l-3,7.7l-4.9-0.7c-1.1,1.4-2.3,2.8-3.7,3.9l1,4.9l-7.5,3.3l-3-4
		c-1.8,0.3-3.6,0.3-5.4,0.1l-2.8,4.1l-7.7-3l0.7-5c-1.5-1-2.8-2.2-3.9-3.6l-4.9,1l-3.3-7.5l4-3c-0.3-1.8-0.3-3.6-0.1-5.4l-4.1-2.8
		l3-7.7l5,0.7c1-1.5,2.3-2.8,3.7-3.9l-1-4.9l7.5-3.3l3,4c1.8-0.3,3.6-0.3,5.4-0.1l2.8-4.1l7.6,2.9l-0.7,5c1.4,1.1,2.7,2.3,3.9,3.7
		l4.9-1l3.3,7.5L362.7,98.6L362.7,98.6z M350.9,98.6c-2-4.4-7.2-6.4-11.6-4.4c-4.4,2-6.4,7.2-4.4,11.6c2,4.4,7.1,6.4,11.6,4.4
		C350.9,108.4,352.9,103.2,350.9,98.6C351,98.7,351,98.6,350.9,98.6L350.9,98.6z"/>
	<path class="st4" d="M658.5,652.8c6.2-2.9,13.2-3.8,20-2.4c3.6,0.6,7.4,1.7,9.9,4.4c2.5,2.8,3,7.5,0.1,9.9c-1.8,1.2-4,1.8-6.2,1.6
		c-5.3,0-11.2-1-15.4,2.2c-2.4,1.8-4,4.8-6.9,5.7c-3,0.7-6-0.7-7.5-3.3c-1.4-2.7-1.7-5.7-0.9-8.6
		C652.3,658.1,654.9,654.6,658.5,652.8z"/>
	<path class="st4" d="M644.6,625.8c3.7,5.3,11,3.6,14.3,0.3c3.4-3.3,4.8-8,6.1-12.4c3-10.2,5.9-21,3.7-31.4c-0.5-3.2-1.9-6.1-4-8.6
		c-2.2-2.4-5.4-3.5-8.6-2.9c-3.7,1-5.9,4.5-7.6,7.9c-4.8,10-7.4,21-7.4,32.2C641,616.1,641.6,621.5,644.6,625.8"/>
	<path class="st4" d="M634.3,633.5c3.9-5.1,5-11.7,3-17.8c-2-6-5.7-11.3-10.5-15.3c-5.5-4.9-11.9-8.7-18.9-11.2
		c-2.7-1.1-5.6-1.6-8.5-1.4c-2.9,0.2-5.6,1.8-7.1,4.3c-2,3.8-0.1,8.3,2,12.2c3.6,6.6,7.8,12.9,12.4,18.9c3.7,4.8,8,9.5,13.6,11.7
		c5.7,2.1,11.6,1.9,14.6-2"/>
	<path class="st5" d="M644.3,706c0.2-0.8,0.3-1.6,0.3-2.4c0.2-1.8,0.4-4,0.7-6.7c0.3-3.2,0.8-6.5,1.5-9.7c0.9-3.9,2-7.7,3.5-11.4
		c1.4-3.7,3.4-7.2,5.8-10.3c2-2.6,4.5-4.7,7.4-6.1c2-1,4-1.6,6.2-1.9c0.8,0,1.6-0.2,2.4-0.3c-0.8-0.1-1.6-0.1-2.5,0
		c-2.2,0.2-4.4,0.7-6.5,1.7c-3,1.4-5.7,3.6-7.8,6.2c-2.5,3.2-4.5,6.7-6,10.5c-1.5,3.8-2.7,7.7-3.5,11.7c-0.6,3.2-1.1,6.5-1.3,9.8
		c-0.2,2.8-0.3,5-0.3,6.7C644.2,704.4,644.2,705.2,644.3,706z"/>
	<path class="st5" d="M644.8,700.9c0-0.4,0-0.7,0-1.1v-3.2c0-2.8,0-6.8,0.1-11.8c0.3-10,1.1-20.6,2.8-35.7
		c1.6-14.2,3.7-30.7,5.9-41.4c0.5-2.5,1-4.7,1.4-6.6s0.8-3.6,1.2-5c0.3-1.4,0.6-2.3,0.8-3.1c0.1-0.4,0.2-0.7,0.2-1.1
		c-0.2,0.3-0.3,0.7-0.4,1.1c-0.2,0.8-0.6,1.8-0.9,3.1c-0.4,1.3-0.8,3-1.3,4.9s-1,4.1-1.6,6.6c-2.8,12.7-4.8,25.5-6.2,38.4
		c-1.7,15.1-2.4,28.9-2.5,38.8c0,5,0,9,0.2,11.8c0.1,1.3,0.2,2.4,0.2,3.2C644.6,700.2,644.6,700.6,644.8,700.9z"/>
	<path class="st5" d="M644.8,674.4c0.1-1.1,0.1-2.2,0-3.3c-0.1-2.2-0.4-5.3-1-9.1c-0.7-4.5-1.7-8.9-3-13.2
		c-1.4-5.4-3.3-10.6-5.5-15.7c-3.8-9.3-9.3-17.9-16.2-25.3c-1.2-1.3-2.5-2.5-3.8-3.6c-0.6-0.5-1.1-1-1.7-1.4l-1.5-1
		c-0.9-0.7-1.8-1.3-2.8-1.8c3.2,2.6,6.3,5.3,9.2,8.2c6.7,7.4,12,16,15.8,25.2c2.2,5,4,10.2,5.6,15.5c1.5,4.9,2.4,9.3,3.2,13.1
		s1.1,6.9,1.3,9C644.5,672.2,644.6,673.3,644.8,674.4z"/>
	<polygon class="st5" points="619.2,721.2 621.8,757.7 668.7,757.7 671.3,721.2 	"/>
	<rect x="614.6" y="706.9" class="st5" width="62.2" height="14.4"/>
	<polygon class="st4" points="614.7,756.3 614.7,760.3 617.6,760.3 675.9,760.3 675.9,756.3 	"/>
	<polygon class="st5" points="620.4,767.3 617.6,760.3 673.6,760.3 670.3,767.3 	"/>
	<path class="st6" d="M670.5,733.1c-0.1,0.1-0.1,0.2-0.2,0.3l-0.7,0.9l-2.7,3.5l-0.1,0.2l-0.1-0.2l-6.7-9.3h0.4l-6.7,9.3l-0.2,0.3
		l-0.2-0.3l-7.8-9.3h0.5l-0.4,0.6l-7,8.8l-0.2,0.3L638,738l-6.7-9.3h0.4l-8,9.3l-0.1,0.2l-0.1-0.2l-2.6-4.3l-0.7-1.2
		c-0.1-0.1-0.2-0.3-0.2-0.4c0.1,0.1,0.2,0.2,0.3,0.4c0.2,0.3,0.4,0.7,0.7,1.1l2.7,4.2h-0.3l8-9.4l0.2-0.3l0.2,0.3l6.7,9.3H638l7-8.8
		l0.4-0.6l0.2-0.3l0.2,0.3l7.8,9.3h-0.4c2.4-3.3,4.7-6.5,6.7-9.3l0.2-0.3l0.2,0.3l6.6,9.4h-0.2l2.8-3.3l0.8-0.9
		C670.3,733.2,670.4,733.1,670.5,733.1z"/>
	<path class="st6" d="M672,721c0,0.2-11.7,0.3-26.2,0.3c-14.5,0-26.2-0.1-26.2-0.3s11.7-0.3,26.2-0.3C660.3,720.7,672,720.8,672,721
		z"/>
	<path class="st6" d="M674.3,760.6c0,0.2-12.8,0.3-28.5,0.3c-15.7,0-28.5-0.1-28.5-0.3s12.8-0.3,28.5-0.3S674.3,760.5,674.3,760.6z"
		/>
</g>
<g id="freepik--Floor--inject-16">
	<path class="st7" d="M727.8,768c0,0.3-158.6,0.4-354.2,0.4S19.4,768.3,19.4,768c0-0.3,158.6-0.4,354.2-0.4S727.8,767.8,727.8,768z"
		/>
</g>
<g id="freepik--Plant--inject-16">
	<rect x="103.8" y="689.1" class="st8" width="94.1" height="12.9"/>
	<path class="st8" d="M198,702.1h-94.4v-13.2H198L198,702.1z M104,701.8h93.7v-12.6H104L104,701.8z"/>
	<polygon class="st8" points="112.5,697.7 126,764.5 176.1,764.5 189.2,702 	"/>
	<polygon class="st7" points="112.5,758.1 119.7,768.1 180.6,768.1 189.2,758.1 	"/>
	<path class="st8" d="M147.3,699.6c-0.2,0-0.4-31-0.5-69.1c-0.1-38.2,0-69.1,0.1-69.1s0.4,30.9,0.5,69.1
		C147.5,668.7,147.5,699.6,147.3,699.6z"/>
	<path class="st8" d="M168.2,622.2c0,0.3-0.1,0.5-0.3,0.7l-0.8,2c-0.2,0.5-0.4,0.9-0.6,1.5s-0.4,1.1-0.6,1.7c-0.2,0.5-0.5,1.3-0.7,2
		c-0.3,0.7-0.5,1.5-0.7,2.3c-1.1,3.8-2,7.6-2.6,11.5c-0.7,4.8-1.2,9.6-1.5,14.4c-0.3,8.8-0.1,17.6,0.8,26.3c0.3,3.3,0.6,6.1,0.8,8
		l0.3,2.2c0,0.3,0,0.5,0,0.8c-0.1-0.2-0.1-0.5-0.2-0.8c-0.1-0.6-0.2-1.3-0.4-2.1c-0.3-1.9-0.7-4.6-1.1-7.9c-1-8.8-1.3-17.6-0.9-26.4
		c0.2-4.8,0.7-9.7,1.5-14.5c0.7-3.9,1.6-7.8,2.8-11.6c0.3-0.8,0.5-1.6,0.8-2.3c0.3-0.7,0.5-1.4,0.8-2c0.2-0.6,0.5-1.2,0.7-1.7
		c0.2-0.5,0.5-1,0.7-1.4l1-2C167.9,622.7,168.1,622.5,168.2,622.2z"/>
	<path class="st8" d="M165.8,597.2c-0.1,0.3-0.2,0.7-0.3,1c-0.2,0.7-0.6,1.7-1,2.9c-0.2,0.6-0.5,1.3-0.7,2.1l-0.8,2.5
		c-0.6,1.8-1.2,3.8-1.8,6.1c-0.3,1.1-0.6,2.3-1,3.6c-0.3,1.2-0.6,2.6-0.9,3.9c-0.7,2.7-1.1,5.6-1.7,8.7c-1,6.2-2,13-2.6,20.1
		c-0.6,7.2-0.9,14-1,20.3s0,11.9,0.3,16.6c0,2.4,0.3,4.5,0.4,6.4c0.1,1.9,0.2,3.5,0.3,4.8s0.2,2.3,0.2,3c0,0.4,0,0.7,0,1.1
		c-0.1-0.3-0.1-0.7-0.2-1.1c-0.1-0.8-0.2-1.8-0.4-3c-0.2-1.3-0.3-2.9-0.5-4.8c-0.2-1.9-0.3-4-0.5-6.4c-0.3-4.7-0.5-10.3-0.5-16.6
		c0-6.3,0.3-13.1,0.9-20.3c0.6-7.2,1.6-14,2.6-20.2c0.6-3.1,1.1-6,1.8-8.7c0.3-1.4,0.6-2.7,0.9-3.9c0.3-1.3,0.7-2.4,1-3.6
		c0.6-2.3,1.3-4.3,1.9-6.1c0.3-0.9,0.6-1.7,0.8-2.5c0.3-0.8,0.6-1.4,0.8-2.1c0.5-1.2,0.8-2.1,1.1-2.8
		C165.5,597.9,165.7,597.6,165.8,597.2z"/>
	<path class="st8" d="M141.3,705.1c0-0.1,0-0.2,0-0.4c0-0.3,0-0.6,0-1.1c0-1-0.2-2.4-0.3-4.1c-0.2-3.6-0.5-8.8-0.9-15
		c-0.8-12.7-2-30.3-4.1-49.6c-1.1-9.7-2.4-18.9-3.7-27.2c-0.7-4.2-1.4-8.1-2.1-11.8c-0.7-3.7-1.4-7.1-2-10.2
		c-0.7-3.1-1.3-5.9-1.9-8.3c-0.6-2.4-1.1-4.6-1.5-6.3c-0.4-1.7-0.8-3-1-4c0-0.4-0.2-0.8-0.2-1.1c-0.1-0.3,0-0.4,0-0.4s0,0.1,0.1,0.3
		c0.1,0.2,0.2,0.6,0.3,1l1.1,4c0.5,1.7,1.1,3.8,1.7,6.3s1.3,5.3,2,8.3c0.7,3.1,1.4,6.5,2.1,10.2c0.7,3.7,1.4,7.6,2.1,11.8
		c1.4,8.3,2.7,17.5,3.8,27.2c2.1,19.4,3.2,37,3.9,49.7c0.4,6.4,0.6,11.5,0.7,15.1l0.2,4.1v1.4L141.3,705.1z"/>
	<path class="st9" d="M146.5,576.3c-0.4-4.4-4.8-7.7-9.2-7.7c-4.5,0.2-8.6,2.4-11.2,6.1c-2.5,3.6-4.4,7.7-5.4,12
		c-3.2,10.3-4.3,21.1-3.3,31.8c1,10.8,5.7,21,13.3,28.8c1.1,1.4,2.9,2.1,4.7,2c0.9-0.3,1.7-0.8,2.4-1.5
		c15.2-13.9,23.6-33.6,23.1-54.2c0.1-4.1-0.9-8.1-2.9-11.7C155.7,578.6,150.4,574.9,146.5,576.3"/>
	<path class="st9" d="M113.6,541.2l-6.2,11.2c-0.1,0.3-0.3,0.6-0.6,0.6c-0.3,0-0.6-0.3-0.8-0.6c-5.5-8.4-10.9-16.8-16.4-25.2
		l3.8-2.2L113.6,541.2z"/>
	<g class="st10">
		<path d="M113.6,541.2l-6.2,11.2c-0.1,0.3-0.3,0.6-0.6,0.6c-0.3,0-0.6-0.3-0.8-0.6c-5.5-8.4-10.9-16.8-16.4-25.2l3.8-2.2
			L113.6,541.2z"/>
	</g>
	<path class="st9" d="M146.9,561.4l-55.9-33c-0.6-0.3-1.1-0.8-1.4-1.4c-0.2-0.8,0.4-1.7,1-2.3c7.8-8,18.7-12.3,29.9-11.7
		c11.2,0.8,21.3,7.1,27,16.8C153,539.6,153.1,552.3,146.9,561.4"/>
	<path class="st8" d="M99,517.9c0.2-0.1,0.5-0.1,0.7-0.1c0.7-0.1,1.4-0.1,2.1-0.1c2.6,0,5.2,0.2,7.8,0.6
		c17.4,2.9,31.5,15.7,36.2,32.7c0.7,2.5,1.2,5.1,1.4,7.7c0.1,0.9,0,1.2,0,1.7c-0.1,0.4-0.2,0.8-0.4,1.2c0.2-0.9,0.2-1.9,0.1-2.8
		c-2.9-22.8-21.9-40.2-44.9-40.8C101,518,100,518,99,517.9z"/>
	<path class="st8" d="M139.3,538.6c-0.9,0.5-1.8,1-2.8,1.3c-1.8,0.7-4.3,1.7-7.1,2.5s-5.3,1.6-7.2,2c-1,0.3-2,0.5-3.1,0.6
		c0.9-0.4,1.9-0.8,2.9-1l7.1-2.2l7.1-2.3C137.3,539.1,138.3,538.8,139.3,538.6z"/>
	<path class="st8" d="M130.5,515c0.5,2,0.7,4.1,0.7,6.3c0.2,2.1,0.1,4.2-0.3,6.3c-0.3-2.1-0.4-4.2-0.3-6.2
		C130.3,519.2,130.3,517.1,130.5,515z"/>
	<path class="st8" d="M90.5,527.8c1.3-0.6,2.7-1.1,4.1-1.4c2.5-0.8,6.1-1.8,10-2.7c3.9-1,7.6-1.7,10.2-2.1c1.4-0.3,2.8-0.5,4.3-0.6
		c-1.4,0.5-2.8,0.8-4.2,1.1c-2.6,0.6-6.2,1.4-10.1,2.3c-4,0.9-7.5,1.9-10,2.5C93.3,527.2,91.9,527.6,90.5,527.8z"/>
	<path class="st9" d="M123.3,566.8c-4.8-3.7-9.9-4.4-15.9-4.1c-6,0.4-12,2-17.4,4.6c-9.4,4.1-18.3,10.2-23.9,18.8s-7.6,20-3.3,29.4
		c0.3,1,1,1.8,1.9,2.3c1,0.3,2.2,0.2,3.2-0.2c10.7-3.5,21.5-7,31.4-12.5c9.9-5.5,18.8-13.1,24.1-23.1c1.4-2.4,2.2-5,2.6-7.7
		C126.1,571.6,125.2,568.9,123.3,566.8"/>
	<path class="st8" d="M123.4,565.7l-0.8,0.3l-2.2,0.8l-1.7,0.5l-1.9,0.8c-1.4,0.6-2.9,1.1-4.6,1.9l-2.6,1.2
		c-0.9,0.4-1.8,0.9-2.8,1.4c-2,1-3.9,2.2-6,3.3c-4.5,2.8-8.7,6-12.7,9.4c-3.9,3.5-7.6,7.3-11,11.4c-1.5,1.9-3,3.7-4.2,5.5
		c-0.6,0.9-1.2,1.7-1.8,2.6l-1.5,2.5c-1,1.6-1.8,3-2.5,4.3c-0.4,0.7-0.7,1.2-1,1.8s-0.5,1.1-0.8,1.6l-1.1,2.1
		c-0.1,0.3-0.2,0.5-0.4,0.7c0.1-0.3,0.2-0.5,0.3-0.8l1-2.2l0.7-1.6l0.9-1.8c0.7-1.3,1.4-2.8,2.4-4.4l1.5-2.5
		c0.5-0.9,1.1-1.7,1.7-2.6c1.2-1.8,2.6-3.7,4.1-5.6c3.4-4.1,7-8,11-11.5c4-3.5,8.3-6.6,12.8-9.4c2.1-1.2,4.1-2.5,6.1-3.3
		c1-0.5,1.9-1,2.8-1.4l2.7-1.2c1.7-0.8,3.3-1.3,4.7-1.8c0.7-0.3,1.3-0.5,1.9-0.7l1.7-0.5l2.3-0.7
		C122.8,565.7,123.1,565.7,123.4,565.7z"/>
	<path class="st8" d="M85.8,586c-3.8,1.5-7.7,2.7-11.7,3.8c-3.9,1.3-7.9,2.3-11.9,3.1c3.8-1.5,7.7-2.7,11.7-3.8
		C77.8,587.9,81.8,586.8,85.8,586z"/>
	<path class="st8" d="M85.3,611.8c-0.2-1.2-0.3-2.4-0.3-3.7c0-2.3,0-5.4,0-8.8c0-3.4,0.3-6.6,0.5-8.8c0-1.2,0.2-2.4,0.5-3.6
		c0.1,1.2,0.1,2.4,0,3.7c0,2.5-0.2,5.5-0.3,8.8c-0.1,3.3-0.2,6.3-0.2,8.8C85.6,609.4,85.5,610.6,85.3,611.8z"/>
	<path class="st8" d="M107.5,600.6c-0.2,0-0.8-6.3-1.3-14.1c-0.5-7.8-0.9-14.2-0.7-14.2s0.8,6.3,1.3,14.1
		C107.4,594.2,107.7,600.6,107.5,600.6z"/>
	<path class="st8" d="M79.9,571.6c1.2-0.1,2.5-0.2,3.8-0.1c2.3,0,5.5,0.1,9,0.2c3.5,0.1,6.7,0.3,9,0.4c1.3,0,2.5,0.1,3.7,0.4
		c-1.2,0.1-2.5,0.2-3.8,0.1c-2.3,0-5.5-0.1-9-0.2c-3.5-0.1-6.7-0.3-9-0.4C82.4,572,81.2,571.8,79.9,571.6z"/>
	<path class="st8" d="M133,648.6c-0.1-0.2-0.1-0.5-0.1-0.8c0-0.6,0-1.3-0.1-2.2c-0.1-1.9-0.1-4.6,0-7.9s0.3-7.3,0.7-11.7
		c0.4-4.4,1.1-9.2,2-14.3c0.9-5,2.1-9.8,3.2-14.1c1.1-4.3,2.4-8.1,3.5-11.3c1.1-3.2,2.1-5.7,2.8-7.4l0.9-2c0.1-0.2,0.2-0.5,0.3-0.7
		c0,0.2-0.1,0.5-0.2,0.7c-0.2,0.5-0.4,1.2-0.7,2c-0.7,1.8-1.6,4.3-2.6,7.5c-1.1,3.2-2.2,7-3.3,11.3c-1.1,4.3-2.2,9-3.1,14
		s-1.6,9.8-2,14.2s-0.7,8.3-0.8,11.7c-0.1,3.3-0.2,6-0.2,7.9c0,0.9,0,1.7,0,2.2C133.1,648.2,133.1,648.4,133,648.6z"/>
	<path class="st8" d="M136,612c-0.7,0.9-1.4,1.7-2.2,2.5c-1.5,1.5-3.5,3.3-5.9,5.4c-2.4,2.1-4.5,3.9-6.2,5.1
		c-0.8,0.7-1.7,1.4-2.7,1.9c0.7-0.8,1.5-1.6,2.4-2.3l6-5.2l6-5.3C134.2,613.4,135.1,612.6,136,612z"/>
	<path class="st8" d="M153.6,626.3c-0.9-1-1.7-2.2-2.4-3.3l-5.5-8.1c-2.1-3-4.1-5.8-5.6-8c-0.8-1.1-1.6-2.2-2.3-3.3
		c1,0.9,1.9,2,2.7,3.1c1.6,2,3.6,4.7,5.8,7.9c2.2,3.2,4.1,6.1,5.4,8.2C152.4,623.9,153.1,625,153.6,626.3z"/>
	<path class="st8" d="M144.4,581.4c0.1,0.2-5.8,4.1-13.1,8.8s-13.3,8.4-13.5,8.3c-0.2-0.1,5.8-4.1,13.1-8.9S144.3,581.3,144.4,581.4
		z"/>
	<path class="st8" d="M161,599.3c-3.1-2.6-6.1-5.3-8.9-8.2c-2.9-2.7-5.7-5.6-8.3-8.7c3.1,2.6,6.1,5.3,8.9,8.2
		C155.6,593.4,158.4,596.3,161,599.3z"/>
	<path class="st9" d="M165.1,598.9l5-0.4c3.6-0.3,7.1-1.4,10.2-3.1c1.5-0.9,3.1-1.7,4.8-2.4c6.3-2.5,13.2-2.1,20-2.4
		c11-0.6,21.8-3.3,31.7-8.1c0.6-0.3,1.1-0.7,1.4-1.3c1-1.9-0.9-3.6-2.6-4.6c-8.5-5.2-17.2-10.6-26.8-13.2s-20.6-2.2-28.8,3.5
		C170.3,573.7,166.8,587.3,165.1,598.9"/>
	<path class="st8" d="M238.2,580.7c-0.3-0.1-0.6-0.2-0.9-0.4L235,579c-2.1-1.1-5-2.7-8.8-4.5c-4.4-2.2-9-3.9-13.7-5.3
		c-5.8-1.6-11.8-2.1-17.7-1.4c-6,0.7-11.6,3.1-16.2,6.9c-3.5,3.3-6.4,7.4-8.3,11.8c-1.4,3-2.6,6.1-3.7,9.2c-0.4,1.1-0.7,1.9-0.9,2.5
		c-0.1,0.3-0.2,0.6-0.4,0.9c0-0.3,0.1-0.6,0.2-0.9c0.2-0.7,0.5-1.5,0.8-2.6c1-3.2,2.1-6.3,3.5-9.3c1.9-4.6,4.8-8.7,8.4-12.1
		c4.7-4,10.4-6.5,16.5-7.2c6-0.7,12.2-0.2,18,1.5c4.7,1.4,9.3,3.2,13.7,5.4c3.8,1.9,6.7,3.6,8.8,4.7l2.3,1.4
		C237.8,580.3,238,580.5,238.2,580.7z"/>
	<path class="st8" d="M226.1,587.2c-0.1,0.1-6.7-4.1-14.8-9.5c-8.1-5.4-14.5-10-14.4-10.1c0.1-0.1,6.7,4.1,14.8,9.6
		S226.2,587,226.1,587.2z"/>
	<path class="st8" d="M219.1,567.2c-1.5,0.5-3.2,0.8-4.8,0.9c-1.6,0.3-3.3,0.3-4.9,0c1.6-0.3,3.2-0.4,4.8-0.5
		C215.8,567.4,217.4,567.3,219.1,567.2z"/>
	<path class="st8" d="M190.2,563.5c-0.5,1.2-1.3,2.3-2.2,3.3c-0.8,1.2-1.7,2.2-2.8,3.1c0.5-1.2,1.3-2.3,2.2-3.3
		C188.2,565.4,189.1,564.4,190.2,563.5z"/>
	<path class="st8" d="M196.1,591.1c-1.1-0.4-2.2-1-3.2-1.7c-1.9-1.2-4.5-2.9-7.2-4.9s-5.2-3.9-6.9-5.3c-1-0.7-1.9-1.5-2.7-2.4
		c1.1,0.6,2.1,1.2,3,2l7,5.1c2.8,2,5.3,3.8,7.1,5C194.2,589.6,195.2,590.3,196.1,591.1z"/>
	<path class="st9" d="M172.6,620.4c-4.8-1.3-10.6,3.4-11.6,8.3c-1,4.9,0.8,9.9,3,14.4c4.6,10.1,11.4,19,19.9,26.1
		c8.6,7.1,19.3,11,30.4,11.2c-2-9.5,0.6-19.3-0.6-28.9c-2.1-17.4-15.9-31.1-33.3-33C177.4,618.1,173.8,617.6,172.6,620.4"/>
	<path class="st8" d="M214.3,680.3c-0.2-0.1-0.5-0.2-0.7-0.3c-0.6-0.4-1.2-0.8-1.8-1.2c-2-1.8-3.6-3.9-4.8-6.4
		c-0.8-1.5-1.7-3.1-2.5-4.9c-0.8-1.8-1.7-3.7-2.6-5.7c-0.9-2.1-2-4.1-3.2-6.1c-1.3-2.1-2.8-4.1-4.4-6c-3.3-3.9-6.8-7.2-9.9-10.4
		c-2.8-2.8-5.3-5.8-7.5-9.1c-1.5-2.2-2.8-4.6-3.7-7.1c-0.2-0.7-0.5-1.4-0.6-2.1c-0.1-0.2-0.1-0.5-0.2-0.8c0,0,0.3,1,1,2.7
		c1,2.4,2.3,4.7,3.8,6.9c2.3,3.2,4.8,6.1,7.6,8.9c3.1,3.2,6.7,6.5,10,10.4c1.6,1.9,3.1,3.9,4.4,6.1c1.2,2,2.3,4.1,3.2,6.2
		c0.9,2,1.7,3.9,2.5,5.7c0.9,1.8,1.7,3.4,2.4,5c1.1,2.4,2.6,4.6,4.5,6.4C213.4,679.8,214.4,680.3,214.3,680.3z"/>
	<path class="st8" d="M189.5,672.5c0-1.1,0.2-2.2,0.4-3.2c0.4-2,1-4.7,1.8-7.7s1.7-5.6,2.5-7.5c0.3-1,0.8-2.1,1.3-3
		c-0.2,1.1-0.5,2.1-0.9,3.2c-0.6,1.9-1.4,4.6-2.3,7.5c-0.8,3-1.5,5.7-2,7.6C190.2,670.4,189.9,671.5,189.5,672.5z"/>
	<path class="st8" d="M213.4,649.3c-1.1-0.2-2.2-0.4-3.3-0.8c-2.1-0.5-5-1.3-8.1-2s-6.1-1.3-8.2-1.7c-1.1-0.2-2.2-0.4-3.3-0.8
		c1.2,0,2.3,0.1,3.5,0.3c2.1,0.3,5,0.8,8.3,1.5c3.3,0.7,6.1,1.5,8.1,2.2C211.4,648.3,212.5,648.8,213.4,649.3z"/>
	<path class="st8" d="M171.6,656c0.1-1.3,0.2-2.5,0.5-3.8c0.4-2.3,1.1-5.5,2-8.9c0.9-3.5,1.9-6.5,2.6-8.8c0.3-1.2,0.8-2.4,1.4-3.5
		c-0.2,1.2-0.5,2.5-0.9,3.7c-0.6,2.3-1.5,5.4-2.4,8.8c-0.9,3.4-1.7,6.6-2.2,8.8C172.4,653.6,172,654.8,171.6,656z"/>
	<path class="st8" d="M202.4,629.1c0,0.2-6-0.3-13.4-1.1s-13.3-1.6-13.3-1.8c4.5,0.1,8.9,0.5,13.3,1.1
		C196.4,628.1,202.4,628.9,202.4,629.1z"/>
	<path class="st7" d="M198,701.9c0,0.2-21.1,0.3-47.2,0.3s-47.2-0.2-47.2-0.3c0-0.2,21.1-0.3,47.2-0.3S198,701.7,198,701.9z"/>
	<path class="st7" d="M183.3,729.1c0,0.2-14.2,0.3-31.8,0.3s-31.8-0.2-31.8-0.3c0-0.2,14.2-0.3,31.8-0.3S183.3,728.9,183.3,729.1z"
		/>
	<path class="st7" d="M182.7,733c0,0.2-14,0.4-31.2,0.4s-31.2-0.2-31.2-0.4s14-0.3,31.2-0.3S182.7,732.8,182.7,733z"/>
	<path class="st7" d="M183.8,725.9c0,0.2-14.7,0.3-32.9,0.3s-32.9-0.2-32.9-0.3c0-0.2,14.7-0.3,32.9-0.3S183.8,725.7,183.8,725.9z"
		/>
</g>
<g id="freepik--Screens--inject-16">
	<path class="st0" d="M205.6,194.4h-10.8c-1.1-0.1-2.3,0-3.3,0.4c-1.1,0.4-2,1.2-2.6,2.3c-0.3,0.5-0.5,1.1-0.6,1.7
		c-0.1,0.6-0.1,1.3,0,1.9v2c0,0.7,0,1.4-0.1,2.1c-0.3,1.4-1.2,2.7-2.4,3.5c-0.6,0.4-1.4,0.7-2.2,0.8c-0.8,0-1.5,0-2.3,0h-39
		c-0.5,0-1,0-1.6-0.2c-1-0.3-2-0.8-2.7-1.7c-0.7-0.8-1.2-1.8-1.3-2.9c0-0.6,0-1.1,0-1.7v-1.7c0.1-1.1,0-2.1-0.3-3.2
		c-0.4-1-1-1.9-1.9-2.5c-0.9-0.6-2-0.9-3.1-0.9h-24.9c-5.1-0.2-10,2-13.3,5.9c-1.6,2-2.8,4.3-3.3,6.9c-0.1,0.6-0.3,1.3-0.3,1.9
		c0,0.6,0,1.1,0,1.7v264.7c0,1.8,0.2,3.5,0.7,5.2c1.1,3.6,3.3,6.7,6.4,8.8c3.1,2.1,6.8,3.1,10.5,2.9H205c3.5,0,7,0,10.4,0
		c3.4-0.2,6.7-1.5,9.3-3.6c1.3-1.1,2.4-2.3,3.3-3.7c0.9-1.4,1.6-2.9,2.1-4.5c0.4-1.6,0.7-3.3,0.6-5v-24.5c0-52.1,0-99,0.1-138.3
		s0-71.3,0.1-93.3v-7.8c0.1-2.3-0.4-4.5-1.2-6.7c-0.7-1.8-1.8-3.5-3.1-4.9c-1.1-1.2-2.4-2.2-3.8-3.1c-1.9-1.2-4-1.9-6.2-2.2
		c-0.6-0.1-1.1-0.1-1.7-0.2h-0.6L205.6,194.4L205.6,194.4z"/>
	<path class="st8" d="M214.6,194.6h0.6c0.6,0,1.1,0.1,1.7,0.1c3.8,0.5,7.4,2.3,10,5.2c1.3,1.5,2.4,3.2,3.2,5
		c0.9,2.1,1.3,4.4,1.2,6.7c0,2.5,0,5,0,7.8c0,22,0,53.9,0,93.3s0,86.3,0,138.3v24.8c0,1.7-0.2,3.4-0.6,5c-0.4,1.7-1.1,3.3-2,4.7
		c-1,1.4-2.1,2.7-3.5,3.8c-2.7,2.2-6.1,3.5-9.6,3.7c-3.5,0.1-6.9,0-10.4,0h-21.1h-43.2h-33.3c-3.8,0.2-7.5-0.9-10.6-3
		c-3.2-2.2-5.5-5.4-6.7-9.1c-0.5-1.8-0.7-3.7-0.7-5.6v-27.7c0-14.6,0-29,0-43.2c0-28.3,0-55.7,0-81.7s0-50.8,0-74
		c0-11.6,0-22.7,0-33.5v-4c0-0.7,0-1.3,0.1-2c0.1-0.7,0.2-1.3,0.3-2c0.6-2.6,1.8-5,3.5-7c3.3-4,8.3-6.2,13.5-6h25
		c1.2-0.1,2.4,0.3,3.3,0.9c0.9,0.7,1.6,1.6,2,2.7c0.3,1.1,0.4,2.2,0.3,3.3v1.7c0,0.5,0,1,0,1.6c0.1,1,0.6,2,1.2,2.8
		c0.7,0.8,1.5,1.3,2.5,1.6c0.5,0.1,1,0.2,1.5,0.1h7.4h21.8h9.6c0.8,0,1.5,0,2.3,0c0.7-0.1,1.4-0.3,2-0.7c1.2-0.8,2-2,2.3-3.3
		c0.1-0.7,0.2-1.3,0.1-2v-2c0-0.6,0-1.3,0.1-1.9c0.1-0.6,0.3-1.2,0.6-1.8c0.6-1.1,1.5-1.9,2.6-2.3c1.1-0.4,2.2-0.5,3.3-0.4h10.7h6.6
		L214.6,194.6l-2.2,0.1H195c-1.1-0.1-2.2,0-3.2,0.4c-1.1,0.4-2,1.2-2.6,2.3c-0.3,0.5-0.5,1.1-0.6,1.7c-0.1,0.6-0.1,1.3-0.1,1.9v2
		c0,0.7,0,1.4-0.1,2.1c-0.3,1.4-1.2,2.7-2.4,3.5c-0.6,0.4-1.4,0.7-2.1,0.8c-0.8,0-1.5,0-2.3,0h-38.9c-0.5,0-1,0-1.6-0.2
		c-1-0.3-2-0.8-2.7-1.7c-0.7-0.8-1.2-1.8-1.3-2.9c0-0.6,0-1.1,0-1.7V201c0.1-1.1,0-2.1-0.3-3.2c-0.4-1-1-1.9-1.9-2.5
		c-0.9-0.6-2-0.9-3.1-0.9h-24.8c-5.1-0.1-10,2.1-13.2,6.1c-1.6,2-2.8,4.3-3.3,6.9c-0.2,0.6-0.2,1.3-0.3,1.9c-0.1,0.7,0,1.3,0,2
		v264.1c-0.1,1.8,0.2,3.7,0.7,5.5c1.1,3.6,3.3,6.7,6.4,8.8c3.1,2.1,6.8,3.1,10.5,2.9h33.3h43.2h21.1c3.5,0,7,0,10.4,0
		c3.4-0.2,6.6-1.5,9.3-3.6c1.3-1.1,2.4-2.3,3.3-3.7c0.9-1.4,1.6-2.9,2.1-4.5c0.5-1.6,0.7-3.3,0.6-5v-5c0-6.7,0-13.3,0-19.8
		c0-52.1,0-99,0-138.3s0-71.3,0.1-93.3c0-2.8,0-5.4,0-7.8c0.1-2.3-0.4-4.6-1.2-6.7c-0.7-1.8-1.8-3.5-3.1-4.9
		c-2.6-2.8-6.1-4.7-9.9-5.2c-0.6-0.1-1.1-0.1-1.7-0.2L214.6,194.6z"/>
	<path class="st8" d="M217.8,221.4c0,0-2.7,0.2-6.1,0.2c-3.4,0-6.1,0-6.1,0s2.7-0.2,6.1-0.2C215.1,221.3,217.8,221.3,217.8,221.4z"
		/>
	<path class="st8" d="M217.8,224.5c0,0-2.7,0.2-6.1,0.2c-3.4,0-6.1,0-6.1,0s2.7-0.2,6.1-0.2C215.1,224.4,217.8,224.4,217.8,224.5z"
		/>
	<path class="st8" d="M217.9,227.6c0,0-2.7,0.2-6.1,0.2c-3.4,0-6.1,0-6.1,0s2.7-0.2,6.1-0.2C215.1,227.6,217.9,227.5,217.9,227.6z"
		/>
	<path class="st8" d="M106.8,231.2h0.3h0.7h2.6l0,0c0-0.6,0-1.2,0-1.9c0-0.4,0-0.7,0-1.1c0.1-0.4,0.4-0.8,0.9-0.8h1.2
		c0.5,0.1,0.9,0.5,0.9,1c0,0.9,0,1.8,0,2.8l-0.1-0.1h3.3l-0.1,0.1c0-1.3,0-2.7,0-4.1c0-0.4,0-0.7,0-1c0-0.3-0.2-0.6-0.5-0.8
		l-1.5-1.4l-1.4-1.4l-0.7-0.7c-0.2-0.2-0.4-0.5-0.7-0.5c-0.3-0.1-0.5,0-0.8,0.1c-0.2,0.2-0.4,0.4-0.6,0.6l-1.2,1.2
		c-0.7,0.8-1.5,1.5-2.1,2.1c-0.2,0.4-0.2,0.8-0.2,1.2v1.2c0,0.7,0,1.3,0,1.9s0,0.9,0,1.2c0,0.1,0,0.3,0,0.4c0-0.1,0-0.3,0-0.4
		c0-0.3,0-0.7,0-1.2v-1.9c0-0.4,0-0.8,0-1.2V226c0-0.2,0.1-0.5,0.2-0.7c0.6-0.8,1.3-1.4,2.1-2.2l1.2-1.2c0.2-0.2,0.4-0.4,0.6-0.6
		c0.3-0.2,0.6-0.3,1-0.2c0.3,0.1,0.6,0.3,0.8,0.6l0.7,0.7l1.4,1.4l1.4,1.4c0.1,0.1,0.3,0.3,0.4,0.4c0.1,0.2,0.2,0.4,0.2,0.6v1.1
		c0,1.4,0,2.8,0,4.1v0.1H113v-0.1c0-1,0-1.9,0-2.8c0-0.4-0.3-0.7-0.7-0.8c-0.4,0-0.8,0-1.2,0c-0.4,0-0.6,0.3-0.7,0.7
		c0,0.3,0,0.7,0,1.1c0,0.7,0,1.3,0,1.9l0,0L106.8,231.2L106.8,231.2z"/>
	<path class="st8" d="M189.7,340.5c0,0.5-13.1,0.9-29.2,0.9s-29.2-0.4-29.2-0.9c0-0.5,13.1-0.9,29.2-0.9S189.7,340.1,189.7,340.5z"
		/>
	
		<rect x="132.2" y="254.9" transform="matrix(5.585019e-03 -1 1 5.585019e-03 -132.9583 451.561)" class="st9" width="56.7" height="75.5"/>
	<polygon class="st9" points="122.7,320.8 149.2,285.7 165.4,307.8 176.6,296.1 198.1,321.2 	"/>
	<path class="st9" d="M172.5,281.5c0,3.3-2.7,5.9-6,5.9c-3.3,0-5.9-2.7-5.9-6c0-3.3,2.7-5.9,6-5.9
		C169.9,275.5,172.5,278.2,172.5,281.5C172.5,281.5,172.5,281.5,172.5,281.5z"/>
	<g class="st10">
		<polygon points="122.7,320.8 149.2,285.7 165.4,307.8 176.6,296.1 198.1,321.2 		"/>
	</g>
	<g class="st10">
		<path d="M172.5,281.5c0,3.3-2.7,5.9-6,5.9c-3.3,0-5.9-2.7-5.9-6c0-3.3,2.7-5.9,6-5.9C169.9,275.5,172.5,278.2,172.5,281.5
			C172.5,281.5,172.5,281.5,172.5,281.5z"/>
	</g>
	<path class="st8" d="M212.4,361.5c0,0.5-23.2,0.9-51.8,0.9s-51.8-0.4-51.8-0.9s23.1-0.9,51.8-0.9S212.4,361,212.4,361.5z"/>
	<path class="st8" d="M212.4,375.9c0,0.5-23.2,0.9-51.8,0.9s-51.8-0.4-51.8-0.9s23.2-0.9,51.8-0.9S212.4,375.4,212.4,375.9z"/>
	<path class="st8" d="M212.4,390.3c0,0.5-23.2,0.9-51.8,0.9s-51.8-0.4-51.8-0.9c0-0.5,23.2-0.9,51.8-0.9S212.4,389.9,212.4,390.3z"
		/>
	<path class="st8" d="M212.4,404.8c0,0.5-23.2,0.9-51.8,0.9s-51.8-0.4-51.8-0.9c0-0.5,23.1-0.9,51.8-0.9S212.4,404.3,212.4,404.8z"
		/>
	<path class="st8" d="M212.4,419.2c0,0.5-23.2,0.9-51.8,0.9s-51.8-0.4-51.8-0.9c0-0.5,23.2-0.9,51.8-0.9S212.4,418.7,212.4,419.2z"
		/>
	<path class="st8" d="M190.1,432.4c0,0.2-3.3,0.5-8.7,0.6s-12.8,0.3-21,0.3s-15.6-0.1-21-0.3c-5.4-0.2-8.7-0.4-8.7-0.6
		s3.3-0.5,8.7-0.6c5.4-0.1,12.8-0.3,21-0.3c8.2,0,15.7,0.1,21,0.3C186.8,432,190.1,432.2,190.1,432.4z"/>
	<path class="st0" d="M309.1,170.1h-12c-1.2-0.1-2.4,0-3.5,0.4c-1.2,0.5-2.2,1.4-2.9,2.5c-0.3,0.6-0.6,1.2-0.7,1.9
		c-0.1,0.7-0.1,1.4-0.1,2.1c0,0.7,0,1.5,0,2.2c0,0.8,0,1.5-0.1,2.3c-0.3,1.6-1.3,3-2.7,3.9c-0.7,0.4-1.5,0.7-2.4,0.8
		c-0.9,0-1.7,0-2.5,0H239c-0.6,0-1.1,0-1.7-0.2c-1.2-0.3-2.2-0.9-3-1.9c-0.8-0.9-1.3-2.1-1.5-3.3c0-0.6,0-1.2,0-1.8v-1.8
		c0.1-1.2,0-2.4-0.4-3.5c-0.4-1.1-1.2-2.1-2.2-2.8c-1-0.7-2.2-1-3.4-1h-27.9c-5.7-0.2-11.1,2.2-14.7,6.5c-1.8,2.2-3.1,4.8-3.8,7.7
		c-0.2,0.7-0.2,1.4-0.4,2.2c-0.1,0.7,0,1.2-0.1,1.9v295.4c-0.1,2,0.2,3.9,0.7,5.8c1.2,4,3.7,7.4,7.1,9.8c3.4,2.3,7.5,3.5,11.7,3.2
		h37.1h48.2h23.5c3.9,0,7.8,0,11.6,0c3.8-0.2,7.4-1.6,10.4-4c1.4-1.2,2.7-2.6,3.8-4.2c1-1.5,1.8-3.2,2.3-5c0.5-1.8,0.7-3.6,0.7-5.5
		v-27.7c0-58.1,0-110.4,0.1-154.3s0-79.5,0.1-104c0-3.1,0-6,0-8.7c0.1-2.5-0.4-5.1-1.4-7.4c-0.8-2-2-3.9-3.5-5.5
		c-1.2-1.3-2.6-2.5-4.2-3.4c-2.1-1.3-4.4-2.1-6.9-2.4c-0.6-0.1-1.2-0.2-1.9-0.2h-0.6h-2.5L309.1,170.1z"/>
	<path class="st8" d="M319.1,170h0.6c0.6,0,1.2,0,1.9,0.1c4.3,0.6,8.2,2.6,11.1,5.8c1.5,1.6,2.7,3.5,3.5,5.5c1,2.4,1.4,4.9,1.4,7.5
		c0,2.7,0,5.6,0,8.7c0,24.6,0,60.1,0,104.1s0,96.2,0,154.3v27.7c0,1.9-0.2,3.8-0.7,5.6c-0.5,1.8-1.3,3.6-2.4,5.2
		c-1.1,1.6-2.4,3-3.8,4.3c-3,2.5-6.8,3.9-10.7,4.1c-3.9,0.1-7.7,0-11.7,0H199.8c-4.3,0.2-8.5-0.9-12-3.3c-3.5-2.4-6.1-6-7.3-10.1
		c-0.6-2-0.8-4.1-0.8-6.2v-30.8c0-16.3,0-32.4,0-48.2c0-31.7,0-62.1,0-91.1s0-56.7,0-82.5c0-12.9,0-25.4,0-37.4v-4.5
		c0-0.8,0-1.5,0.1-2.2s0.2-1.5,0.4-2.2c0.7-2.9,2-5.6,3.9-7.8c1.9-2.2,4.2-3.9,6.8-5.1c2.6-1.1,5.4-1.6,8.2-1.6h27.6
		c1.3-0.1,2.6,0.3,3.6,1c1,0.7,1.8,1.8,2.3,3c0.3,1.2,0.5,2.4,0.4,3.6v1.8c0,0.6,0,1.1,0,1.7c0.1,1.1,0.6,2.2,1.4,3.1
		c0.8,0.8,1.7,1.4,2.8,1.7c0.5,0.1,1.1,0.2,1.7,0.2h8.3h24.3h10.7c0.8,0,1.7,0,2.5,0c0.8-0.1,1.6-0.4,2.3-0.8
		c1.3-0.8,2.2-2.2,2.6-3.7c0.1-0.7,0.2-1.5,0.1-2.3c0-0.7,0-1.5,0-2.2c0-0.7,0-1.4,0.1-2.2c0.1-0.7,0.4-1.4,0.7-2
		c0.7-1.2,1.7-2.1,3-2.6c1.2-0.4,2.4-0.5,3.7-0.4h12h7.4h2.5h-2.5h-19.1c-1.2-0.1-2.4,0-3.6,0.4c-1.2,0.5-2.2,1.4-2.9,2.5
		c-0.3,0.6-0.6,1.2-0.7,1.9c-0.1,0.7-0.1,1.4,0,2.1v2.2c0,0.8,0,1.5-0.1,2.3c-0.3,1.6-1.3,3-2.7,3.9c-0.7,0.4-1.5,0.7-2.3,0.8
		c-0.9,0-1.7,0-2.5,0h-43.3c-0.6,0-1.1-0.1-1.7-0.2c-1.2-0.3-2.2-0.9-3-1.8c-0.8-0.9-1.3-2-1.5-3.3c0-0.6,0-1.2,0-1.8v-1.4
		c0.1-1.2,0-2.4-0.4-3.5c-0.5-1.2-1.3-2.1-2.4-2.8c-1-0.7-2.2-1-3.4-1h-27.7c-5.7-0.2-11.1,2.2-14.8,6.6c-1.8,2.2-3.1,4.8-3.8,7.7
		c-0.2,0.7-0.2,1.4-0.4,2.2c-0.1,0.7,0,1.5-0.1,2.2v41.9c0,25.8,0,53.4,0,82.5v91.1c0,15.8,0,31.9,0,48.2v30.9
		c-0.1,2.1,0.2,4.1,0.8,6.1c1.2,4,3.7,7.4,7.1,9.8c3.4,2.3,7.5,3.5,11.7,3.2H237h48.2h23.5c3.9,0,7.8,0,11.6,0
		c3.8-0.2,7.4-1.6,10.4-4c1.4-1.2,2.7-2.6,3.7-4.2c1-1.5,1.8-3.2,2.3-5c0.5-1.8,0.7-3.6,0.7-5.5c0-1.9,0-3.7,0-5.6V456
		c0-58.1,0-110.4,0.1-154.3c0.1-43.9,0-79.5,0.1-104.1v-8.8c0.1-2.5-0.4-5.1-1.3-7.4c-0.8-2-2-3.9-3.5-5.5c-1.2-1.3-2.6-2.4-4.2-3.3
		c-2.6-1.6-5.7-2.5-8.7-2.6L319.1,170z"/>
	<path class="st8" d="M322.7,199.8c0,0-3.1,0.2-6.8,0.2c-3.8,0-6.8,0-6.8,0s3.1-0.2,6.8-0.2C319.6,199.8,322.7,199.8,322.7,199.8z"
		/>
	<path class="st8" d="M322.7,203.3c0,0-3.1,0.2-6.8,0.2c-3.8,0-6.8,0-6.8-0.1c0-0.1,3-0.2,6.8-0.2
		C319.6,203.2,322.7,203.2,322.7,203.3z"/>
	<path class="st8" d="M322.7,206.8c0,0-3,0.2-6.8,0.2c-3.8,0-6.8,0-6.8,0s3.1-0.2,6.8-0.2C319.7,206.8,322.7,206.7,322.7,206.8z"/>
	<path class="st8" d="M198.8,210.8h0.3h0.8h2.9l0,0c0-0.7,0-1.4,0-2.1c0-0.4,0-0.8,0-1.2c0.1-0.5,0.5-0.8,1-0.9c0.5,0,0.9,0,1.4,0
		c0.6,0.1,1,0.6,1,1.1c0,1,0,2,0,3.1l-0.1-0.1h3.7l-0.1,0.2c0-1.5,0-3,0-4.6V205c0-0.4-0.2-0.7-0.5-0.9l-1.7-1.7l-1.6-1.5l-0.8-0.7
		c-0.2-0.3-0.5-0.4-0.8-0.6c-0.3-0.1-0.6,0-0.8,0.2c-0.2,0.2-0.5,0.5-0.7,0.7l-1.3,1.3c-0.8,0.9-1.7,1.7-2.3,2.4
		c-0.2,0.4-0.2,0.9-0.2,1.4v1.3c0,0.8,0,1.5,0,2.1c0,0.6,0,1,0,1.3c0,0.4,0,0.5,0,0.5s0-0.2,0-0.4c0-0.3,0-0.8,0-1.3s0-1.3,0-2.1
		c0-0.4,0-0.9,0-1.3s0-0.5,0-0.7c0-0.3,0.1-0.5,0.2-0.8c0.7-0.8,1.5-1.6,2.3-2.5l1.3-1.4c0.2-0.2,0.4-0.5,0.7-0.7
		c0.3-0.2,0.7-0.3,1.1-0.2c0.3,0.1,0.7,0.3,0.9,0.6l0.8,0.8c0.5,0.5,1,1,1.6,1.5l1.7,1.7c0.1,0.1,0.3,0.3,0.4,0.4
		c0.1,0.2,0.2,0.4,0.2,0.6c0,0.4,0,0.8,0,1.2c0,1.6,0,3.1,0,4.6v0.1h-0.2h-3.7H206v-0.1c0-1.1,0-2.1,0-3.1c0-0.4-0.3-0.8-0.7-0.9
		c-0.4,0-0.9,0-1.3,0c-0.4,0-0.7,0.3-0.8,0.7c0,0.4,0,0.8,0,1.2v2.2h-4.1L198.8,210.8z"/>
	<path class="st9" d="M273,229.9c0,6.8-5.5,12.3-12.3,12.3c-6.8,0-12.3-5.5-12.3-12.3c0-6.8,5.5-12.3,12.3-12.3c0,0,0,0,0,0
		C267.5,217.6,273,223.1,273,229.9z"/>
	<path class="st11" d="M264.9,234.8h-8.4v-1c0-2.3,1.9-4.2,4.2-4.2l0,0c2.3,0,4.2,1.9,4.2,4.2V234.8z"/>
	<path class="st11" d="M263.1,227.4c0,1.4-1.1,2.5-2.5,2.5c-1.4,0-2.5-1.1-2.5-2.5c0-1.4,1.1-2.5,2.5-2.5c0,0,0,0,0,0
		C262,224.9,263.1,226,263.1,227.4C263.1,227.4,263.1,227.4,263.1,227.4z"/>
	<path class="st8" d="M291.3,262.4c0,0.5-14.6,1-32.6,1s-32.6-0.4-32.6-1s14.6-1,32.6-1C276.7,261.4,291.3,261.8,291.3,262.4z"/>
	
		<rect x="199.1" y="287.9" transform="matrix(5.585019e-03 -1 1 5.585019e-03 -96.9855 534.5039)" class="st9" width="42.3" height="56.3"/>
	<polygon class="st9" points="192,337 211.8,310.8 223.9,327.3 232.2,318.6 248.3,337.3 	"/>
	<path class="st9" d="M229.1,307.7c0,2.4-2,4.4-4.5,4.4c-2.4,0-4.4-2-4.4-4.5c0-2.4,2-4.4,4.5-4.4c0,0,0,0,0,0
		C227.2,303.3,229.2,305.3,229.1,307.7z"/>
	<g class="st10">
		<polygon points="192,337 211.8,310.8 223.9,327.3 232.2,318.6 248.3,337.3 		"/>
	</g>
	<g class="st10">
		<path d="M229.1,307.7c0,2.4-2,4.4-4.5,4.4c-2.4,0-4.4-2-4.4-4.5c0-2.4,2-4.4,4.5-4.4c0,0,0,0,0,0
			C227.2,303.3,229.2,305.3,229.1,307.7z"/>
	</g>
	
		<rect x="207.9" y="334.3" transform="matrix(5.585019e-03 -1 1 5.585019e-03 -143.9315 653.829)" class="st9" width="97.7" height="130"/>
	<polygon class="st9" points="191.5,447.8 237.3,387.3 265.2,425.4 284.4,405.2 321.5,448.5 	"/>
	<path class="st9" d="M277.4,380.1c0,5.7-4.6,10.2-10.3,10.2s-10.2-4.6-10.2-10.3c0-5.7,4.6-10.2,10.3-10.2c0,0,0,0,0,0
		C272.8,369.8,277.4,374.4,277.4,380.1C277.4,380,277.4,380,277.4,380.1z"/>
	<g class="st10">
		<polygon points="191.5,447.8 237.3,387.3 265.2,425.4 284.4,405.2 321.5,448.5 		"/>
	</g>
	<g class="st10">
		<path d="M277.4,380.1c0,5.7-4.6,10.2-10.3,10.2s-10.2-4.6-10.2-10.3c0-5.7,4.6-10.2,10.3-10.2c0,0,0,0,0,0
			C272.8,369.8,277.4,374.4,277.4,380.1C277.4,380,277.4,380,277.4,380.1z"/>
	</g>
	
		<rect x="273.4" y="287.9" transform="matrix(5.585019e-03 -1 1 5.585019e-03 -23.1446 608.7608)" class="st9" width="42.3" height="56.3"/>
	<polygon class="st9" points="266.3,337 286.1,310.8 298.1,327.3 306.4,318.6 322.5,337.3 	"/>
	<circle class="st9" cx="299" cy="307.7" r="4.4"/>
	<g class="st10">
		<polygon points="266.3,337 286.1,310.8 298.1,327.3 306.4,318.6 322.5,337.3 		"/>
	</g>
	<g class="st10">
		<circle cx="299" cy="307.7" r="4.4"/>
	</g>
	<path class="st0" d="M658.4,186.6h-10.7c-1.1-0.1-2.2,0-3.2,0.4c-1.7,0.7-2.9,2.2-3.2,4c-0.1,0.6-0.1,1.3-0.1,1.9v2
		c0,0.7,0,1.4-0.1,2c-0.3,1.4-1.2,2.7-2.4,3.5c-0.6,0.4-1.4,0.6-2.1,0.7c-0.8,0-1.5,0-2.3,0h-38.9c-0.5,0-1.1,0-1.6-0.2
		c-1-0.3-2-0.8-2.7-1.7c-0.7-0.8-1.2-1.8-1.3-2.9c0-0.6,0-1.1,0-1.7V193c0.1-1.1,0-2.1-0.3-3.2c-0.4-1-1-1.9-1.9-2.5
		c-0.9-0.6-2-0.9-3.1-0.9h-24.8c-5.1-0.2-10,2-13.2,5.9c-1.6,2-2.8,4.4-3.3,6.9c-0.1,0.6-0.2,1.3-0.3,1.9c0,0.6,0,1.1-0.1,1.7v264.9
		c0,1.8,0.2,3.5,0.7,5.2c1.1,3.6,3.3,6.7,6.4,8.8c3.1,2.1,6.8,3.1,10.5,2.9h33.3h43.2H658c3.5,0,7,0,10.4,0c3.4-0.2,6.6-1.5,9.3-3.6
		c1.3-1.1,2.4-2.3,3.3-3.7c0.9-1.4,1.6-2.9,2.1-4.5c0.4-1.6,0.7-3.3,0.6-4.9v-5c0-6.7,0-13.3,0-19.8c0-52.1,0-99,0-138.3
		s0-71.3,0.1-93.3c0-2.8,0-5.4,0-7.8c0-2.3-0.4-4.5-1.2-6.7c-1.4-3.3-3.8-6.1-6.8-8c-1.9-1.1-4-1.9-6.2-2.2
		c-0.7-0.1-1.3-0.1-1.7-0.2h-0.6L658.4,186.6L658.4,186.6z"/>
	<rect x="565.9" y="298.8" class="st4" width="93.1" height="19"/>
	<path class="st8" d="M667.6,186.5h0.6c0.6,0,1.1,0.1,1.7,0.1c3.8,0.5,7.4,2.4,10,5.2c1.3,1.5,2.4,3.2,3.2,5
		c0.8,2.1,1.3,4.4,1.2,6.7v7.8c0,22,0,53.9,0,93.3s0,86.3,0,138.3v24.8c0,1.7-0.2,3.4-0.6,5c-0.5,1.7-1.2,3.2-2.1,4.7
		c-0.9,1.4-2.1,2.7-3.4,3.8c-2.7,2.2-6.1,3.5-9.6,3.7c-3.5,0.1-6.9,0-10.4,0h-97.5c-3.8,0.2-7.6-0.8-10.8-3
		c-3.1-2.2-5.5-5.4-6.6-9.1c-0.5-1.8-0.8-3.7-0.7-5.6v-5.6c0-7.4,0-14.8,0-22.1v-43.2c0-28.3,0-55.7,0-81.7c0-26,0-50.8,0-74
		c0-11.6,0-22.8,0-33.5c0-1.4,0-2.7,0-4c0-0.7,0-1.3,0-2s0.2-1.3,0.3-2c1.8-7.9,8.9-13.3,17-13h24.8c1.2-0.1,2.3,0.3,3.3,0.9
		c0.9,0.7,1.6,1.6,2,2.7c0.3,1.1,0.4,2.2,0.3,3.3v1.7c0,0.5,0,1,0,1.6c0.1,1,0.6,2,1.3,2.8c0.6,0.8,1.5,1.3,2.5,1.6
		c0.5,0.1,1,0.2,1.5,0.2h7.5h21.8h9.6c0.8,0,1.5,0,2.3,0c0.7-0.1,1.4-0.3,2-0.7c1.2-0.7,2-2,2.3-3.3c0.1-0.7,0.2-1.3,0.1-2v-2
		c0-0.6,0-1.3,0.1-1.9c0.1-0.6,0.3-1.2,0.6-1.8c0.6-1.1,1.5-1.9,2.7-2.3c1.1-0.3,2.2-0.5,3.3-0.4h10.7h6.7h2.3h-2.3H648
		c-1.1-0.1-2.2,0-3.2,0.4c-1.1,0.4-2,1.2-2.6,2.3c-0.3,0.5-0.5,1.1-0.6,1.7c-0.1,0.6-0.1,1.3,0,1.9v2c0,0.7,0,1.4-0.1,2.1
		c-0.3,1.4-1.2,2.7-2.4,3.5c-0.6,0.4-1.4,0.7-2.1,0.8c-0.8,0-1.5,0-2.3,0h-39c-0.5,0-1.1,0-1.6-0.2c-2.1-0.6-3.7-2.4-4-4.6
		c0-0.6,0-1.1,0-1.7v-1.7c0.1-1.1,0-2.1-0.3-3.2c-0.7-2.1-2.8-3.5-5-3.3h-24.8c-2.5-0.1-4.9,0.4-7.2,1.4c-4.8,2.1-8.3,6.3-9.4,11.4
		c-0.2,0.6-0.2,1.3-0.3,1.9s-0.1,1.3-0.1,2v37.5c0,23.2,0,47.9,0,74v81.7c0,14.2,0,28.6,0,43.2v27.7c-0.1,1.8,0.2,3.7,0.7,5.5
		c1.1,3.6,3.3,6.7,6.4,8.8c3.1,2.1,6.8,3.1,10.5,2.9h33.3h43.2h21.1c3.5,0,7,0,10.4,0c3.4-0.2,6.7-1.5,9.3-3.6
		c1.3-1.1,2.4-2.3,3.3-3.7c0.9-1.4,1.6-2.9,2.1-4.5c0.4-1.6,0.6-3.3,0.6-5v-24.5c0-52.1,0-99,0.1-138.3s0-71.3,0.1-93.3
		c0-2.8,0-5.4,0-7.8c0-2.3-0.4-4.5-1.2-6.7c-0.7-1.8-1.8-3.5-3.1-4.9c-1.1-1.2-2.3-2.2-3.7-3.1c-1.9-1.1-4-1.9-6.2-2.2
		c-0.6-0.1-1.1-0.1-1.7-0.2L667.6,186.5z"/>
	<path class="st8" d="M670.8,213.3c0,0-2.7,0.2-6.1,0.2c-3.4,0-6.1,0-6.1-0.1c0-0.1,2.7-0.2,6.1-0.2
		C668,213.1,670.8,213.2,670.8,213.3z"/>
	<path class="st8" d="M670.8,216.4c0,0.1-2.7,0.2-6.1,0.2c-3.4,0-6.1,0-6.1-0.1c0-0.1,2.7-0.2,6.1-0.2
		C668.1,216.3,670.8,216.3,670.8,216.4z"/>
	<path class="st8" d="M670.8,219.5c0,0-2.7,0.2-6.1,0.2s-6.1,0-6.1-0.1c0-0.1,2.7-0.2,6.1-0.2S670.8,219.4,670.8,219.5z"/>
	<path class="st8" d="M559.7,223.1c0,0,0.1,0,0.3,0h0.7h2.6l0,0c0-0.6,0-1.2,0-1.9c0-0.4,0-0.7,0-1.1c0.1-0.4,0.4-0.8,0.9-0.8
		c0.4,0,0.8,0,1.3,0c0.5,0.1,0.9,0.5,0.9,1c0,0.9,0,1.8,0,2.8l-0.1-0.1h3.3l-0.1,0.1c0-1.3,0-2.7,0-4.1v-1c0-0.3-0.2-0.6-0.5-0.8
		l-1.4-1.4l-1.4-1.4l-0.7-0.7c-0.2-0.2-0.4-0.5-0.7-0.5c-0.3-0.1-0.5,0-0.8,0.1c-0.2,0.2-0.4,0.4-0.6,0.6l-1.2,1.2
		c-0.8,0.8-1.5,1.5-2.1,2.1c-0.2,0.4-0.2,0.8-0.2,1.2v1.2c0,0.7,0,1.3,0,1.9s0,0.9,0,1.2v0.4c0-0.1,0-0.3,0-0.4c0-0.3,0-0.7,0-1.2
		v-1.9c0-0.4,0-0.8,0-1.2v-0.7c0-0.2,0.1-0.5,0.2-0.7c0.6-0.8,1.3-1.4,2.1-2.2c0.4-0.4,0.8-0.8,1.2-1.2c0.2-0.2,0.4-0.4,0.6-0.6
		c0.3-0.2,0.6-0.3,1-0.2c0.3,0.1,0.6,0.3,0.8,0.6l0.7,0.7l1.4,1.4l1.5,1.4c0.1,0.1,0.3,0.3,0.4,0.4c0.1,0.2,0.2,0.4,0.2,0.6
		c0,0.4,0,0.7,0,1.1c0,1.4,0,2.8,0,4.1v0.1h-0.1h-3.3h-0.1v-0.1c0-1,0-1.9,0-2.8c0-0.4-0.3-0.7-0.7-0.8h-1.2c-0.3,0-0.6,0.3-0.7,0.6
		c0,0.3,0,0.7,0,1.1v2H560L559.7,223.1z"/>
	<rect x="566.1" y="327.1" class="st4" width="93.1" height="19"/>
	<rect x="566.1" y="354.7" class="st4" width="93.1" height="19"/>
	<path class="st9" d="M636.8,411.5h-46.7c-5.3,0-9.5-4.3-9.5-9.5l0,0c0-5.2,4.3-9.5,9.5-9.5l0,0h46.7c5.2,0,9.5,4.3,9.5,9.5
		c0,0,0,0,0,0l0,0C646.3,407.3,642,411.5,636.8,411.5z"/>
	<path class="st8" d="M642.4,279.1c0,0.5-13.1,0.9-29.2,0.9s-29.2-0.4-29.2-0.9c0-0.5,13.1-0.9,29.2-0.9S642.4,278.7,642.4,279.1z"
		/>
	<path class="st0" d="M582.1,166.9h-12c-1.2-0.1-2.4,0-3.6,0.4c-1.2,0.5-2.2,1.4-2.9,2.5c-0.3,0.6-0.6,1.2-0.7,1.9
		c-0.1,0.7-0.1,1.4-0.1,2.1v2.2c0,0.8,0,1.5-0.2,2.3c-0.3,1.6-1.3,3-2.7,3.9c-0.7,0.4-1.5,0.7-2.4,0.8c-0.9,0-1.7,0-2.5,0h-43.3
		c-0.6,0-1.1,0-1.7-0.2c-1.2-0.3-2.2-0.9-3-1.9c-0.8-0.9-1.3-2.1-1.5-3.3c0-0.6,0-1.2,0-1.8v-1.8c0.1-1.2,0-2.4-0.4-3.5
		c-0.4-1.1-1.1-2.1-2.1-2.8c-1-0.7-2.2-1-3.5-1h-27.8c-5.7-0.2-11.1,2.2-14.7,6.5c-1.8,2.2-3.1,4.8-3.8,7.7
		c-0.2,0.7-0.2,1.4-0.4,2.2c-0.1,0.7,0,1.2,0,1.9v295.4c-0.1,2,0.2,3.9,0.8,5.8c1.2,4,3.7,7.5,7.1,9.8c3.4,2.3,7.5,3.5,11.7,3.2
		h37.1H558h23.5c3.9,0,7.8,0,11.6,0c3.8-0.2,7.4-1.6,10.4-4c1.4-1.2,2.7-2.6,3.8-4.2c1-1.5,1.8-3.2,2.3-5c0.5-1.8,0.7-3.6,0.7-5.5
		V475c0-7.4,0-14.8,0-22.1c0-58.1,0-110.4,0.1-154.3s0-79.5,0.1-104c0-3.1,0-6,0-8.7c0.1-2.5-0.4-5.1-1.4-7.4c-0.8-2-2-3.9-3.5-5.5
		c-2.9-3.2-6.8-5.2-11-5.8c-0.6-0.1-1.2-0.2-1.9-0.2H592h-2.5L582.1,166.9z"/>
	<path class="st8" d="M592.1,167.2h0.6c0.6,0,1.2,0.1,1.9,0.2c2.4,0.3,4.8,1.1,6.9,2.4c1.6,0.9,3,2,4.2,3.3c1.5,1.6,2.7,3.5,3.5,5.5
		c1,2.4,1.4,4.9,1.4,7.5c0,2.7,0,5.6,0,8.7c0,24.6,0,60.1,0,104.1s0,96.2,0,154.3v27.6c0,1.9-0.2,3.8-0.7,5.6
		c-0.5,1.8-1.3,3.6-2.4,5.2c-1.1,1.6-2.4,3-3.8,4.3c-3,2.5-6.8,3.9-10.7,4.1c-3.9,0.1-7.7,0-11.6,0H472.8c-4.3,0.2-8.5-0.9-12-3.3
		c-3.5-2.4-6.1-6-7.3-10.1c-0.6-2-0.8-4.1-0.8-6.3v-30.8c0-16.3,0-32.4,0-48.2c0-31.7,0-62.1,0-91.1c0-29,0-56.7,0-82.5
		c0-12.9,0-25.4,0-37.4v-4.5c0-0.8,0-1.5,0.1-2.3c0.1-0.8,0.2-1.5,0.4-2.2c0.7-2.9,2-5.6,3.9-7.8c1.9-2.2,4.2-3.9,6.8-5.1
		c2.6-1.1,5.4-1.6,8.2-1.6h27.6c1.3-0.1,2.6,0.3,3.6,1c1,0.7,1.8,1.8,2.3,3c0.4,1.2,0.5,2.4,0.4,3.6v1.8c0,0.6,0,1.2,0,1.8
		c0.1,1.1,0.6,2.2,1.4,3.1c0.7,0.8,1.7,1.4,2.8,1.7c0.5,0.1,1.1,0.2,1.7,0.2h8.3h24.3h10.9c0.8,0,1.7,0,2.5,0
		c0.8-0.1,1.6-0.4,2.3-0.8c1.3-0.8,2.2-2.2,2.6-3.7c0.1-0.7,0.2-1.5,0.1-2.3V174c0-0.7,0-1.4,0.1-2.2c0.1-0.7,0.3-1.4,0.7-2
		c0.7-1.2,1.7-2.1,3-2.6c1.2-0.4,2.4-0.5,3.7-0.4h12h7.4h2.5h-2.5h-19.2c-1.2-0.1-2.4,0-3.6,0.4c-1.2,0.5-2.2,1.4-2.9,2.5
		c-0.3,0.6-0.6,1.2-0.7,1.9c-0.1,0.7-0.1,1.4-0.1,2.1v2.2c0,0.8,0,1.5-0.1,2.3c-0.3,1.6-1.3,3-2.7,3.9c-0.7,0.5-1.5,0.7-2.4,0.8
		c-0.9,0-1.7,0-2.5,0H512c-0.6,0-1.1,0-1.7-0.2c-1.2-0.3-2.2-0.9-3-1.8c-0.8-0.9-1.3-2.1-1.5-3.3c0-0.6,0-1.2,0-1.8v-1.8
		c0.1-1.2,0-2.4-0.4-3.5c-0.4-1.1-1.2-2.1-2.2-2.8c-1-0.7-2.2-1-3.4-1h-27.8c-2.8-0.1-5.5,0.4-8.1,1.5c-5.3,2.3-9.2,7-10.5,12.7
		c-0.2,0.7-0.2,1.4-0.4,2.2s-0.1,1.5-0.1,2.2v4.5c0,12,0,24.5,0,37.4v221.9c0,8.2,0,16.4,0,24.7v6.2c-0.1,2.1,0.2,4.1,0.8,6.1
		c1.2,4,3.7,7.4,7.1,9.8c3.4,2.3,7.5,3.5,11.7,3.2h108.8c3.9,0,7.8,0,11.6,0c3.7-0.1,7.4-1.3,10.4-3.5c1.4-1.2,2.7-2.6,3.8-4.1
		c1-1.5,1.8-3.2,2.3-5c0.5-1.8,0.7-3.6,0.7-5.5v-27.8c0-58.1,0-110.4,0.1-154.3s0.1-79.5,0.1-104.1v-8.7c0.1-2.5-0.4-5.1-1.3-7.4
		c-0.8-2-2-3.9-3.5-5.5c-1.2-1.3-2.6-2.4-4.2-3.3c-2.1-1.3-4.4-2.1-6.9-2.4c-0.6-0.1-1.2-0.2-1.9-0.2L592.1,167.2z"/>
	<path class="st8" d="M595.7,197c0,0-3.1,0.2-6.8,0.2s-6.9,0-6.9,0s3.1-0.2,6.8-0.2C592.6,197,595.7,196.9,595.7,197z"/>
	<path class="st8" d="M595.7,200.5c0,0-3.1,0.2-6.8,0.2c-3.8,0-6.8,0-6.8,0s3.1-0.2,6.8-0.2C592.6,200.5,595.7,200.4,595.7,200.5z"
		/>
	<path class="st8" d="M595.7,204c0,0.1-3,0.2-6.8,0.2s-6.8,0-6.8,0s3-0.2,6.8-0.2S595.7,203.9,595.7,204z"/>
	<path class="st8" d="M471.8,208c0,0,0.1,0,0.3,0h0.8h2.9l-0.1,0.1c0-0.7,0-1.4,0-2.1c0-0.4,0-0.8,0-1.2c0.1-0.5,0.5-0.8,1-0.9
		c0.5,0,0.9,0,1.4,0c0.6,0.1,1,0.6,1,1.1c0,1,0,2,0,3.1l-0.1-0.1h3.7l-0.1,0.2c0-1.5,0-3,0-4.6v-1.3c0-0.4-0.2-0.7-0.5-0.9l-1.7-1.7
		l-1.6-1.5l-0.8-0.7c-0.3-0.3-0.5-0.5-0.8-0.6c-0.3-0.1-0.6,0-0.8,0.2c-0.2,0.2-0.5,0.5-0.7,0.7l-1.3,1.3c-0.8,0.9-1.7,1.7-2.3,2.4
		c-0.2,0.4-0.3,0.9-0.2,1.4v1.3c0,0.8,0,1.5,0,2.1c0,0.6,0,1,0,1.3C471.9,207.6,471.9,207.8,471.8,208c0,0,0-0.2,0-0.5s0-0.8,0-1.3
		s0-1.3,0-2.1c0-0.4,0-0.9,0-1.3s0-0.5,0-0.7c0-0.3,0.1-0.5,0.2-0.8c0.7-0.8,1.5-1.6,2.3-2.5l1.3-1.3c0.2-0.2,0.5-0.5,0.7-0.7
		c0.3-0.2,0.7-0.3,1.1-0.2c0.3,0.1,0.6,0.4,0.9,0.6l0.8,0.7l1.6,1.5l1.7,1.6c0.2,0.1,0.3,0.3,0.4,0.5c0.1,0.2,0.2,0.4,0.2,0.6
		c0,0.4,0,0.8,0,1.2c0,1.6,0,3.1,0,4.6v0.2h-4v-0.1c0-1.1,0-2.1,0-3.1c0-0.4-0.3-0.8-0.7-0.9c-0.4,0-0.9,0-1.3,0
		c-0.4,0-0.7,0.3-0.8,0.7c0,0.4,0,0.8,0,1.2v2.2l0,0h-3h-1L471.8,208z"/>
	
		<ellipse transform="matrix(0.153 -0.9882 0.9882 0.153 178.7005 761.858)" class="st9" cx="533.8" cy="276.7" rx="30.8" ry="30.8"/>
	<path class="st11" d="M544.4,289.1h-21.1v-2.6c0-5.8,4.7-10.6,10.6-10.6l0,0c5.8,0,10.6,4.7,10.6,10.6V289.1z"/>
	<circle class="st11" cx="533.8" cy="270.5" r="6.2"/>
	<rect x="478.9" y="342.8" class="st4" width="103.8" height="21.2"/>
	<rect x="478.9" y="373.5" class="st4" width="103.8" height="21.2"/>
	<path class="st9" d="M557.8,436.9h-52.1c-5.8,0-10.6-4.7-10.6-10.6c0,0,0,0,0,0l0,0c0-5.9,4.7-10.6,10.6-10.6h52.1
		c5.9,0,10.6,4.7,10.6,10.6l0,0C568.4,432.1,563.6,436.9,557.8,436.9z"/>
	<path class="st8" d="M564.3,330c0,0.5-14.6,1-32.6,1c-18,0-32.6-0.4-32.6-1s14.6-1,32.6-1C549.7,329,564.3,329.5,564.3,330z"/>
	<path class="st5" d="M493.3,358h-4.6c-0.4,0-0.8-0.3-0.8-0.8c0,0,0,0,0,0l0,0c0-1.7,1.3-3.1,3-3.1c0,0,0,0,0,0h0.1
		c1.7,0,3.1,1.4,3.1,3.1l0,0C494,357.7,493.7,358,493.3,358z"/>
	<path class="st5" d="M492.8,352.6c0,1-0.8,1.8-1.8,1.8c-1,0-1.8-0.8-1.8-1.8c0-1,0.8-1.8,1.8-1.8
		C492,350.7,492.8,351.5,492.8,352.6C492.8,352.5,492.8,352.6,492.8,352.6z"/>
	<rect x="488.2" y="384.5" class="st5" width="5.5" height="3.9"/>
	<path class="st5" d="M494.3,385.3h-1.8v-1.2c0-0.9-0.7-1.5-1.6-1.5c-0.9,0-1.5,0.7-1.5,1.5v1.2h-1.8v-1.2c0-1.9,1.5-3.4,3.4-3.4
		c1.9,0,3.4,1.5,3.4,3.4V385.3z"/>
	<path class="st0" d="M472.2,101.9h-17.8c-1.8-0.2-3.6,0-5.4,0.6c-1.8,0.7-3.3,2.1-4.2,3.8c-0.5,0.9-0.8,1.8-1,2.9
		c-0.1,1-0.2,2.1-0.1,3.1v3.3c0.1,1.1,0,2.2-0.2,3.3c-0.5,2.4-1.9,4.4-4,5.7c-1.1,0.7-2.3,1.1-3.5,1.3c-1.3,0.1-2.5,0-3.8,0h-64.7
		c-0.9,0-1.7-0.1-2.6-0.3c-1.7-0.4-3.3-1.4-4.4-2.8c-1.2-1.4-2-3-2.2-4.8c-0.1-0.9-0.1-1.8-0.1-2.7v-2.5c0.2-1.8,0-3.5-0.5-5.3
		c-0.6-1.7-1.7-3.1-3.2-4.2c-1.5-1-3.3-1.5-5.1-1.4h-41.1c-8.4-0.3-16.5,3.3-22,9.7c-2.7,3.3-4.7,7.2-5.7,11.4
		c-0.3,1-0.4,2.1-0.6,3.2c-0.2,1.1-0.1,1.8-0.1,2.7v439.4c-0.1,2.9,0.3,5.8,1.1,8.7c1.8,5.9,5.5,11.1,10.6,14.6
		c5.1,3.5,11.3,5.2,17.5,4.8h55.3h71.8h35c5.8,0,11.5,0.1,17.2,0c5.6-0.3,11-2.4,15.4-6c2.1-1.8,4-3.9,5.6-6.2
		c1.5-2.3,2.7-4.9,3.4-7.5c0.7-2.7,1.1-5.4,1-8.2v-8.3c0-11.1,0-22,0-32.8c0-86.5,0.1-164.3,0.1-229.7s0.1-118.3,0.2-154.9
		c0-4.6,0-8.9,0-13c0.1-3.8-0.6-7.5-2-11.1c-1.2-3-3-5.8-5.2-8.2c-1.8-2-3.9-3.7-6.2-5c-3.1-1.9-6.6-3.1-10.2-3.6
		c-0.9-0.1-1.9-0.2-2.8-0.3h-0.9h-3.7L472.2,101.9z"/>
	<path class="st8" d="M487.1,102h1c0.9,0,1.9,0.1,2.8,0.2c3.6,0.4,7.1,1.7,10.3,3.6c2.3,1.3,4.4,3,6.3,5c2.2,2.4,4,5.2,5.2,8.2
		c1.4,3.5,2.1,7.3,2.1,11.1c0,4.1,0,8.3,0,12.9c0,36.5,0,89.3,0,154.6s0,143,0,229.3v41.1c0,2.8-0.3,5.6-1.1,8.3
		c-0.8,2.7-1.9,5.3-3.5,7.7c-1.6,2.4-3.5,4.5-5.7,6.3c-4.5,3.7-10,5.8-15.8,6.2c-5.7,0.2-11.5,0-17.2,0h-34.7h-71.7h-55.1
		c-6.3,0.3-12.6-1.4-17.9-5c-5.2-3.6-9-8.9-10.9-15c-0.9-3-1.3-6.1-1.2-9.3v-9.1c0-12.3,0-24.5,0-36.7c0-24.2,0-48.1,0-71.7
		c0-47,0-92.2,0-135.4s0-84.2,0-122.5c0-19.2,0-37.7,0-55.5c0-2.2,0-4.4,0-6.7c0-1.1,0.1-2.2,0.2-3.3c0.1-1.1,0.3-2.2,0.6-3.3
		c1-4.3,3-8.3,5.8-11.7c5.5-6.6,13.8-10.2,22.4-9.9h23.9h17.1c1.9-0.1,3.8,0.4,5.4,1.5c1.5,1.1,2.7,2.6,3.3,4.4
		c0.5,1.7,0.7,3.6,0.6,5.4v2.7c-0.1,0.9-0.1,1.7,0,2.6c0.2,1.7,0.9,3.3,2.1,4.6c1.1,1.3,2.6,2.2,4.2,2.6c0.8,0.2,1.6,0.3,2.5,0.3
		h12.4h36.1h15.9c1.3,0,2.5,0,3.7,0c1.2-0.1,2.3-0.5,3.3-1.2c2-1.2,3.4-3.2,3.8-5.5c0.2-1.1,0.3-2.2,0.2-3.3c0-1.1,0-2.2,0-3.3
		c0-1.1,0-2.1,0.1-3.2c0.2-1,0.5-2,1-2.9c1-1.8,2.5-3.1,4.4-3.9c1.8-0.6,3.6-0.8,5.4-0.6h17.8h10.9h3.7h-3.7h-10.9h-17.8
		c-1.8-0.2-3.6,0-5.4,0.6c-1.8,0.7-3.3,2.1-4.2,3.8c-0.5,0.9-0.8,1.9-1,2.9c-0.1,1-0.2,2.1-0.1,3.2v3.3c0.1,1.1,0,2.2-0.2,3.3
		c-0.5,2.4-1.9,4.4-4,5.7c-1.1,0.7-2.2,1.1-3.5,1.2c-1.3,0.1-2.5,0-3.8,0h-64.2c-0.9,0-1.7-0.1-2.6-0.3c-1.7-0.4-3.3-1.4-4.4-2.7
		c-1.2-1.4-1.9-3-2.2-4.8c-0.1-0.9-0.1-1.8,0-2.7v-2.7c0.1-1.8,0-3.5-0.5-5.3c-0.6-1.7-1.7-3.1-3.2-4.2c-1.5-1-3.3-1.5-5.1-1.4h-41
		c-8.4-0.3-16.5,3.3-21.9,9.7c-2.7,3.3-4.7,7.2-5.6,11.4c-0.3,1.1-0.4,2.1-0.6,3.2c-0.2,1.1-0.1,2.2-0.2,3.3v6.7
		c0,17.8,0,36.3,0,55.5c0,38.3,0,79.4,0,122.5s0,88.4,0,135.4v71.7c0,12.1,0,24.3,0,36.7v9.7c-0.1,3.1,0.3,6.1,1.1,9.1
		c1.8,5.9,5.5,11.1,10.6,14.6c5.1,3.5,11.2,5.1,17.4,4.8h55.1h71.7h34.7c5.8,0,11.5,0.1,17.2,0c5.6-0.3,11-2.4,15.4-6
		c2.1-1.8,4-3.9,5.6-6.2c1.5-2.3,2.6-4.9,3.3-7.5c0.7-2.7,1.1-5.4,1-8.2v-8.3c0-11,0-22,0-32.8c0-86.3,0.1-164,0.1-229.3
		s0.1-118.1,0.2-154.6c0-4.6,0-8.9,0-12.9c0.1-3.8-0.6-7.5-2-11c-1.2-3-3-5.8-5.2-8.1c-1.8-2-3.9-3.7-6.2-5
		c-3.1-1.9-6.6-3.1-10.2-3.6c-0.9-0.1-1.8-0.2-2.8-0.3L487.1,102z"/>
	<path class="st8" d="M492.4,146.3c0,0.1-4.5,0.3-10.1,0.3s-10.1,0-10.1-0.1c0-0.1,4.5-0.3,10.1-0.3S492.4,146.2,492.4,146.3z"/>
	<path class="st8" d="M492.5,151.5c0,0.1-4.5,0.3-10.1,0.3c-5.6,0-10.1,0-10.1-0.1s4.5-0.3,10.1-0.3S492.5,151.4,492.5,151.5z"/>
	<path class="st8" d="M492.5,156.7c0,0.1-4.5,0.3-10.1,0.3s-10.1,0-10.1-0.1c0-0.1,4.5-0.3,10.1-0.3
		C488,156.5,492.5,156.6,492.5,156.7z"/>
	<path class="st8" d="M308.4,162.6h0.4h1.2l4.3-0.1l-0.1,0.1c0-1,0-2,0-3.1c0-0.6,0-1.1,0-1.8c0.1-0.7,0.7-1.2,1.5-1.3
		c0.7,0,1.3,0,2.1,0c0.8,0.1,1.4,0.8,1.4,1.7c0,1.5,0,3,0,4.6l-0.2-0.2h5.5l-0.2,0.2c0-2.2,0-4.5,0-6.8c0-0.6,0-1.2,0-1.7
		c-0.1-0.5-0.3-1-0.8-1.3l-2.4-2.4l-2.4-2.5l-1.1-1.1c-0.4-0.4-0.7-0.8-1.1-0.8c-0.4-0.1-0.9,0-1.3,0.2c-0.3,0.3-0.7,0.7-1,1l-2,2
		c-1.2,1.3-2.5,2.5-3.5,3.6c-0.3,0.6-0.4,1.3-0.3,2v1.9c0,1.2,0,2.2,0,3.1s0,1.5,0,2C308.5,162.1,308.5,162.4,308.4,162.6
		c0,0,0-0.2,0-0.7c0-0.5,0-1.2,0-2s0-1.9,0-3.1c0-0.6,0-1.3,0-2c0-0.4,0-0.7,0-1.1c0-0.4,0.1-0.8,0.3-1.2c1-1.2,2.2-2.3,3.5-3.6
		l1.9-2c0.4-0.3,0.6-0.7,1.1-1c0.5-0.3,1-0.5,1.6-0.3c0.5,0.2,1,0.5,1.3,0.9l1.1,1.1c0.8,0.7,1.5,1.5,2.3,2.3l2.1,2.3
		c0.2,0.2,0.4,0.4,0.6,0.7c0.2,0.3,0.3,0.6,0.3,0.9v1.7c0,2.3,0,4.6,0,6.8v0.2h-0.2h-5.5h-0.2v-0.2c0-1.7,0-3.1,0-4.6
		c0-0.6-0.5-1.2-1.1-1.3c-0.6,0-1.4,0-2,0c-0.6,0.1-1,0.5-1.2,1.1c0,0.6,0,1.2,0,1.7v3.3h-0.1h-4.4h-1.2
		C308.6,162.6,308.5,162.6,308.4,162.6z"/>
	<path class="st6" d="M315,189.9h161.8c8.1,0,14.7,6.6,14.7,14.7v5.5c0,8.1-6.6,14.7-14.7,14.7H315c-8.1,0-14.7-6.6-14.7-14.7v-5.5
		C300.3,196.5,306.9,189.9,315,189.9z"/>
	<path class="st8" d="M476.7,224.7l1.1-0.1c2.8-0.2,5.5-1.3,7.8-3c1.9-1.5,3.4-3.3,4.4-5.5c0.6-1.3,1-2.6,1.2-4.1
		c0.1-1.6,0.2-3.1,0.1-4.7c0.1-1.7,0-3.4-0.2-5.1c-0.3-1.8-1-3.5-1.9-5c-2.1-3.5-5.6-5.9-9.6-6.7c-2.2-0.3-4.4-0.4-6.7-0.3h-7.1
		l-150.8,0.1c-7.4,0-13.6,5.7-14.2,13.1c-0.1,1.7,0,3.6,0,5.3c-0.1,1.7,0.1,3.5,0.5,5.2c1,3.3,3.1,6.2,5.9,8.1c1.4,0.9,3,1.6,4.6,2
		c1.6,0.3,3.3,0.4,5,0.4h29.7h67.8l45.7,0.1h12.4h3.2h1.1c0,0-0.4,0-1.1,0h-3.2H460l-45.7,0.1h-67.8h-29.7c-1.7,0.1-3.5,0-5.2-0.4
		c-1.7-0.4-3.4-1.1-4.9-2.1c-3-2-5.2-5-6.2-8.5c-0.5-1.7-0.7-3.5-0.6-5.4c0-1.8,0-3.5,0-5.4c0.6-7.8,7.2-13.8,15-13.8l150.8,0.1h7.1
		c2.2-0.1,4.5,0,6.7,0.3c6.1,1.2,10.8,6.1,11.8,12.2c0.2,1.7,0.3,3.4,0.2,5.2c0,1.6,0,3.1-0.2,4.7c-0.2,1.4-0.6,2.8-1.2,4.1
		c-1,2.2-2.6,4.1-4.5,5.6c-1.4,1.1-3,1.9-4.7,2.4c-1,0.3-2.1,0.5-3.2,0.6C477.1,224.7,476.7,224.7,476.7,224.7z"/>
	<path class="st8" d="M479.6,206.5c0,0,0-0.6-0.3-1.5c-0.4-1.3-1.2-2.5-2.3-3.3c-2.7-2-6.4-1.4-8.4,1.2c-2,2.7-1.4,6.4,1.2,8.4
		c2.1,1.6,5,1.6,7.1,0c1.1-0.8,1.9-2,2.3-3.3C479.6,207,479.6,206.4,479.6,206.5c0.1-0.1,0,0.1,0,0.3c0,0.4,0,0.8-0.1,1.2
		c-0.3,1.4-1.1,2.7-2.3,3.6c-1.8,1.4-4.1,1.8-6.2,1c-3.4-1.3-5.1-5.2-3.8-8.6c0.7-1.7,2.1-3.1,3.8-3.8c2.1-0.7,4.5-0.4,6.2,1
		c1.2,0.9,2,2.2,2.3,3.6c0.1,0.4,0.1,0.8,0.1,1.2C479.7,206.3,479.7,206.5,479.6,206.5z"/>
	<path class="st8" d="M483.1,217.4c-1.2-0.8-2.2-1.7-3.1-2.8c-1-1-1.9-2.1-2.6-3.3c1.2,0.8,2.2,1.7,3.1,2.8
		C481.6,215,482.5,216.1,483.1,217.4z"/>
	<path class="st5" d="M326.1,203.9h-3.3V203h7.8v0.9h-3.3v8.8h-1L326.1,203.9z"/>
	<path class="st5" d="M337.5,209.3h-6.1c0.1,1.5,1.4,2.6,2.9,2.5c0,0,0,0,0,0c0.9,0,1.7-0.3,2.2-1l0.6,0.7c-1.4,1.6-3.9,1.6-5.4,0.2
		c-0.8-0.7-1.2-1.7-1.2-2.7c-0.1-1.9,1.4-3.6,3.3-3.7c0.1,0,0.2,0,0.2,0c1.9,0,3.5,1.5,3.5,3.4c0,0.1,0,0.2,0,0.3L337.5,209.3z
		 M331.4,208.6h5.2c0-1.4-1.2-2.6-2.6-2.6S331.4,207.2,331.4,208.6z"/>
	<path class="st5" d="M344,212.7l-2.3-3.1l-2.3,3.1h-1.1l2.9-3.8l-2.8-3.6h1.1l2.2,2.9l2.2-2.9h1.1l-2.7,3.6l2.9,3.7L344,212.7z"/>
	<path class="st5" d="M350.6,212.2c-0.4,0.3-1,0.5-1.6,0.5c-1.1,0.1-2-0.7-2.1-1.7c0-0.1,0-0.3,0-0.4v-4.4h-1.3v-0.8h1.4v-1.7h1v1.7
		h2.2v0.8h-2.2v4.3c-0.1,0.6,0.4,1.2,1,1.3c0.1,0,0.2,0,0.3,0c0.4,0,0.8-0.1,1.1-0.4L350.6,212.2z"/>
	<path class="st9" d="M430.6,257.8c0,0.2-14,0.4-31.2,0.4s-31.2-0.2-31.2-0.4s14-0.4,31.2-0.4S430.6,257.6,430.6,257.8z"/>
	<path class="st8" d="M480.4,270.6c0,0.2-25.1,0.4-56.1,0.4s-56.1-0.2-56.1-0.4s25.1-0.4,56.1-0.4S480.4,270.4,480.4,270.6z"/>
	<path class="st8" d="M479.1,279.8c0,0.2-24.8,0.4-55.5,0.4s-55.5-0.1-55.5-0.4s24.8-0.4,55.5-0.4S479.1,279.6,479.1,279.8z"/>
	<path class="st8" d="M433.6,288.5c0,0.2-14.7,0.4-32.8,0.4c-18.1,0-32.8-0.2-32.8-0.4s14.7-0.4,32.8-0.4
		C419,288.2,433.6,288.3,433.6,288.5z"/>
	<path class="st9" d="M430.6,327.5c0,0.2-14,0.4-31.2,0.4s-31.2-0.2-31.2-0.4c0-0.2,14-0.4,31.2-0.4S430.6,327.2,430.6,327.5z"/>
	<path class="st8" d="M480.4,340.3c0,0.2-25.1,0.4-56.1,0.4s-56.1-0.2-56.1-0.4c0-0.2,25.1-0.4,56.1-0.4S480.4,340.1,480.4,340.3z"
		/>
	<path class="st8" d="M479.1,349.5c0,0.2-24.8,0.4-55.5,0.4s-55.5-0.1-55.5-0.4s24.8-0.4,55.5-0.4S479.1,349.3,479.1,349.5z"/>
	<path class="st8" d="M433.6,358.2c0,0.2-14.7,0.4-32.8,0.4c-18.1,0-32.8-0.2-32.8-0.4c0-0.2,14.7-0.4,32.8-0.4
		C419,357.8,433.6,358,433.6,358.2z"/>
	<path class="st9" d="M430.6,397.2c0,0.2-14,0.4-31.2,0.4s-31.2-0.2-31.2-0.4s14-0.4,31.2-0.4S430.6,397,430.6,397.2z"/>
	<path class="st8" d="M480.4,410c0,0.2-25.1,0.4-56.1,0.4s-56.1-0.2-56.1-0.4s25.1-0.4,56.1-0.4S480.4,409.8,480.4,410z"/>
	<path class="st8" d="M479.1,419.1c0,0.2-24.8,0.4-55.5,0.4s-55.5-0.2-55.5-0.4s24.8-0.4,55.5-0.4S479.1,418.9,479.1,419.1z"/>
	<path class="st8" d="M433.6,427.8c0,0.2-14.7,0.4-32.8,0.4c-18.1,0-32.8-0.2-32.8-0.4s14.7-0.4,32.8-0.4
		C419,427.5,433.6,427.7,433.6,427.8z"/>
	<path class="st9" d="M430.6,466.8c0,0.2-14,0.4-31.2,0.4s-31.2-0.1-31.2-0.4c0-0.2,14-0.4,31.2-0.4S430.6,466.6,430.6,466.8z"/>
	<path class="st8" d="M480.4,479.6c0,0.2-25.1,0.4-56.1,0.4s-56.1-0.2-56.1-0.4s25.1-0.4,56.1-0.4S480.4,479.4,480.4,479.6z"/>
	<path class="st8" d="M479.1,488.8c0,0.2-24.8,0.4-55.5,0.4s-55.5-0.2-55.5-0.4s24.8-0.4,55.5-0.4S479.1,488.6,479.1,488.8z"/>
	<path class="st8" d="M433.6,497.5c0,0.2-14.7,0.4-32.8,0.4c-18.1,0-32.8-0.2-32.8-0.4s14.7-0.4,32.8-0.4
		C419,497.2,433.6,497.3,433.6,497.5z"/>
	<path class="st9" d="M430.6,536c0,0.2-14,0.4-31.2,0.4s-31.2-0.2-31.2-0.4c0-0.2,14-0.4,31.2-0.4S430.6,535.8,430.6,536z"/>
	<path class="st8" d="M480.4,548.9c0,0.2-25.1,0.4-56.1,0.4s-56.1-0.2-56.1-0.4c0-0.2,25.1-0.4,56.1-0.4S480.4,548.6,480.4,548.9z"
		/>
	<path class="st8" d="M479.1,558c0,0.2-24.8,0.4-55.5,0.4s-55.5-0.2-55.5-0.4s24.8-0.4,55.5-0.4S479.1,557.8,479.1,558z"/>
	<path class="st8" d="M433.6,566.7c0,0.2-14.7,0.4-32.8,0.4c-18.1,0-32.8-0.2-32.8-0.4s14.7-0.4,32.8-0.4
		C419,566.3,433.6,566.5,433.6,566.7z"/>
	
		<rect x="307.5" y="251.1" transform="matrix(5.585019e-03 -1 1 5.585019e-03 48.2424 601.5981)" class="st9" width="38.2" height="50.9"/>
	<polygon class="st9" points="301.1,295.5 319,271.9 329.9,286.8 337.4,278.9 351.9,295.8 	"/>
	<path class="st9" d="M334.7,269c0,2.2-1.8,4-4,4c-2.2,0-4-1.8-4-4c0-2.2,1.8-4,4-4c0,0,0,0,0,0C332.9,265,334.7,266.8,334.7,269
		C334.7,269,334.7,269,334.7,269z"/>
	<g class="st10">
		<polygon points="301.1,295.5 319,271.9 329.9,286.8 337.4,278.9 351.9,295.8 		"/>
	</g>
	<g class="st10">
		<path d="M334.7,269c0,2.2-1.8,4-4,4c-2.2,0-4-1.8-4-4c0-2.2,1.8-4,4-4c0,0,0,0,0,0C332.9,265,334.7,266.8,334.7,269
			C334.7,269,334.7,269,334.7,269z"/>
	</g>
	
		<rect x="307.5" y="319.9" transform="matrix(5.585019e-03 -1 1 5.585019e-03 -20.5334 670.0219)" class="st9" width="38.2" height="50.9"/>
	<polygon class="st9" points="301.1,364.3 319,340.6 329.9,355.6 337.4,347.7 351.9,364.6 	"/>
	<path class="st9" d="M334.7,337.8c0,2.2-1.8,4-4,4c-2.2,0-4-1.8-4-4c0-2.2,1.8-4,4-4c0,0,0,0,0,0
		C332.9,333.8,334.7,335.6,334.7,337.8C334.7,337.8,334.7,337.8,334.7,337.8z"/>
	<g class="st10">
		<polygon points="301.1,364.3 319,340.6 329.9,355.6 337.4,347.7 351.9,364.6 		"/>
	</g>
	<g class="st10">
		<path d="M334.7,337.8c0,2.2-1.8,4-4,4c-2.2,0-4-1.8-4-4c0-2.2,1.8-4,4-4c0,0,0,0,0,0C332.9,333.8,334.7,335.6,334.7,337.8
			C334.7,337.8,334.7,337.8,334.7,337.8z"/>
	</g>
	
		<rect x="307.5" y="388.7" transform="matrix(5.585019e-03 -1 1 5.585019e-03 -89.3423 738.4122)" class="st9" width="38.2" height="50.9"/>
	<polygon class="st9" points="301.1,433.1 319,409.4 329.9,424.4 337.4,416.4 351.9,433.4 	"/>
	<path class="st9" d="M334.7,406.6c0,2.2-1.8,4-4,4c-2.2,0-4-1.8-4-4c0-2.2,1.8-4,4-4c0,0,0,0,0,0
		C332.9,402.6,334.7,404.4,334.7,406.6z"/>
	<g class="st10">
		<polygon points="301.1,433.1 319,409.4 329.9,424.4 337.4,416.4 351.9,433.4 		"/>
	</g>
	<g class="st10">
		<path d="M334.7,406.6c0,2.2-1.8,4-4,4c-2.2,0-4-1.8-4-4c0-2.2,1.8-4,4-4c0,0,0,0,0,0C332.9,402.6,334.7,404.4,334.7,406.6z"/>
	</g>
	
		<rect x="307.5" y="457.5" transform="matrix(5.585019e-03 -1 1 5.585019e-03 -158.1014 806.8195)" class="st9" width="38.2" height="50.9"/>
	<polygon class="st9" points="301.1,501.9 319,478.2 329.9,493.2 337.4,485.2 351.9,502.2 	"/>
	<path class="st9" d="M334.7,475.4c0,2.2-1.8,4-4,4c-2.2,0-4-1.8-4-4c0-2.2,1.8-4,4-4c0,0,0,0,0,0
		C332.9,471.4,334.7,473.2,334.7,475.4L334.7,475.4z"/>
	<g class="st10">
		<polygon points="301.1,501.9 319,478.2 329.9,493.2 337.4,485.2 351.9,502.2 		"/>
	</g>
	<g class="st10">
		<path d="M334.7,475.4c0,2.2-1.8,4-4,4c-2.2,0-4-1.8-4-4c0-2.2,1.8-4,4-4c0,0,0,0,0,0C332.9,471.4,334.7,473.2,334.7,475.4
			L334.7,475.4z"/>
	</g>
	
		<rect x="307.5" y="525.9" transform="matrix(5.585019e-03 -1 1 5.585019e-03 -226.5751 874.8764)" class="st9" width="38.2" height="50.9"/>
	<polygon class="st9" points="301.1,570.3 319,546.7 329.9,561.6 337.4,553.7 351.9,570.6 	"/>
	<path class="st9" d="M334.7,543.9c0,2.2-1.8,4-4,4c-2.2,0-4-1.8-4-4c0-2.2,1.8-4,4-4c0,0,0,0,0,0
		C332.9,539.9,334.7,541.7,334.7,543.9z"/>
	<g class="st10">
		<polygon points="301.1,570.3 319,546.7 329.9,561.6 337.4,553.7 351.9,570.6 		"/>
	</g>
	<g class="st10">
		<path d="M334.7,543.9c0,2.2-1.8,4-4,4c-2.2,0-4-1.8-4-4c0-2.2,1.8-4,4-4c0,0,0,0,0,0C332.9,539.9,334.7,541.7,334.7,543.9z"/>
	</g>
	
		<ellipse transform="matrix(0.2287 -0.9735 0.9735 0.2287 340.6902 813.4935)" class="st9" cx="683.7" cy="191.7" rx="18.1" ry="18.1"/>
	<path class="st11" d="M682.6,197.7c-0.2,0-0.4-0.1-0.5-0.2l-6.1-5c-0.4-0.3-0.4-0.8-0.1-1.2c0.3-0.4,0.8-0.4,1.2-0.1l0,0l5.5,4.5
		l7.8-9.5c0.3-0.3,0.8-0.4,1.2-0.1c0.4,0.3,0.4,0.8,0.1,1.2l-8.3,10.1C683.1,197.5,682.9,197.6,682.6,197.7L682.6,197.7z"/>
	<circle class="st9" cx="605.4" cy="166.9" r="24.9"/>
	<path class="st11" d="M603.9,175.5c-0.4,0-0.8-0.1-1.1-0.4l-8.3-6.9c-0.7-0.6-0.8-1.6-0.2-2.3c0.6-0.7,1.6-0.8,2.3-0.2c0,0,0,0,0,0
		l7.1,5.8l10.3-12.7c0.6-0.7,1.6-0.8,2.3-0.2c0.7,0.6,0.8,1.6,0.2,2.3c0,0,0,0,0,0l-11.3,13.9c-0.3,0.3-0.7,0.5-1.1,0.6L603.9,175.5
		z"/>
</g>
<g id="freepik--magnifying-glass--inject-16">
	<path class="st8" d="M500,504.6c-26-7.4-42-33.5-36.7-60c-0.5,1.3-0.9,2.6-1.3,3.9c-7.3,27.7,9.2,56,36.9,63.3
		c26.9,7.1,54.7-8.4,62.8-35c0.4-1.3,0.7-2.7,1-4C553.2,498.1,526,512,500,504.6z"/>
	<path class="st7" d="M525.5,413c26,7.4,42,33.5,36.7,60c0.5-1.3,0.9-2.6,1.3-3.9c8-27.5-7.8-56.2-35.3-64.2
		c-27.5-8-56.2,7.8-64.2,35.3c-0.1,0.2-0.1,0.4-0.2,0.5c-0.4,1.3-0.7,2.7-1,4C472.2,419.4,499.5,405.6,525.5,413z"/>
	<path class="st8" d="M564,468.7c0,0,0-0.3,0.2-0.8c0.1-0.6,0.3-1.4,0.5-2.4c0.1-0.5,0.3-1.1,0.4-1.8c0.2-0.7,0.2-1.4,0.3-2.2
		c0.3-1.8,0.4-3.6,0.4-5.4c0.2-5-0.4-10-1.8-14.8c-3.8-14.3-13.6-26.2-26.8-32.8c-2-1-4-1.8-6.1-2.5c-1.1-0.3-2.1-0.8-3.2-1
		l-3.3-0.8c-0.6-0.1-1.1-0.3-1.7-0.4l-1.7-0.2c-1.2-0.1-2.3-0.3-3.5-0.4c-2.4-0.2-4.8-0.2-7.2,0c-2.4,0.2-4.9,0.5-7.3,1
		c-1.2,0.3-2.4,0.7-3.6,1c-1.2,0.3-2.4,0.7-3.6,1.2c-2.4,0.9-4.7,2-7,3.2c-2.3,1.3-4.4,2.8-6.5,4.4c-4.3,3.3-7.9,7.2-10.9,11.7
		c-6.3,9.2-9.4,20.1-8.9,31.2c0.2,5.3,1.3,10.6,3.2,15.6c0.9,2.4,2,4.8,3.2,7.1c1.3,2.2,2.7,4.3,4.3,6.4c0.7,1,1.5,2,2.4,2.9
		c0.9,0.9,1.7,1.9,2.6,2.7c1.8,1.7,3.7,3.2,5.7,4.7c1.9,1.4,4,2.7,6.1,3.8c1,0.5,2.1,1,3.2,1.5l1.6,0.7c0.5,0.2,1.1,0.4,1.7,0.6
		l3.2,1.1c1.1,0.3,2.2,0.5,3.3,0.8c2.1,0.5,4.3,0.9,6.5,1.1c14.7,1.3,29.3-3.7,40.1-13.8c3.7-3.4,6.8-7.3,9.3-11.7
		c0.9-1.6,1.8-3.2,2.5-4.9c0.3-0.7,0.7-1.4,0.9-2l0.6-1.7c0.4-1,0.6-1.8,0.8-2.3c0.2-0.6,0.3-0.8,0.3-0.8s0,0.3-0.2,0.8
		s-0.4,1.3-0.8,2.4c-0.2,0.5-0.3,1.1-0.6,1.7c-0.2,0.6-0.6,1.3-0.9,2c-0.7,1.7-1.5,3.3-2.4,4.9c-2.5,4.4-5.6,8.4-9.3,11.8
		c-10.8,10.3-25.6,15.5-40.5,14.1c-2.2-0.2-4.4-0.5-6.6-1.1c-1.1-0.3-2.2-0.5-3.3-0.8l-3.3-1.1c-0.5-0.2-1.1-0.4-1.7-0.6l-1.7-0.7
		c-1.1-0.5-2.2-1-3.2-1.5c-2.1-1.1-4.2-2.4-6.1-3.8c-2-1.4-3.9-3-5.8-4.7c-0.9-0.9-1.7-1.8-2.6-2.8c-0.9-0.9-1.7-1.9-2.4-3
		c-1.6-2.1-3-4.2-4.3-6.5c-1.3-2.3-2.4-4.7-3.3-7.2c-2-5.1-3.1-10.5-3.3-15.9c-0.5-11.3,2.6-22.4,9-31.7c3-4.5,6.8-8.5,11.1-11.8
		c2.1-1.6,4.3-3.1,6.6-4.4c2.3-1.2,4.6-2.3,7.1-3.2c1.2-0.5,2.4-0.9,3.6-1.2c1.2-0.3,2.4-0.7,3.7-1c2.4-0.5,4.9-0.8,7.4-1
		c2.4-0.2,4.8-0.2,7.3,0c1.2,0.1,2.4,0.3,3.6,0.4l1.7,0.2c0.6,0.1,1.2,0.3,1.7,0.4l3.3,0.8c1.1,0.3,2.2,0.7,3.2,1.1
		c2.1,0.7,4.1,1.6,6.1,2.6c13.4,6.7,23.2,18.9,27,33.3c1.3,4.9,1.9,9.9,1.7,14.9c0,1.8-0.2,3.7-0.5,5.5c-0.1,0.8-0.2,1.5-0.3,2.2
		c-0.1,0.7-0.3,1.2-0.4,1.8c-0.3,1-0.5,1.8-0.6,2.4C564.1,468.5,564,468.7,564,468.7z"/>
	<path class="st8" d="M544.3,498.3c0.7,0.5,49.7,45.7,67.8,62.6c3.1,2.9,7.8,2.8,10.9-0.1l0,0c3.1-3,3.2-8,0.2-11.1
		c-0.1-0.1-0.2-0.2-0.3-0.3l-67.4-62.2L544.3,498.3z"/>
</g>
<g id="freepik--Character--inject-16">
	<path class="st12" d="M292.2,334.1l1-3.9c0.6-2.6,0.6-5.3-0.2-7.9l-4.1-13.7c-0.4-1.3-1.2-2.3-2.4-3c-3.1-1.8-9.3-5.3-9.9-4.8
		c-3.8,3.2,4.7,8.7,4.7,8.7s3.3,3.7,0.7,6.4c-3,3.1-8.5-3.7-8.5-3.7s0.3-0.7,0.6-0.6c1.5,1.2,3.4,2,5.3,2.3v-4.5l-5-3.1
		c-1.1-0.7-2.4-0.9-3.7-0.7l-1.7,0.4c-1.1,0.2-2.1,0.9-2.7,1.9l-1.7,2.5l-0.7,1c-0.7,0.9-0.8,2.1-0.3,3.2l0.8,1.7l-1.1,1.5
		c-0.9,1.3-1.1,2.9-0.6,4.4l8.5,11.7l12.5,20.4l13.5-14.5L292.2,334.1z"/>
	<path class="st13" d="M266,322c-0.2-0.3-0.4-0.5-0.5-0.9c-0.2-0.7-0.1-1.6,0.4-2.2l0,0v-0.1l-0.1-0.3c-0.5-1.2-1.1-2.3-1.8-3.3
		c0.4,1.2,0.9,2.3,1.5,3.5l0.2,0.3v-0.2c-0.6,0.7-0.7,1.6-0.4,2.5C265.6,321.8,266,322,266,322z"/>
	<path class="st13" d="M267,306.8c-0.3,0.7-0.4,1.5-0.3,2.3c0.5,1.9,1.2,3.7,2.3,5.4c0.3,0.5,0.6,1,0.8,1.6c0.1,0.5,0.2,1.1,0.1,1.7
		c-0.2,0.8-0.1,1.7,0.3,2.5c0.4,0.7,1,1.3,1.7,1.7c-0.9-0.2-1.6-0.7-2-1.5c-0.5-0.8-0.6-1.8-0.5-2.7c0-0.5,0-1-0.1-1.5
		c-0.2-0.5-0.4-1-0.8-1.5c-1.1-1.7-1.8-3.6-2.2-5.6C266.2,307.6,267,306.8,267,306.8z"/>
	<path class="st13" d="M273.7,311.9c-0.2-0.6-0.4-1.3-0.6-1.9c-0.5-1-1.1-1.7-1-1.8c0.1-0.1,0.9,0.5,1.4,1.6
		C274.1,310.9,273.9,312,273.7,311.9z"/>
	<polygon class="st7" points="296.8,403.9 302,410.4 328.8,378.2 293.7,332.1 276.4,345.7 	"/>
	<polygon class="st9" points="415.9,715 418.1,767.3 446.4,766.6 444.2,714.3 	"/>
	<path class="st8" d="M432,765c0.2,0-0.2-11.5-1-25.6c-0.8-14.1-1.7-25.5-1.8-25.5c-0.2,0,0.2,11.5,1,25.6S431.8,765,432,765z"/>
	<polygon class="st8" points="418,763.7 446.2,762.9 446.4,766.6 418.1,767.3 	"/>
	<path class="st8" d="M445.7,749.9c0,0-0.2-0.5-0.8-1.1c-0.8-0.9-1.7-1.8-2.6-2.6c-1.4-1.2-3-2.1-4.7-2.9c-6.1-2.6-13.1-1-17.4,4.1
		c-0.8,1-1.4,2-1.9,3.2c-0.2,0.4-0.3,0.8-0.4,1.3c0.8-1.4,1.7-2.8,2.8-4.1c2.7-2.9,6.4-4.6,10.4-4.8c4-0.1,7.8,1.2,10.9,3.7
		C444.3,748.5,445.6,750,445.7,749.9z"/>
	<g class="st14">
		<polygon points="444.8,729.2 445.1,734.9 416.8,735.4 416.6,731.1 		"/>
	</g>
	<path class="st9" d="M349.5,718.1l1.4,31.8c0,0-31.9,12.1-32.2,18l61.7-0.5l-0.1-49.6L349.5,718.1z"/>
	<path class="st5" d="M369.6,747.3c1.2,0.4,2,1.6,1.8,2.9c-0.3,1.3-1.6,2-2.8,1.8c-1.3-0.4-2.1-1.7-1.9-3c0.5-1.3,1.9-2,3.2-1.5"/>
	<path class="st8" d="M380.5,767.5v-5l-59.8,2.3c0,0-2.8,1.2-2.4,3.2L380.5,767.5z"/>
	<path class="st8" d="M350.3,750.2c0,0.3,1.5,0.4,3,1.4c1.5,1,2.3,2.2,2.6,2.1s-0.2-1.9-2-3C352.1,749.5,350.3,749.9,350.3,750.2z"
		/>
	<path class="st8" d="M343.8,752.9c0,0.3,1.3,0.8,2.3,2.1s1.4,2.6,1.7,2.6c0.3,0,0.5-1.7-0.9-3.3S343.8,752.6,343.8,752.9z"/>
	<path class="st8" d="M340.2,760.7c0.3,0,0.7-1.5-0.1-3.1c-0.8-1.7-2.2-2.3-2.3-2.1c-0.1,0.3,0.8,1.1,1.4,2.5
		C339.8,759.5,339.9,760.7,340.2,760.7z"/>
	<path class="st8" d="M350.8,742.8c0.1,0.3,1.5-0.2,3.2,0c1.7,0.2,3.1,0.6,3.2,0.4c0.1-0.3-1.1-1.3-3.2-1.4
		C352.1,741.7,350.7,742.6,350.8,742.8z"/>
	<path class="st8" d="M349.7,736c1,0.3,2.1,0.3,3.1,0c1.1-0.2,2.2-0.6,3.3-1c0.6-0.3,1.2-0.6,1.8-1c0.4-0.2,0.7-0.4,0.9-0.7
		c0.4-0.4,0.5-1.2,0.1-1.7c-0.3-0.4-0.8-0.7-1.3-0.7c-0.4,0-0.8,0.1-1.2,0.2c-0.7,0.2-1.3,0.4-1.9,0.7c-1,0.5-2,1.1-2.9,1.9
		c-1.4,1.4-1.9,2.5-1.8,2.6c0.1,0.1,0.8-0.9,2.3-2c0.8-0.7,1.8-1.2,2.8-1.7c0.6-0.2,1.2-0.4,1.8-0.6c0.7-0.2,1.2-0.2,1.4,0.1
		c0.2,0.3,0,0.2,0,0.4c-0.2,0.2-0.4,0.4-0.7,0.5c-0.5,0.4-1.1,0.7-1.7,1c-1,0.5-2,0.9-3,1.2C351.7,735.3,350.7,735.6,349.7,736z"/>
	<path class="st8" d="M350.1,736.4c0.1,0,0.7-1.1,0.8-3c0-1.1-0.1-2.3-0.5-3.3c-0.2-0.7-0.5-1.3-0.8-1.9c-0.3-0.8-1.1-1.4-2-1.6
		c-0.6,0-1.1,0.4-1.3,0.9c-0.2,0.4-0.3,0.7-0.3,1.1c-0.1,0.7-0.1,1.4,0,2.1c0.2,1.2,0.6,2.3,1.4,3.2c1.2,1.7,2.5,2,2.5,1.9
		c0-0.1-1-0.7-1.9-2.3c-0.9-1.4-1.2-3.1-1-4.7c0.1-0.7,0.3-1.2,0.6-1.1c0.3,0.1,0.8,0.5,1.1,1c0.3,0.5,0.6,1.1,0.8,1.7
		c0.4,1,0.6,2,0.6,3.1C350.3,735.2,349.9,736.4,350.1,736.4z"/>
	<g class="st14">
		<polygon points="380.5,736.9 380.4,744 350.6,744 350.6,737.6 		"/>
	</g>
	<path class="st12" d="M480.3,207.7l4.4,17.1c0,0,1.7,9.5-2.8,9.5c-3.9,0-4.3-5.1-4.3-5.1s2-10.4-3.2-9.8c-0.7,0.1-2.6,7.2-3.5,10.9
		c-0.3,1.3-0.1,2.7,0.5,3.9l7.4,13c1.4,2.4,3.4,4.4,5.8,5.8l3.7,2.1l0.5,7.7l20.7,0.3l-6.3-24.1l-2.6-14.7c-0.7-1.5-2.1-2.5-3.7-2.8
		l-2-0.3l-0.7-1.9c-0.5-1.1-1.5-1.9-2.6-2l-1.2-0.2l-1.7-4.2c-0.6-1.4-4.6-10.5-6.1-10.5C482.6,202.5,479.2,203.5,480.3,207.7z"/>
	<path class="st13" d="M495.1,228.4c-0.1-0.6-0.2-1.3-0.4-1.9c-0.5-1.5-1.5-2.7-2.8-3.6c-0.7-1.4-1.2-2.9-1.6-4.5
		c-0.2-0.6-0.3-1.3-0.2-2c0,0,0.1,0.7,0.5,1.9c0.4,1.5,1,2.9,1.7,4.3c0.3,0.3,0.7,0.5,1,0.8c0.8,0.8,1.4,1.8,1.8,2.9
		c0.1,0.5,0.2,0.9,0.2,1.4C495.2,228.1,495.2,228.3,495.1,228.4z"/>
	<path class="st13" d="M498.2,226.7c0-0.3-0.1-0.6-0.3-0.9c-0.4-0.7-1.1-1.2-1.9-1.3h-0.1v-0.1l-0.1-0.3c-0.5-1.2-0.9-2.5-1.2-3.8
		c0.6,1.2,1.1,2.4,1.5,3.6l0.1,0.3l-0.1-0.1c0.9,0.1,1.7,0.7,2.1,1.5C498.4,226.3,498.3,226.7,498.2,226.7z"/>
	<path class="st12" d="M376.5,309.6l37.5-0.5l-4.2-31.9c0,0,2.6-0.6,2.7-14.5c0.2-13.9,0.8-37.5,0.8-37.5l0,0
		c-16.1-6.9-34.7-4.6-48.5,6.1l-2.1,1.6L376.5,309.6z"/>
	<path class="st12" d="M367.1,250c-0.2-0.1-9.6-2.8-9.3,6.7c0.3,9.5,9.8,7.2,9.8,7S367.1,250,367.1,250z"/>
	<path class="st12" d="M411.7,248c0.2-0.1,8.7-2.4,8.3,7.1c-0.4,9.5-9.8,7.3-9.8,7S411.7,248,411.7,248z"/>
	<path class="st8" d="M364,248.9c1.4,8,1.1,12.2,2.5,17.5c2.1,8.3,6.3,14.9,13.8,19.1c7.6,4.2,17.8,4.1,24.4-1.7
		c4.5-4,7.7-8.5,8.3-14.4c0.6-6,1.4-16.6,1.4-22.6c0-10.9,0.8-21.2,0.8-21.2l-31-5.6l-17.6,10.6L364,248.9z"/>
	<path class="st8" d="M396,290.3c-3.6,1-7.4,0.6-10.6-1.2c0.1-0.2,2.4,0.5,5.3,0.8C392.4,289.9,394.2,290,396,290.3z"/>
	<path class="st8" d="M365.5,262.5c-0.9-8.2-1.5-17.5-2.8-26.1c-0.5-3.2-1.7-7.9-1.3-11.1c0.1-3.3,0.8-6.5,2-9.6
		c3.2-6.7,11.3-9.4,17.9-6.2c1.1,0.5,2.1,1.2,3,2c3-4.6,9.2-6,13.8-3c2.5,1.6,4.2,4.3,4.5,7.2c2.8-2.7,7.2-2.6,9.9,0.2
		c1.7,1.8,2.4,4.4,1.7,6.8c3.7,0.6,6.2,4.1,5.6,7.8c-0.2,0.9-0.5,1.8-1,2.6c-1.4,2.2-4,3.4-5.6,5.5c-1.8,2.5-2,5.9-0.5,8.6"/>
	<path class="st7" d="M408.6,233c-0.1,0.3-0.2,0.6-0.4,0.9c-0.4,0.8-1.1,1.5-1.8,2c-1.2,0.9-2.6,1.3-4,1.3c-1.9,0-3.7-0.9-5-2.3
		l0.7-0.2c-0.5,2.2-2,4-4.1,4.8c-2.3,0.9-5,0.6-7-0.9c-1.8-1.3-3.2-3.1-3.9-5.2h0.8c-1.6,2.3-4.2,3.8-7,3.9c-2.2,0-4.4-0.8-5.9-2.4
		c-1-1-1.8-2.3-2.2-3.6c-0.2-0.5-0.2-1-0.2-1.5c0,0,0.1,0.5,0.5,1.4c0.5,1.3,1.2,2.4,2.2,3.3c1.5,1.4,3.5,2.1,5.5,2.1
		c2.6-0.1,4.9-1.4,6.3-3.6l0.5-0.7l0.3,0.8c0.7,1.9,2,3.6,3.6,4.7c1.8,1.3,4.1,1.6,6.2,0.8c1.9-0.6,3.2-2.2,3.7-4.1l0.2-0.8l0.5,0.6
		c1.1,1.3,2.7,2.1,4.4,2.2c1.3,0.1,2.6-0.3,3.8-1C407.2,234.8,408,233.9,408.6,233z"/>
	<path class="st7" d="M408.5,229.2c-0.2-1.2-0.6-2.4-1.3-3.5c-0.8-1.1-2-1.9-3.3-2.2c-1.6-0.4-3.3-0.1-4.7,0.9l-0.8,0.5v-0.9
		c0.1-0.9,0-1.9-0.3-2.7c-0.6-1.9-2-3.5-3.8-4.4c-1.5-0.7-3.2-0.8-4.8-0.4c-1.5,0.4-2.9,1.2-4,2.3c0.2-0.4,0.4-0.8,0.8-1.1
		c0.9-0.8,1.9-1.5,3.1-1.8c1.8-0.5,3.6-0.4,5.3,0.3c2.1,1,3.6,2.7,4.3,4.9c0.3,1,0.4,2,0.3,3.1l-0.7-0.4c1.6-1.1,3.6-1.4,5.4-0.9
		c2.5,0.7,4.2,2.8,4.5,5.3C408.6,228.9,408.5,229.2,408.5,229.2z"/>
	<path class="st7" d="M388.7,229.5c-0.1,0,0-0.5,0-1.3c-0.1-1-0.4-2-1-2.8c-0.6-1-1.4-2-1.8-2.5c-0.3-0.3-0.7-0.3-1-0.2
		c0,0,0-0.2,0.2-0.4c0.4-0.2,0.8-0.2,1.2,0c0.4,0.3,0.8,0.7,1.1,1.1c0.4,0.5,0.8,1,1.1,1.5c0.6,1,0.9,2.2,0.8,3.3
		C389.2,229.1,388.8,229.5,388.7,229.5z"/>
	<path class="st7" d="M370.3,217.5c-0.1,0,0-0.7,0.6-1.7c0.4-0.6,0.8-1.1,1.4-1.5c0.7-0.5,1.6-0.7,2.5-0.6c1.5,0.3,2.9,1.1,3.8,2.4
		c0.7,0.9,1,1.5,0.9,1.6c-0.1,0.1-0.6-0.4-1.4-1.1c-0.9-1-2.1-1.6-3.4-1.9c-1.3-0.1-2.6,0.4-3.3,1.5
		C370.8,217,370.5,217.6,370.3,217.5z"/>
	<path class="st7" d="M375.2,257.8c-2.8-3.7-4.4-8.2-4.4-12.9c0.3,0,0.8,3,2,6.5C373.9,255,375.4,257.7,375.2,257.8z"/>
	<path class="st7" d="M379.3,260.1c-1.1-1.3-1.9-2.7-2.3-4.3c-0.7-1.5-1.1-3.1-1.1-4.8c0.8,1.4,1.5,2.9,2,4.5
		C378.6,257,379.1,258.5,379.3,260.1z"/>
	<path class="st7" d="M405.4,260.8c0.6,5.7-1.5,11.4-5.8,15.3c1.5-2.3,2.8-4.7,4-7.2C404.5,266.2,405.1,263.5,405.4,260.8z"/>
	<path class="st7" d="M409.6,253.9c1,2.4,1.2,5,0.6,7.5c-0.3,2.6-1.4,4.9-3.2,6.8c1-2.3,1.8-4.6,2.4-7
		C409.7,258.8,409.7,256.3,409.6,253.9z"/>
	<polyline class="st8" points="397.6,515.7 406.7,603.7 413.3,736.1 448.2,736.1 449.2,454.2 349.1,461.4 328.4,609.3 346.3,738.7 
		384.7,738.7 375.7,615.6 397.6,515.7 	"/>
	<path class="st7" d="M397.6,515.7c-4.3,4.7-9.1,8.9-14.2,12.8c2.1-2.4,4.3-4.7,6.8-6.7C392.5,519.6,395,517.5,397.6,515.7z"/>
	<path class="st7" d="M397.5,513.9c-0.1-3.8-0.1-7.5,0.2-11.3c0-3.8,0.2-7.5,0.7-11.3c0.4,3.8,0.5,7.5,0.2,11.3
		C398.6,506.4,398.2,510.2,397.5,513.9z"/>
	<path class="st7" d="M409.1,481.1c0.2,0,0.4,0,0.6,0l1.7-0.1l6.7-0.3l23.7-1h0.4v0.4c0,7.4,0,15.8,0,24.6v0.8l-0.3,0.1l-15.4,6.2
		h-0.1h-0.1l-13.6-4.7h-0.2v-0.2c-1-7.7-1.8-14.1-2.4-18.7c-0.3-2.1-0.5-3.9-0.6-5.1c-0.1-0.6-0.1-1.1-0.2-1.7
		c0.1,0.2,0.1,0.3,0.1,0.5c0,0.4,0.1,0.8,0.2,1.4c0.2,1.3,0.5,3,0.8,5.2c0.7,4.5,1.7,10.8,2.8,18.3l-0.2-0.3l13.7,4.6h-0.3l15.4-6.2
		l-0.3,0.4v-0.5c0-8.9,0-17.2,0-24.6l0.4,0.4l-23.4,0.6l-6.7,0.1h-2.5L409.1,481.1z"/>
	<path class="st7" d="M358.6,481.6c0.2,0,0.3,0,0.5,0l1.6-0.1l6-0.2l21.7-0.5h0.3v0.4c-0.2,7.3-0.5,15.7-0.8,24.7v0.2l-0.2,0.1
		l-2.5,1.7l-12.7,8.3l-0.2,0.2l-0.2-0.2l-14.3-8.7l-0.2-0.1v-0.2c0.3-7.7,0.5-14.1,0.7-18.6c0.1-2.1,0.2-3.9,0.2-5.1
		c0-0.6,0-1.1,0.1-1.7c0,0.2,0,0.3,0,0.5v1.4c0,1.3,0,3,0,5.2c0,4.5-0.2,10.8-0.3,18.4l-0.2-0.3l14.3,8.6H372l12.7-8.3l2.5-1.7
		l-0.2,0.3c0.3-9,0.6-17.4,0.9-24.7l0.4,0.4l-21.4,0.1h-7.7L358.6,481.6z"/>
	<path class="st7" d="M438.4,521.4c-1.6,0.1-3.2,0.1-4.7-0.2c-2.9-0.2-7-0.6-11.4-1.2c-4.4-0.6-8.4-1.2-11.3-1.7
		c-1.6-0.2-3.1-0.6-4.6-1.1c1.6,0,3.2,0.2,4.7,0.5l11.3,1.5l11.3,1.4C435.3,520.8,436.8,521.1,438.4,521.4z"/>
	<path class="st7" d="M437.6,619.4c0,0-0.1,0.5-0.8,1.1c-1,0.8-2.3,1.2-3.6,1.2c-1.9-0.1-3.8-0.8-5.2-2c-1.7-1.5-3.3-3.1-4.8-4.8
		c-2.7-3.1-5-6.5-7.1-10c-0.9-1.4-1.7-3-2.2-4.6c1,1.4,1.9,2.8,2.7,4.2c2.2,3.4,4.6,6.6,7.2,9.7c1.4,1.7,2.9,3.3,4.6,4.8
		c1.3,1.2,3,1.9,4.7,2c1.2,0.1,2.3-0.2,3.3-0.9C437.2,619.8,437.5,619.4,437.6,619.4z"/>
	<path class="st7" d="M368.5,622.5c-0.1,0.4-0.2,0.8-0.5,1.1c-0.6,0.9-1.4,1.7-2.4,2.3c-1.5,0.8-3.1,1.3-4.8,1.3
		c-2.1-0.1-4-0.7-5.8-1.8c-3-2.1-5.4-5-7-8.3c-0.7-1.3-1.3-2.7-1.7-4.1c0.9,1.2,1.6,2.5,2.3,3.8c1.6,3.1,4,5.8,6.9,7.8
		c1.6,1,3.4,1.7,5.3,1.8c1.6,0.1,3.1-0.3,4.5-1C366.6,624.7,367.7,623.7,368.5,622.5z"/>
	<path class="st7" d="M370.8,609.3c-0.8,0.7-1.8,1.3-2.9,1.7c-5,2.1-10.6,2.3-15.8,0.7c-1.1-0.3-2.1-0.8-3-1.4
		c3.5,1.1,7.2,1.7,10.9,1.7C363.7,611.5,367.3,610.7,370.8,609.3z"/>
	<path class="st7" d="M484.5,298.9h-50.9c0,0-6.9-4-10.3-3.3c-2.5,0.8-4.6,2.3-6.3,4.3l6.8,56.1l16.5-12.2l61.4-6.4
		c5.3-0.1,10.4-2.3,14-6.2l0,0c4-4.2,5.9-10,5.2-15.7l-11.4-60.4l-23.3,0.8l-0.9,15.3L484.5,298.9z"/>
	<path class="st7" d="M344.2,313c-5.5,3.4-9.8,8.4-12.3,14.3c-3,7.1-23.3,42.8-34,61.4c-3.9,6.8-2.8,15.3,2.6,21l0,0
		c6.5,6.8,14.3,4.1,23.8,1.1c4.3-1.4,23.3-30.7,23.3-30.7L344.2,313z"/>
	<polygon class="st7" points="353.1,440.4 341.4,339.8 344.2,313 374,300.4 412.5,297.8 449.2,301.9 440.6,405 450,463.1 
		347.2,467.8 	"/>
	<path class="st8" d="M353,439.9c-0.3,0-3-22.4-6.3-50s-5.6-50-5.4-50.1c0.2-0.1,3,22.4,6.3,50S353.3,439.9,353,439.9z"/>
	<path class="st8" d="M448.4,324.4c0,0.3,0,0.6,0,0.9c0,0.7-0.1,1.5-0.2,2.6c-0.3,2.4-0.6,5.6-1,9.5c-0.8,8.1-1.9,19.1-3.1,31.3
		c-1.2,12.2-2.1,23.3-2.7,31.3c-0.3,3.9-0.5,7.1-0.7,9.5c-0.1,1.1-0.1,1.9-0.2,2.6c0,0.3-0.1,0.6-0.1,0.9c0-0.3,0-0.6,0-0.9
		c0-0.7,0-1.6,0-2.6c0-2.3,0.2-5.5,0.4-9.5c0.5-8,1.3-19.1,2.5-31.4c1.2-12.2,2.4-23.3,3.3-31.3c0.5-4,0.9-7.2,1.3-9.5
		c0.2-1,0.3-1.9,0.4-2.6C448.2,325,448.3,324.7,448.4,324.4z"/>
	<path class="st8" d="M430.8,424.5c-0.5,0.7-1.1,1.4-1.7,2c-0.6,0.8-1.3,1.5-2.1,2.2c-0.9,0.8-1.8,1.8-3,2.7c-1.2,1-2.5,2-3.9,2.9
		c-1.5,1.1-3.1,2.1-4.7,3c-7.5,4.2-15.8,6.6-24.3,7.3c-2,0.1-3.8,0.2-5.6,0.1c-1.6,0-3.2-0.1-4.9-0.3c-1.5-0.1-2.8-0.4-4-0.6
		c-1-0.2-2-0.4-2.9-0.7c-0.8-0.2-1.7-0.4-2.5-0.8c0-0.2,3.6,0.9,9.4,1.5c1.6,0.2,3.2,0.2,4.8,0.2c1.7,0.1,3.6-0.1,5.5-0.2
		c8.4-0.7,16.6-3.1,24-7.2c1.7-1,3.3-1.9,4.7-2.9c1.4-1,2.7-1.9,3.9-2.8C428.3,427.2,430.6,424.4,430.8,424.5z"/>
	<g class="st14">
		<path d="M376.4,443.3c-5-1.4-5.3-6.2-3.3-8.2s5-2.3,7.9-1.9c2.7,0.7,5.5,1,8.3,1.1c4.6-0.3,8.3-3.5,11.6-6.8
			c3.2-3.3,6.2-7,10.4-8.9c4.2-1.9,10-1.2,12.2,2.8c1.3,2.7,1.1,5.8-0.5,8.3c-1.6,2.5-3.7,4.5-6.2,6.1
			C404.9,443.9,390.3,446.6,376.4,443.3"/>
	</g>
	<path class="st8" d="M437.2,300.9c2.7,1,5.1,2.9,6.7,5.3c1.8,2.3,2.9,5.1,3,8c-0.9-2.6-2.1-5.2-3.7-7.5
		C441.4,304.6,439.4,302.6,437.2,300.9z"/>
	<path class="st0" d="M433.6,299.8c-0.3-0.2-0.5-0.4-0.8-0.5c-0.9-0.4-1.8-0.4-2.8-0.2c-1.5,0.4-2.8,1.2-3.8,2.3
		c-1.3,1.5-2.7,2.9-4.2,4.3c-2,1.4-4.4,2.1-6.9,2.1c-2.6,0.1-5.4-0.1-8.3-0.2c-6.3-0.2-12.7-0.1-19,0.4c-11.5,0.9-22.9,3.4-33.7,7.4
		c-3.3,1.3-6.5,2.7-9.6,4.3L342,321c-0.6,0.3-0.9,0.4-0.9,0.4s0.3-0.2,0.9-0.5l2.5-1.4c3.1-1.6,6.3-3.1,9.6-4.4
		c10.8-4.1,22.2-6.7,33.7-7.6c6.3-0.5,12.7-0.6,19.1-0.4c2.9,0.1,5.7,0.4,8.3,0.3c2.4,0,4.8-0.7,6.8-2c1.5-1.3,2.9-2.7,4.2-4.2
		c1-1.1,2.4-1.9,3.9-2.3c0.9-0.2,1.9-0.2,2.8,0.2C433.1,299.4,433.4,299.6,433.6,299.8z"/>
	<path class="st0" d="M445.2,320.4c0,0-0.4-0.1-1-0.2c-1-0.2-2-0.2-3-0.1c-1.6,0.2-3.1,0.6-4.6,1.2c-1.9,0.9-3.8,1.8-5.7,2.9
		c-2.2,1.3-4.6,2.3-7.1,3.1c-2.9,0.8-5.8,1.2-8.8,1.4c-6.2,0.4-13.1,0.5-20.3,1c-14.4,1-27.3,2.7-36.7,4.3c-4.7,0.8-8.3,1.5-11,1.9
		l-3,0.6l-1.1,0.2l1-0.3l3-0.6c2.6-0.5,6.3-1.3,11-2c9.3-1.7,22.2-3.3,36.7-4.4c7.2-0.6,14.1-0.7,20.3-1c2.9-0.2,5.9-0.6,8.7-1.4
		c2.5-0.7,4.8-1.7,7.1-3c1.8-1.1,3.7-2,5.7-2.9c1.5-0.6,3.1-1,4.7-1.2c1-0.1,2,0,3,0.2C444.5,320.2,444.8,320.3,445.2,320.4z"/>
	<path class="st0" d="M445.4,348.7c0,0-1.3,0.6-3.7,1.6c-3.4,1.3-6.8,2.5-10.4,3.5c-11.6,3.1-23.6,4.9-35.6,5.3
		c-12,0.4-24,0.1-36-0.9l-10.9-0.9l-3-0.3c-0.7,0-1-0.1-1-0.1h1l3,0.2l10.9,0.7c12,0.9,24,1.1,36,0.8c12-0.4,23.9-2.1,35.5-5.2
		c4.4-1.2,8-2.4,10.4-3.3c1.2-0.4,2.1-0.8,2.8-1.1L445.4,348.7z"/>
	<path class="st0" d="M441.5,381.5c0,0-1.2,0.5-3.5,1.3c-3.2,1.1-6.5,1.9-9.8,2.5c-4.9,0.9-9.9,1.4-14.9,1.5
		c-5.6,0.2-11.8,0-18.3-0.4c-13-0.9-24.7-1.8-33.2-1.5c-4.3,0.1-7.7,0.4-10,0.7c-1.2,0.1-2.1,0.3-2.7,0.3l-1,0.1
		c4.5-0.8,9.1-1.3,13.7-1.4c8.5-0.4,20.3,0.5,33.3,1.4c6.5,0.4,12.7,0.6,18.3,0.4c5-0.1,9.9-0.6,14.9-1.4c3.3-0.6,6.6-1.4,9.8-2.4
		c1.1-0.3,2-0.7,2.6-0.9L441.5,381.5z"/>
	<path class="st0" d="M438.4,406.8c0,0-4.7,1.6-12.5,3.3c-3.9,0.9-8.6,1.8-13.8,2.6s-11,1.4-17.1,1.8c-6.1,0.4-11.9,0.4-17.2,0.3
		s-10-0.5-14-0.9c-8-0.8-12.8-1.8-12.8-1.8l0.9,0.1l2.6,0.4c2.2,0.3,5.4,0.7,9.4,1.1c4,0.4,8.7,0.7,14,0.9c5.3,0.2,11.1,0,17.2-0.3
		s11.9-1,17.1-1.8c5.2-0.8,9.9-1.7,13.8-2.5c3.9-0.9,7.1-1.7,9.2-2.2l2.5-0.7L438.4,406.8z"/>
	<path class="st0" d="M441.9,416l-0.9,0.3l-2.5,0.9c-2.2,0.8-5.3,2.1-9.1,3.7c-3.8,1.7-8.3,3.8-13.3,5.9c-5.5,2.3-11.2,4.1-17,5.2
		c-10.7,1.8-21.5,2.5-32.3,1.8c-4.1-0.2-7.5-0.4-9.8-0.5l-2.7-0.2c-0.6,0-0.9,0-0.9,0h0.9l2.7,0.1l9.8,0.4
		c10.8,0.6,21.6-0.1,32.2-1.9c5.8-1.1,11.5-2.9,17-5.2c5-2.1,9.5-4.2,13.3-5.8s6.9-2.9,9.1-3.7C440.6,416.5,441.9,416,441.9,416z"/>
	<path class="st0" d="M447.1,443.6c0,0-1.1,0.8-3.3,2c-3.1,1.7-6.3,3.2-9.6,4.4c-11,3.8-22.6,5.8-34.3,5.8
		c-13.7,0.3-26-0.8-34.9-1.2c-4.5-0.2-8.1-0.3-10.6-0.4h-2.9h-1c0,0,0.4,0,1,0h2.9c2.5,0,6.1,0.1,10.6,0.3
		c8.9,0.3,21.3,1.4,34.9,1.1c11.7,0,23.2-1.9,34.3-5.7c3.3-1.2,6.5-2.7,9.6-4.4c1.1-0.6,1.9-1.1,2.5-1.4S447.1,443.6,447.1,443.6z"
		/>
	<path class="st0" d="M462.6,341.8c0-0.1,0-0.3,0.1-0.4c0.1-0.4,0.2-0.8,0.3-1.2c0.3-1,0.7-2.5,1.1-4.4c2-9.7,1.9-19.8-0.5-29.4
		c-0.4-1.9-0.9-3.3-1.2-4.4l-0.4-1.2l-0.1-0.4c0.1,0.1,0.1,0.3,0.2,0.4c0.1,0.4,0.3,0.7,0.4,1.2c0.4,1,0.8,2.5,1.3,4.3
		c2.5,9.7,2.6,19.8,0.5,29.5c-0.4,1.9-0.8,3.3-1.2,4.4c-0.2,0.4-0.3,0.8-0.4,1.2C462.7,341.6,462.7,341.7,462.6,341.8z"/>
	<path class="st0" d="M487.3,335.8c0-0.1,0-0.3,0-0.4c0-0.3,0-0.7,0-1.1c0-1,0-2.3,0-4c-0.1-8.8-2.1-17.5-5.8-25.5
		c-0.7-1.5-1.4-2.8-1.8-3.6l-0.5-1c-0.1-0.2-0.2-0.3-0.2-0.4c0.1,0.1,0.2,0.2,0.2,0.3l0.6,0.9c0.5,0.8,1.2,2,1.9,3.5
		c3.9,8,5.9,16.7,5.8,25.6c0,1.3,0,2.7-0.2,4l-0.1,1.1C487.3,335.6,487.3,335.7,487.3,335.8z"/>
	<path class="st0" d="M520.7,324.2c0,0-0.1-0.1-0.3-0.3l-0.9-1c-0.7-0.9-1.8-2.1-3.2-3.6c-7.2-7.7-15.9-14-25.6-18.3
		c-1.9-0.8-3.3-1.5-4.4-1.9l-1.2-0.5c-0.1-0.1-0.3-0.1-0.4-0.2c0.2,0,0.3,0.1,0.5,0.1l1.2,0.4c1.1,0.4,2.6,1,4.5,1.8
		c9.7,4.3,18.5,10.5,25.7,18.3c1.4,1.5,2.4,2.8,3.1,3.7c0.3,0.4,0.6,0.7,0.8,1C520.6,324.1,520.7,324.2,520.7,324.2z"/>
	<path class="st0" d="M513.1,277c-0.4,0-0.7,0-1.1,0h-2.9c-2.4,0-5.8,0-9.5,0s-7.1,0.2-9.5,0.3l-2.9,0.2c-0.4,0-0.7,0-1.1,0
		c0.4-0.1,0.7-0.1,1.1-0.2c0.7,0,1.7-0.2,2.9-0.3c2.4-0.2,5.8-0.4,9.5-0.4c3.7-0.1,7.1,0,9.5,0.1l2.9,0.2
		C512.4,276.9,512.8,276.9,513.1,277z"/>
	<path class="st0" d="M324.3,343.2c0.2,0.2,0.4,0.4,0.6,0.7c0.4,0.5,1,1.1,1.7,1.8c1.9,1.9,4,3.7,6.2,5.2c2.2,1.5,4.6,2.9,7,4.2
		l2.2,1.2c0.3,0.1,0.5,0.3,0.8,0.5c-0.3-0.1-0.6-0.2-0.8-0.4c-0.5-0.2-1.3-0.6-2.2-1.1c-2.4-1.2-4.8-2.6-7.1-4.2
		c-2.3-1.6-4.3-3.3-6.2-5.3c-0.6-0.6-1.1-1.2-1.7-1.9C324.5,343.7,324.4,343.4,324.3,343.2z"/>
	<path class="st0" d="M331.3,329.8c0,0,0.4,0.6,1.2,1.4c1,1,2.2,1.9,3.3,2.7c1.2,0.8,2.4,1.6,3.7,2.2c1,0.5,1.7,0.8,1.6,0.9
		c-2-0.6-3.8-1.6-5.5-2.8c-1.2-0.8-2.3-1.7-3.3-2.8C331.8,330.9,331.5,330.4,331.3,329.8z"/>
	<path class="st0" d="M343.1,386.7c0,0-0.1,0-0.4-0.1l-1-0.5c-0.9-0.5-2.1-1.2-3.6-2.2c-3.9-2.5-7.5-5.4-10.9-8.6
		c-3.4-3.2-6.4-6.7-9.1-10.5c-0.8-1.1-1.6-2.3-2.2-3.6l-0.6-1c-0.1-0.2-0.2-0.4-0.2-0.4l0.2,0.3l0.6,1c0.5,0.9,1.3,2.1,2.3,3.5
		c2.7,3.7,5.8,7.2,9.1,10.4c3.3,3.2,6.9,6.1,10.8,8.7c1.5,1,2.7,1.8,3.5,2.3l1,0.6L343.1,386.7z"/>
	<path class="st8" d="M296.8,403.9c-0.2-0.6-0.3-1.3-0.3-1.9c-0.2-1.7-0.2-3.5-0.1-5.3c0.4-5.8,2.3-11.5,5.5-16.4
		c3.6-5.7,6.9-10.9,9.3-14.6l2.9-4.4c0.3-0.6,0.7-1.1,1.2-1.6c-0.2,0.6-0.5,1.1-0.9,1.7l-2.7,4.5c-2.3,3.8-5.5,9-9.1,14.7
		c-3.2,4.8-5.1,10.3-5.7,16C296.6,401.2,297,403.9,296.8,403.9z"/>
	<path class="st0" d="M326,410.7c-2,0-3.9-0.3-5.8-0.9c-9.3-2.5-16.6-9.8-19.1-19.1c-0.5-1.9-0.8-3.8-0.9-5.8c0,0.1,0,0.3,0,0.4
		c0,0.3,0,0.7,0.1,1.2c0.2,1.4,0.5,2.8,0.9,4.1c2.6,9.2,9.8,16.4,19,18.9c1.4,0.4,2.7,0.7,4.2,0.9c0.5,0,0.9,0.1,1.2,0.2L326,410.7z
		"/>
	<path class="st0" d="M309.3,353.8c-0.1,0.1-0.2,0.1-0.3,0.2l-0.9,0.5c-1.1,0.6-2.1,1.3-3.1,2.1c-6.7,4.8-12,11.4-15.1,19
		c-0.6,1.5-1.1,2.6-1.3,3.5c-0.1,0.3-0.2,0.7-0.3,1s-0.1,0.3-0.1,0.3c0-0.1,0-0.2,0-0.4c0.1-0.3,0.2-0.6,0.3-1
		c0.3-1.2,0.7-2.4,1.2-3.5c1.5-3.8,3.6-7.4,6.2-10.7c2.6-3.2,5.6-6,9-8.3c1-0.7,2.1-1.4,3.2-2l0.9-0.5
		C309.2,353.8,309.3,353.7,309.3,353.8z"/>
	<path class="st0" d="M299.9,341.4l-1,0.3c-0.6,0.2-1.5,0.5-2.6,0.9c-2.8,1.2-5.3,2.7-7.7,4.6c-2.3,1.9-4.4,4.1-6.2,6.5
		c-0.7,0.9-1.3,1.7-1.7,2.2c-0.2,0.3-0.4,0.5-0.6,0.8c0.1-0.3,0.3-0.6,0.5-0.9c0.4-0.5,0.9-1.3,1.6-2.2c1.8-2.5,3.9-4.7,6.2-6.7
		c2.3-2,5-3.5,7.8-4.6c0.9-0.3,1.7-0.6,2.6-0.8C299.3,341.5,299.6,341.4,299.9,341.4z"/>
</g>
</svg>
