<?xml version="1.0" encoding="utf-8"?>
<!-- Generator: Adobe Illustrator 24.1.3, SVG Export Plug-In . SVG Version: 6.00 Build 0)  -->
<svg version="1.1" id="Layer_1" xmlns="http://www.w3.org/2000/svg" xmlns:xlink="http://www.w3.org/1999/xlink" x="0px" y="0px"
	 viewBox="0 0 208.6 135.3" style="enable-background:new 0 0 208.6 135.3;" xml:space="preserve">
<g id="Layer_2_1_">
	<g id="Layer_1-2">
		<path d="M195.3,66.6c-5.4-0.4-10.8-0.4-15.9-1.4c-9.3-1.7-14.4-6.9-15.7-16.3c-0.6-4.9-0.5-9.9,0.4-14.8c0.8-5.2,4.2-9.7,9-11.9
			c9.1-4.2,18.7-4.4,28.2-1.3c4.8,1.6,7,5.6,7.1,10.5c0.2,12,0.4,24,0,35.9C208,77,203,82.8,193.2,84c-6.1,0.7-12.5-0.1-18.7-0.7
			c-4.1-0.4-4.8-3.7-4.2-7.1c0.6-3.8,3.6-3.2,6.2-2.9c4,0.3,7.9,0.9,11.9,0.7C192.5,73.6,195.6,71.5,195.3,66.6z M195,54.8
			c0-7.3,0.1-14.1-0.1-20.9c-0.1-1.1-0.7-2.2-1.5-2.9c-4.4-3.3-14.4-0.2-16.3,5c-4.4,12.2,1.1,19.8,13.8,19.2
			C192.3,55.1,193.6,54.9,195,54.8z"/>
		<path d="M15.3,18.6c5.1,0.3,9.7,0.1,14.1,0.8c12,2,17.6,8.3,18.4,20.7c0.4,6.6,0.1,13.3,0.2,20c0,4.8-2.9,5.8-6.9,5.8
			c-4.2,0-6.6-1.4-6.5-6.1c0.1-6.2,0.2-12.4-0.2-18.5c-0.6-8.5-3.5-11-12-11.1c-2.1,0-4.2,0-7,0c0,10.1,0,19.5,0,29
			c0,5.5-1.3,6.6-6.8,6.7c-4.6,0-6.6-1.9-6.6-6.6c0.1-17.5,0-35,0-52.5c0-5.4,1.6-6.7,7-6.8c4.7-0.1,6.7,2,6.5,6.7
			C15.1,10.6,15.3,14.5,15.3,18.6z"/>
		<path d="M85.8,37c-0.2-5-3-6.9-6.8-7c-4.6,0-9.3,0.3-13.9,0.8c-2.7,0.2-5.6,1-6.4-2.7s0-7.3,4.2-7.6c7.7-0.6,15.6-1.4,23.1-0.3
			c8.3,1.1,12.6,7.4,12.9,16c0.2,5.8,0.2,11.6,0,17.5C98.7,61,95.2,64.8,88,65.2c-6.5,0.4-13,0.4-19.4,0
			c-8.7-0.6-12.8-5.2-12.8-13.4c-0.1-8.4,3.8-13,12.3-13.9C73.8,37.3,79.6,37.3,85.8,37z M85.5,47.2c-4.6,0-9-0.4-13.2,0.2
			c-1.5,0.2-4,2.8-3.8,3.9c0.3,1.7,2.2,3.6,4,4.5s3.9,0.3,5.9,0.3C85.8,56.2,86.5,55.4,85.5,47.2L85.5,47.2z"/>
		<path d="M23.9,135.3C8.8,135.3,0,126.6,0,111.5s8.7-23.8,23.9-23.8c15,0,23.5,8.4,23.6,23.5C47.6,126.5,39.1,135.2,23.9,135.3z
			 M13.8,111.8c0,0.6,0.1,1.6,0.1,2.6c0.5,6.3,3.7,9.5,9.7,9.6c6.3,0.1,9.7-3.2,10.1-9.7c0.1-1.7,0.1-3.3,0-5
			c-0.4-7.7-4.5-11.1-12-10.2C16.3,99.8,13.8,103.6,13.8,111.8z"/>
		<path d="M55.8,105.4c0-4,0-8,0-12c0.1-4.7,3.4-5.1,7-5c3.6,0.1,6.3,0.8,6.3,5.2c-0.1,6.7,0,13.3,0,20c0,9.7,4.9,11.6,14,10.1
			c4.6-0.8,5.6-4.8,5.7-8.9c0.1-6.7,0.2-13.3,0-20c-0.1-4.5,1.7-6.4,6.2-6.3c4.2,0.1,7.2,0.9,7,6.1c-0.2,6.8,0.1,13.7-0.1,20.5
			c-0.4,13.1-6.8,19.5-19.8,20c-19.9,0.8-26.2-5.2-26.2-25.2L55.8,105.4L55.8,105.4z"/>
		<path d="M121.7,49.2c0,3.8,0.1,7.7,0,11.5c-0.1,4.8-3.6,4.8-7.1,4.8s-5.9-0.8-5.9-4.9c0.1-8.2-0.2-16.3,0.2-24.5
			c0.5-9.2,5.4-14.9,14.6-16.3c5.7-0.8,11.6-0.7,17.3,0.3c7.7,1.2,12.4,6.5,13,14.3c0.6,8.6,0.5,17.3,0.6,25.9
			c0.1,5.1-3.5,5.1-7.3,5.2c-3.9,0-5.9-1.6-5.8-5.6c0.1-6.5,0.2-13,0-19.5c-0.2-8.9-6.1-13.1-14.4-9.7c-2.3,0.9-4.3,4.4-5,7.1
			C121.2,41.4,121.8,45.4,121.7,49.2L121.7,49.2z"/>
		<path d="M124.9,88.7c4.1,0,7.7,0,11.4,0s5.2,1.7,5.2,5.2c0,3.7-1.6,5.6-5.5,5.4c-3.5-0.1-7,0-11,0c0,7.2-0.3,14.1,0.2,20.9
			c0.1,1.4,3.1,3.1,5.1,3.7c1.8,0.6,3.9,0.1,5.9,0c2.6-0.2,4.8,0.1,5.1,3.3c0.3,3,0.1,6.2-3.5,6.7c-4.7,0.7-9.6,1.3-14.3,0.7
			c-7-0.9-11.4-5.8-11.7-12.9c-0.5-13-0.4-26-0.4-39c0-4.1,2.8-4.7,6.2-4.7s6.6-0.1,7,4.4C124.8,84.2,124.8,86,124.9,88.7z"/>
		<path d="M177.6,120.5c5.6-2.7,7.4-10.3,16.3-7l-10.8,7.8l10,12.1c-8.7,3.2-9.9-5.5-15.6-8.3c0,2.2,0.4,4.3-0.1,5.9
			c-0.6,1.4-1.8,2.5-3.3,3c-0.7,0.2-2.8-1.8-2.8-2.9c-0.2-8.3-0.3-16.6,0-24.9c0-1.1,2-2.7,3.3-3c0.7-0.2,2.7,1.8,2.8,2.9
			C177.7,110.8,177.6,115.4,177.6,120.5z"/>
		<path d="M160,117.9c-0.4-3.8-0.5-7.6-0.5-11.4c0.4-1.5,1.5-2.8,3-3.3c1-0.2,3.3,1.7,3.4,2.7c0.3,8.5,0.3,16.9,0,25.4
			c0,1-1.9,2.7-3,2.7c-1.4-0.3-2.5-1.3-3-2.7c-0.3-4.5-0.1-9-0.1-13.4L160,117.9z"/>
		<path d="M149.8,123.6c2.5,3,5,4.8,4.9,6.3c-0.2,1.7-2.8,4.4-4.4,4.4c-1.8,0-4.6-2.3-5-4C145,128.9,147.6,126.8,149.8,123.6z"/>
	</g>
</g>
</svg>
