<?xml version="1.0" encoding="utf-8"?>
<!-- Generator: Adobe Illustrator 24.2.0, SVG Export Plug-In . SVG Version: 6.00 Build 0)  -->
<svg version="1.1" id="Layer_1" xmlns="http://www.w3.org/2000/svg" xmlns:xlink="http://www.w3.org/1999/xlink" x="0px" y="0px"
	 viewBox="0 0 739.3 820.9" style="enable-background:new 0 0 739.3 820.9;" xml:space="preserve">
<style type="text/css">
	.st0{fill:#DEE6FD;}
	.st1{fill:#FAA3AB;}
	.st2{fill:#323461;}
	.st3{fill:#FBA5AD;}
	.st4{fill:#FAA71A;}
	.st5{fill:#FDFDFE;}
	.st6{fill:#F48E49;}
	.st7{fill:#4D5DEE;}
	.st8{fill:#494261;}
	.st9{fill:#FCFCFE;}
	.st10{fill:#8889A4;}
	.st11{fill:#383B66;}
	.st12{fill:#4D5EF3;}
	.st13{fill:#5565F4;}
	.st14{fill:#C0C6FA;}
</style>
<g>
	<path class="st0" d="M405.6,107.6c13.4,2.1,26.8,3.9,40,6.9c21.8,4.9,42.8,12,63.3,20.8c23.7,10.3,45.9,23.4,66.7,38.7
		c9.5,7,18.6,14.4,27.3,22.4c16.2,14.8,31.1,30.8,44.2,48.4c15.1,20.3,28.2,41.8,38.7,64.9c8.5,18.7,15.4,37.8,20.5,57.6
		c3.8,14.7,6.5,29.7,8.3,44.8c2,16.7,3.3,33.4,2.8,50.1c-0.6,19.4-2.5,38.6-6.2,57.7c-6.8,35.5-18.8,69.1-36,100.9
		c-11.1,20.5-24.2,39.6-39.1,57.5c-8.7,10.5-18.1,20.4-28,29.8c-19.4,18.5-40.8,34.3-63.9,48c-18,10.6-36.9,19-56.3,26.5
		c-1.1,0.4-2.2,0.5-3.4,0.8c-0.7-22.7-1.4-45.4-2.1-68c13.5,0.4,27-0.1,40.4-1.5c3.7-0.4,4.3-1.6,2.6-4.6c0-1.2,0.1-2.3-0.1-3.5
		c-3.5-19.1-7.1-38.1-10.5-57.2c-2.2-12.4-4.3-24.8-6.4-37.2c5.4-2.3,9.6-6.4,14-10.1c13-10.8,27.6-19.6,38.8-32.4
		c11-12.5,22-25.1,31.9-38.5c10.6,0.5,15.9-10.9,15.1-18.5c-1.3-11.6-12.2-22.8-23.8-24.3c-3.2-0.4-5.2-1.7-7.1-3.9
		c-1.5-1.8-2.9-3.6-4.5-5.3c-14.2-16.3-28.4-32.5-42.6-48.8c-3.3-3.8-6.4-7.5-6.2-13.5c0.3-6.7-1.1-13.5-1.8-20.3
		c-1.7-16.8-3.3-33.6-5-50.4c2.3-2.8,7.3-4,6.9-8.3c-0.7-7.6-1.5-15.3-3.7-22.7c0.3-2.9-0.6-5.6-1.1-8.4
		c-5.4-28.3-12.7-56-26.4-81.6c-18.2-34.3-46.4-54.3-85.5-58c-5.6-1.5-11.3-1.8-17-2.1c-0.5-2.3,0.5-4.8-1-6.9
		c0.6-3.5-1.7-7.6,1.1-10.5C401.3,136,405,122.4,405.6,107.6z"/>
	<path class="st0" d="M250.5,782.6c-7.7-1.6-14.7-5-21.9-8.1c-25-10.7-48.2-24.6-69.9-41c-21-15.9-39.9-34-57-54.1
		c-18.5-21.8-33.7-45.6-46.5-71C48.4,594.9,43,580.8,38,566.5c-7.2-20.7-12.1-42-15.1-63.7c-2.9-20.5-4.3-41.3-3.2-62.1
		c2.3-42.2,10.8-83.1,27.4-122c13.1-30.5,29.9-58.9,51.2-84.5c8.5-10.2,17-20.4,26.7-29.5c22.2-20.9,46.2-39.3,72.8-54.3
		c31.6-17.9,65.5-29.8,100.9-37.7c4.2-0.9,8.5-1.5,12.7-2.2c5.1,14,13.7,25.7,25.1,35.1c4.1,3.4,6.7,6.6,6,11.9c0,2-0.1,4-0.1,5.9
		c-3,0.4-6,0.8-9,1.2c-7-0.4-13.9,1-20.8,2c-22.8,3.1-45.1,8-66,18.1c-14,6.7-25,16.2-30.8,31.1c-2.9,7.4-6.1,14.7-8.8,22.2
		c-10.9,30.5-17.4,62-19.2,94.3c-0.1,1.5-0.4,2.9-0.4,4.4c0.1,3.4-2.1,7.2-0.4,10.1c1.9,3.3,6.7,1.5,9.7,3.4
		c-6.1,15.8-12.2,31.6-18.2,47.5c-2.8,7.4-6.9,14.8-7.9,22.5c-2.5,19.4-3.6,39-5.2,58.5c-1.2,15.1-1.7,30.2-3.4,45.2
		c-0.6,5.9,0.3,11.9-2.1,17.7c-3.9,9.2,1.4,18.1,11.4,19.8l0,0c0.3,0.3,0.7,0.6,1,1c9.6,13.2,21.2,24.5,33.6,35
		c5.4,4.5,11,8.9,17.4,12.1c-1,16.1-3.7,31.9-5.5,47.9c-2,17.4-4.2,34.7-6.3,52.1c-0.8,2.9,0.2,4.5,3,5.7c10.9,4.9,22.3,8.5,34,11
		c0,1.2-0.1,2.3-0.1,3.5C249.7,747.4,250.6,765,250.5,782.6z"/>
	<path class="st0" d="M441.6,795.4c-5.3,3-11.5,2.9-17.2,3.9c-22.8,3.9-45.8,5-68.9,4.2c-16.5-0.6-33-2-49.3-5.5
		c-2.9-0.6-5.9-1-8.8-1.5c1.2-8.3,2.5-16.7,3.7-25.1c2.2-15.6,4.4-31.1,6.6-46.7c14.2-2.5,28.3-4.9,42.3-8.6c4-1.1,5.2-2.8,4.5-6.5
		c1.1-2.7,0.9-5.5,1.1-8.3c0.7-9.9,1.5-19.8,2.3-29.7c1.6-20,3.1-39.9,4.7-59.9c1.6-2.5,0.3-5.5,1.6-8.5c0.8,8,1.4,15.5,2.5,23
		c1,6.5,0.7,13.1,2.7,19.5v-0.1c0.3,9.1,1.2,18.2,3,27.2c1,12.2,2.4,24.5,4.2,36.6c0.5,0.9-1.2,4.8,2,2.1
		c10.7-8.9,23.6-9.9,36.6-10.7c0.3,1.3,0.4,2.6,0.8,3.9c5.9,20.7,11.8,41.4,17.6,62.1C436.4,776.3,439.7,785.6,441.6,795.4z"/>
	<path class="st1" d="M342.6,157.6c0.7-5.3-1.9-8.5-6-11.9c-11.5-9.4-20-21.1-25.1-35.1c-0.6-2.7-1.3-5.3-1.9-8
		c2.2-0.5,1.9-2.5,2.2-4c2.7-13,5.3-26,8-39.1c37.7,17.4,39.8,14.5,73.7-4.7c1.1,3.3,2.1,6.7,3.3,9.9c3.3,9.2,5.3,18.9,9.6,27.7
		c-0.9,5-0.6,10.1-0.6,15.2c-0.6,14.8-4.3,28.3-14.9,39.4c-2.8,3-0.5,7-1.1,10.5c-10.7,2.7-21.4,5.2-32.6,3.2
		C352.2,159.9,347.5,158.3,342.6,157.6z M389.4,119.8c-0.1-1.4,0.3-3.5-1.5-4c-1.5-0.4-1.9,1.6-2.5,2.7c-2.5,5-6.5,7.5-11.9,7.5
		c-11.7,0.1-24.6,4.6-32.3-9.2c-0.4-0.7-1.2-1.3-2.1-1c-1,0.4-1.2,1.5-1.3,2.5c-0.8,4.9,3.3,11.1,8.6,12.4
		c11.2,2.7,22.4,2.1,33.6,0.6C386.5,130.3,389.2,126.9,389.4,119.8z"/>
	<path class="st2" d="M406.2,92.5c-4.3-8.8-6.3-18.5-9.6-27.7c-1.2-3.3-2.2-6.6-3.3-9.9c-33.9,19.1-36,22.1-73.7,4.7
		c-2.7,13.1-5.3,26.1-8,39.1c-0.3,1.5,0.1,3.5-2.2,4c-4.1-14.2-8.6-28.3-9.1-43.2c-0.7-20.5,9.6-42.5,37.5-46.9
		c12.3-1.9,24.5-2.2,36.7,0.1c12.8,2.4,21.2,9.5,25.1,22.1c3.5,11.2,4.8,22.8,5.7,34.4C405.9,76.8,406,84.6,406.2,92.5z"/>
	<path class="st3" d="M441.6,795.4c-1.9-9.8-5.2-19.1-7.9-28.7c-5.8-20.7-11.8-41.4-17.6-62.1c-0.4-1.3-0.5-2.6-0.8-3.9
		c8.8-0.7,17.5-0.8,26.1,1.9c13.7,4.4,26.9,10.3,41.2,12.8c0.7,22.7,1.4,45.4,2.1,68c-5.2,3.5-11.3,4.4-17.1,6
		C459,791.9,450.6,795,441.6,795.4z"/>
	<path class="st3" d="M307.7,724.7c-2.2,15.6-4.4,31.1-6.6,46.7c-1.2,8.4-2.5,16.7-3.7,25.1c-14.1-3-28.1-6.6-41.8-11.1
		c-1.8-0.6-4.1-0.6-5.1-2.7c0.2-17.6-0.8-35.2-1.7-52.8c-0.1-1.2,0-2.3,0.1-3.5c8.2,0.9,16.5,1.5,24.8,0.9
		C284.9,726.5,296.3,725.5,307.7,724.7z"/>
	<path class="st4" d="M407.6,166.5c39.1,3.7,67.2,23.7,85.5,58c13.6,25.6,20.9,53.3,26.4,81.6c0.5,2.8,1.5,5.5,1.1,8.4
		c-0.9,0.4-1.9,0.7-2.7,1.2c-12.3,8.2-24.5,16.5-36.7,24.8c-2.5,1.7-4.1,3.2-4.9-1.7c-3.7-22.3-7.7-44.6-11.8-66.8
		c-1.1-6-1.2-12.2-3.8-18.2c-1.6,1.5-1.1,2.8-0.9,4.1c3.9,22.1,7.8,44.2,11.7,66.3c2.1,11.9,4.1,23.7,6.2,35.6
		c0.3,4.6,0.5,9.3,1,13.9c2.9,28.2,5.9,56.4,3.6,84.8c-4.9,2.4-10.1,0.7-15.2,1.5c-19.6,3.3-38.9,8-58.4,12
		c-10.4,2.1-20.6,4.8-31.2,5.4c0.7-11.1,3.5-21.9,5.4-32.8c4.2-24.1,5.6-48.4,6.5-72.7c0.3-9.1-0.8-18.2-1-27.4
		c-0.2-8.8-1.1-17.5-2-26.3c-1.5-14-3.1-27.9-4.9-41.9c-2-15.1-4.4-30.1-6.6-45.2c-0.9-5.9-1.7-11.8-2.5-17.8
		c0.6-0.4,1.3-0.8,1.9-1.2c1.3,1.9,2.6,3.8,4.1,5.6c2.3,2.8,3.8,3.6,5.6-0.9c6.1-15.3,12.6-30.4,19.1-45.5
		C404,169.6,404,166.3,407.6,166.5z M397.5,337.4c2.3-0.4,3.8-1.8,3.6-4.1c-0.1-2-1.5-3.4-3.6-3.4c-2.3,0-3.8,1.4-3.8,3.7
		C393.7,336,395.3,337.2,397.5,337.4z M399.9,382c2.1-0.3,3.4-1.3,3.5-3.5c0.1-2.4-1.3-3.8-3.6-3.8c-2.4,0-3.6,1.5-3.5,3.9
		C396.4,380.8,397.9,381.7,399.9,382z M396.2,289.2c-0.3-2-1.1-3.6-3.3-3.8c-2.4-0.2-3.9,1-4.1,3.4c-0.1,2,1,3.5,3.2,3.8
		C394.4,292.8,395.6,291.4,396.2,289.2z M386.4,240.6c-2.3,0.1-3.7,1.3-3.8,3.7c0,2.1,1.3,3.4,3.4,3.6c2.4,0.1,3.8-1.3,3.8-3.6
		C389.9,242.1,388.5,240.9,386.4,240.6z M391.3,471.5c1.9-0.4,3.4-1.3,3.5-3.5c0.1-2.4-1.3-3.8-3.6-3.9c-2-0.1-3.5,1.2-3.6,3.4
		C387.5,469.8,389,471,391.3,471.5z M399.8,422.8c-0.3-2.1-1.4-3.3-3.6-3.3c-2.4,0-3.7,1.4-3.6,3.7c0.1,2.1,1.4,3.3,3.5,3.3
		C398.6,426.6,399.6,425.1,399.8,422.8z"/>
	<path class="st5" d="M377.5,477.4c10.6-0.6,20.9-3.3,31.2-5.4c19.5-4,38.8-8.7,58.4-12c5.1-0.9,10.3,0.8,15.2-1.5
		c3.3,0.8,5.5,2.8,6.2,6.2c0.3,0.3,0.7,0.6,1,1l0,0c0,0.3-0.1,0.7,0,1c1.3,6,2.7,11.9,4,17.9c1.3,6.1,2.4,12.4,4,18.4
		c1.5,5.5,0.9,11.2,2.7,16.7c1.7,5.1,1.6,10.7,2.3,16.1c1.1,9.3,2.2,18.6,2.7,28.4c3.7-3.1,7-6.5,10.3-10
		c12.8-13.7,25.5-27.4,38.2-41.2c1.6-1.8,4.7-2.2,4.9-5.3c2.3,0.5,3.7-1.2,5.2-2.3c2.6-1.9,5.4-3,8.7-3c2.9,0.1,4.9,2.7,7.9,2.4v0.1
		c0.1,1.9,1.5,2.5,3,2.9l0,0c3.5,5.3,9.8,7.5,13.2,12.9c0.4,3.9-2.4,6.7-3.5,10c-9.9,13.4-20.9,26-31.9,38.5
		c-11.3,12.7-25.8,21.6-38.8,32.4c-4.4,3.7-8.6,7.7-14,10.1c-1.5-7-2.9-14-4.6-22.3c-0.5,6.3-2.5,10.8-4.4,15.3
		c-0.7,0.4-1.1,0.9-1,1.7c-1.4,0.7-2.1,1.7-2.1,3.3c-0.4,0.1-0.7,0.1-1.1,0.2c-1.8,1.2-3.4,2.9-5.3,3.6c-4.8,1.6-4.9,4.9-4.4,9
		c3.3,29.4,6.6,58.9,9.9,88.3c-1,0-2,0-3,0c-3.3-30.1-6.6-60.1-10-90.2c-0.1-1.2,0.7-3.3-2-2.9c-2,0.3-2.8,1.2-2.5,3.3
		c0.8,6.3,1.5,12.5,2.2,18.8c2.5,23.6,5.1,47.3,7.6,70.9c-1-0.1-1.9-0.1-2.9-0.2c-2.8-26.6-5.6-53.1-8.6-79.6
		c-0.4-3.7,0.8-9.1-1.9-10.8c-2.7-1.7-7.6-0.1-11.5,0c-0.9,0-1.7,0-2.6,0c-1.2-0.1-1.7,0.6-1.8,1.7c-0.3,0.1-0.6,0.1-0.8,0
		c-2.1-3.3-5.4-1.6-8-1.8c-6.5-0.5-6.6-0.3-5.9,6.1c2.7,25,5.5,50.1,8.3,75.1c-1.1-0.5-2.2-0.9-3.3-1.4c-0.1-1.7-0.1-3.3-0.3-5
		c-2.6-24.1-5.3-48.2-7.9-72.4c-0.2-2.1-0.7-3.8-3.2-3.5c-3.1,0.4-1.6,2.8-1.4,4.3c2.6,25.1,5.4,50.2,8.1,75.4
		c-1.1-0.5-2.3-0.9-3.4-1.4c-0.1-3-0.1-6-0.4-8.9c-2.2-19.6-4.4-39.2-6.6-58.9c-1.5-13.1,0.9-10.8-12.1-11.8
		c-0.6-0.8-1.5-0.7-2.4-0.5c-0.4,0-0.9-0.1-1.3-0.1c-0.8-0.1-1.6-0.1-2.4-0.2c-1.5-0.1-3.1,0.1-4.5-0.3c-4.9-1.3-5.6,0.5-5,5.2
		c2.9,24.6,5.4,49.3,8.1,73.9c-0.9,0-1.8,0.1-2.7,0.1c-0.3-2.1-0.6-4.3-0.8-6.4c-2.6-23.5-5.3-47-7.8-70.5c-0.3-3.3-1.4-4.8-5.1-4
		c3.1,27.2,6.1,54.3,9.2,81.4c-1,0.1-2.1,0.3-3.1,0.4c-2.6-24-5.7-47.9-7.6-71.9c-0.7-8.9-3.6-14.6-11.8-17.6
		c-0.6-0.2-1.1-0.3-1.7-0.5c-0.8-0.8-1.5-1.7-2.3-2.5c-0.6-0.2-1.2-0.3-1.8-0.5c-2.3-4.1-7.2-6.1-9-10.6c-0.2-1.3-0.2-2.7-0.5-3.9
		c-9.8-38.8-19.6-77.6-29.4-116.4c1.5,0.2,3,0.3,4.4,0.5c9.8,1.5,19.5,4.1,29.4,4.3C374.9,477.4,376.2,477.4,377.5,477.4z
		 M505,568.8c-15.6,14.3-25.1,17.1-46.7,13.9c-1.2-0.2-2.9-0.7-3.5,0.9c-0.6,1.8,1.1,2.2,2.3,2.6c1.4,0.6,2.8,0.9,4.3,1.2
		c13.1,2.8,25-0.9,36.2-7.2C501.6,578.1,505.9,575.2,505,568.8z M479.9,524.4c-7.9,0.6-15.8,0.9-23.6-1.2
		C464,527,471.8,527.5,479.9,524.4z M482.9,523.2c0.1,0.4,0.3,0.8,0.4,1.2c4.4-1.6,9.2-2.3,12.4-6.6
		C491.5,519.6,487.2,521.4,482.9,523.2z"/>
	<path class="st3" d="M572.5,502.3c-3.2,0-6.1,1.1-8.7,3c-1.5,1.1-3,2.8-5.2,2.3c0.1-2.2-1.6-3.1-3.2-4c-3.4-2-6.9-4-10.3-6
		c-18.5-10.7-37-21.3-55.5-32l0,0c-0.3-0.3-0.7-0.6-1-1c-0.7-3.4-2.9-5.4-6.2-6.2c2.2-28.4-0.8-56.6-3.6-84.8
		c-0.5-4.6-0.7-9.2-1-13.9c14.2-2,28-5.3,39.7-14.3c1.7,16.8,3.3,33.6,5,50.4c0.7,6.8,2.1,13.5,1.8,20.3c-0.2,6,2.9,9.6,6.2,13.5
		c14.1,16.3,28.4,32.5,42.6,48.8c1.5,1.8,3,3.6,4.5,5.3c1.9,2.2,3.9,3.5,7.1,3.9c11.7,1.5,22.6,12.7,23.8,24.3
		c0.8,7.6-4.5,19-15.1,18.5c1.1-3.4,3.9-6.2,3.5-10c1.4-0.1,4-0.8,2.3-2.2c-4.9-3.9-9-9-15.5-10.7l0,0c0.1-2.1-0.8-3.1-3-2.9v-0.1
		c-0.7-2.5-3.4-3-4.9-4.6c-0.8-0.8-1.8-1.9-2.9-1.2C570.8,499.8,572.7,501.1,572.5,502.3z"/>
	<path class="st6" d="M377.5,477.4c-1.3,0-2.6,0-4,0c1.8-9.6,3.8-19.1,5.5-28.7c3.3-18.9,5.8-38,6.5-57.2c1-29.9-0.4-59.7-4-89.4
		c-1.4-12-3-23.9-4.6-35.9c-2-14.4-4.2-28.8-6.3-43.2c-0.4-2.7,0-6.6-2.1-7.6c-1.9-1-3.7,2.6-5.4,4.3c-2,2-3.1,1.9-4.3-0.7
		c-2.8-6.2-5.9-12.3-8.7-18.5c-5.3-12-11.8-23.4-16.5-35.7c3-0.4,6-0.8,9-1.2c2.9,1.2,5.1,3.2,6.9,5.6c3.6,4.8,6.8,9.8,9.4,15.2
		c4.1,8.5,8,17.1,12.2,26.2c2.9-9,5.4-17.5,8.5-25.8c2.7-7.2,4.8-14.9,11.1-20.2c5.7,0.3,11.4,0.6,17,2.1c-3.6-0.2-3.6,3-4.5,5.1
		c-6.5,15.1-13,30.2-19.1,45.5c-1.8,4.5-3.4,3.7-5.6,0.9c-1.5-1.8-2.7-3.7-4.1-5.6c-0.6,0.4-1.3,0.8-1.9,1.2
		c0.8,5.9,1.7,11.8,2.5,17.8c2.2,15.1,4.5,30.1,6.6,45.2c1.9,13.9,3.5,27.9,4.9,41.9c0.9,8.7,1.8,17.5,2,26.3
		c0.2,9.1,1.3,18.3,1,27.4c-0.9,24.3-2.3,48.6-6.5,72.7C381,455.5,378.2,466.3,377.5,477.4z"/>
	<path class="st6" d="M517.4,345.5c-11.7,9-25.4,12.3-39.7,14.3c-2.1-11.9-4.1-23.7-6.2-35.6c-3.9-22.1-7.8-44.2-11.7-66.3
		c-0.2-1.2-0.7-2.6,0.9-4.1c2.6,6,2.7,12.2,3.8,18.2c4.1,22.2,8.1,44.5,11.8,66.8c0.8,4.9,2.4,3.4,4.9,1.7
		c12.2-8.3,24.5-16.5,36.7-24.8c0.8-0.5,1.8-0.8,2.7-1.2c2.3,7.4,3,15.1,3.7,22.7C524.7,341.5,519.7,342.7,517.4,345.5z"/>
	<path class="st7" d="M499.5,604.6c1.8-4.5,3.9-9,4.4-15.3c1.7,8.3,3.2,15.3,4.6,22.3c2.1,12.4,4.1,24.8,6.4,37.2
		c3.4,19.1,7,38.1,10.5,57.2c0.2,1.1,0.1,2.3,0.1,3.5c-4.6,0.9-9.3,1.4-14,1c0-0.7,0-1.3-0.1-2c-3-27.7-5.9-55.5-9.2-83.2
		C501.5,618.3,501.5,611.3,499.5,604.6z"/>
	<path class="st3" d="M390.6,164.5c-6.3,5.3-8.4,13-11.1,20.2c-3.1,8.3-5.6,16.8-8.5,25.8c-4.3-9.1-8.2-17.7-12.2-26.2
		c-2.6-5.4-5.8-10.4-9.4-15.2c-1.8-2.4-4-4.4-6.9-5.6c0-2,0.1-4,0.1-5.9c4.9,0.7,9.6,2.2,14.5,3.1c11.3,2,21.9-0.4,32.6-3.2
		C391.2,159.7,390.2,162.2,390.6,164.5z"/>
	<path class="st8" d="M511.5,710.4c4.7,0.4,9.4-0.1,14-1c1.7,3,1,4.2-2.6,4.6c-13.4,1.4-26.9,1.9-40.4,1.5
		c-14.3-2.5-27.5-8.4-41.2-12.8c-8.5-2.8-17.3-2.6-26.1-1.9c-13,0.8-25.9,1.8-36.6,10.7c-3.3,2.7-1.5-1.2-2-2.1
		c3.7-3.5,7.8-6.5,12.2-9c0.6-0.2,1.2-0.4,1.8-0.7c0.7-0.2,1.4-0.3,2.1-0.5c0.4-0.2,0.8-0.4,1.2-0.6c3.3-0.7,6.6-1.4,9.9-2.2
		c1-0.1,2.1-0.3,3.1-0.4c1.5-0.2,3-0.3,4.5-0.5c0.9,0,1.8-0.1,2.7-0.1c3.5-0.1,7-0.2,10.5-0.3c0.4,0,0.7,0,1.1,0
		c0.9-0.1,1.7-0.1,2.6-0.2c0.5,0.1,0.9,0.2,1.4,0.3c3.7,0.6,7.4,1.2,11,1.8c1.1,0.5,2.3,0.9,3.4,1.4c1.5,0.4,3.1,0.8,4.6,1.2
		c1.1,0.5,2.2,0.9,3.3,1.4c4.8,1.8,9.7,3.5,14.5,5.3c0.4,0.1,0.8,0.1,1.2,0.2c0.9,0.3,1.8,0.6,2.7,0.9c0.4,0.1,0.8,0.1,1.3,0.2
		c4.2,1.5,8.6,2.2,13.1,2.7c1,0.1,1.9,0.1,2.9,0.2c1.6,0,3.2,0.1,4.8,0.1c1,0,2,0,3,0c3.7,0,7.3,0,11,0c0.4,0,0.8,0,1.2,0
		c0.8-0.1,1.6-0.1,2.4-0.2C510.5,710.3,511,710.4,511.5,710.4z"/>
	<path class="st4" d="M333.5,164.8c4.7,12.3,11.2,23.7,16.5,35.7c2.8,6.2,5.9,12.3,8.7,18.5c1.2,2.6,2.3,2.7,4.3,0.7
		c1.7-1.7,3.5-5.3,5.4-4.3c2.1,1.1,1.7,4.9,2.1,7.6c2.1,14.4,4.3,28.8,6.3,43.2c1.7,11.9,3.2,23.9,4.6,35.9c3.5,29.7,5,59.5,4,89.4
		c-0.6,19.2-3.1,38.2-6.5,57.2c-1.7,9.6-3.6,19.2-5.5,28.7c-10-0.2-19.6-2.8-29.4-4.3c-1.5-0.2-2.9-0.4-4.4-0.5
		c-1.1-0.3-2.2-0.5-3.3-0.8c-1.2-0.2-2.4-0.4-3.6-0.6c-1-0.7-2.1-0.7-3.2-0.5c-11-2.2-22.1-4.6-33.2-6.5c-17.5-3-34.9-6.9-52.8-5.5
		c-0.3-0.9-0.6-1.9-0.9-2.8c-4.9-19.1-2.3-38.3-0.6-57.4c1.2-12.9,3.2-25.7,2.4-38.7c0-0.3,0-0.7,0-1c0.3-0.5,0.9-1.1,1-1.6
		c0.8-9.1,1.4-18.1,2.1-27.2c0.7-9.2,1.3-18.5,2.1-27.7c1.6-17.4,3.3-34.9,4.8-52.3c0.3-2.8,0-5.7,0-8.5c-0.5,0-1,0-1.5,0
		c-0.5,5.6-1,11.2-1.5,16.9c-0.7,9.4-1.4,18.8-2.2,28.2c-1.2,14.3-2.7,28.6-3.8,43c-0.5,7.2-1.2,8.1-8.3,7.3
		c-16.4-1.8-32.9-3.3-49.4-4.1c1.8-32.4,8.3-63.8,19.2-94.3c2.7-7.5,5.9-14.8,8.8-22.2c5.7-14.8,16.8-24.4,30.8-31.1
		c20.9-10,43.2-14.9,66-18.1C319.6,165.8,326.4,164.3,333.5,164.8z"/>
	<path class="st9" d="M243.5,458.6c17.9-1.4,35.4,2.5,52.8,5.5c11.1,1.9,22.1,4.3,33.2,6.5c3.3,13.5,6.6,27.1,10,40.6
		c6.5,25.8,13.2,51.5,19.8,77.3c-0.4,9.2-4,17.5-7.1,25.9c-1,0.1-1.8,0.4-1.7,1.7c-3.1,2-3.2,5.2-3.1,8.4c-0.3,0.1-0.5,0.1-0.8,0
		c-0.1-1.1-0.1-2.3-0.2-3.5c-3.1,1.8-5.9,3.5-8.8,5.1c-1.5,0.8-1.9,2.1-2.1,3.7c-2.9,28.7-5.8,57.5-8.8,86.2c-0.9,0.8-2,0.7-3.1,0.6
		c2.3-21.8,4.6-43.7,6.8-65.5c0.7-6.6,1.4-13.2,2-19.9c0.1-1,0.6-2.5-1.3-2.6c-1.2,0-2.4,0.2-2.9,1.5c-0.3,0.9-0.5,1.9-0.6,2.9
		c-2.8,28.1-5.7,56.3-8.5,84.4c-1,0.1-2,0.3-3.1,0.4c2.7-26.2,5.4-52.5,8.2-78.7c1-9.3,1-9.2-7.2-10.4c-2.7-0.4-2.6,1-2.7,2.8
		c-0.3,0.1-0.5,0.1-0.8,0c-0.2-1.6,0.6-3.4-1.1-4.6c-1-0.5-2-1-2.9-1.4c-3.2-1.9-6.4-3.8-10.1-6c-1.2,11.6-2.4,22.5-3.5,33.4
		c-2.3,22.6-4.5,45.2-6.7,67.8c-0.9,0.8-1.9,0.8-3,0.7c1.9-19,3.7-38.1,5.6-57.1c1.4-14.2,3-28.5,4.5-42.7c0.3-2.5,0.2-5.3-2.8-5.2
		c-2.3,0.1-1.6,3-1.8,4.8c-1,8.8-1.8,17.5-2.7,26.3c-2.5,24.7-5,49.3-7.6,74c-1,0-2,0.1-3,0.1c0.1-1,0.1-2,0.2-3
		c3.3-32.2,6.7-64.4,10-96.7c0.9-8.8,0.8-8.6-9-12.3c-3.5-1.3-4.6-0.5-4.2,2.9c-0.3,0.1-0.5,0.1-0.8,0c-0.6-1.6,1.5-4.3-1.9-4.8
		c-0.6-0.1-1.2-0.2-1.9-0.3c-11-2.7-12.3-2.1-13.2,6c-3.7,35.7-7.4,71.4-11.1,107.1c-0.9-0.1-1.8-0.1-2.7-0.2
		c3.8-36.6,7.5-73.2,11.2-109.8c0.2-1.6,1.8-4.3-1.8-4.5c-3.1-0.2-2.6,2.4-2.8,4.3c-1.5,14.6-3.1,29.1-4.5,43.7
		c-2.2,21.7-4.4,43.4-6.5,65.1c-1.1,0.4-2-0.2-3-0.6c0.7-6.3,1.3-12.6,2-18.9c2.9-28.1,5.8-56.3,8.8-84.4c0.9-8.3,1.1-8.3-6.8-10.1
		c-1-0.2-2-0.4-2.9-0.6c-0.4-0.8-1.1-0.9-1.9-0.9c-0.6-0.5-1.1-1.1-2-0.9c-0.3,0-0.7-0.1-1-0.1c-2-3.2-3.9-6.4-6.3-10.2
		c-1,6.4-1.9,11.8-2.8,17.3c-6.4-3.2-12-7.5-17.4-12.1c-12.4-10.5-24-21.8-33.6-35c-0.3-0.3-0.7-0.6-1-1l0,0
		c-1-3.9-4.3-7.3-2.8-11.9c8.7-1.1,17.3-2.9,25.8-4.8c3.1,0.7,5.4,2.6,7.8,4.5c4.7,4.3,10,7.5,15.6,10.5c3.9,2.1,4.7,1.2,4.7-2.9
		c-0.1-9.1-0.3-18.4,2.2-27.1c1.9-6.6,2.8-13.1,2.8-19.8c0-0.3,0.2-0.6,0.2-1c3.3-15.4,7.8-30.4,11.9-45.6
		C240.3,461.5,240.9,459.1,243.5,458.6z M258,569.9c-11.5,3.4-22.8,2-33.9-1.8C231.9,574.5,251,575.5,258,569.9z"/>
	<path class="st3" d="M168.8,549.7c-1.5,4.5,1.9,7.9,2.8,11.9c-10-1.7-15.3-10.7-11.4-19.8c2.5-5.8,1.5-11.8,2.1-17.7
		c1.6-15,2.2-30.1,3.4-45.2c1.5-19.5,2.7-39.1,5.2-58.5c1-7.7,5-15.1,7.9-22.5c6-15.9,12.1-31.7,18.2-47.5c15.1,2.1,30,5.4,44.9,8.5
		c-6.9,23.2-13.7,46.5-20.7,69.7c-10.1,33.2-20.3,66.4-30.5,99.6c-0.8,2.5-0.5,3.6,2.2,4.8c6.9,3.1,9.9,9,9.7,16.5
		c-2.4-1.9-4.7-3.8-7.8-4.5c-0.1-0.9-0.1-2.2-1.5-1.9c-8,1.5-16,3.1-24,4.7C167.5,548,167.8,548.9,168.8,549.7z"/>
	<path class="st6" d="M241.8,358.9c-14.9-3.1-29.8-6.4-44.9-8.5c-3.1-1.8-7.9-0.1-9.7-3.4c-1.7-2.9,0.5-6.7,0.4-10.1
		c0-1.5,0.2-2.9,0.4-4.4c16.5,0.8,33,2.2,49.4,4.1c7.1,0.8,7.7-0.1,8.3-7.3c1-14.3,2.5-28.6,3.8-43c0.8-9.4,1.4-18.8,2.2-28.2
		c0.4-5.6,1-11.2,1.5-16.9c0.5,0,1,0,1.5,0c0,2.8,0.2,5.7,0,8.5c-1.6,17.4-3.3,34.9-4.8,52.3c-0.8,9.2-1.4,18.5-2.1,27.7
		c-0.7,9.1-1.4,18.1-2.1,27.2c0,0.6-0.6,1.1-1,1.6c-0.3,0.1-0.7,0.2-1,0.3C242.8,358.9,242.3,358.9,241.8,358.9z"/>
	<path class="st7" d="M223.6,609.6c0.9-5.5,1.7-10.9,2.8-17.3c2.3,3.8,4.3,7,6.3,10.2c-0.3,1-0.7,1.9-0.8,2.9
		c-2.1,20.8-4.2,41.6-6.3,62.4c-1.6,15-3.3,30-4.9,45c-2.9-1.1-5.9-2.2-8.8-3.3c2.1-17.4,4.3-34.7,6.3-52.1
		C219.9,641.5,222.6,625.6,223.6,609.6z"/>
	<path class="st8" d="M211.7,709.6c2.9,1.1,5.9,2.2,8.8,3.3c0.6,0.2,1.2,0.4,1.8,0.7c0.7,0.3,1.4,0.6,2.1,0.9
		c0.4,0.2,0.8,0.3,1.1,0.5c3.7,1.1,7.3,2.3,11,3.4c0.9,0.4,1.9,1,3,0.6c1.5,0.4,3,0.8,4.4,1.3c0.9,0.1,1.8,0.1,2.7,0.2
		c4.2,1.2,8.4,1.3,12.7,1.3c0.5,0,0.9,0,1.4,0c0.8,0,1.6,0,2.4,0c0.5,0.1,1,0.2,1.4,0.3c4.7-0.2,9.4-0.3,14-0.5c1,0,2-0.1,3-0.1
		c1.6,0,3.2,0,4.7,0c1.1,0.1,2.2,0.1,3-0.7c3.8,0,7.5,0.2,11.2-0.6c0.4-0.1,0.8-0.2,1.2-0.4c0.9-0.1,1.8-0.1,2.7-0.2
		c0.4,0,0.8-0.1,1.2-0.1c3.5-0.5,7-1.1,10.5-1.6c1-0.1,2-0.3,3.1-0.4c1.5-0.3,3-0.6,4.4-0.9c1.1,0.1,2.2,0.2,3.1-0.6
		c3.5-0.4,7.1-0.8,10.4-2.2c0.5-0.1,0.9-0.1,1.4-0.2c0.7-0.2,1.4-0.4,2.1-0.5c0.6-0.1,1.2-0.3,1.8-0.4c4.1-0.5,8.1-1.7,12-3
		c0.7,3.7-0.5,5.5-4.5,6.5c-13.9,3.7-28.1,6.1-42.3,8.6c-11.4,0.9-22.7,1.8-34.1,2.6c-8.3,0.6-16.5-0.1-24.8-0.9
		c-11.7-2.4-23.1-6-34-11C212,714.1,210.9,712.5,211.7,709.6z"/>
	<path class="st3" d="M171.5,561.5c0.3,0.3,0.7,0.6,1,1C172.2,562.2,171.9,561.9,171.5,561.5z"/>
	<path class="st7" d="M354.5,709.5c-3.9,1.3-7.9,2.5-12,3c0.4-3.8,0.7-7.6,1.1-11.4c1.9-18,3.8-36,5.6-54c1.1-10.9,2-21.8,3.1-32.7
		c3.1-8.4,6.7-16.7,7.1-25.9c0.7-1.9-0.8-4.2,1.3-5.9c1.6,2,2.6,4.5,4.9,6c0.9,1.8,2.5,3.1,4.1,4.3c1.9,4.5,6.7,6.4,9,10.6
		c0,1.7,0,3.3,0.2,5c3.3,30.6,6.7,61.3,10,91.9c-4.4,2.5-8.5,5.4-12.2,9c-1.8-12.2-3.2-24.4-4.2-36.6c-0.2-9.1-1.1-18.2-3-27.2v0.1
		c-0.7-17-3.6-33.8-5.2-51.6c-1.8,6.4-1.7,12-1.6,17.6c-1.6,20-3.1,39.9-4.7,59.9c-0.8,9.9-1.6,19.8-2.3,29.7
		C355.3,704,355.5,706.9,354.5,709.5z"/>
	<path class="st10" d="M362.6,611.6c-0.1-5.6-0.2-11.2,1.6-17.6c1.6,17.8,4.5,34.6,5.2,51.6c-2-6.3-1.7-13-2.7-19.5
		c-1.2-7.5-1.7-15.1-2.5-23C362.9,606.1,364.1,609.1,362.6,611.6z"/>
	<path class="st10" d="M369.4,645.6c1.9,9,2.8,18,3,27.2C370.7,663.8,369.7,654.7,369.4,645.6z"/>
	<path class="st11" d="M389.4,119.8c-0.2,7-2.8,10.5-9.5,11.4c-11.2,1.6-22.5,2.1-33.6-0.6c-5.3-1.3-9.4-7.5-8.6-12.4
		c0.2-1,0.4-2.1,1.3-2.5c0.8-0.4,1.7,0.2,2.1,1c7.7,13.9,20.7,9.4,32.3,9.2c5.4-0.1,9.5-2.6,11.9-7.5c0.6-1.1,1-3.1,2.5-2.7
		C389.7,116.3,389.2,118.4,389.4,119.8z"/>
	<path class="st8" d="M397.5,337.4c-2.2-0.3-3.8-1.4-3.8-3.8c0-2.3,1.5-3.7,3.8-3.7c2.1,0,3.5,1.4,3.6,3.4
		C401.3,335.7,399.8,337,397.5,337.4z"/>
	<path class="st11" d="M399.9,382c-2-0.3-3.5-1.2-3.6-3.4c-0.1-2.4,1.2-3.9,3.5-3.9s3.7,1.4,3.6,3.8
		C403.4,380.7,402,381.7,399.9,382z"/>
	<path class="st11" d="M396.2,289.2c-0.6,2.2-1.8,3.7-4.2,3.4c-2.1-0.2-3.3-1.8-3.2-3.8c0.2-2.3,1.7-3.6,4.1-3.4
		C395.1,285.6,395.9,287.2,396.2,289.2z"/>
	<path class="st11" d="M386.4,240.6c2.2,0.3,3.5,1.5,3.5,3.6c0,2.3-1.4,3.7-3.8,3.6c-2.1-0.1-3.4-1.4-3.4-3.6
		C382.6,241.9,384.1,240.8,386.4,240.6z"/>
	<path class="st11" d="M391.3,471.5c-2.3-0.5-3.8-1.6-3.7-4c0.1-2.1,1.6-3.4,3.6-3.4c2.3,0.1,3.7,1.5,3.6,3.9
		C394.7,470.1,393.2,471.1,391.3,471.5z"/>
	<path class="st11" d="M399.8,422.8c-0.1,2.3-1.2,3.8-3.7,3.8c-2.1,0-3.4-1.2-3.5-3.3c-0.1-2.4,1.2-3.7,3.6-3.7
		C398.4,419.5,399.5,420.7,399.8,422.8z"/>
	<path class="st0" d="M489.5,465.6c18.5,10.7,37,21.3,55.5,32c3.4,2,6.9,4,10.3,6c1.6,0.9,3.2,1.8,3.2,4c-0.2,3.1-3.3,3.5-4.9,5.3
		c-12.7,13.8-25.4,27.5-38.2,41.2c-3.2,3.5-6.5,6.9-10.3,10c-0.5-9.8-1.6-19.1-2.7-28.4c-0.7-5.4-0.6-11.1-2.3-16.1
		c-1.8-5.5-1.2-11.2-2.7-16.7c-1.7-6-2.7-12.3-4-18.4c-1.3-6-2.7-11.9-4-17.9C489.4,466.2,489.5,465.9,489.5,465.6z"/>
	<path class="st12" d="M466.5,706.3c-4.8-1.8-9.7-3.5-14.5-5.3c-2.8-25-5.6-50.1-8.3-75.1c-0.7-6.4-0.6-6.6,5.9-6.1
		c2.7,0.2,6-1.5,8,1.8c0.8,8.1,1.5,16.2,2.3,24.3C462.1,666,464.3,686.1,466.5,706.3z"/>
	<path class="st12" d="M484.8,710.3c-4.5-0.4-8.9-1.1-13.1-2.7c-1.9-18.1-3.8-36.2-5.6-54.3c-1.1-11.2-3.1-22.3-3.3-33.5
		c3.9-0.1,8.8-1.8,11.5,0c2.7,1.7,1.5,7.1,1.9,10.8C479.2,657.2,481.9,683.7,484.8,710.3z"/>
	<path class="st12" d="M506.4,710.5c-3.7,0-7.3,0-11,0c-3.3-29.4-6.5-58.9-9.9-88.3c-0.5-4.1-0.4-7.4,4.4-9c2-0.6,3.6-2.3,5.3-3.6
		C499,643.3,502.7,676.9,506.4,710.5z"/>
	<path class="st12" d="M440.6,697c-3.7-0.6-7.4-1.2-11-1.8c-1.2-11.1-2.4-22.1-3.5-33.2c-1.5-14.9-3-29.7-4.5-44.6
		c13,1,10.6-1.3,12.1,11.8c2.2,19.6,4.4,39.2,6.6,58.9C440.5,691.1,440.5,694.1,440.6,697z"/>
	<path class="st12" d="M403.7,696.5c-3.3,0.7-6.6,1.4-9.9,2.2c-1.3-12.2-2.6-24.4-3.8-36.7c-1.9-18.3-3.8-36.7-5.6-55
		c8.2,3,11.1,8.7,11.8,17.6C398,648.6,401.1,672.5,403.7,696.5z"/>
	<path class="st12" d="M424.5,695.2c-3.5,0.1-7,0.2-10.5,0.3c-2.7-24.6-5.2-49.3-8.1-73.9c-0.6-4.7,0.2-6.4,5-5.2
		c1.4,0.4,3,0.2,4.5,0.3c0.3,1.1,0.8,2.2,0.9,3.3C419.1,645.1,421.8,670.1,424.5,695.2z"/>
	<path class="st13" d="M492.5,710.5c-1.6,0-3.2-0.1-4.8-0.1c-2.5-23.6-5.1-47.3-7.6-70.9c-0.7-6.3-1.3-12.6-2.2-18.8
		c-0.3-2.2,0.5-3,2.5-3.3c2.7-0.4,1.9,1.7,2,2.9C485.8,650.4,489.1,680.5,492.5,710.5z"/>
	<path class="st13" d="M411.3,695.6c-1.5,0.2-3,0.3-4.5,0.5c-3.1-27.1-6.1-54.2-9.2-81.4c3.7-0.8,4.7,0.7,5.1,4
		c2.5,23.5,5.2,47,7.8,70.5C410.8,691.3,411,693.4,411.3,695.6z"/>
	<path class="st10" d="M369.6,592.9c-1.6-1.2-3.1-2.5-4.1-4.3c-1.8-7.6-3.6-15.2-5.5-22.7c-7.9-31.4-15.8-62.7-23.6-94.1
		c1.1,0.3,2.2,0.5,3.3,0.8c9.8,38.8,19.6,77.6,29.4,116.4C369.4,590.3,369.4,591.6,369.6,592.9z"/>
	<path class="st13" d="M448.7,699.6c-1.5-0.4-3.1-0.8-4.6-1.2c-2.7-25.1-5.5-50.2-8.1-75.4c-0.2-1.4-1.7-3.9,1.4-4.3
		c2.4-0.3,2.9,1.4,3.2,3.5c2.6,24.1,5.3,48.3,7.9,72.4C448.6,696.3,448.6,697.9,448.7,699.6z"/>
	<path class="st13" d="M510,710.3c-0.8,0.1-1.6,0.1-2.4,0.2c-0.1-2-0.1-4-0.3-6c-2.3-20.6-4.5-41.3-6.8-61.9
		c-1.3-11-2.7-22.1-4-33.1c0-1.5,0.7-2.6,2.1-3.3c1,8.3,2,16.5,2.9,24.8C504.3,657.4,507.2,683.9,510,710.3z"/>
	<path class="st0" d="M505,568.8c0.9,6.5-3.4,9.3-7.4,11.6c-11.2,6.2-23.1,9.9-36.2,7.2c-1.5-0.3-2.9-0.7-4.3-1.2
		c-1.1-0.5-2.9-0.8-2.3-2.6c0.6-1.7,2.2-1.1,3.5-0.9C479.9,585.9,489.4,583.1,505,568.8z"/>
	<path class="st13" d="M392.6,699.2c-0.7,0.2-1.4,0.3-2.1,0.5c-2-17.1-4.2-34.2-5.8-51.3c-1.4-14.8-3.8-29.5-4.4-44.4
		c0.8,0.8,1.5,1.7,2.3,2.5c0,1.3,0,2.7,0.1,4C386,640,389.3,669.6,392.6,699.2z"/>
	<path class="st13" d="M470.4,707.4c-0.9-0.3-1.8-0.6-2.7-0.9c0-1.7,0-3.3-0.2-5c-1.8-16.8-3.6-33.6-5.5-50.4
		c-1.1-9.9-2.4-19.7-3.6-29.6c0.1-1.1,0.6-1.8,1.8-1.7c1.1,1.6,1.1,3.4,1.2,5.2c0.7,7.4,1.5,14.8,2.3,22.2
		C466,667.3,468.2,687.3,470.4,707.4z"/>
	<path class="st13" d="M428.2,695c-0.9,0.1-1.7,0.1-2.6,0.2c-1.8-17.7-3.7-35.4-5.5-53.1c-0.8-8.4-2.6-16.7-2.3-25.3
		c0.4,0,0.9,0.1,1.3,0.1c1.9,8.8,2.3,17.7,3.3,26.6C424.5,660.7,426.3,677.8,428.2,695z"/>
	<path class="st14" d="M510,710.3c-2.9-26.4-5.7-52.9-8.6-79.3c-0.9-8.3-1.9-16.5-2.9-24.8c-0.1-0.8,0.3-1.3,1-1.7
		c2,6.7,2,13.8,2.8,20.6c3.2,27.7,6.2,55.5,9.2,83.2c0.1,0.7,0.1,1.3,0.1,2C511,710.4,510.5,710.3,510,710.3z"/>
	<path class="st14" d="M380.4,604c0.5,14.9,2.9,29.6,4.4,44.4c1.6,17.1,3.9,34.2,5.8,51.3c-0.6,0.2-1.2,0.4-1.8,0.7
		c-3.3-30.6-6.7-61.3-10-91.9c-0.2-1.6-0.1-3.3-0.2-5C379.2,603.7,379.8,603.8,380.4,604z"/>
	<path class="st14" d="M496.4,609.5c1.3,11,2.8,22.1,4,33.1c2.3,20.6,4.6,41.2,6.8,61.9c0.2,2,0.2,4,0.3,6c-0.4,0-0.8,0-1.2,0
		c-3.7-33.6-7.4-67.2-11.1-100.8C495.7,609.6,496.1,609.6,496.4,609.5z"/>
	<path class="st14" d="M392.6,699.2c-3.3-29.6-6.6-59.2-9.9-88.8c-0.1-1.3-0.1-2.6-0.1-4c0.6,0.2,1.1,0.3,1.7,0.5
		c1.9,18.3,3.7,36.7,5.6,55c1.3,12.2,2.6,24.5,3.8,36.7C393.4,698.8,393,699,392.6,699.2z"/>
	<path class="st14" d="M470.4,707.4c-2.2-20-4.5-40.1-6.7-60.1c-0.8-7.4-1.6-14.8-2.3-22.2c-0.2-1.8-0.2-3.6-1.2-5.2
		c0.8,0,1.7,0,2.6,0c0.2,11.3,2.2,22.4,3.3,33.5c1.8,18.1,3.7,36.2,5.6,54.3C471.3,707.5,470.9,707.5,470.4,707.4z"/>
	<path class="st14" d="M458.4,621.5c1.2,9.9,2.5,19.7,3.6,29.6c1.9,16.8,3.7,33.6,5.5,50.4c0.2,1.6,0.1,3.3,0.2,5
		c-0.4-0.1-0.8-0.1-1.2-0.2c-2.2-20.2-4.4-40.3-6.6-60.5c-0.9-8.1-1.6-16.2-2.3-24.3C457.9,621.6,458.2,621.6,458.4,621.5z"/>
	<path class="st14" d="M428.2,695c-1.9-17.1-3.7-34.3-5.7-51.4c-1-8.9-1.4-17.8-3.3-26.6c0.9-0.3,1.7-0.4,2.4,0.5
		c1.5,14.9,3,29.7,4.5,44.6c1.1,11.1,2.3,22.1,3.5,33.2C429.1,695.2,428.6,695.1,428.2,695z"/>
	<path class="st14" d="M417.8,616.8c-0.3,8.5,1.5,16.8,2.3,25.3c1.7,17.7,3.6,35.4,5.5,53.1c-0.4,0-0.7,0-1.1,0
		c-2.7-25.1-5.4-50.1-8.2-75.2c-0.1-1.1-0.6-2.2-0.9-3.3C416.2,616.7,417,616.8,417.8,616.8z"/>
	<path class="st1" d="M583.4,507.7c6.4,1.7,10.6,6.8,15.5,10.7c1.8,1.4-0.8,2.1-2.3,2.2C593.3,515.2,586.9,512.9,583.4,507.7z"/>
	<path class="st0" d="M479.9,524.4c-8,3.1-15.9,2.6-23.6-1.2C464,525.3,471.9,525,479.9,524.4z"/>
	<path class="st0" d="M482.9,523.2c4.3-1.8,8.5-3.6,12.8-5.4c-3.2,4.3-8,5-12.4,6.6C483.2,524,483.1,523.6,482.9,523.2z"/>
	<path class="st1" d="M572.5,502.3c0.2-1.2-1.7-2.5,0.1-3.5c1.2-0.6,2.2,0.4,2.9,1.2c1.5,1.6,4.2,2.1,4.9,4.6
		C577.4,505,575.4,502.4,572.5,502.3z"/>
	<path class="st1" d="M580.4,504.8c2.1-0.2,3.1,0.9,3,2.9C581.8,507.3,580.5,506.6,580.4,504.8z"/>
	<path class="st0" d="M488.5,464.6c0.3,0.3,0.7,0.6,1,1C489.2,465.3,488.9,464.9,488.5,464.6z"/>
	<path class="st0" d="M241.8,358.9c0.5,0,1.1,0.1,1.6,0.1c0.3,0.2,0.7,0.4,1,0.7c0.8,13-1.3,25.8-2.4,38.7
		c-1.7,19.2-4.3,38.3,0.6,57.4c0.2,1,0.6,1.9,0.9,2.8c-2.7,0.5-3.2,2.9-3.7,4.8c-4.1,15.2-8.6,30.2-11.9,45.6
		c-0.1,0.3-0.2,0.6-0.2,1c-0.1,6.7-0.9,13.2-2.8,19.8c-2.5,8.6-2.3,18-2.2,27.1c0,4.1-0.7,5-4.7,2.9c-5.6-3-11-6.2-15.6-10.5
		c0.3-7.6-2.8-13.4-9.7-16.5c-2.7-1.2-3-2.3-2.2-4.8c10.2-33.2,20.4-66.3,30.5-99.6C228.1,405.4,234.8,382.1,241.8,358.9z"/>
	<path class="st9" d="M336.3,471.8c7.9,31.4,15.8,62.7,23.6,94.1c1.9,7.6,3.7,15.1,5.5,22.7c-2.3-1.4-3.3-3.9-4.9-6
		c-0.1-0.8-0.1-1.7-0.3-2.5c-9.2-36.3-18.4-72.7-27.6-109C333.9,471.4,335.1,471.6,336.3,471.8z"/>
	<path class="st10" d="M332.7,471.2c9.2,36.3,18.4,72.7,27.6,109c0.2,0.8,0.2,1.6,0.3,2.5c-2,1.6-0.5,4-1.3,5.9
		c-6.6-25.8-13.2-51.5-19.8-77.3c-3.4-13.5-6.7-27.1-10-40.6C330.6,470.5,331.7,470.5,332.7,471.2z"/>
	<path class="st3" d="M244.4,359.6c-0.3-0.2-0.7-0.4-1-0.7c0.3-0.1,0.7-0.2,1-0.3C244.4,359,244.4,359.3,244.4,359.6z"/>
	<path class="st12" d="M278.5,721.5c-4.7,0.2-9.4,0.3-14,0.5c0.7-6.9,1.4-13.9,2.1-20.8c1.9-18,3.8-36,5.6-54
		c1.2-11.6,2.2-23.1,3.2-34.7c-0.3-3.5,0.8-4.3,4.2-2.9c9.8,3.7,9.9,3.6,9,12.3c-3.3,32.2-6.7,64.4-10,96.7
		C278.6,719.5,278.6,720.5,278.5,721.5z"/>
	<path class="st12" d="M259.3,721.7c-4.3,0-8.6-0.1-12.7-1.3c3.7-35.7,7.4-71.4,11.1-107.1c0.8-8.1,2.1-8.7,13.2-6
		c-1.2,12.5-2.3,25.1-3.6,37.6C264.6,670.6,262,696.2,259.3,721.7z"/>
	<path class="st12" d="M236.5,718.4c-3.7-1.1-7.3-2.3-11-3.4c2.4-21.8,4.7-43.6,7.1-65.4c1.6-15,3.3-30.1,4.9-45.1
		c1,0.2,2,0.4,2.9,0.6c7.9,1.8,7.7,1.8,6.8,10.1c-3,28.1-5.9,56.3-8.8,84.4C237.8,705.8,237.2,712.1,236.5,718.4z"/>
	<path class="st12" d="M300.5,720.1c-3.7,0.8-7.5,0.6-11.2,0.6c2.2-22.6,4.5-45.2,6.7-67.8c1.1-10.9,2.3-21.7,3.5-33.4
		c3.7,2.2,6.9,4.1,10.1,6c-0.3,13.3-2.4,26.4-3.7,39.6C304.3,683.5,302.3,701.8,300.5,720.1z"/>
	<path class="st12" d="M316.2,717.8c-3.5,0.5-7,1.1-10.6,1.6c1.9-18.1,3.9-36.2,5.7-54.3c1.1-11.2,2.1-22.4,3.1-33.6
		c0.1-1.7,0-3.2,2.7-2.8c8.2,1.2,8.1,1.1,7.2,10.4C321.6,665.3,318.9,691.6,316.2,717.8z"/>
	<path class="st12" d="M337.2,713.7c-3.3,1.5-6.9,1.8-10.4,2.2c2.9-28.7,5.9-57.5,8.8-86.2c0.2-1.6,0.6-2.8,2.1-3.7
		c2.9-1.6,5.7-3.3,8.8-5.1c0.1,1.3,0.1,2.4,0.2,3.5c-1.4,3.3-1,6.9-1.3,10.3C342.6,661.1,339.9,687.4,337.2,713.7z"/>
	<path class="st13" d="M243.9,720.3c-1.5-0.4-3-0.8-4.4-1.3c2.2-21.7,4.3-43.4,6.5-65.1c1.5-14.6,3-29.1,4.5-43.7
		c0.2-1.9-0.3-4.4,2.8-4.3c3.6,0.2,1.9,2.9,1.8,4.5C251.5,647.1,247.7,683.7,243.9,720.3z"/>
	<path class="st13" d="M286.2,721.4c-1.6,0-3.2,0-4.7,0c2.5-24.7,5-49.3,7.6-74c0.9-8.8,1.7-17.5,2.7-26.3c0.2-1.7-0.5-4.7,1.8-4.8
		c3-0.1,3.1,2.7,2.8,5.2c-1.6,14.2-3.1,28.4-4.5,42.7C289.9,683.3,288.1,702.4,286.2,721.4z"/>
	<path class="st13" d="M323.7,716.5c-1.5,0.3-3,0.6-4.4,0.9c2.8-28.1,5.6-56.3,8.5-84.4c0.1-1,0.2-2,0.6-2.9
		c0.5-1.3,1.7-1.5,2.9-1.5c1.9,0,1.4,1.6,1.3,2.6c-0.6,6.6-1.3,13.2-2,19.9C328.2,672.8,326,694.7,323.7,716.5z"/>
	<path class="st13" d="M263.1,721.7c-0.8,0-1.6,0-2.4,0c4-38,8-76,12-114.1c3.5,0.5,1.3,3.2,1.9,4.8c-2.2,11.2-2.7,22.7-3.9,34
		C267.9,671.6,265.6,696.7,263.1,721.7z"/>
	<path class="st13" d="M224.4,714.5c-0.7-0.3-1.4-0.6-2.1-0.9c1.5-15.2,3-30.4,4.5-45.6c2.2-21.8,4.5-43.6,6.8-65.3
		c0.9-0.2,1.4,0.4,2,0.9c-1.1,12.2-2.2,24.5-3.4,36.7C229.7,665,227,689.7,224.4,714.5z"/>
	<path class="st13" d="M340.7,713c-0.7,0.2-1.4,0.4-2.1,0.5c1.8-17.8,3.7-35.6,5.4-53.4c1.2-11.9,2.3-23.7,3.4-35.6
		c0-3.2,0-6.4,3.1-8.4c0,1.3,0,2.7-0.1,4c-1.7,17.1-3.5,34.3-5.3,51.4C343.7,685.3,342.2,699.1,340.7,713z"/>
	<path class="st13" d="M304.4,719.5c-0.9,0.1-1.8,0.1-2.7,0.2c0.6-5.3,1.2-10.6,1.8-15.8c2.1-20.6,4-41.3,6.4-61.9
		c0.6-5-0.4-10.4,2.6-15c1.7,1.2,0.9,3,1.1,4.6c-1,2.2-0.9,4.5-1.1,6.8c-1.2,11.4-2.4,22.7-3.5,34.1
		C307.4,688.1,305.9,703.8,304.4,719.5z"/>
	<path class="st14" d="M272.7,607.7c-4,38-8,76-12,114.1c-0.5,0-0.9,0-1.4,0c2.6-25.6,5.3-51.1,7.9-76.7c1.3-12.5,2.4-25.1,3.6-37.6
		C271.4,607.5,272.1,607.6,272.7,607.7z"/>
	<path class="st14" d="M233.6,602.6c-2.3,21.8-4.6,43.6-6.8,65.3c-1.6,15.2-3,30.4-4.5,45.6c-0.6-0.2-1.2-0.4-1.8-0.7
		c1.7-15,3.4-30,4.9-45c2.2-20.8,4.2-41.6,6.3-62.4c0.1-1,0.5-1.9,0.8-2.9C233,602.6,233.3,602.6,233.6,602.6z"/>
	<path class="st14" d="M224.4,714.5c2.6-24.8,5.2-49.5,7.8-74.3c1.2-12.2,2.3-24.5,3.4-36.7c0.8,0,1.5,0.2,1.9,0.9
		c-1.6,15-3.3,30.1-4.9,45.1c-2.4,21.8-4.7,43.6-7.1,65.4C225.2,714.8,224.8,714.6,224.4,714.5z"/>
	<path class="st14" d="M263.1,721.7c2.5-25.1,4.8-50.1,7.6-75.2c1.3-11.3,1.7-22.8,3.9-34c0.3,0.1,0.5,0.1,0.8,0
		c-1.1,11.6-2.1,23.1-3.2,34.7c-1.8,18-3.8,36-5.6,54c-0.7,6.9-1.4,13.9-2.1,20.8C264,721.9,263.6,721.8,263.1,721.7z"/>
	<path class="st14" d="M340.7,713c1.5-13.8,3-27.7,4.5-41.5c1.8-17.1,3.5-34.3,5.3-51.4c0.1-1.3,0.1-2.7,0.1-4
		c-0.1-1.2,0.7-1.5,1.7-1.7c-1,10.9-2,21.8-3.1,32.7c-1.8,18-3.8,36-5.6,54c-0.4,3.8-0.7,7.6-1.1,11.4
		C341.9,712.7,341.3,712.8,340.7,713z"/>
	<path class="st14" d="M312.6,626.9c-3,4.6-2,10-2.6,15c-2.4,20.6-4.3,41.3-6.4,61.9c-0.5,5.3-1.2,10.6-1.8,15.8
		c-0.4,0.1-0.8,0.2-1.2,0.4c1.8-18.3,3.8-36.6,5.5-55c1.2-13.2,3.3-26.3,3.7-39.6C310.6,626,311.6,626.5,312.6,626.9z"/>
	<path class="st14" d="M304.4,719.5c1.5-15.7,3-31.3,4.5-47c1.1-11.4,2.4-22.7,3.5-34.1c0.2-2.3,0.1-4.7,1.1-6.8
		c0.3,0.1,0.5,0.1,0.8,0c-1,11.2-1.9,22.4-3.1,33.6c-1.8,18.1-3.8,36.2-5.7,54.3C305.2,719.4,304.8,719.5,304.4,719.5z"/>
	<path class="st14" d="M347.4,624.5c-1.1,11.9-2.2,23.7-3.4,35.6c-1.8,17.8-3.6,35.6-5.4,53.4c-0.4,0.1-0.9,0.1-1.4,0.2
		c2.7-26.3,5.4-52.5,8.1-78.8c0.4-3.5-0.1-7,1.3-10.3C346.9,624.6,347.2,624.6,347.4,624.5z"/>
	<path class="st0" d="M258,569.9c-7,5.6-26.1,4.6-33.9-1.8C235.2,571.9,246.5,573.3,258,569.9z"/>
	<path class="st1" d="M168.8,549.7c-1-0.8-1.2-1.7,0.2-2c8-1.6,16-3.2,24-4.7c1.5-0.3,1.4,1,1.5,1.9
		C186,546.9,177.5,548.6,168.8,549.7z"/>
</g>
</svg>
