<?xml version="1.0" encoding="utf-8"?>
<!-- Generator: Adobe Illustrator 24.2.0, SVG Export Plug-In . SVG Version: 6.00 Build 0)  -->
<svg version="1.1" id="Layer_1" xmlns="http://www.w3.org/2000/svg" xmlns:xlink="http://www.w3.org/1999/xlink" x="0px" y="0px"
	 viewBox="0 0 739.3 820.9" style="enable-background:new 0 0 739.3 820.9;" xml:space="preserve">
<style type="text/css">
	.st0{fill:#1CC0A9;}
	.st1{fill:none;stroke:#61D3C3;stroke-width:1.95;stroke-miterlimit:10;}
	.st2{fill:#61D3C3;}
	.st3{fill:#1E2A4F;}
	.st4{fill:none;stroke:#FFFFFF;stroke-width:1.95;stroke-linecap:round;stroke-linejoin:round;}
	.st5{fill:#FFFFFF;}
	.st6{fill:#DFF6F3;}
	.st7{fill:#F7CB42;}
	.st8{fill:#FBFBFB;}
	.st9{fill:none;stroke:#959499;stroke-width:0.72;stroke-miterlimit:10;}
	.st10{fill:#EBECEF;}
	.st11{fill:#FFBA99;}
	.st12{fill:#B8E745;}
	.st13{fill:#1B227A;}
	.st14{clip-path:url(#SVGID_2_);}
	.st15{fill:#5F4456;}
	.st16{fill:#E3505B;}
	.st17{fill:#3095BC;}
	.st18{fill:#6DCAED;}
	.st19{fill:#D6DCE5;}
	.st20{fill:#FF9E77;}
	.st21{fill:#55433E;}
	.st22{clip-path:url(#SVGID_4_);}
	.st23{fill:#FF8279;}
	.st24{clip-path:url(#SVGID_6_);}
	.st25{fill:#BA0411;}
	.st26{fill:#D9AD53;}
	.st27{fill:#F3C13A;}
	.st28{fill:none;stroke:#DEDFE4;stroke-width:7.96;stroke-linecap:round;stroke-linejoin:round;}
	.st29{fill:#DEDFE4;}
</style>
<path class="st0" d="M640.4,517.4c-9.1-45.2,19.8-47,20.4-105.3c0.3-23.8-9.2-48.1-31.8-59.3c-11.1-5.5-22.2-9.2-32.1-17.9
	c-22.6-19.8-22.1-57.6-28.3-89.7c-13.5-70.7-60.7-125.6-113.3-123.8c-38,1.3-77.1,1.7-111.7,46.5c-23.7,30.6-100.2,26.3-122.2,57.8
	c-23.3,33.4,9.5,91.4-22.3,102.1c-30.1,10.2-62.9,22.2-86,52.7c-21.7,28.6-18.5,58.5-9.2,93.6c10.2,38.7-12,65.1-35.1,80.2
	c-19.5,12.7-28.6,11.6-37.7,42c-9.8,32.9,48.2,33.5,75.3,33.5s332.5-2.9,430.7,1.2c26.4,1.1,110.7,11.1,122.6-34.6
	C667.8,565.2,646.8,549,640.4,517.4"/>
<path class="st1" d="M226.4,344.9c65.5,53.2,102.6,139.5,96.1,223.6"/>
<path class="st2" d="M239.7,356.7c-4.9-10.9-13.5-19.6-24.3-24.7c-2.6-1.2-5.7-2.2-8.3-0.9c-0.7,0.3-1.3,0.9-1.7,1.6
	c-0.3,1.3,0,2.6,0.8,3.6c3.6,5.7,10,9.1,16.3,11.7C228.9,350.6,233.2,353.3,239.7,356.7"/>
<path class="st2" d="M256.2,374.1c-8.8-8-20.2-12.7-32.1-13c-2.9-0.1-6.1,0.3-8,2.4c-0.6,0.6-0.9,1.3-0.9,2.2c0.2,1.3,1,2.4,2.2,3
	c5.6,3.8,12.8,4.4,19.5,4.3C243.7,372.8,248.8,373.7,256.2,374.1"/>
<path class="st2" d="M275.6,398.5c-7.7-9.1-18.5-15-30.2-16.9c-2.9-0.4-6.1-0.5-8.3,1.4c-0.6,0.5-1,1.2-1.2,2
	c0.1,1.3,0.7,2.5,1.8,3.2c5.1,4.5,12.1,6,18.9,6.7C263.4,395.7,268.3,397.2,275.6,398.5"/>
<path class="st2" d="M291.3,424.6c-7.7-9.1-18.5-15-30.2-16.9c-2.9-0.4-6.1-0.5-8.3,1.4c-0.6,0.5-1,1.2-1.2,2
	c0.1,1.3,0.7,2.5,1.8,3.2c5.1,4.5,12.1,6,18.9,6.7C279,421.8,284,423.2,291.3,424.6"/>
<path class="st2" d="M307.4,461.6c-6.8-9.8-16.8-16.9-28.3-19.9c-2.8-0.7-6-1.2-8.4,0.6c-0.7,0.4-1.1,1.1-1.3,1.9
	c-0.1,1.3,0.5,2.6,1.5,3.4c4.7,5,11.4,7.2,18.1,8.6C295.5,457.6,300.3,459.5,307.4,461.6"/>
<path class="st2" d="M263.2,382.5c5.2-11.3,6.3-24.1,3.1-36.1c-0.8-3-2-6.2-4.7-7.5c-0.7-0.4-1.5-0.5-2.3-0.3
	c-1.2,0.4-1.9,1.7-2.2,3c-2,6.7-0.5,14.2,1.6,21C260.8,369.5,261.5,374.9,263.2,382.5"/>
<path class="st2" d="M277.6,401.9c7.7-9.8,11.8-21.9,11.6-34.3c0-3.1-0.5-6.5-2.8-8.4c-0.6-0.6-1.4-0.9-2.2-0.9
	c-1.3,0.1-2.2,1.3-2.9,2.4c-3.6,6.1-3.9,13.6-3.5,20.8C278.3,388.6,277.7,394.1,277.6,401.9"/>
<path class="st2" d="M293.2,429c9.5-8,16-19.1,18.3-31.3c0.6-3,0.8-6.4-1-8.8c-0.5-0.7-1.2-1.1-2-1.3c-1.3-0.2-2.4,0.8-3.3,1.8
	c-4.7,5.2-6.5,12.6-7.6,19.7C296.5,416.2,294.9,421.4,293.2,429"/>
<path class="st2" d="M309.6,465.5c7.5-9.9,11.4-22.2,10.9-34.6c-0.1-3.1-0.7-6.5-3-8.3c-0.6-0.5-1.4-0.8-2.2-0.8
	c-1.3,0.1-2.2,1.3-2.8,2.5c-3.5,6.1-3.6,13.7-3,20.9C310.1,452.4,309.6,457.7,309.6,465.5"/>
<path class="st3" d="M591.4,290.7c-2.2,5.5-8.4,8.1-13.8,5.9c-5.5-2.2-8.1-8.4-5.9-13.8c2.2-5.5,8.4-8.1,13.8-5.9c0,0,0,0,0,0
	C590.9,279.1,593.6,285.3,591.4,290.7"/>
<polyline class="st4" points="577,285.5 579.3,290.9 587.4,285.9 "/>
<path class="st5" d="M518,174c0,2.2-1.8,3.9-3.9,3.9s-3.9-1.8-3.9-3.9c0-2.2,1.8-3.9,3.9-3.9l0,0C516.2,170,518,171.8,518,174"/>
<path class="st6" d="M572.3,372.1l155-0.4l-39.5-7.3c0,0,1.6-40-17.7-32c-19.4,8-20.2,25.4-20.2,25.4s-7.3-16-17.7-10.2
	c-6.5,3.8-11.8,9.3-15.3,16c0,0-3.8-11.5-10.5-12.2c-5.7-0.6-16.7,10.4-22.4,16.5L572.3,372.1z"/>
<path class="st6" d="M320.2,150l155-0.5l-39.5-8.1c0,0,1.6-44.4-17.7-35.5c-11.3,5.1-19,15.9-20.2,28.2c0,0-7.3-17.7-17.7-11.3
	c-10.5,6.5-15.3,17.7-15.3,17.7s-3.8-12.8-10.5-13.5c-5.7-0.6-16.7,11.5-22.4,18.4L320.2,150z"/>
<path class="st7" d="M601.8,173.9l-6.1,2.1l-2.6-7.6c-4.7-14.1-19.9-21.7-33.9-17.1c-14.1,4.7-21.7,19.9-17.1,33.9
	c0.1,0.3,0.2,0.5,0.3,0.8l2.6,7.6l-6.1,2.1c-4.8,1.7-7.3,6.9-5.6,11.6l17.1,49.4c1.7,4.8,6.8,7.3,11.6,5.7l62.9-21.8
	c4.8-1.7,7.4-6.9,5.7-11.7c0,0,0,0,0,0l-17.1-49.4C611.8,174.8,606.5,172.3,601.8,173.9 M553.8,182.1c-2.7-7.7,1.4-16.1,9.1-18.7
	c7.7-2.7,16.1,1.4,18.7,9.1l0,0l2.6,7.6l-27.8,9.7L553.8,182.1z M590.2,227.1l4.4,12.6c0.2,0.5-0.1,1.1-0.6,1.3c0,0,0,0,0,0l-6,2.1
	c-0.5,0.2-1.1-0.1-1.2-0.6l-4.3-12.6c-6.5-0.2-11.6-5.6-11.3-12.1c0.2-6.5,5.6-11.6,12.1-11.3c6.5,0.2,11.6,5.6,11.3,12.1
	C594.3,221.9,592.8,225,590.2,227.1"/>
<path class="st2" d="M512.1,596.4c-2.9-5.7,3.9-11.7,10.1-12.8c6.2-1.1,13.3-0.3,18.3-4.2c6.6-5.3,6.3-16.7,13.7-20.9
	c5.9-3.4,13.7-0.2,20-2.8c7.8-3.3,10-14.2,17.6-17.8c6.1-2.9,14,0.4,17.2,6.4c3.1,6,1.7,13.7-2.6,18.9c-3.4,4.1-8.4,6.9-10.5,11.7
	c-3.3,7.6,1.9,16.8-1.2,24.4c-5.6,14.2-31.9,9.9-36.4,24.4c-1,3.2-0.6,6.7-0.8,10.1c-0.8,10.1-7.9,18.9-16.7,23.9s-19,6.8-29.1,7.5
	c-4.1,0.3-8.5,0.4-12.1-1.5c-3.5-1.8-5.8-5.1-7.7-8.5C479.8,633.2,474.8,604.6,512.1,596.4"/>
<path class="st2" d="M318.1,584.8c6.5-4.3,2.9-14.9-3.1-19.8c-6-4.9-14.1-8.3-17.1-15.5c-3.9-9.6,3.3-21.7-2-30.6
	c-4.3-7.2-14.6-8.4-19.7-15.1c-6.3-8.2-2.1-21.1-8.1-29.6c-4.8-6.8-15.2-8.1-22.2-3.5c-6.9,4.6-10.1,13.7-8.6,21.8
	c1.2,6.4,4.8,12.4,4.1,18.9c-1.1,10.1-12.1,16.8-13.5,26.8c-2.6,18.5,28.1,29.8,24.2,48.1c-0.9,4.1-3.4,7.6-5.2,11.3
	c-5.2,11.2-2.9,24.9,3.4,35.6c6.4,10.6,16.3,18.7,26.6,25.5c4.2,2.8,8.8,5.5,13.9,5.7c4.8,0.2,9.3-1.9,13.4-4.4
	C330.4,643.7,353,616.1,318.1,584.8"/>
<path class="st2" d="M488.7,608c9.1-3.9,17.3-11.2,24.1-18.2c18.3-18.9,29.7-43.6,35.7-69c5.4-23,6.6-46.8,5.5-70.3
	c-0.1-2-3.2-2-3.1,0c2.5,52.9-8,117.8-55.3,150c-2.6,1.9-5.4,3.5-8.4,4.9C485.3,606.2,486.9,608.9,488.7,608"/>
<path class="st2" d="M548.9,511.9c0,0,3-17.1,25.7-19.8C574.6,492.1,566.3,512.3,548.9,511.9"/>
<path class="st2" d="M541.5,537.2c0,0,6.9-16,29.6-13.3C571.1,523.9,558.3,541.7,541.5,537.2"/>
<path class="st2" d="M531.8,559.5c0,0,10.3-14,31.9-6.3C563.7,553.2,547.2,567.7,531.8,559.5"/>
<path class="st2" d="M552.4,485.3c0,0,3-16.8,25.3-19.5C577.7,465.8,569.5,485.7,552.4,485.3"/>
<path class="st2" d="M552.7,456c0,0-12.7-11.4-3.1-31.8C549.6,424.2,562.1,441.7,552.7,456"/>
<path class="st2" d="M552.8,473.4c0,0-16.8-3.1-19.3-25.4C533.5,447.9,553.4,456.3,552.8,473.4"/>
<path class="st2" d="M551.1,499c0,0-16.8-3.1-19.3-25.4C531.8,473.6,551.7,481.9,551.1,499"/>
<path class="st2" d="M546.7,523.1c0,0-16.6-4.3-17.4-26.7C529.3,496.3,548.5,506,546.7,523.1"/>
<path class="st2" d="M539.1,547.1c0,0-16.6-4.3-17.4-26.7C521.7,520.3,540.9,530,539.1,547.1"/>
<path class="st3" d="M491.6,668.3H321.2c-19.7,0-35.6-16-35.6-35.6l0,0V230.1c0-19.7,16-35.6,35.6-35.6l0,0h170.4
	c19.7,0,35.6,16,35.6,35.6v0v402.6C527.3,652.4,511.3,668.3,491.6,668.3C491.6,668.3,491.6,668.3,491.6,668.3"/>
<path class="st8" d="M491.1,651.5H321.7c-13.8,0-25-11.2-25-25V233.4c0-13.8,11.2-25,25-25h169.4c13.8,0,24.9,11.2,24.9,25v393.2
	C516.1,640.4,504.9,651.6,491.1,651.5"/>
<path class="st3" d="M472.1,208.4h-14.3c-4.4,0-7.9,3.5-7.9,7.9c0,0,0,0,0,0v5.7c0,4.4-3.6,7.9-7.9,7.9c0,0,0,0,0,0h-63.6
	c-4.4,0-7.9-3.5-7.9-7.9c0,0,0,0,0,0v-5.7c0-4.4-3.6-7.9-7.9-7.9H322v-4.1h150L472.1,208.4z"/>
<path class="st0" d="M449.3,586.6h-88c-0.9,0-1.7-0.7-1.7-1.7l0,0v-17.2c0-0.9,0.7-1.7,1.7-1.7l0,0h88c0.9,0,1.7,0.7,1.7,1.7l0,0
	v17.2C450.9,585.8,450.2,586.6,449.3,586.6L449.3,586.6"/>
<path class="st9" d="M332.3,334.8H490c2.6,0,4.7,2.1,4.7,4.7v15.9c0,2.6-2.1,4.7-4.7,4.7H332.3c-2.6,0-4.7-2.1-4.7-4.7v-15.9
	C327.7,336.9,329.8,334.8,332.3,334.8z"/>
<path class="st9" d="M332.3,391H490c2.6,0,4.7,2.1,4.7,4.7v15.9c0,2.6-2.1,4.7-4.7,4.7H332.3c-2.6,0-4.7-2.1-4.7-4.7v-15.9
	C327.7,393.1,329.8,391,332.3,391z"/>
<path class="st9" d="M332.3,450.1H490c2.6,0,4.7,2.1,4.7,4.7v15.9c0,2.6-2.1,4.7-4.7,4.7H332.3c-2.6,0-4.7-2.1-4.7-4.7v-15.9
	C327.7,452.2,329.8,450.1,332.3,450.1z"/>
<path class="st9" d="M332.3,509.5H490c2.6,0,4.7,2.1,4.7,4.7V530c0,2.6-2.1,4.7-4.7,4.7H332.3c-2.6,0-4.7-2.1-4.7-4.7v-15.9
	C327.7,511.6,329.8,509.5,332.3,509.5z"/>
<path class="st10" d="M490.1,740c0-2-48.1-3.5-107.4-3.5s-107.4,1.6-107.4,3.5s48.1,3.6,107.4,3.6S490.1,742,490.1,740"/>
<path class="st11" d="M394,512.8c0,0,10.7,16.5,13.1,9.3l3.9-11.5c0,0-3-5-4.7-3.5c-1.6,1.5-3.9-1.3-3.9-1.3L394,512.8z"/>
<path class="st11" d="M446.8,427.6l4.4-25.6c2.9-0.9,5.9-3.2,4.8-6.6c-0.6-1.6-1.9-2.8-3.5-3.2c-0.6-0.2-3.7-1.2-3.9,0.1l1.7-9.2
	l-30-14.5l-2.8,18.6c0-0.3-2.9-1-3.3-0.9c-1.6,0.3-2.9,1.4-3.6,2.9c-1.6,3.5,1.5,7.9,5.2,7.9c0,0,0.5,8.2,2.4,11.2
	s10.7,4.9,10.7,4.9l-1,11.2L446.8,427.6z"/>
<path class="st12" d="M456.9,429.7c-13.6-3.8-32.6-7.2-32.6-7.2l-12.6,90l53.3-1.6L456.9,429.7z"/>
<path class="st12" d="M456.9,429.7c17.5,4.7,35.4,8.1,53.4,10c-4.1-18.5-6.3-32.6-11.6-48.2l20-5.1c0,0,16.8,58.4,11.6,66.3
	c-8.7,13.3-51.8,4.5-51.8,4.5l-20.3-3.7L456.9,429.7z"/>
<path class="st12" d="M365.7,449.5c0,0,57.2-28,59.8-26.9s4.9,14,4.9,14c-17,10.4-34.6,19.8-52.8,28.1l29.2,39.7l-14.5,10.5
	c0,0-40-45-38.5-54.3C354.8,453.4,365.7,449.6,365.7,449.5"/>
<path class="st11" d="M517.9,386.6c0,0-2.3-16.5-2.7-17c-0.3-0.5-0.3-3.4-4.5-2.7c0,0-0.3-5.2-2.7-5.3c-1.7,0-3.5,0.2-5.2,0.6
	c0,0-2.8-13.4-4.6-15.8c-2-2.5-4.7,4.2-0.5,20.5c0,0,2.3,11.1,1.7,11.5c-1.9,1.2-4.5,0.9-8.1-5.3c-3.8-6.6-8.6-4.3-6.3,0.8
	c2.4,5.1,5.7,11.7,7.9,13.5s6.8,1.5,6.8,1.5l0.7,2.1L517.9,386.6z"/>
<path class="st3" d="M464.9,510.9c-6.4,97.4-28.2,217.7-28.2,217.7l21.3,9h-45.4L442.4,525h-10.2l-75.4,212.8h-45.4l25.8-9.4
	l75.3-222.7L464.9,510.9z"/>
<path class="st13" d="M454,392.8c2.5-5.1,5.5-17.4-2.2-20.8c-3.9-1.8-7.7-4-11.2-6.4c-4.7-3.2-10.5-4.3-16-2.9
	c-0.9,0.2-1.7,0.6-2.5,0.9c-5.4,2.6-9,16.9-9,16.9l5.3,1.3c0,0,5.9,26.2,15.6,31.6l9.7,2l5.7,1.3L454,392.8z"/>
<path class="st13" d="M446.9,370.2c0-1.6,0-3.1-0.2-4.7c-0.1-0.6-1.1-0.6-1,0c0.2,1.5,0.2,3.1,0.2,4.7c0,0.3,0.2,0.5,0.5,0.5
	C446.7,370.6,446.9,370.4,446.9,370.2"/>
<path class="st13" d="M446.9,370.4c0.6-0.5,1-1.1,1.3-1.8c0.5-0.8,1-1.6,1.6-2.4c0.4-0.5-0.5-1-0.9-0.5c-0.5,0.6-0.9,1.2-1.3,1.9
	c-0.3,0.6-0.6,1.7-1.2,2C446,369.8,446.5,370.6,446.9,370.4"/>
<g>
	<defs>
		<rect id="SVGID_1_" x="46.5" y="710.6" width="214.8" height="7.1"/>
	</defs>
	<clipPath id="SVGID_2_">
		<use xlink:href="#SVGID_1_"  style="overflow:visible;"/>
	</clipPath>
	<g class="st14">
		<path class="st10" d="M261.3,714.2c0-2-48.1-3.5-107.4-3.5s-107.4,1.6-107.4,3.5c0,2,48.1,3.5,107.4,3.5S261.3,716.2,261.3,714.2"
			/>
	</g>
</g>
<path class="st15" d="M190.8,341.4c-2.1-0.4-4.3-0.7-6.5-0.8c-3.8-0.4-7.4,2.1-10.3,4.7c-2.8,2.7-5.1,5.8-6.9,9.2
	c-1.9,3.5-3.7,7.4-2.6,11.2c0.4,0.9,0.7,1.9,0.8,2.9c0,3.1-4.3,4.3-5.7,7.1c-1.7,3.5,1.7,8.1-0.6,11.3c-1.2,1.5-3.4,2-4.5,3.6
	c-0.7,1.3-1,2.9-0.8,4.4c0,0.3,0.1,0.6,0.3,0.9c0.2,0.2,0.5,0.2,0.7,0.2c12.3,1.2,24.4-1.5,36.8-0.3c1.5,0.2,3,0.2,4.5,0.1
	c2.1-0.4,4.2-1,6.1-2c10.6-4.8,21.3-6.1,31.7-11.4c0.5-0.2,0.9-0.5,1.2-0.9c0.1-0.3,0.2-0.7,0.1-1.1c-0.3-2.8-2.3-5.2-4.9-6
	c-2.7-0.8-6-0.1-8.2-1.8c-1.6-1.2-2.2-3.4-2.4-5.4c-0.4-4.1,0-8.9-3-11.8c-2.3-2.3-6.1-2.5-8.5-4.8c-1.3-1.3-2.1-3.1-3.2-4.6
	C201.9,341.6,196.5,339,190.8,341.4"/>
<path class="st16" d="M170.3,483.5l-68.6,217l-27,10.4h40.1l77.4-204.4c0.6-1.7,2.6-2.6,4.3-2c1.5,0.5,2.4,2,2.2,3.5l-20.3,202.9
	h40.5l-27.1-8.9c0,0,25.2-118,30.8-154.9s-2.5-63-2.5-63S193.8,475.8,170.3,483.5"/>
<path class="st13" d="M171.1,405.4c6.3-6.6,31.3-7.3,40.3-3.6c9,3.7,25.7,51.7,25.7,51.7l-16.5,6.5l-10.3-40.1l-32.1-4.4
	L171.1,405.4z"/>
<path class="st13" d="M213.3,425.7c1.6-3.8,2.7-7.7,3.4-11.8c0.6-5.1-6.4-10.1-6.4-10.1l-37.8,9.8l2.3,22.5l-5.5,45.5l48.1,1.8
	l-4.8-57.5"/>
<path class="st17" d="M175.4,427c-0.4,0-0.8-0.3-0.8-0.8c0-0.2,0.1-0.3,0.2-0.5l2.7-3.6c0.3-0.3,0.7-0.4,1.1-0.2
	c0.3,0.3,0.4,0.7,0.2,1.1l0,0l-2.7,3.6C175.9,426.9,175.7,427,175.4,427"/>
<path class="st18" d="M151.4,489.4l8.7-5"/>
<path class="st11" d="M188.8,400c-0.5-5,2-10.1-6.1-13.4c-11.2-4.5-13.6-43,6.6-43s19.2,25.3,19.1,32.9c-0.1,7.5-6.7,9.5-8.4,12.2
	c-1.7,2.7-0.2,11.4-0.2,11.4L188.8,400z"/>
<path class="st11" d="M177.4,370.8c-0.3,2.1-2.3,3.6-4.4,3.3c-2.1-0.3-3.6-2.3-3.3-4.4c0.3-1.9,1.9-3.4,3.9-3.4
	C175.8,366.5,177.6,368.5,177.4,370.8"/>
<path class="st11" d="M213.6,367.3c-0.3,2.1-2.3,3.6-4.4,3.3c-2.1-0.3-3.6-2.3-3.3-4.4c0.3-1.9,1.9-3.4,3.9-3.4
	C212,363.1,213.8,365,213.6,367.3"/>
<path class="st19" d="M293.3,448.9l-6-15.1l-169.2,66.4c-11.7-15.9-34.2-19.4-50.1-7.6c-15.9,11.7-19.4,34.2-7.6,50.1
	c11.7,15.9,34.2,19.4,50.1,7.6c9.2-6.7,14.6-17.4,14.6-28.8c0-1.5-0.1-2.9-0.3-4.3l128.8-52.2l7.1,15.6l15.7-7.2l-5.5-12.4l5.1-2.7
	l6,11.9l11.2-6l-6.2-12.7L293.3,448.9z M89.3,544.8c-12.9,0-23.4-10.5-23.4-23.4c0-12.9,10.5-23.4,23.4-23.4
	c12.9,0,23.4,10.5,23.4,23.4C112.6,534.4,102.2,544.8,89.3,544.8C89.3,544.8,89.3,544.8,89.3,544.8"/>
<path class="st13" d="M171.1,405.4c0,0-42.6,38-42.9,45c-0.2,7,25.1,44.1,25.1,44.1l12.7-8l-17.8-33.2l28.9-27.6
	c0,0,0.9,6.4,3.3,8.1l1.3-25.3L171.1,405.4z"/>
<path class="st15" d="M204.4,352.4c-5.5,0.3-30.1,2.8-30.1,2.8s3.6-14.7,15.1-15.3C204.4,339.1,204.4,352.4,204.4,352.4"/>
<path class="st15" d="M174.4,368c0,0,19.9-1.9,23.4-11.3c0,0,6.6,8.5,10.5,8c0,0,0.6-11.1-1.8-12.6c-2.4-1.5-33,1.6-33,1.6
	C173.1,358.5,173.4,363.3,174.4,368"/>
<path class="st11" d="M153.8,494.1c0,0,5.4,11.5,5.8,11.7s1,2.4,3.9,0.9c0,0,1.4,3.7,3.2,3.3c1.3-0.4,2.5-0.9,3.6-1.6
	c0,0,2.2,2.9,3.8,1.4c1.9-1.8,0.1-3.8-1.3-6c0,0-4.2-7.6-3.8-8c1.2-1.2,3.1-1.7,7.1,2c4.3,3.9,7.2,1.2,4.4-2c-2.9-3.1-6.8-7.2-8.8-8
	c-2-0.8-5.2,0.4-5.2,0.4l-1-1.4L153.8,494.1z"/>
<path class="st13" d="M241,470.1c0,0-3.1,8.7-8.4,10.1c-5.3,1.5-35.3,7.5-35.3,7.5v-11.8L241,470.1z"/>
<path class="st11" d="M197.4,477.3h-2.3c-0.2-0.7-0.5-1.4-0.8-2.1c-0.9-1.5-13.5-3.1-13.2-1.5s2.3,2,6.7,2.9c0,0-16.5,4-15,5.3
	c1.5,1.3,11.9-1.7,11.9-1.7s-11.2,3.6-10.4,6.1c0.5,1.4,11.8-1.9,11.8-1.9s-11.5,4.1-9.5,5.5c2,1.4,14.8-1.7,16-2.2s1.7-2.8,1.7-2.8
	l3.1-0.5L197.4,477.3z"/>
<path class="st15" d="M188,335.3c0.4,1.8,0.6,4.1,1.7,5.7c0.4,0.7,1.5,0,1.1-0.6c-1-1.5-1.2-3.7-1.5-5.4
	C189,334.3,187.8,334.6,188,335.3"/>
<path class="st15" d="M190.7,341.2c0.6-1.1,1.3-2.2,2-3.3c0.4-0.7-0.6-1.3-1.1-0.6c-0.7,1.1-1.4,2.2-2,3.3
	C189.3,341.2,190.3,341.8,190.7,341.2"/>
<path class="st20" d="M193.1,367.1c-0.1,1.4,0,2.8,0.2,4.2c0.1,0.7,0,2,0.5,2.6c0.3,0.3,0.9,0.3,1.3,0.3c1.3,0.2,2.7,0.4,4.1,0.5
	l-0.2-0.5c-1.1,1.1-2.4,1.9-3.9,2.5c-0.4,0.2,0,0.7,0.3,0.5c1.5-0.6,2.8-1.5,4-2.6c0.1-0.1,0.1-0.3,0-0.4c-0.1,0-0.1-0.1-0.2-0.1
	c-1.4-0.2-4.3,0-5-1.5c-0.7-1.5-0.4-4.1-0.3-5.6C193.7,366.7,193.1,366.7,193.1,367.1"/>
<path class="st21" d="M199.4,371.4c0.2-1.4-0.7-4.7,1.1-5.4c1.6-0.6,2.6,0.7,2.8,2c0.2,0.8,0.3,1.7,0.5,2.5c0.1,0.4,0.7,0.2,0.6-0.2
	c-0.4-2-0.5-5.5-3.5-5.1c-2.8,0.4-1.8,4.3-2,6.1C198.8,371.8,199.4,371.8,199.4,371.4"/>
<path class="st21" d="M183.5,372.2c0.2-1.4-0.7-4.7,1.1-5.4c1.6-0.6,2.6,0.7,2.8,2c0.2,0.8,0.3,1.7,0.5,2.5c0.1,0.4,0.7,0.2,0.6-0.2
	c-0.4-2-0.5-5.5-3.5-5.1c-2.8,0.4-1.8,4.3-2,6.1C182.9,372.6,183.5,372.6,183.5,372.2"/>
<path class="st20" d="M187.7,375.8c0.7,5.1,9.3,6.2,12.6,3c0.3-0.3-0.2-0.7-0.4-0.4c-2.7,2.6-10.9,2-11.5-2.6
	C188.3,375.4,187.6,375.4,187.7,375.8"/>
<path class="st20" d="M187.6,376.7c0.2-0.6,0.7-0.9,1.3-0.8c0.4,0.1,0.6-0.5,0.2-0.6c-0.9-0.2-1.8,0.4-2.1,1.2
	C186.9,376.9,187.5,377,187.6,376.7"/>
<g>
	<defs>
		<rect id="SVGID_3_" x="180.5" y="373.1" width="6.3" height="3"/>
	</defs>
	<clipPath id="SVGID_4_">
		<use xlink:href="#SVGID_3_"  style="overflow:visible;"/>
	</clipPath>
	<g class="st22">
		<path class="st23" d="M186.8,373.7c0.3,0.7-0.9,1.8-2.8,2.2c-0.8,0.2-1.6,0.2-2.3,0c-0.4-0.1-0.8-0.3-1.1-0.7
			c-0.1-0.2-0.1-0.4,0-0.6c0.2-0.3,0.4-0.5,0.7-0.6c0.7-0.4,1.4-0.6,2.1-0.8C185,373,186.5,373,186.8,373.7"/>
	</g>
</g>
<g>
	<defs>
		<rect id="SVGID_5_" x="200.8" y="371.7" width="6.3" height="3"/>
	</defs>
	<clipPath id="SVGID_6_">
		<use xlink:href="#SVGID_5_"  style="overflow:visible;"/>
	</clipPath>
	<g class="st24">
		<path class="st23" d="M207,372.3c0.3,0.7-0.9,1.8-2.8,2.2c-0.8,0.2-1.6,0.2-2.3,0c-0.4-0.1-0.8-0.3-1.1-0.7
			c-0.1-0.2-0.1-0.4,0-0.6c0.2-0.3,0.4-0.5,0.7-0.6c0.7-0.4,1.4-0.6,2.1-0.8C205.2,371.5,206.7,371.6,207,372.3"/>
	</g>
</g>
<path class="st20" d="M173.3,368.5c-1.1,0.1-1.9,1-1.8,2.1c0,0.1,0,0.1,0,0.2c0.1,1.1,1,2,2.1,2.1c0.4,0,0.4-0.6,0-0.6
	c-1.6-0.1-2.2-3.1-0.3-3.2C173.7,369.1,173.7,368.5,173.3,368.5"/>
<path class="st20" d="M171.6,370.2c0.6,0.7,1.5,1.1,2.4,1.1c0.4,0,0.4-0.6,0-0.6c-0.8,0-1.5-0.3-2-0.9
	C171.8,369.4,171.4,369.9,171.6,370.2"/>
<path class="st20" d="M209.4,369.5c1.3,0.3,2.1-0.9,2.2-2.1c0.2-1.2-0.6-2.4-1.8-2.6c-0.1,0-0.1,0-0.2,0c-0.4,0-0.4,0.6,0,0.6
	c0.9,0.1,1.5,0.9,1.4,1.8c-0.1,0.8-0.5,2-1.5,1.7C209.2,368.8,209,369.4,209.4,369.5"/>
<path class="st20" d="M209.8,367.7c0.6-0.5,1-1.2,1.1-2c0-0.4-0.5-0.6-0.6-0.2c-0.1,0.7-0.4,1.3-0.9,1.7
	C209,367.6,209.5,368,209.8,367.7"/>
<path class="st25" d="M203.2,284.3c2.3,5.4-0.2,11.7-5.6,14c-5.4,2.3-11.7-0.2-14-5.6c-2.3-5.4,0.2-11.7,5.6-14c0,0,0,0,0,0
	C194.6,276.4,200.9,278.9,203.2,284.3"/>
<polyline class="st4" points="189.3,290.8 194.8,292.9 196.9,283.7 "/>
<path class="st25" d="M657.5,496.8c0,2.2-1.8,3.9-3.9,3.9s-3.9-1.8-3.9-3.9s1.8-3.9,3.9-3.9l0,0
	C655.8,492.9,657.5,494.6,657.5,496.8C657.5,496.8,657.5,496.8,657.5,496.8"/>
<path class="st5" d="M642.6,413c-0.7,0-1.2-0.6-1.3-1.2V403c0-0.7,0.6-1.3,1.3-1.3c0.7,0,1.3,0.6,1.3,1.3v8.8
	C643.8,412.5,643.3,413,642.6,413"/>
<path class="st5" d="M647,408.6h-8.8c-0.7,0-1.3-0.6-1.3-1.3c0-0.7,0.6-1.3,1.3-1.3h8.8c0.7,0,1.3,0.6,1.3,1.3
	C648.3,408.1,647.7,408.6,647,408.6"/>
<path class="st26" d="M229,639.8l2.7,3.9c0.3,0.5,0.9,0.7,1.5,0.5l4.5-1.4c0.7-0.2,1.5,0.2,1.8,0.9c0.1,0.4,0.1,0.9-0.2,1.3
	l-2.8,3.8c-0.3,0.5-0.3,1.1,0,1.6l2.7,3.9c0.5,0.6,0.3,1.5-0.3,2c-0.4,0.3-0.9,0.3-1.3,0.2l-4.5-1.5c-0.5-0.2-1.2,0-1.5,0.5
	l-2.9,3.8c-0.5,0.6-1.3,0.8-2,0.3c-0.4-0.3-0.6-0.7-0.6-1.2l0.1-4.7c0-0.6-0.3-1.1-0.9-1.3l-4.5-1.5c-0.7-0.2-1.1-1-0.9-1.8
	c0.1-0.4,0.5-0.8,0.9-0.9l4.5-1.4c0.5-0.2,0.9-0.7,0.9-1.2l0.1-4.7c0-0.8,0.6-1.4,1.4-1.4C228.3,639.2,228.8,639.4,229,639.8"/>
<path class="st27" d="M228.6,639.6l2.7,3.9c0.3,0.5,0.9,0.7,1.5,0.5l4.5-1.4c0.8-0.2,1.5,0.2,1.8,1c0.1,0.4,0,0.9-0.2,1.2l-2.8,3.8
	c-0.3,0.5-0.3,1.1,0,1.6l2.7,3.9c0.5,0.6,0.3,1.5-0.3,2c-0.4,0.3-0.9,0.3-1.3,0.2l-4.5-1.6c-0.5-0.2-1.2,0-1.5,0.5l-2.9,3.8
	c-0.5,0.6-1.3,0.8-2,0.3c-0.4-0.3-0.6-0.7-0.6-1.2l0.1-4.7c0-0.6-0.3-1.1-0.9-1.3l-4.5-1.5c-0.7-0.2-1.2-1-0.9-1.8
	c0.1-0.4,0.5-0.8,0.9-0.9l4.5-1.4c0.5-0.2,0.9-0.7,0.9-1.2l0.1-4.7c0-0.8,0.6-1.4,1.4-1.4C227.8,639,228.3,639.2,228.6,639.6"/>
<path class="st5" d="M224.5,647.8c0.4-0.2,0.9-0.4,1.3-0.6l0.2-0.1h0.1h0.1c0.1-0.1,0.2-0.1,0.3-0.2c0.2-0.1,0.3-0.3,0.4-0.5
	c0.1-0.2,0.2-0.4,0.3-0.6c0-0.1,0-0.2,0-0.3v-0.4c0-0.5,0-1,0.1-1.4c0.1,0.5,0.1,1,0.2,1.4c0,0.1,0,0.2,0,0.4c0,0.1,0,0.3,0,0.4
	c0,0.3-0.1,0.5-0.3,0.7c-0.1,0.2-0.3,0.4-0.5,0.6c-0.1,0.1-0.2,0.1-0.3,0.2h-0.1H226h-0.2C225.3,647.4,224.9,647.6,224.5,647.8"/>
<path class="st5" d="M222,648.2l-0.7,0.3h-0.1h-0.1l-0.2,0.1c-0.1,0-0.2,0.1-0.2,0.2c-0.1,0.1-0.1,0.1-0.1,0.2c0,0,0,0.1,0,0.1v0.1
	c0,0.2,0,0.3,0,0.5c-0.1-0.2-0.1-0.3-0.1-0.5c0,0,0-0.1,0-0.1c0,0,0-0.1,0-0.1c0-0.1,0.1-0.2,0.1-0.3c0.1-0.1,0.2-0.2,0.3-0.2
	l0.2-0.1l0,0l0,0h0.1L222,648.2"/>
<line class="st28" x1="339.9" y1="347.4" x2="434.1" y2="347.4"/>
<circle class="st29" cx="341.2" cy="404.1" r="6"/>
<circle class="st29" cx="359.1" cy="404.1" r="6"/>
<circle class="st29" cx="377" cy="404.1" r="6"/>
<circle class="st29" cx="394.9" cy="404.1" r="6"/>
<path class="st25" d="M294.9,157.4c-0.7,0-1.2-0.6-1.3-1.2v-8.9c0-0.7,0.6-1.3,1.3-1.3c0.7,0,1.3,0.6,1.3,1.3v8.8
	C296.2,156.8,295.6,157.4,294.9,157.4"/>
<path class="st25" d="M299.3,153h-8.8c-0.7,0-1.3-0.6-1.3-1.3c0-0.7,0.6-1.3,1.3-1.3h8.8c0.7,0,1.3,0.6,1.3,1.3
	C300.6,152.5,300,153,299.3,153"/>
</svg>
