<?xml version="1.0" encoding="utf-8"?>
<!-- Generator: Adobe Illustrator 24.2.0, SVG Export Plug-In . SVG Version: 6.00 Build 0)  -->
<svg version="1.1" id="Layer_1" xmlns="http://www.w3.org/2000/svg" xmlns:xlink="http://www.w3.org/1999/xlink" x="0px" y="0px"
	 viewBox="0 0 739.3 820.9" style="enable-background:new 0 0 739.3 820.9;" xml:space="preserve">
<style type="text/css">
	.st0{fill:#E0E0E0;}
	.st1{fill:#FAFAFA;}
	.st2{fill:#EBEBEB;}
	.st3{fill:#F5F5F5;}
	.st4{fill:#FFFFFF;}
	.st5{fill:none;}
	.st6{fill:#263238;}
	.st7{fill:#FF725E;}
	.st8{opacity:0.24;}
	.st9{opacity:0.3;}
	.st10{fill:#455A64;}
	.st11{fill:#FFBE9D;}
	.st12{fill:#EB996E;}
</style>
<g id="freepik--background-complete--inject-4">
	<rect x="103.3" y="697.7" class="st0" width="94.8" height="12.7"/>
	<path class="st1" d="M116.2,698.2c0.3,0,0.6,2.7,0.6,5.9c0,3.3-0.3,5.9-0.6,5.9s-0.6-2.7-0.6-5.9
		C115.6,700.9,115.9,698.2,116.2,698.2z"/>
	<path class="st1" d="M114.1,698c0.3,0,0.6,2.7,0.6,5.9c0,3.3-0.3,5.9-0.6,5.9c-0.3,0-0.6-2.7-0.6-5.9S113.8,698,114.1,698z"/>
	<path class="st1" d="M190.7,698.2c0.3,0,0.6,2.7,0.6,5.9c0,3.3-0.3,5.9-0.6,5.9s-0.6-2.7-0.6-5.9
		C190.2,700.9,190.4,698.2,190.7,698.2z"/>
	<path class="st1" d="M188.7,698c0.3,0,0.6,2.7,0.6,5.9c0,3.3-0.3,5.9-0.6,5.9s-0.6-2.7-0.6-5.9S188.4,698,188.7,698z"/>
	<path class="st1" d="M176.3,704.4c0,0.3-10.9,0.6-24.2,0.6c-13.4,0-24.2-0.3-24.2-0.6s10.9-0.6,24.2-0.6
		C165.4,703.8,176.3,704.1,176.3,704.4z"/>
	<rect x="102.9" y="754.7" class="st0" width="94.8" height="25.3"/>
	<path class="st1" d="M198.9,772.9c0,0-0.2,0.1-0.5,0.3c-0.4,0.2-0.9,0.4-1.6,0.7c-2.1,0.9-4.2,1.5-6.4,1.8
		c-3.5,0.6-7.2,0.1-10.4-1.5c-2-1.1-3.7-2.6-4.9-4.5c-1.4-2.1-2-4.7-1.7-7.3c0.2-1.4,0.8-2.7,1.7-3.8c1-1.2,2.4-1.9,4-1.8
		c1.6,0.1,3,0.9,4,2.2c1,1.2,1.7,2.7,1.8,4.3c0.3,3.3-0.9,6.6-3.3,9c-2.4,2.5-5.6,4.1-9.1,4.5c-3.6,0.3-7.2-0.1-10.6-1.3
		c-3.6-1.1-6.8-3.3-9.2-6.2c-1.2-1.6-2-3.5-2.2-5.5c-0.2-2.1,0.5-4.2,2-5.7c0.8-0.8,1.9-1.2,3-1.3c1.1,0,2.2,0.3,3.1,0.9
		c1.8,1.2,3,3,3.5,5.1c0.8,4.1-0.6,8.4-3.7,11.2c-3,2.5-6.7,4.1-10.7,4.3c-3.7,0.4-7.5,0.1-11.1-1.1c-3.5-1.1-6.5-3.4-8.4-6.5
		c-1.9-3-2.3-6.8-1-10.1c0.6-1.7,2.1-2.9,3.9-3.3c1.7-0.3,3.4,0.1,4.8,1.1c2.4,2.1,3.3,5.5,2.3,8.5c-0.9,2.7-2.6,5-4.8,6.7
		c-3.6,3.1-8.2,4.9-13,5.1c-5.9,0.2-11.6-2.1-15.7-6.3c-0.4-0.4-0.8-0.9-1.1-1.3c-0.1-0.2-0.2-0.3-0.3-0.5c2,2.2,4.4,4,7.1,5.4
		c3.1,1.5,6.6,2.3,10.1,2.1c4.6-0.3,9-2,12.5-5.1c2.1-1.7,3.6-3.9,4.4-6.4c0.9-2.7,0.1-5.6-2-7.5c-1.1-0.9-2.6-1.2-4-0.9
		c-1.4,0.3-2.6,1.3-3.1,2.7c-1.1,3-0.7,6.4,1,9.1c1.8,2.9,4.6,5,7.8,6c3.4,1.1,7,1.4,10.6,1c3.7-0.3,7.2-1.7,10-4.1
		c2.8-2.5,4.1-6.4,3.4-10.1c-0.4-1.8-1.4-3.3-2.9-4.4c-1.4-1-3.4-0.9-4.6,0.3c-1.2,1.3-1.9,3-1.7,4.7c0.1,1.8,0.8,3.5,1.9,4.8
		c2.3,2.7,5.3,4.8,8.7,5.8c3.2,1.2,6.7,1.6,10.1,1.3c3.2-0.3,6.2-1.8,8.4-4.1c2.2-2.2,3.3-5.1,3-8.2c-0.1-2.8-2.2-5.2-4.9-5.7
		c-1.3,0-2.5,0.5-3.3,1.5c-0.8,1-1.4,2.1-1.6,3.4c-0.3,2.4,0.2,4.8,1.5,6.7c1.2,1.8,2.8,3.3,4.6,4.3c3.1,1.6,6.6,2.2,10.1,1.6
		c2.2-0.3,4.3-0.8,6.4-1.6C198.1,773.2,198.9,772.9,198.9,772.9z"/>
	<rect x="111.3" y="710.7" class="st2" width="86.3" height="43.9"/>
	<path class="st0" d="M125.7,712.2c0.3,0,0.6,9.5,0.6,21.3s-0.3,21.3-0.6,21.3s-0.6-9.5-0.6-21.3S125.4,712.2,125.7,712.2z"/>
	<path class="st0" d="M132.2,711.7c0.3,0,0.6,9.4,0.6,21c0,11.6-0.3,21-0.6,21s-0.6-9.4-0.6-21C131.6,721.1,131.9,711.7,132.2,711.7
		z"/>
	<path class="st0" d="M187.9,710.3c0.3,0,0.6,9.9,0.6,22.1c0,12.2-0.3,22.1-0.6,22.1s-0.6-9.9-0.6-22.1
		C187.3,720.3,187.6,710.3,187.9,710.3z"/>
	<path class="st0" d="M180.2,710.9c0.3,0,0.6,9.6,0.6,21.5c0,11.9-0.3,21.5-0.6,21.5s-0.6-9.6-0.6-21.5
		C179.6,720.5,179.9,710.9,180.2,710.9z"/>
	<path class="st2" d="M644.9,614.8c9-4.6,19.5-5.2,29.4-3.6c5.3,0.9,10.9,2.5,14.5,6.5s4.3,11.1,0.2,14.5c-2.5,2.1-5.9,2.4-9.2,2.3
		c-7.8-0.1-16.4-1.4-22.6,3.2c-3.6,2.7-5.9,7.1-10.1,8.4c-4.2,1.3-8.8-1.2-11-4.9c-2-3.9-2.5-8.4-1.2-12.6
		C635.8,622.7,639.6,617.6,644.9,614.8z"/>
	<path class="st2" d="M624.4,575.2c5.5,7.8,16.1,5.2,21,0.5c4.9-4.8,7-11.7,8.9-18.3c4.3-15.1,8.7-30.9,5.5-46.2
		c-0.8-4.7-2.8-9-5.9-12.6c-3.2-3.6-8-5.2-12.7-4.2c-5.4,1.4-8.7,6.7-11.1,11.7c-7.1,14.8-10.8,30.9-10.9,47.3
		C619.2,561,620.1,568.9,624.4,575.2"/>
	<path class="st2" d="M609.4,586.4c5.9-7.1,7.1-17.3,4.4-26.2c-2.6-8.8-8.6-16.4-15.5-22.5c-8.1-7.2-17.5-12.8-27.8-16.4
		c-4-1.6-8.2-2.3-12.5-2.1c-4.3,0.3-8.2,2.6-10.5,6.3c-2.9,5.6-0.1,12.3,2.9,17.8c5.3,9.7,11.4,19,18.2,27.7
		c5.5,7.1,11.8,14,20.1,17.2c8.3,3.2,17,2.8,21.4-3"/>
	<path class="st0" d="M624,693.1c0.3-1.2,0.5-2.4,0.5-3.6c0.3-2.6,0.6-5.8,0.9-9.7c0.5-4.8,1.2-9.5,2.2-14.2
		c1.3-5.7,3-11.4,5.2-16.8c2.1-5.4,5-10.5,8.6-15.2c2.9-3.8,6.6-6.8,10.8-9c2.9-1.4,6-2.4,9.1-2.8c1.2,0,2.4-0.2,3.5-0.5
		c-1.2-0.1-2.4-0.1-3.6,0c-3.3,0.3-6.5,1.1-9.5,2.5c-4.5,2.1-8.4,5.2-11.4,9.1c-3.7,4.7-6.7,9.9-8.9,15.5
		c-2.2,5.5-3.9,11.2-5.1,17.1c-0.9,4.8-1.6,9.6-1.9,14.4c-0.3,4.1-0.4,7.4-0.5,9.7C623.9,690.7,623.9,691.9,624,693.1z"/>
	<path class="st0" d="M624.7,685.7c0.1-0.6,0.1-1.1,0.1-1.7c0-1.2,0-2.8,0-4.7c0-4.1,0-10,0.2-17.3c0.4-14.6,1.7-30.3,4.1-52.5
		c2.3-20.8,5.4-45.1,8.7-60.9c0.7-3.6,1.4-6.8,2.1-9.6c0.7-2.8,1.2-5.3,1.7-7.2c0.5-2,0.8-3.4,1.1-4.6c0.2-0.6,0.3-1.1,0.3-1.7
		c-0.3,0.5-0.4,1-0.6,1.5c-0.4,1.2-0.8,2.7-1.4,4.5c-0.6,1.8-1.2,4.4-1.9,7.2c-0.7,2.8-1.5,6-2.3,9.6c-4,18.7-7.1,37.5-9.1,56.5
		c-2.4,22.2-3.5,42.5-3.6,57.1c-0.1,7.3,0,13.2,0.3,17.3c0.1,1.9,0.2,3.5,0.3,4.7C624.5,684.5,624.5,685.1,624.7,685.7z"/>
	<path class="st0" d="M624.8,646.6c0.1-1.6,0.1-3.3,0-4.9c-0.2-3.2-0.6-7.7-1.5-13.3c-1.1-6.6-2.5-13-4.3-19.4
		c-2.1-7.9-4.8-15.5-8.1-23c-5.6-13.7-13.7-26.3-23.9-37.2c-1.8-1.9-3.6-3.6-5.6-5.2c-0.9-0.7-1.7-1.4-2.4-2l-2.2-1.5
		c-1.3-1-2.7-1.9-4.2-2.7c-0.2,0.3,5.9,3.9,13.6,12.1c9.8,10.9,17.7,23.5,23.3,37c3.2,7.4,5.9,15,8.1,22.8
		c2.1,7.1,3.6,13.7,4.6,19.2s1.6,10.1,2,13.2C624.2,643.4,624.4,645,624.8,646.6z"/>
	<polygon class="st2" points="584.4,709.6 588.4,763.1 657.2,763.1 661.1,709.6 	"/>
	<rect x="577.8" y="688.4" class="st2" width="91.5" height="21.1"/>
	<polygon class="st0" points="577.8,761.1 577.8,766.9 582.1,766.9 667.8,766.9 667.8,761.1 	"/>
	<polygon class="st0" points="586.3,776.6 582.1,766.3 664.5,766.3 659.6,776.6 	"/>
	<path class="st3" d="M659.8,727.1c-0.1,0.2-0.2,0.3-0.3,0.5c-0.3,0.4-0.6,0.8-1,1.4l-4,5.1l-0.2,0.2l-0.2-0.3
		c-2.5-3.5-5.9-8.1-9.8-13.6h0.5l-9.7,13.7l-0.3,0.4l-0.3-0.4L623,720.4h0.7l-0.6,0.8l-10.2,12.9l-0.4,0.4l-0.3-0.5
		c-3.5-4.9-6.7-9.6-9.7-13.7h0.6L591,734l-0.2,0.2l-0.2-0.3l-3.7-6.3c-0.4-0.7-0.7-1.2-1-1.7c-0.1-0.2-0.2-0.4-0.3-0.6
		c0.2,0.2,0.3,0.3,0.4,0.5l1.1,1.7l3.9,6.2h-0.4l11.8-13.8l0.3-0.3l0.3,0.4l9.8,13.7h-0.7l10.3-12.9l0.6-0.8l0.3-0.4l0.3,0.4
		l11.5,13.7h-0.6l9.8-13.7l0.3-0.4l0.3,0.4l9.6,13.8h-0.4c1.8-2.1,3.1-3.8,4.2-5.1l1.1-1.3C659.7,727.2,659.8,727,659.8,727.1z"/>
	<path class="st3" d="M662,709.2c0,0.2-17.3,0.4-38.5,0.4s-38.5-0.2-38.5-0.4c0-0.2,17.2-0.4,38.5-0.4S662,709,662,709.2z"/>
	<path class="st0" d="M269.7,151.1c0,0-0.2,0-0.4-0.1l-1.1-0.4l-4.2-1.8l-15.6-6.7l-51.2-22.3l-1.8-0.8h0.4l-50.2,21.5l-15.2,6.4
		l-4.1,1.7c-0.5,0.2-1,0.4-1.5,0.5c0.4-0.3,0.9-0.5,1.4-0.7l4.1-1.9l15.2-6.7l50-21.7h0.2h0.2l1.8,0.8l51.1,22.6l15.4,6.9l4.2,1.9
		l1.1,0.5C269.5,151,269.6,151,269.7,151.1z"/>
	<rect x="20.7" y="143.8" class="st0" width="328.8" height="246.2"/>
	<rect x="32.2" y="155.2" class="st1" width="307" height="224.6"/>
	<path class="st0" d="M100,253.4c0,0,0.3,37.7,2.2,49.2l47.3-2.2c0,0-4.1-37-2.5-47H100z"/>
	<path class="st4" d="M123.3,258.7h0.7c0.7,0,1.3,0,2,0.1c1,0.2,2,0.5,3,0.9c1.3,0.6,2.4,1.5,3.3,2.6c1.1,1.3,1.9,2.9,2.3,4.5
		c0.4,2,0.2,4-0.5,5.8c-0.4,1-0.8,2-1.3,2.9c-0.6,1-1.1,1.9-1.5,2.9c-0.9,2.1-1.6,4.4-1.9,6.7v0.2h-0.2h-4.7h-4.9h-0.2v-0.2
		c-0.2-2.3-1-4.5-2.3-6.5c-0.6-1-1.2-1.9-1.7-2.8c-0.6-0.9-1.2-1.8-1.7-2.7c-0.9-1.8-1.1-3.8-0.7-5.8c0.3-1.7,0.9-3.3,1.8-4.7
		c0.8-1.1,1.8-2.1,3.1-2.8c1.5-0.8,3.2-1.3,4.8-1.4L123.3,258.7C123.4,258.6,123.4,258.6,123.3,258.7l-0.6-0.1
		c-0.6,0.1-1.3,0.2-1.9,0.4c-1,0.3-2,0.7-2.8,1.2c-1.2,0.7-2.2,1.6-3,2.7c-0.9,1.4-1.4,3-1.7,4.6c-0.4,1.9-0.1,3.8,0.7,5.6
		c0.5,0.9,1.1,1.8,1.7,2.7c0.6,0.9,1.2,1.8,1.8,2.8c1.3,2,2.1,4.3,2.3,6.6l-0.2-0.2h4.9h4.7l-0.2,0.2c0.3-2.4,1-4.6,2-6.8
		c0.5-1,1-2,1.5-3c0.5-0.9,1-1.9,1.3-2.9c0.7-1.8,0.9-3.8,0.5-5.7c-0.4-1.6-1.1-3.2-2.2-4.5c-0.9-1.1-2-1.9-3.2-2.6
		c-0.9-0.5-1.9-0.8-2.9-0.9c-0.6-0.1-1.3-0.2-1.9-0.2h-0.5C123.4,258.7,123.3,258.7,123.3,258.7z"/>
	<path class="st4" d="M125.8,285c0-0.1,0-0.1,0-0.2v-0.4c0-0.4-0.2-1-0.3-1.7c-0.2-1.5-0.5-3.6-0.7-6.2c0-0.7-0.1-1.3-0.1-2.1
		c0-0.8,0-1.5,0-2.3c0-0.8,0.2-1.6,0.5-2.4c0.4-0.8,1-1.4,1.8-1.8c0.9-0.4,1.9-0.2,2.6,0.5c0.4,0.3,0.6,0.8,0.5,1.3
		c0,0.5-0.2,1-0.5,1.3c-0.3,0.4-0.7,0.7-1.1,0.9c-0.4,0.2-0.9,0.4-1.4,0.5c-2,0.4-4,0.5-6,0.2c-0.5-0.1-1-0.2-1.4-0.4
		c-0.4-0.2-0.8-0.5-1.2-0.8c-0.3-0.4-0.6-0.8-0.7-1.3c-0.1-0.5,0-1,0.2-1.4c0.2-0.4,0.6-0.8,1-1c0.4-0.2,0.9-0.2,1.3,0
		c0.4,0.2,0.8,0.5,1,0.8c0.2,0.4,0.4,0.8,0.5,1.2c0.1,0.8,0.2,1.6,0.2,2.4l0.2,4.3c0.1,2.6,0.2,4.8,0.3,6.3c0,0.7,0,1.3,0,1.7v0.6
		c0-0.1,0-0.1,0-0.2c0-0.1,0-0.3,0-0.4c0-0.2,0-1-0.1-1.7c0-1.5-0.2-3.6-0.4-6.3c0-1.3-0.2-2.8-0.2-4.3c0-0.8-0.1-1.6-0.3-2.4
		c-0.1-0.4-0.2-0.8-0.5-1.1c-0.2-0.3-0.6-0.6-1-0.8c-0.4-0.2-0.8-0.2-1.2,0c-0.4,0.2-0.7,0.5-0.9,0.9c-0.2,0.4-0.2,0.9-0.2,1.3
		c0.1,0.4,0.3,0.9,0.7,1.2c0.7,0.7,1.6,1.1,2.5,1.2c1,0.1,2,0.2,3,0.1c1,0,2-0.1,3-0.3c0.5-0.1,0.9-0.2,1.4-0.5
		c0.4-0.2,0.8-0.5,1.1-0.9c0.3-0.4,0.4-0.8,0.5-1.3c0-0.4-0.2-0.9-0.5-1.2c-0.6-0.6-1.6-0.8-2.4-0.5c-0.7,0.3-1.3,0.9-1.7,1.7
		c-0.3,0.7-0.5,1.5-0.5,2.3c0,0.8,0,1.5,0,2.2c0,0.7,0,1.4,0.1,2.1c0.2,2.6,0.5,4.8,0.7,6.2c0.1,0.7,0.2,1.3,0.2,1.7v0.4
		C125.8,284.8,125.8,284.9,125.8,285z"/>
	<path class="st4" d="M119.5,285.2c0.1,0.5,0.1,1,0.1,1.6c0,1.1,0.1,2.5,0.2,4.1v-0.1l3.2,3.7h-0.2l3.7-0.2h-0.2l1.8-2.2l0.9-1.1
		v0.2c0-2.2-0.1-4.2-0.1-6.1l0.2,0.2h-6.9L119.5,285.2c0.2,0,0.4,0,0.7,0l1.9-0.1l7-0.3h0.2v0.2c0,1.9,0.1,3.9,0.2,6.1v0l0,0
		c-0.3,0.4-0.6,0.8-0.9,1.1l-1.8,2.2l0,0h-0.1l-3.7,0.2h-0.1l0,0l-3.1-3.7l0,0l0,0c0-1.7,0-3,0-4.2
		C119.6,286.2,119.5,285.7,119.5,285.2z"/>
	<path class="st4" d="M129,290.5c0,0-0.1,0-0.4-0.2c-0.3-0.1-0.6-0.3-1-0.4c-1.1-0.4-2.2-0.5-3.4-0.5c-1.2,0-2.3,0.3-3.4,0.7
		l-0.9,0.4l-0.3,0.2c0.1-0.1,0.2-0.2,0.3-0.2c0.3-0.2,0.6-0.3,0.9-0.5c1.1-0.5,2.2-0.7,3.4-0.8c1.1,0,2.3,0.1,3.4,0.6
		c0.3,0.1,0.6,0.3,0.9,0.4L129,290.5z"/>
	<path class="st4" d="M129,289.1l-0.3-0.2l-1-0.4c-1.1-0.4-2.2-0.5-3.4-0.5c-1.2,0-2.3,0.3-3.4,0.7c-0.4,0.2-0.7,0.3-0.9,0.4
		l-0.3,0.2l0.3-0.2c0.3-0.2,0.6-0.3,0.9-0.5c1.1-0.5,2.2-0.7,3.4-0.8c1.1,0,2.3,0.2,3.4,0.6c0.4,0.2,0.7,0.3,0.9,0.4
		C128.9,289,129,289.1,129,289.1z"/>
	<path class="st4" d="M128.9,287.7l-0.3-0.1c-0.2-0.1-0.6-0.3-1-0.4c-1.1-0.4-2.2-0.5-3.4-0.5c-1.2,0-2.3,0.3-3.4,0.7
		c-0.4,0.2-0.7,0.3-0.9,0.4l-0.3,0.2l0.3-0.2c0.3-0.2,0.6-0.3,0.9-0.5c1.1-0.5,2.2-0.7,3.4-0.8c1.1,0,2.3,0.2,3.4,0.6
		c0.3,0.1,0.6,0.3,0.9,0.4C128.7,287.5,128.8,287.6,128.9,287.7z"/>
	<path class="st2" d="M47.4,191.8c0,0,0.3,37.7,2.2,49.2l47.3-2.2c0,0-4.2-37-2.6-47L47.4,191.8z"/>
	<path class="st4" d="M87.2,207.6c-5.2,0.8-10.5,1.2-15.8,1.4c-5.3,0.5-10.6,0.7-15.9,0.5c5.3-0.8,10.5-1.2,15.8-1.4
		C76.6,207.6,81.9,207.4,87.2,207.6z"/>
	<path class="st4" d="M87.2,215.5c-5.2,0.8-10.5,1.3-15.8,1.4c-5.3,0.5-10.6,0.6-15.9,0.5c5.2-0.8,10.5-1.3,15.8-1.4
		C76.6,215.6,81.9,215.4,87.2,215.5z"/>
	<path class="st4" d="M79.2,223.4c-3,0.6-6,1-9,1c-3,0.3-6,0.3-9.1,0c3-0.6,6-1,9-1C73.1,223.1,76.2,223.1,79.2,223.4z"/>
	<path class="st2" d="M45.1,302.7c0,0,0.3,37.7,2.2,49.2l47.3-2.2c0,0-4.2-37-2.6-47H45.1z"/>
	<path class="st4" d="M85,318.5c-5.2,0.8-10.5,1.3-15.8,1.4c-5.3,0.5-10.6,0.6-15.9,0.5c5.2-0.8,10.5-1.3,15.8-1.4
		C74.4,318.5,79.7,318.3,85,318.5z"/>
	<path class="st4" d="M85,326.5c-5.2,0.8-10.5,1.3-15.8,1.4c-5.3,0.5-10.6,0.6-15.9,0.5c5.2-0.8,10.5-1.3,15.8-1.4
		C74.4,326.5,79.7,326.3,85,326.5z"/>
	<path class="st4" d="M77,334.3c-3,0.6-6,1-9,1c-3,0.3-6.1,0.4-9.1,0.1c3-0.6,6-1,9-1C70.9,334.1,73.9,334,77,334.3z"/>
	<polygon class="st2" points="174.4,201.7 179.1,310.5 314.8,312.1 308.7,203.1 	"/>
	<rect x="172.8" y="200.9" class="st3" width="134.9" height="101.8"/>
	<path class="st0" d="M307.7,302.8c0,0,0-0.7,0-1.9c0-1.2,0-3.1,0-5.4c0-4.8,0-11.8-0.1-20.6c0-17.8-0.1-43.2-0.2-73.9l0.4,0.4
		H172.9l0,0l0.5-0.5c0,36.6,0,71.3,0,101.8l-0.4-0.4l97.3,0.2l27.7,0.1h7.4h1.9h0.7h-2.5l-7.4,0.3l-27.6,0.1l-97.6,0.2h-0.4v-0.4
		c0-30.5,0-65.2,0-101.8v-0.5h0.5h134.9h0.4v0.4c0,30.8-0.2,56.3-0.2,74.1c0,8.8,0,15.8-0.1,20.5c0,2.3,0,4.1,0,5.4
		C307.7,302.2,307.7,302.8,307.7,302.8z"/>
	<rect x="189.1" y="222.5" class="st3" width="54.7" height="68.8"/>
	<path class="st0" d="M243.7,291.3c0-0.1,0-0.2,0-0.4v-1c0-0.9,0-2.2,0-3.8c0-3.4,0-8.1-0.1-14.1c0-12.1-0.1-29.2-0.2-49.6l0.4,0.4
		h-54.7c-0.1,0,0.9-0.9,0.5-0.5l0,0v18.7c0,6.1,0,12.1,0,17.8c0,11.6,0,22.4,0,32.2l-0.4-0.4l39.6,0.2l11.1,0.1h2.9h1
		c-0.3,0-0.6,0-1,0h-2.9l-11,0.1l-39.8,0.2h-0.4v-0.4c0-9.8,0-20.7,0-32.2c0-5.8,0-11.8,0-17.8v-18.5l0,0c-0.4,0.4,0.6-0.6,0.5-0.5
		H244h0.4v0.4c-0.1,20.5-0.2,37.7-0.2,49.9l-0.1,14c0,1.6,0,2.8,0,3.7c0,0.4,0,0.7,0,0.9C244,291.1,243.9,291.2,243.7,291.3z"/>
	<rect x="191.2" y="206.8" class="st3" width="104.8" height="9.9"/>
	<path class="st0" d="M295.9,216.7c0,0,0-0.3,0-0.7c0-0.4,0-1.1,0-1.9c0-1.7,0-4.2-0.1-7.3l0.2,0.2c-17.7,0.2-57.9,0.3-104.8,0.3
		l0,0c0.9-0.9,0.3-0.3,0.5-0.5l0,0v9.9l-0.5-0.5l74.3,0.2l22.3,0.1h6.1h1.6c0.2,0,0.4,0,0.6,0h-0.5H294h-6l-22.2,0.2l-74.6,0.2h-0.5
		v-0.5c0-1.6,0-3.2,0-4.9v-5.1l0,0l0.5-0.5l0,0c46.8,0,87.1,0.1,104.8,0.3h0.2v0.2c0,3.2,0,5.7-0.1,7.4c0,0.8,0,1.4,0,1.9
		C296.1,216.1,296.1,216.4,295.9,216.7z"/>
	<rect x="250.4" y="222.5" class="st3" width="45.5" height="41.5"/>
	<path class="st0" d="M295.9,264c0,0,0-0.3,0-0.8v-2.3c0-2,0-4.9-0.1-8.4c0-7.3-0.1-17.6-0.2-30l0.4,0.4h-45.5l0.5-0.5l0,0v11.1
		c0,3.6,0,7.2,0,10.7c0,7,0,13.5,0,19.6l-0.4-0.4l32.8,0.2l9.3,0.1h2.5c0.3,0,0.6,0,0.9,0c-0.3,0-0.5,0-0.8,0h-2.4l-9.2,0.1
		l-33.1,0.2h-0.4v-0.4c0-6.1,0-12.7,0-19.6c0-3.5,0-7.1,0-10.7v-11.1l0,0c-0.4,0.4,0.6-0.6,0.5-0.5h45.5h0.4v0.4
		c-0.1,12.5-0.2,22.9-0.2,30.3c0,3.5-0.1,6.3-0.1,8.4c0,0.9,0,1.6,0,2.2C296.2,263.4,296.1,263.7,295.9,264z"/>
	<rect x="250.4" y="270.5" class="st3" width="45.5" height="20.8"/>
	<path class="st0" d="M295.9,291.3c0,0,0-0.5,0-1.5l-0.1-4.2c0-3.7-0.1-8.8-0.2-15.2l0.3,0.3l-45.5,0.1c-0.4,0.4,0.6-0.6,0.5-0.5
		l0,0v10.7c0,3.5,0,6.9,0,10.1l-0.5-0.4l32.5,0.2l9.5,0.1h2.6h0.9c-0.3,0-0.5,0-0.8,0h-2.5l-9.4,0.1l-32.8,0.2h-0.4v-0.4
		c0-3.2,0-6.6,0-10.1v-10.7l0,0c-0.1,0,0.9-0.9,0.5-0.5l45.5,0.1h0.2v0.3c0,6.4-0.1,11.6-0.2,15.4c0,1.7,0,3.1,0,4.1
		C296.1,290.3,296,290.8,295.9,291.3z"/>
	<path class="st4" d="M242.4,222.6c-16.9,23.4-36.4,45.3-53.3,68.7"/>
	<path class="st0" d="M189.1,291.3c0,0,0.1-0.3,0.4-0.8l1.4-2.1c1.2-1.8,3.1-4.4,5.5-7.5c4.7-6.3,11.4-14.9,19-24.2
		c7.5-9.3,14.3-17.8,19.1-24l5.7-7.4l1.6-2c0.4-0.4,0.6-0.7,0.6-0.7c-0.1,0.3-0.3,0.5-0.5,0.8l-1.4,2.1c-1.2,1.8-3.1,4.4-5.5,7.6
		c-4.7,6.3-11.4,14.9-19,24.2c-7.5,9.3-14.3,17.8-19.1,24l-5.7,7.4l-1.6,2C189.5,290.9,189.3,291.1,189.1,291.3z"/>
	<line class="st5" x1="189.1" y1="222.5" x2="243.7" y2="291.3"/>
	<path class="st0" d="M243.7,291.3c-0.2,0.2-12.6-15.2-27.7-34.1s-27.2-34.5-26.9-34.7c0.2-0.2,12.6,15.2,27.7,34.1
		C231.9,275.6,243.9,291.1,243.7,291.3z"/>
	<path class="st0" d="M179.1,222.7c0,4.7-3.8,8.6-8.6,8.6s-8.6-3.8-8.6-8.6s3.8-8.6,8.6-8.6C175.2,214.1,179.1,217.9,179.1,222.7z"
		/>
	<path class="st0" d="M318.9,201.9c0,4.7-3.8,8.6-8.6,8.6c-4.7,0-8.6-3.8-8.6-8.6s3.8-8.6,8.6-8.6
		C315.1,193.4,318.9,197.2,318.9,201.9z"/>
	<rect x="555" y="261.5" class="st0" width="98.6" height="142.9"/>
	<rect x="550" y="261.5" class="st3" width="98.6" height="142.9"/>
	<rect x="562.3" y="276.9" class="st4" width="74.1" height="111.9"/>
	<path class="st0" d="M636.3,388.9c0,0,0-0.2,0-0.6c0-0.4,0-0.9,0-1.6c0-1.4,0-3.5,0-6.1c0-5.4,0-13.2,0-23c0-19.7,0-47.7-0.1-80.6
		l0.3,0.3h-74.2l0.3-0.3c0,42.2,0,81.1,0,111.9l-0.2-0.2l53.9,0.1h14.9h3.9h1.4H635h-3.9h-14.8l-54,0.1h-0.2v-0.2
		c0-30.8,0-69.7,0-111.9v-0.3h0.2h74.1h0.2v0.2c0,33-0.1,61-0.1,80.8c0,9.8,0,17.6,0,23c0,2.6,0,4.7,0,6.1c0,0.7,0,1.2,0,1.6
		L636.3,388.9z"/>
	<path class="st0" d="M648.8,261.5c-0.5,0.9-1,1.8-1.7,2.6c-1.1,1.5-2.8,3.6-4.6,5.9c-1.9,2.3-3.6,4.2-4.9,5.7
		c-0.7,0.8-1.4,1.5-2.2,2.2c0.6-0.9,1.2-1.7,1.9-2.5l4.7-5.8l4.7-5.8C647.5,263,648.1,262.2,648.8,261.5z"/>
	<path class="st4" d="M636.7,388.5c3.7,5.9,8,11.3,12.9,16.2"/>
	<path class="st0" d="M649.6,404.7c-0.8-0.6-1.6-1.3-2.2-2.1c-1.7-1.7-3.4-3.6-4.9-5.5c-1.5-1.9-3-3.9-4.3-6
		c-0.6-0.8-1.1-1.7-1.5-2.7c0.7,0.8,1.3,1.6,1.8,2.4c1.1,1.5,2.6,3.6,4.4,5.8c1.8,2.2,3.5,4.2,4.7,5.6
		C648.4,403.1,649,403.8,649.6,404.7z"/>
	<path class="st4" d="M550,404.2l12.9-15.9"/>
	<path class="st0" d="M562.9,388.3c0.1,0-2.7,3.7-6.2,8.1c-2.1,2.7-4.4,5.3-6.7,7.8C554,398.7,558.3,393.4,562.9,388.3L562.9,388.3z
		"/>
	<path class="st0" d="M550,261.5c2.2,2.4,4.3,4.9,6.3,7.5c2.1,2.5,4,5.1,5.8,7.8c-2.2-2.4-4.3-4.9-6.3-7.5
		C553.8,266.8,551.8,264.2,550,261.5z"/>
	<rect x="588.5" y="299.7" class="st0" width="24.8" height="70.4"/>
	
		<rect x="616.9" y="109.7" transform="matrix(1 -5.410494e-03 5.410494e-03 1 -0.7743 3.3779)" class="st0" width="14.1" height="70.2"/>
	
		<rect x="494.6" y="109.9" transform="matrix(1 -5.410494e-03 5.410494e-03 1 -0.6922 2.7766)" class="st2" width="36.5" height="38.8"/>
	
		<rect x="530.9" y="109.8" transform="matrix(1 -5.410494e-03 5.410494e-03 1 -0.6907 2.9732)" class="st3" width="36.5" height="38.8"/>
	<path class="st0" d="M494.5,120.8c24.3,0.2,48.6,0,72.9-0.3c0.2,0,0.4-0.2,0.4-0.4c0-0.2-0.2-0.4-0.4-0.4
		c-24.3-0.1-48.6,0-72.9,0.4c-0.2,0-0.3,0.2-0.3,0.3C494.2,120.6,494.3,120.8,494.5,120.8z"/>
	
		<rect x="471.8" y="148.2" transform="matrix(1 -5.410494e-03 5.410494e-03 1 -0.8796 2.7344)" class="st2" width="66.4" height="31.6"/>
	
		<rect x="537.8" y="147.8" transform="matrix(1 -5.410494e-03 5.410494e-03 1 -0.8767 3.0919)" class="st3" width="66.4" height="31.6"/>
	<path class="st0" d="M471.7,157.1c44.1,0.5,88.4,0,132.4-0.7c0.2,0,0.4-0.2,0.4-0.4c0-0.2-0.2-0.4-0.4-0.4
		c-44.1-0.2-88.4-0.2-132.4,0.8c-0.2,0-0.3,0.2-0.3,0.3C471.4,157,471.5,157.1,471.7,157.1L471.7,157.1z"/>
	<rect x="446.9" y="179.9" class="st0" width="257.2" height="11.3"/>
	<rect x="489" y="185.4" class="st0" width="10.4" height="38.6"/>
	<rect x="644.9" y="185.4" class="st0" width="10.4" height="38.6"/>
	
		<rect x="630.7" y="83.5" transform="matrix(1 -5.410494e-03 5.410494e-03 1 -0.7038 3.4526)" class="st2" width="14.1" height="96.6"/>
	
		<rect x="644.9" y="101.5" transform="matrix(1 -5.410494e-03 5.410494e-03 1 -0.7514 3.5506)" class="st3" width="21.9" height="78.3"/>
	<path class="st0" d="M666.5,116.6c-7.3,0.5-14.6,0.5-21.9,0C651.9,116.1,659.2,116.1,666.5,116.6z"/>
	<path class="st0" d="M666.5,113.3c-7.3,0.5-14.6,0.5-21.9,0C651.9,112.8,659.2,112.8,666.5,113.3z"/>
	<path class="st0" d="M666.5,168c-7.3,0.5-14.6,0.5-21.9,0C651.9,167.5,659.2,167.5,666.5,168z"/>
	<path class="st0" d="M666.5,164.7c-7.3,0.5-14.6,0.5-21.9,0C651.9,164.2,659.2,164.2,666.5,164.7z"/>
	<path class="st0" d="M655.9,157.5c-0.2,0-0.4-7.9-0.4-17.6c0-9.7,0.2-17.6,0.4-17.6s0.4,7.9,0.4,17.6
		C656.2,149.6,656.1,157.5,655.9,157.5z"/>
	<rect x="666.7" y="120.7" class="st2" width="23.9" height="59.1"/>
	<path class="st1" d="M679.3,164.5c-2.8,0.2-5.2-2-5.3-4.7c0-0.2,0-0.4,0-0.6c-0.1-1.6,0.7-3.1,1.9-4l0.5,0.8c-1,0.7-1.6,2-1.6,3.2
		c0,2.4,2,4.4,4.4,4.4s4.4-2,4.4-4.4c0.1-1.3-0.5-2.5-1.6-3.2l0.6-0.8c1.3,0.9,2,2.4,1.9,4c0.2,2.8-2,5.2-4.8,5.3
		C679.7,164.5,679.5,164.5,679.3,164.5z"/>
	<path class="st1" d="M683.3,153.7l-0.8-0.5c0.8-1.1,1.3-2.4,1.3-3.8c0-2.2-0.8-3.1-2-3.1c-3.1,0-0.8,7-4.9,7c-1.6,0-2.9-1.3-2.9-4
		c0-1.3,0.3-2.5,1-3.6l0.8,0.5c-0.6,0.9-1,2-0.9,3.1c0,2.1,0.8,3,2,3c3.1,0,0.9-7,4.9-7c1.7,0,2.9,1.5,2.9,4.2
		C684.7,151,684.2,152.5,683.3,153.7z"/>
	<path class="st1" d="M683.3,144.1l-0.8-0.5c0.8-1.1,1.3-2.4,1.3-3.8c0-2.2-0.8-3.1-2-3.1c-3.1,0-0.8,7-4.9,7c-1.6,0-2.9-1.3-2.9-4
		c0-1.3,0.3-2.5,1-3.6l0.8,0.5c-0.6,0.9-1,2-0.9,3.2c0,2.1,0.8,3,2,3c3.1,0,0.9-7,4.9-7c1.7,0,2.9,1.5,2.9,4.1
		C684.7,141.4,684.2,142.9,683.3,144.1z"/>
	<circle class="st0" cx="637.3" cy="100" r="4.1"/>
	<rect x="636" y="111.2" class="st0" width="2.5" height="57.4"/>
</g>
<g id="freepik--Floor--inject-4">
	<path class="st6" d="M733.7,779.4c0,0.2-162.6,0.4-363.2,0.4S7.3,779.6,7.3,779.4c0-0.3,162.6-0.4,363.2-0.4
		S733.7,779.2,733.7,779.4z"/>
</g>
<g id="freepik--Hourglass--inject-4">
	<path class="st1" d="M204,200.6c-27,42.5-25.3,101.4,4.3,142.2c19.7,27.2,49.2,45.5,72.6,69.5c23.4,24,41.2,59.4,28.9,90.7
		c-12.6,31.8-49.5,44.7-77.1,64.8c-63.3,46.1-78.8,134-35.2,199h286.9c0,0,50.4-96-14.4-169.3s-99.6-74.4-97.2-122.4
		s36-63.6,55.2-81.6c19.2-18,112.8-60,57.6-192.9L204,200.6z"/>
	<path class="st6" d="M204,200.6h4.9h14.5h56l206.2-0.2h0.2v0.2c4.2,10.1,7.8,20.4,10.8,30.9c3.1,11,5.1,22.3,6.1,33.7
		c1,11.9,0.4,23.9-1.8,35.6c-2.4,12.2-6.8,23.9-13,34.6c-3.2,5.5-6.8,10.7-10.8,15.7c-4.1,5-8.5,9.7-13.2,14.1
		c-4.8,4.5-9.8,8.7-15,12.7c-5.2,4-10.7,7.8-16,11.9c-2.7,2-5.1,4.3-7.6,6.5c-2.6,2.3-5.2,4.4-7.8,6.5c-5.3,4.2-10.7,8.4-15.7,13.1
		c-10.5,9.1-18.6,20.8-23.6,33.8c-2.4,6.7-3.9,13.7-4.4,20.7c-0.2,1.7-0.4,3.5-0.5,5.3c-0.1,1.8-0.1,3.6,0,5.4
		c0,3.6,0.4,7.2,1.1,10.7c1.3,7.1,4.2,13.9,8.5,19.7c4.4,5.9,9.4,11.3,14.9,16.1c10.9,10,22.5,19.5,33.5,29.7
		c11.1,10.3,21.9,21,32.3,32.3c5.3,5.6,10.3,11.5,14.9,17.7c4.6,6.3,8.7,13,12,20.1c6.8,14.3,11,29.7,12.4,45.5
		c1.4,16,0.4,32.1-2.8,47.8c-1.6,7.9-3.6,15.8-6.2,23.5c-2.5,7.8-5.5,15.3-9.1,22.6l-0.1,0.2H197.3l-0.1-0.2
		c-13.5-20.3-21.7-43.5-24-67.7c-2.3-23.3,1.1-46.7,9.9-68.4c8.4-20.7,21.4-39.2,37.9-54.2c8-7.1,16.7-13.4,25.9-18.9
		c9-5.6,18-10.7,26.5-16.3c8.5-5.3,16.4-11.7,23.4-19c6.7-7.1,11.6-15.7,14.4-25.1c2.5-9.1,2.9-18.7,1.1-28
		c-1.7-9-4.7-17.6-8.9-25.7c-4-7.8-8.9-15.1-14.4-21.9c-5.4-6.5-11.2-12.6-17.5-18.2c-12.1-11.2-24.6-21-35.8-31
		c-5.6-5.1-10.9-10.1-15.8-15.3c-4.7-5.1-9.1-10.5-13.1-16.1c-7.2-10.4-12.7-21.9-16.4-34c-3.2-10.5-5.1-21.3-5.6-32.2
		c-0.2-2.5-0.1-4.9-0.1-7.4c0-2.4,0-4.7,0.2-7c0.2-2.3,0.3-4.5,0.5-6.7c0.2-2.2,0.6-4.2,0.9-6.3c1.9-12.4,5.7-24.4,11.2-35.7
		c0.8-1.7,1.6-3.4,2.6-5.1l2.1-3.5C203.4,201.6,204,200.6,204,200.6l-1.7,2.9l-2,3.5c-0.9,1.6-1.8,3.3-2.6,5.1
		c-5.5,11.3-9.3,23.3-11.1,35.7c-0.3,2-0.6,4.1-0.9,6.2c-0.3,2.1-0.3,4.4-0.5,6.7s-0.2,4.6-0.2,7c0,2.4-0.1,4.8,0.2,7.3
		c0.5,10.9,2.4,21.7,5.6,32.1c3.7,12.1,9.2,23.5,16.4,33.9c4,5.7,8.3,11,13.1,16.1c4.9,5.2,10.2,10.2,15.8,15.2
		c11.2,10.1,23.6,19.8,35.8,31c6.3,5.7,12.2,11.8,17.6,18.4c5.6,6.8,10.5,14.2,14.5,22c4.3,8.1,7.3,16.9,9,25.9
		c1.8,9.4,1.4,19.1-1.1,28.3c-2.9,9.5-7.8,18.1-14.6,25.3c-7,7.3-14.9,13.7-23.5,19.1c-8.6,5.6-17.6,10.8-26.6,16.3
		c-9.2,5.5-17.8,11.8-25.8,18.8c-16.4,14.9-29.3,33.3-37.7,53.9c-8.8,21.5-12.2,44.9-9.8,68c2.3,24.1,10.5,47.2,23.9,67.3l-0.3-0.2
		h286.9l-0.4,0.2c3.6-7.3,6.6-14.9,9.1-22.6c2.5-7.7,4.6-15.5,6.1-23.4c3.2-15.6,4.1-31.7,2.8-47.6c-1.3-15.7-5.5-31-12.3-45.2
		c-3.3-7-7.3-13.7-11.9-19.9c-4.6-6.2-9.6-12.1-14.8-17.7c-10.4-11.3-21.1-22.1-32.3-32.3c-11-10.3-22.6-19.7-33.5-29.7
		c-5.5-4.9-10.6-10.3-15-16.2c-4.4-5.9-7.3-12.8-8.7-20c-0.7-3.6-1-7.2-1.1-10.8c-0.1-1.8,0-3.6,0-5.4s0.3-3.6,0.4-5.4
		c0.6-7.1,2.1-14.1,4.5-20.9c5-13.2,13.1-24.9,23.8-34.1c5.1-4.7,10.5-8.9,15.8-13.1c2.7-2.1,5.3-4.3,7.8-6.4
		c2.5-2.2,5.1-4.5,7.7-6.6c5.4-4,10.8-7.8,16-11.9c5.2-4,10.2-8.2,15-12.6c4.7-4.4,9.1-9.1,13.1-14.1c4-4.9,7.6-10.1,10.8-15.6
		c6.1-10.7,10.5-22.3,12.9-34.4c2.2-11.6,2.8-23.5,1.8-35.4c-0.9-11.4-3-22.7-6-33.7c-2.9-10.5-6.5-20.9-10.6-31l0.3,0.2l-206.1-0.2
		h-56h-14.6L204,200.6z"/>
	<path class="st7" d="M474.2,278.6c42.3,7-24.4,81.8-62.1,111.3c-21.9,17.1-45.3,35.6-55.7,61.4c-11.8,29.2-3,62-8.7,91.4
		c-0.4,2.2-2.5,3.7-4.7,3.3c-2-0.4-3.4-2.1-3.3-4.1c0.3-19.3-0.2-38.5-3.4-57.5c-4.5-26.9-14.9-53.5-33.7-73.2
		c-15.4-16.1-35.6-26.8-52-41.9c-24-22-48.6-50.3-51-82.7c0,0,46-37,71.6-32.4c29.9,5.5,59.3,51.6,105.5,46.3
		C408.8,296.6,425.1,270.5,474.2,278.6z"/>
	<path class="st7" d="M477.9,679.2c-1.1-10.6-3.9-22.5-13.3-27.5c-5.7-3-12.6-2.7-18.8-1.1c-6.2,1.6-12.1,4.5-18.2,6.3
		c-12.2,3.6-25.3,3.2-37.3-1.2c-11.5-4.2-21.3-11.8-32-17.8c-10.7-6-23.1-10.4-35-7.5c-20.4,5.1-31.1,29.7-51.3,35.6
		c-9,2.6-18.6,1.1-27.8-0.9c-9.1-2.1-18.3-4.7-27.6-4.4c-7.3,0.3-15,2.8-20.1,7.8l0,0l-0.1,0.2c-0.9,0.8-1.6,1.8-2.3,2.7
		c-6.3,8.4-7.3,19.6-5.3,29.8c2.2,11.4,7.5,22,13.2,32.1c6.7,11.9,14.4,23.8,25.6,31.7c13.8,9.8,31.1,3,47.9,4.4
		c39.3,3.1,81.5,5.2,120.8,2.2c20.8-1.7,40.2,0.6,56.7-12.1c11.6-9,19.1-22.5,22.8-36.6C479.3,708.7,479.4,693.7,477.9,679.2z"/>
	<g class="st8">
		<path d="M403.8,658.9c-2.2,3.4-3.2,7.9-1,11.4c2.1,3.4,5.1,6.6,6,10.5c1.5,6.2-2.3,12.3-5.1,18c-5.1,10.3-7.1,21.8-5.6,33.2
			c1.6,11.4,7.5,21.8,16.5,29c4,3.1,9.2,5.5,14,4c4.5-1.4,7.4-6,8.4-10.7c1-4.7,0.2-9.5-0.4-14.2c-2.7-21.9-2.2-44.1,1.7-65.8
			c0.6-3.6,1.2-7.8-1-10.6c-1.7-1.7-3.7-2.8-6-3.4C422.4,657.5,412.9,660.7,403.8,658.9"/>
	</g>
	<path class="st6" d="M176.4,779.8c0,0-0.8-13.2,16.4-20.5h301.8c0,0,15.7,8,17.7,20.2L176.4,779.8z"/>
	<path class="st6" d="M488.2,202.2l-0.5,0.2l-283.8-1.8c0,0-1-0.6-2.5-1.8c-4.7-3.7-5.5-10.4-1.8-15.1c2.1-2.6,5.2-4.2,8.6-4.1
		l275.4,2.2C494.9,181.9,498.5,197.4,488.2,202.2z"/>
	<g class="st8">
		<path d="M442.7,310.5c0.6,1.1-1.6,3.4-5.6,7.1c-4.1,3.7-10.1,8.6-17.6,14.7c-9,7.4-18.6,14.2-28.6,20.2c-6.2,3.6-12.8,6.6-19.6,9
			c-3.7,1.3-7.4,2.3-11.3,3.1c-4,0.9-8.1,1.4-12.2,1.6c-8.3,0.5-16.6-0.7-24.5-3.4c-7-2.5-13.6-5.9-19.7-10.1
			c-5.7-3.7-10.5-7.4-15.2-11c-4.6-3.6-8.8-7-12.5-10.2c-14.9-12.9-22.7-22.4-21.2-24.2c1.5-1.8,12.1,4.1,28.6,14.2l13.5,8.2
			c4.8,2.9,10,6.2,15.3,9.2c5.2,3.1,10.8,5.6,16.6,7.5c5.9,1.8,12.1,2.5,18.3,2.2c12.9-0.7,25.5-5.2,36.3-10.5
			c10.9-5.3,20.7-11.4,29.2-16.2c6.7-4,13.8-7.4,21.1-10.3C439,309.8,442.2,309.4,442.7,310.5z"/>
	</g>
	<path class="st7" d="M339.8,577.8c2.5-1,5.3,0.2,6.3,2.7s-0.2,5.3-2.7,6.3c-2.5,1-5.3-0.2-6.3-2.7c-1-2.4,0.1-5.2,2.5-6.2"/>
	<path class="st6" d="M238.3,357.4c-0.4-0.3-0.7-0.6-1-1l-2.7-3c-1.2-1.3-2.7-2.9-4.3-4.8l-5.4-6.7c-1.8-2.6-3.9-5.4-6-8.4l-3.1-4.9
		c-0.5-0.8-1.1-1.7-1.6-2.6l-1.5-2.7c-4.5-7.9-8-16.4-10.5-25.2c-2.5-8.8-3.8-17.8-4-26.9c0-2.1,0.1-4.1,0.2-6.1c0-1,0-2,0.1-2.9
		s0.2-1.9,0.3-2.8c0.2-1.9,0.4-3.7,0.6-5.4c0.3-1.7,0.6-3.4,0.9-4.9c0.5-3.1,1.3-5.9,1.9-8.4c0.3-1.2,0.6-2.4,0.9-3.4l0.9-2.8
		l1.3-3.9c0.1-0.5,0.3-0.9,0.5-1.3c-0.1,0.5-0.2,0.9-0.3,1.4c-0.3,1-0.7,2.3-1.1,3.9l-0.8,2.8c-0.3,1-0.5,2.2-0.8,3.4
		c-0.5,2.4-1.3,5.2-1.7,8.4c-0.3,1.5-0.5,3.2-0.8,4.9s-0.4,3.5-0.6,5.3c0,0.9-0.2,1.9-0.3,2.8s0,1.9-0.1,2.9c0,2-0.1,4-0.1,6.1
		c0.2,9.1,1.5,18.1,3.9,26.8c2.5,8.7,5.9,17.1,10.3,25c0.5,0.9,1,1.8,1.4,2.7s1.1,1.7,1.6,2.6l3,4.9c2.1,3.1,4.1,5.9,5.9,8.4
		l5.3,6.7c1.5,2,3,3.6,4.1,4.9l2.6,3.1C237.7,356.6,238,357,238.3,357.4z"/>
	<path class="st6" d="M222.3,607.5c0.1-0.2,0.2-0.4,0.3-0.6l1-1.6c0.5-0.7,1-1.5,1.7-2.6l1.1-1.7c0.4-0.6,0.9-1.1,1.4-1.7l3.4-4
		c1.3-1.4,2.8-2.8,4.3-4.4c3.6-3.5,7.5-6.7,11.5-9.7c8.9-6.7,20.5-13.5,33-21.4c6.6-4,12.9-8.5,18.9-13.3c6.5-5.1,12.2-11.2,17-17.9
		c8.8-13.5,13.5-29.1,13.7-45.2c0.2-13.1-2-26.1-6.5-38.4c-3-8.3-6.7-16.3-11.1-23.9c-1.6-2.7-2.8-4.8-3.7-6.2l-1-1.6
		c-0.2-0.4-0.3-0.6-0.3-0.6c0.2,0.2,0.3,0.3,0.4,0.5l1.1,1.5c0.9,1.3,2.3,3.4,3.9,6.1c4.6,7.6,8.4,15.6,11.4,23.9
		c4.6,12.3,6.9,25.4,6.7,38.6c-0.1,3.8-0.4,7.6-0.9,11.3c-0.5,3.9-1.4,7.8-2.5,11.6c-2.3,8.1-5.9,15.7-10.6,22.7
		c-4.8,6.8-10.6,12.9-17.1,18.1c-6.1,4.8-12.4,9.3-19,13.3c-12.5,7.8-24.1,14.5-33,21.2c-4.1,2.9-7.9,6.1-11.6,9.6
		c-1.6,1.6-3.1,3-4.4,4.4l-3.4,4c-0.5,0.6-1,1.2-1.4,1.7l-1.1,1.6l-1.7,2.5l-1.1,1.5C222.6,607.2,222.5,607.4,222.3,607.5z"/>
	<path class="st6" d="M206.7,637.3c-0.1,0.3-0.2,0.5-0.4,0.8l-1.2,2.1c-0.5,0.9-1.2,2.1-1.8,3.4c-0.7,1.3-1.5,2.9-2.2,4.6
		c-0.4,0.9-0.8,1.8-1.2,2.7s-0.7,2-1.1,3c-0.8,2.1-1.4,4.4-2.2,6.7c-2.9,10.6-3.9,21.5-3,32.5c0.3,2.5,0.5,4.9,0.9,7.1
		c0.2,1.1,0.3,2.2,0.6,3.2c0.2,1,0.5,2,0.7,2.9c0.4,1.9,0.9,3.5,1.3,4.9c0.4,1.4,0.8,2.7,1.2,3.7l0.8,2.3c0.1,0.3,0.2,0.5,0.2,0.8
		c-0.2-0.2-0.3-0.5-0.4-0.8c-0.3-0.6-0.6-1.4-0.9-2.3c-0.5-1.2-1-2.4-1.3-3.7c-0.5-1.4-1-3.1-1.5-4.9c-0.2-0.9-0.5-1.9-0.7-2.9
		c-0.3-1-0.4-2.1-0.6-3.2c-0.5-2.2-0.7-4.6-1-7.1c-1.1-11,0-22.1,3-32.7c0.8-2.4,1.4-4.7,2.3-6.8c0.4-1,0.8-2.1,1.2-3l1.2-2.7
		c0.7-1.7,1.7-3.2,2.3-4.6c0.6-1.2,1.3-2.3,2-3.4l1.3-2.1C206.5,637.5,206.6,637.3,206.7,637.3z"/>
	<path class="st6" d="M414.8,677.8l-0.3,0.2l-1,0.7l-4.1,2.5l-3,1.7c-1.1,0.6-2.3,1.2-3.7,1.9c-2.7,1.3-5.6,2.9-9.1,4.2l-5.4,2.2
		c-1.9,0.7-3.9,1.3-6,2c-4.1,1.5-8.6,2.6-13.4,3.8c-20.8,4.9-42.3,5.4-63.3,1.7c-4.8-1-9.4-1.8-13.6-3.1c-2.1-0.6-4.1-1.1-6.1-1.7
		l-5.5-2c-3.5-1.1-6.5-2.6-9.3-3.7c-1.3-0.6-2.6-1.1-3.7-1.7l-3.1-1.6l-4.2-2.2l-1.1-0.6l-0.4-0.2c0,0,0.2,0,0.4,0.2l1.1,0.5
		l4.3,2.1l3.1,1.5c1.1,0.5,2.4,1,3.8,1.6c2.7,1.1,5.7,2.5,9.3,3.6l5.4,2c1.9,0.6,4,1.1,6.1,1.7c4.2,1.2,8.7,2,13.5,3
		c20.9,3.6,42.3,3,63-1.7c4.7-1.2,9.2-2.2,13.3-3.7c2.1-0.7,4.1-1.2,5.9-2l5.4-2.1c3.5-1.3,6.4-2.9,9.1-4.1c1.3-0.6,2.6-1.2,3.7-1.7
		l3-1.7l4.2-2.3l1.1-0.6C414.7,677.8,414.8,677.7,414.8,677.8z"/>
	<path class="st6" d="M432.4,321.4c-0.1,0.1-0.2,0.2-0.4,0.3l-1.1,0.9c-1,0.8-2.5,2-4.3,3.4c-3.7,3-9.2,7.3-16,12.4
		c-8,6.1-16.3,11.7-25,16.7c-5.2,2.9-10.6,5.4-16.1,7.4c-6,2.2-12.3,3.6-18.6,4.1c-12.4,0.7-24.7-1.9-35.8-7.4
		c-4.8-2.4-9.4-5.2-13.8-8.2c-4.1-2.9-7.9-5.7-11.2-8.4c-6.7-5.4-11.9-9.9-15.5-13l-4.2-3.6l-1.1-0.9l-0.4-0.4c0,0,0.2,0,0.4,0.3
		l1.1,0.9l4.3,3.5c3.7,3,9,7.5,15.7,12.8c3.4,2.6,7.1,5.4,11.2,8.3c4.4,3,9,5.7,13.8,8.1c11,5.5,23.1,8,35.4,7.3
		c6.3-0.6,12.5-1.9,18.4-4.1c5.5-2,10.9-4.5,16-7.3c8.7-4.9,17.1-10.4,25.1-16.3c6.9-5.1,12.3-9.3,16.2-12.1l4.4-3.4l1.2-0.8
		C432.1,321.6,432.2,321.5,432.4,321.4z"/>
	<g class="st8">
		<path d="M280.5,691.9c8-6.2,19.2-4.7,29.1-2.6c9.9,2.1,19.8,5.4,29.8,4c7.5-1.1,14.4-4.7,21.9-6.4c7.5-1.6,16.4-0.4,20.6,6
			C348.8,703.6,313.3,703.2,280.5,691.9"/>
	</g>
</g>
<g id="freepik--Character--inject-4">
	<path class="st7" d="M558.9,646.2l-36.2-40.6l-0.4,49.3l10.9,31.7l-108.5,18.8l-4.6-85.6l-7.8-65.7c-1-8.1,3.6-15.7,11.2-18.7
		l29.8-11.8l42.1,7.7l16.9,6.4c7.1,2.7,13.4,7.1,18.4,12.8l50.9,58.2"/>
	<path class="st4" d="M520.2,595.9c2,0,4.1-0.2,6.1-0.4c10-1.5,18.1-9,20.4-18.8c0.4-2,0.7-4,0.9-6.1c0.1,0.6,0.2,1.1,0.2,1.7
		c0,1.5-0.1,3.1-0.5,4.5c-2.1,10.3-10.5,18-20.9,19.3c-1.5,0.2-3,0.2-4.6,0.1C521.3,596.2,520.7,596,520.2,595.9z"/>
	<path class="st6" d="M523.3,652.9c0.3,0,0.3-17.1,0.2-38.2c-0.2-21.1-0.5-38.2-0.8-38.2c-0.3,0-0.3,17.1-0.2,38.2
		C522.7,635.8,523.1,652.9,523.3,652.9z"/>
	<path class="st7" d="M519.3,665.4L453.8,639c-5.3-2.1-8.9-7.1-9.3-12.7l-4.8-62.8c0,0,0.6-26.7-16.1-28l-9.4,3.7
		c-12.3,6.5-15.3,24.4-13.6,38.2c2.4,19.6,3.4,47.3,6,64.3c2.2,13.9,10.1,26.2,23.8,29.7l80.7,17.5L519.3,665.4z"/>
	<path class="st6" d="M440.6,573c0.1,0.5,0.2,0.9,0.2,1.4c0.1,1,0.3,2.4,0.4,4.1c0.3,3.7,0.8,8.9,1.4,15.2c0.6,6.4,1.2,14.1,2,22.6
		c0.2,2.1,0.4,4.3,0.5,6.5c0.1,2.3,0.4,4.5,0.8,6.7c0.5,2.2,1.6,4.3,3.3,5.9c1.8,1.6,3.8,2.9,6,3.8c18.1,7.8,34.7,14.3,46.8,18.8
		l14.4,5.3l3.9,1.4c0.5,0.2,0.9,0.3,1.3,0.6c-0.5-0.1-0.9-0.2-1.4-0.4l-4-1.3c-3.4-1.1-8.4-2.8-14.4-5.1
		c-12.2-4.4-28.8-10.7-47-18.5c-2.3-1-4.4-2.3-6.3-3.9c-1.8-1.7-3-3.9-3.5-6.3c-0.4-2.3-0.7-4.5-0.8-6.8c-0.2-2.2-0.4-4.4-0.5-6.5
		c-0.7-8.4-1.3-16.2-1.7-22.6s-0.8-11.6-1.1-15.3c-0.1-1.7-0.2-3.1-0.3-4.2C440.6,574,440.6,573.5,440.6,573z"/>
	<path class="st6" d="M403.1,607.2c0.1,0.3,0.1,0.6,0.1,0.8l0.2,2.4c0.2,2.2,0.5,5.3,0.8,8.9c0.3,3.7,0.8,8.2,1.5,13.2
		c0.6,5.4,1.6,10.7,2.9,15.9c0.6,2.7,1.7,5.3,3.2,7.6c1.5,2.1,3.1,4.1,4.9,6c3.1,3.2,6.6,5.8,10.5,7.9c3.6,1.8,7.5,3.1,11.5,3.8
		c-0.3,0-0.6,0-0.9,0c-0.8-0.1-1.6-0.2-2.4-0.3c-3-0.6-5.8-1.5-8.5-2.9c-4-2-7.6-4.7-10.8-7.8c-1.9-1.9-3.6-3.9-5.1-6.1
		c-1.6-2.4-2.7-5-3.4-7.8c-1.3-5.3-2.3-10.6-2.9-16c-0.6-5.1-1-9.5-1.3-13.2c-0.3-3.8-0.4-6.8-0.5-9c0-1,0-1.8,0-2.4
		C403,607.8,403,607.5,403.1,607.2z"/>
	<path class="st6" d="M431.1,651.1c0.2-1.2,0.6-2.4,1.2-3.5c2.7-5.4,7.5-9.5,13.3-11.4c1.2-0.4,2.4-0.7,3.6-0.6
		c-1.1,0.5-2.2,0.9-3.4,1.2c-2.7,1-5.2,2.5-7.4,4.4c-2.2,1.9-4.1,4.1-5.5,6.6C431.7,649.9,431.2,651.2,431.1,651.1z"/>
	<path class="st4" d="M444,603.4c0.1,0,0.3,0.1,0.4,0.2l1.2,0.6c1.5,0.7,3.1,1.4,4.7,2c5.9,2.1,12.2,2.6,18.4,1.6
		c9.1-1.6,17.3-6.7,22.8-14.2c3.3-4.3,5.4-9.5,6-14.8c0.3-2.8,0-5.7-0.9-8.4c-0.9-2.8-2.6-5.3-4.7-7.2c-2.1-2-4.8-3.3-7.7-3.7
		c-2.8-0.5-5.6,0.3-7.7,2.2c-0.9,0.9-1.5,2.2-1.5,3.5c0,1.3,0.5,2.6,1.3,3.6c1.7,2,4.1,3.3,6.7,3.5c9.3,1.2,18.5-2.5,24.5-9.6
		c2.2-2.7,3.9-5.9,4.9-9.3c0.8-2.6,1.2-5.2,1.2-7.9c0-1.7-0.1-3.4-0.4-5.1c-0.1-0.5-0.2-1-0.2-1.3c0-0.2,0-0.3,0-0.5
		c0.7,2.2,1,4.4,1,6.7c0,2.7-0.4,5.4-1.1,8c-3.9,13-16.6,21.3-30,19.6c-2.8-0.2-5.4-1.6-7.2-3.8c-0.9-1.2-1.4-2.6-1.4-4.1
		c0-1.5,0.6-3,1.7-4.1c2.3-2,5.4-2.9,8.4-2.4c3.1,0.5,5.9,1.8,8.2,4c2.3,2.1,4,4.7,4.9,7.6c0.9,2.8,1.2,5.8,0.9,8.8
		c-0.7,5.5-2.8,10.8-6.2,15.2c-9.6,13.1-26.8,18.2-42,12.5C448,605.6,445.9,604.6,444,603.4z"/>
	<path class="st4" d="M401.1,586.6c0.3-0.5,0.6-1,1.1-1.3c1.1-1.1,2.3-2.2,3.5-3.1c4.3-3,9.3-4.7,14.5-5.1c2.9-0.3,5.7-0.2,8.6,0.4
		c2.3,0.5,4.5,1.3,6.6,2.3c1.4,0.7,2.7,1.5,4,2.4c0.5,0.3,0.9,0.7,1.3,1.1c-0.1,0.1-2.1-1.3-5.6-3c-4.6-2.1-9.7-3-14.8-2.4
		c-5.1,0.4-10,2-14.2,4.8C402.8,584.9,401.2,586.7,401.1,586.6z"/>
	<path class="st4" d="M411.5,541.7c1.6,1.5,3.4,2.8,5.3,3.9c2.1,1.1,4.4,1.8,6.7,2c2.9,0.3,5.7-0.1,8.4-1.2c2.6-1.1,4.9-2.8,6.7-5.1
		c1.5-1.8,2.6-3.9,3.4-6.2c0.6-2.1,1-4.3,1-6.5c0.2,0.6,0.2,1.2,0.2,1.8c0,1.7-0.2,3.3-0.7,4.9c-0.7,2.4-1.8,4.6-3.4,6.5
		c-3.8,4.9-9.9,7.4-16,6.6c-2.4-0.3-4.8-1-7-2.2c-1.4-0.8-2.8-1.8-3.9-3C412.1,542.7,411.8,542.2,411.5,541.7z"/>
	<path class="st4" d="M468.7,645c0-0.4,0-0.8,0.1-1.2c0.2-1.2,0.6-2.3,1.2-3.4c2.1-3.9,5.6-6.9,9.8-8.5c6.2-2.4,13-2.7,19.3-0.7
		c3.5,1,7.4,2.3,10.1,5.7c1.4,1.8,1.6,4.1,0.7,6.2c-1,1.9-2.7,3.5-4.7,4.4c-1.9,1-4.1,1.5-6.2,1.5c-2.1,0.1-4.3-0.6-6-1.9
		c-1.6-1.4-2.6-3.3-2.7-5.4c-0.1-1.9,0.2-3.9,0.9-5.7c2.5-6.1,7.4-11,13.5-13.7c4-1.8,8.5-2.6,12.9-2.2c1.6,0.1,3.2,0.5,4.7,1
		c0,0.1-1.7-0.4-4.7-0.7c-7.4-0.4-14.6,2.3-20,7.4c-2.5,2.4-4.4,5.2-5.6,8.4c-0.7,1.7-0.9,3.5-0.8,5.3c0.1,1.9,1,3.6,2.4,4.8
		c1.5,1.2,3.4,1.8,5.4,1.7c2-0.1,4-0.5,5.8-1.4c1.8-0.8,3.3-2.2,4.3-4c0.8-1.8,0.5-3.8-0.6-5.3c-1.2-1.5-2.7-2.7-4.4-3.5
		c-1.7-0.8-3.4-1.4-5.2-1.9c-6.1-2-12.8-1.8-18.8,0.5c-4.1,1.5-7.5,4.3-9.7,8.1C469.5,641.9,469,643.4,468.7,645z"/>
	<path class="st4" d="M425,668.7c0-0.2,2.5-0.4,6.3-1.7c10-3.5,17.6-11.9,20.1-22.3c1-3.9,0.9-6.4,1.1-6.4c0.1,0.6,0.1,1.2,0.1,1.8
		c0,1.6-0.2,3.2-0.6,4.8c-2.2,10.7-10.1,19.4-20.5,22.7c-1.5,0.5-3.1,0.9-4.7,1.1C426.2,668.7,425.6,668.7,425,668.7z"/>
	<path class="st4" d="M403.8,619.8c0.2-0.1,0.5-0.2,0.8-0.3c0.5-0.2,1.3-0.4,2.3-0.7c2.9-0.8,5.9-1.1,8.9-0.9
		c2.1,0.2,4.1,0.7,6.1,1.5c2.2,1,4.2,2.5,5.7,4.4c1.6,2.2,2.4,4.9,2.2,7.6c-0.1,1.5-0.6,2.9-1.3,4.1c-0.8,1.3-1.9,2.3-3.4,2.9
		c-1.5,0.5-3.2,0.2-4.4-0.9c-1-1.1-1.6-2.6-1.5-4.1c-0.1-2.7,0.4-5.3,1.5-7.8c3.2-7.2,10.8-11.3,18.5-9.9c0.8,0.1,1.6,0.3,2.4,0.6
		c0.5,0.2,0.8,0.3,0.8,0.4c0,0-1.1-0.4-3.2-0.6c-2.9-0.4-5.9,0-8.6,1.1c-4.1,1.6-7.3,4.8-9,8.8c-1,2.3-1.5,4.9-1.4,7.4
		c0,1.3,0.4,2.5,1.3,3.5c1,0.8,2.3,1.1,3.6,0.7c1.2-0.5,2.3-1.3,3-2.5c0.7-1.1,1.1-2.4,1.2-3.7c0.2-2.5-0.5-5-2-7.1
		c-1.4-1.9-3.2-3.3-5.3-4.2c-1.8-0.8-3.8-1.4-5.8-1.5c-2.9-0.2-5.9,0-8.8,0.6C404.9,619.6,403.8,619.9,403.8,619.8z"/>
	<g class="st9">
		<path d="M500.5,657.9c-7-4-13.9-7-21.2-10.3s-14.5-7.6-19.3-14.1c-9-12.2-8-29.8-17.3-41.8c0.6,8.1,1.2,16.2,1.8,24.3
			c0.6,7.4-0.6,14.7,4.2,19.8c4,4.2,11.9,7.5,17.4,9.3C477.3,648.8,489.4,654.2,500.5,657.9"/>
	</g>
	<path class="st7" d="M614.5,750.3c0,0,54.8,15.2,57,16c3.4,1.2,2.7,13.3-2.4,13.1c-2.4-0.1-42.1,1.5-47.1,1.2s-20.2-6.3-20.2-6.3
		L614.5,750.3z"/>
	<path class="st6" d="M637.2,771.2c0.7-2,1.5-4,2.4-5.9c1.2-1.8,2.5-3.5,3.9-5.1C639.5,762.4,637.1,766.6,637.2,771.2L637.2,771.2z"
		/>
	<path class="st6" d="M631.5,768.6c0.3,0,0.8-2.5,2.3-5.4s3.2-4.9,3-5.1C633.6,760.7,631.6,764.5,631.5,768.6L631.5,768.6z"/>
	<path class="st6" d="M626.2,767.2c0.3-2,0.7-3.9,1.3-5.8c0.9-1.8,1.9-3.5,3-5.1C626.9,758.6,625.2,763,626.2,767.2z"/>
	<path class="st6" d="M627.1,760.1c0.5-1.3,0.7-2.7,0.6-4.1c0-1.5-0.2-3-0.6-4.5c-0.2-0.9-0.5-1.7-0.8-2.5c-0.2-0.5-0.5-1-0.9-1.3
		c-0.6-0.4-1.4-0.4-1.9,0.1c-0.4,0.4-0.7,1-0.7,1.5c0,0.5,0,1,0,1.4c0,0.9,0.1,1.8,0.3,2.7c0.4,1.5,0.9,2.9,1.7,4.2
		c0.6,1.3,1.4,2.4,2.5,3.4c0.1,0-0.8-1.4-1.9-3.6c-0.6-1.3-1.1-2.7-1.4-4.1c-0.2-0.8-0.3-1.7-0.3-2.5c0-0.8,0-1.9,0.5-2.3
		c0.2-0.2,0.5-0.2,0.7,0c0.3,0.3,0.5,0.6,0.6,1c0.3,0.8,0.6,1.6,0.8,2.4c0.4,1.4,0.6,2.8,0.7,4.3C627.2,758.5,627,760.1,627.1,760.1
		z"/>
	<path class="st6" d="M627.1,759.5c-1.1-0.5-2.3-0.7-3.5-0.6c-1.3,0-2.6,0.2-3.9,0.5c-0.8,0.2-1.5,0.5-2.3,0.8
		c-0.9,0.5-1.4,1.5-1.2,2.5c0.3,1,1,1.7,2,2c0.8,0.2,1.7,0.2,2.5,0c1.3-0.3,2.5-0.9,3.6-1.7c1-0.7,1.9-1.5,2.5-2.5
		c-1,0.6-2,1.3-2.9,2c-1,0.7-2.2,1.2-3.4,1.5c-0.7,0.2-1.4,0.2-2,0c-0.6-0.2-1.2-0.7-1.3-1.3c-0.1-0.6,0.2-1.3,0.8-1.5
		c0.6-0.3,1.3-0.6,2-0.8c1.2-0.3,2.5-0.6,3.7-0.6C625.7,759.5,627,759.7,627.1,759.5z"/>
	<path class="st6" d="M645.6,771.8c0.2-1.7,0.6-3.3,1.1-4.9c0.8-1.5,1.7-2.9,2.7-4.3C646.1,764.3,644.6,768.2,645.6,771.8z"/>
	<path class="st6" d="M607.4,774.3c0.7,0.4,1.4,0.8,2.1,1c2,0.8,4,1.4,6.1,1.9c6.9,1.5,13.9,2.2,20.9,2c8.2-0.1,15.6-0.5,21-0.7
		l6.3-0.3c0.8,0,1.6-0.1,2.3-0.2c-0.8-0.1-1.6-0.2-2.3-0.1h-6.3l-21,0.4c-7,0.2-13.9-0.4-20.8-1.7
		C610.5,775.5,607.5,774.1,607.4,774.3z"/>
	<path class="st6" d="M605.8,775.6c0,0.1,1.6-0.8,4.1-1.9c3.2-1.5,6.8-2.1,10.4-1.7c3.5,0.8,6.6,2.6,9,5.3c1,1.1,2,2.2,3.1,3.2
		c-0.7-1.3-1.6-2.6-2.7-3.7c-1.1-1.3-2.3-2.4-3.6-3.4c-1.7-1.2-3.6-2.1-5.7-2.4c-3.7-0.5-7.5,0.3-10.8,2
		C608.2,773.8,606.9,774.6,605.8,775.6z"/>
	<path class="st7" d="M556.2,735.1c0,0-51.9,34-53.7,35.4c-2.8,2.1,0.4,12.2,5.3,10.4c2.3-0.8,45.8-12.9,50.5-14.8s17.3-12,17.3-12
		L556.2,735.1z"/>
	<path class="st6" d="M540.8,762c-1.3-4.4-4.9-7.6-9.3-8.5c1.8,1.1,3.6,2.3,5.2,3.6C538.2,758.7,539.5,760.3,540.8,762z"/>
	<path class="st6" d="M545.4,757.8c-1.3-3.9-4.3-7-8.2-8.4c-0.1,0.2,2.1,1.7,4.4,3.9C543.8,755.5,545.2,757.9,545.4,757.8z"/>
	<path class="st6" d="M550.1,754.8c0-2.1-0.8-4.2-2.3-5.7c-1.2-1.7-3-2.9-5.1-3.4c1.6,1.2,3,2.6,4.4,4
		C548.3,751.3,549.3,753,550.1,754.8z"/>
	<path class="st6" d="M547.1,748.3c0.1,0-0.6-1.5-1.2-3.9c-0.4-1.4-0.6-2.8-0.6-4.3c-0.1-0.9-0.1-1.7,0-2.6c0-0.4,0.1-0.8,0.3-1.1
		c0.2-0.2,0.5-0.3,0.7-0.2c0.6,0.2,0.9,1.2,1.2,2.1c0.2,0.8,0.4,1.6,0.5,2.5c0.1,1.4,0.1,2.9-0.1,4.3c-0.4,2.5-0.8,4-0.7,4
		c0.7-1.2,1.2-2.5,1.3-3.9c0.3-1.5,0.4-3,0.3-4.5c-0.1-0.9-0.2-1.8-0.5-2.7c-0.1-0.5-0.3-0.9-0.5-1.4c-0.2-0.6-0.6-1-1.2-1.3
		c-0.6-0.3-1.4-0.1-1.8,0.5c-0.3,0.5-0.4,1-0.4,1.5c-0.2,2.4,0.1,4.8,0.8,7.1C545.6,746,546.2,747.3,547.1,748.3z"/>
	<path class="st6" d="M546.9,747.8c0,0.1,1.3-0.5,3.4-1c1.2-0.3,2.5-0.5,3.7-0.5c0.7,0,1.4,0,2.1,0.1c0.6,0.1,1.1,0.6,1.2,1.2
		c0,0.7-0.3,1.3-0.9,1.7c-0.6,0.4-1.2,0.6-1.9,0.6c-1.2,0.1-2.5,0-3.7-0.4c-1.1-0.4-2.2-0.7-3.4-1c1,0.8,2,1.3,3.2,1.7
		c1.2,0.5,2.6,0.7,3.9,0.6c0.8,0,1.6-0.3,2.3-0.7c0.8-0.5,1.3-1.5,1.3-2.5c-0.1-1-0.9-1.9-1.9-2c-0.8-0.1-1.6-0.2-2.4-0.1
		c-1.3,0.1-2.6,0.3-3.9,0.7C549,746.5,547.9,747,546.9,747.8z"/>
	<path class="st6" d="M514.3,779c0,0.1,0.9-0.5,1.3-2c0.4-1.9,0.1-4-1-5.6c-0.5-0.9-1.1-1.8-1.7-2.6c-0.5-0.7-1.1-1.3-1.8-1.9
		c-0.5-0.4-1.1-0.6-1.7-0.7c-0.4,0-0.7,0.1-0.7,0.1s0.9,0.1,1.9,1.1c0.6,0.6,1.1,1.2,1.5,1.9c0.6,0.8,1.2,1.7,1.7,2.5
		c0.9,1.5,1.3,3.3,1.1,5.1C514.8,777.6,514.6,778.3,514.3,779z"/>
	<path class="st6" d="M532.9,765.1c0.1-1.8-0.5-3.7-1.8-5c-1-1.5-2.7-2.5-4.6-2.7c1.4,1,2.7,2.1,3.9,3.3
		C531.4,762.1,532.2,763.6,532.9,765.1z"/>
	<path class="st6" d="M570.2,755.9c-0.8,0.4-1.6,1-2.3,1.5c-2.1,1.4-4.2,2.7-6.4,3.9c-3.3,1.7-6.6,3.2-10.1,4.5
		c-3.9,1.5-8.4,2.8-13,4.2c-9.3,2.7-17.8,5.2-23.9,7l-7.3,2.3c-0.9,0.2-1.8,0.6-2.6,0.9c0.9-0.1,1.8-0.3,2.7-0.6l7.3-2
		c6.1-1.7,14.6-4,24-6.7c4.7-1.4,9.1-2.8,13-4.3c3.5-1.3,6.9-2.9,10.2-4.7c2.2-1.2,4.3-2.7,6.3-4.2
		C568.8,757.2,569.5,756.6,570.2,755.9z"/>
	<path class="st6" d="M572.1,756.6c-1.4-0.6-2.9-1-4.4-1.2c-3.7-0.7-7.5-0.2-10.9,1.3c-1.8,1-3.4,2.4-4.6,4.1
		c-1,1.4-1.8,2.8-2.4,4.3c-0.7,1.4-1.2,2.8-1.4,4.3c0.8-1.3,1.4-2.7,2-4c1.4-3.3,3.8-6,6.9-7.8c3.3-1.5,6.9-2,10.4-1.5
		C570.3,756.4,572,756.7,572.1,756.6z"/>
	<path class="st6" d="M664,652.3c0,0,15.6,5.6,15.6,23c0.1,33.4-67.5,70.3-67.5,70.3L522,685.9l-5.6-2.3
		C516.4,683.6,638,637.9,664,652.3z"/>
	<path class="st10" d="M567.6,716c0.8-0.5,1.6-1,2.4-1.6c1.5-1.1,3.6-2.7,6.1-4.7c5.2-4,12.2-9.6,19.7-16.1s14.2-12.6,18.9-17.1
		c2.4-2.2,4.2-4.1,5.5-5.4c0.7-0.6,1.3-1.3,1.9-2.1c-0.8,0.5-1.5,1.2-2.2,1.8l-5.7,5.2c-4.8,4.4-11.5,10.4-19.1,16.8
		c-7.5,6.5-14.5,12.2-19.5,16.3l-6,4.9C569,714.7,568.3,715.4,567.6,716z"/>
	<path class="st10" d="M638.6,664.8c-5.9-0.6-11.8,1.1-16.4,4.8c0.2,0.3,3.4-1.9,8-3.2S638.6,665.1,638.6,664.8z"/>
	<path class="st10" d="M630.8,659.5c-4.2,1.8-7.3,5.6-8.1,10.1c0.3,0,1.2-2.7,3.5-5.5C628.5,661.3,631,659.7,630.8,659.5z"/>
	<path class="st6" d="M669,765.4c0-0.1-1.1-0.3-2.3,0.7c-1.5,1.4-2.4,3.2-2.6,5.2c-0.3,2,0,4,0.8,5.8c0.6,1.4,1.3,2,1.4,1.9
		c-0.2-0.7-0.5-1.5-0.8-2.2c-0.6-1.7-0.8-3.6-0.5-5.4c0.2-1.8,0.9-3.5,2.1-4.9C668,765.5,669,765.5,669,765.4z"/>
	<polygon class="st10" points="643.3,597.6 611.2,679 473.1,681.2 470.6,673.7 519,672 542.2,599.8 	"/>
	<path class="st2" d="M578.8,632.9c2.2-1.1,4.8-0.8,6.7,0.7c1.6,1.5,2.1,3.8,1.3,5.9c-0.9,2-2.8,3.4-5.1,3.5
		c-2.3,0.2-4.5-1.3-5.3-3.5C575.7,637,576.6,634.4,578.8,632.9"/>
	<path class="st6" d="M620.6,749.6c0,0-127.2-83.5-132.4-85.2s-17.8-10-30.4-6.5c-12.6,3.5-23.9,14.8-29.5,31.3
		c-3.2,9.4-4.7,25.5-5.5,37.6c-1,14.4,3.7,28.7,13,39.7c4.1,5.2,9.6,9.1,15.9,11.3c1.3,0.4,2.7,0.8,4.1,1.1
		c24.1,5.2,48.8-5.6,62.3-26.2l3-4.5c0,0,83.3,30.6,84.5,30.2L620.6,749.6z"/>
	<path class="st10" d="M463.2,726.7c0.2,0.1,0.5,0.2,0.7,0.3l2.1,0.8l8.1,3.1l30,11.3c12.7,4.7,28,10.4,45.1,16.6
		c17.1,6.2,36.1,13,56.3,19.9l0.4,0.1l0.2-0.4l9.9-19l5.1-9.7l0.2-0.4l-0.4-0.2l-97.1-61.6l-29.2-18.4l-7.9-4.9l-2.1-1.3
		c-0.5-0.3-0.7-0.4-0.7-0.4l0.7,0.5l2,1.3l7.8,5.1l29.1,18.7l96.9,61.9l-0.2-0.6c-1.6,3.1-3.4,6.4-5.1,9.7l-9.9,19l0.6-0.2
		c-20.2-6.8-39.2-13.6-56.4-19.8l-45.2-16.4l-30.2-11.1l-8.1-3l-2.1-0.7L463.2,726.7z"/>
	<path class="st6" d="M476.4,430.3c2.2-5.9,7-8.4,13-9.9c6.2-1.4,12.7,0.2,17.5,4.5c3.1,2.8,5.3,6.7,9.1,8.4
		c6.3,2.8,14.3-1.3,20.2,2.2c4.2,2.5,5.6,7.9,3.1,12.2c-1.8,3.1-5.3,4.8-8.9,4.3c4.1,1.9,4.8,8.1,2,11.6c-2.8,3.5-8,4.5-12.4,3.3
		c-4.3-1.5-8.1-4.1-11-7.6c-3.1-3.4-5.8-7-9.1-10.1c-3.2-3.3-7.4-5.3-12-5.7c-6.1-0.2-11.8,3.9-15,9.1c-3.2,5.2-4.4,11.4-5.3,17.4
		c-0.9,6.1-1.6,12.2-3.9,17.9c-0.3,0.7-0.7,1.4-1.4,1.5c-1,0.2-1.8-0.9-2.2-1.9c-4.6-10.8-7-22.4-7.2-34.2
		c-0.1-6.7,0.7-13.2,4.9-18.5S472.1,426.2,476.4,430.3"/>
	<path class="st11" d="M462.1,457.4l-9.4,68c-1.5,11.2,6.3,21.5,17.5,23c0.3,0,0.7,0.1,1.1,0.1l0,0c10.9,0.9,20.5-6.8,22-17.6
		c0.7-5.1,1.3-9.4,1.4-9.9c0,0,17.5,0.8,21.1-16.2c1.7-8.2,4-25.4,5.8-40.9c1.9-16.7-9.3-32.1-25.8-35.4l-1.7-0.3
		C476.2,425.7,464.1,439.5,462.1,457.4z"/>
	<path class="st12" d="M494.6,520.8c-7.9-1.4-15.2-5.2-20.9-10.8c0,0,2.8,13.3,20.1,15.2L494.6,520.8z"/>
	<path class="st6" d="M514.2,474.3c-0.2,1.3-1.5,2.2-2.8,2c-1.3-0.1-2.2-1.3-2.1-2.6c0,0,0-0.1,0-0.1c0.2-1.3,1.5-2.2,2.8-2
		C513.5,471.8,514.4,472.9,514.2,474.3C514.2,474.3,514.2,474.3,514.2,474.3z"/>
	<path class="st6" d="M516.1,471.5c-0.4,0.3-1.9-1.5-4.5-2s-4.8,0.4-5.1,0c-0.3-0.4,0.3-0.7,1.3-1.1c1.3-0.6,2.7-0.7,4.1-0.4
		c1.4,0.3,2.6,1,3.5,2C516.2,470.8,516.3,471.4,516.1,471.5z"/>
	<path class="st6" d="M488.4,470.1c-0.2,1.3-1.5,2.2-2.8,2c-1.3-0.2-2.2-1.4-2.1-2.7c0,0,0,0,0,0c0.3-1.3,1.5-2.2,2.8-2
		C487.7,467.5,488.6,468.7,488.4,470.1C488.4,470,488.4,470,488.4,470.1z"/>
	<path class="st6" d="M490.4,466.9c-0.4,0.3-1.9-1.5-4.5-2c-2.6-0.5-4.8,0.4-5.1,0c-0.3-0.4,0.3-0.7,1.3-1.1
		c1.3-0.6,2.7-0.7,4.1-0.4c1.4,0.3,2.6,1,3.6,2C490.4,466.2,490.5,466.8,490.4,466.9z"/>
	<path class="st6" d="M496,488.1c1.5-0.2,2.9-0.1,4.4,0.1c0.7,0,1.3,0,1.5-0.4c0.2-0.7,0.2-1.4,0-2.1c-0.3-1.7-0.6-3.6-1-5.5
		c-1.3-7.8-2.1-14.1-1.8-14.2s1.7,6.2,2.9,14c0.3,1.9,0.6,3.7,0.9,5.5c0.3,0.9,0.2,1.8-0.2,2.7c-0.3,0.4-0.8,0.7-1.3,0.7
		c-0.4,0.1-0.8,0.1-1.2,0C498.9,488.9,497.4,488.6,496,488.1z"/>
	<path class="st6" d="M487.9,488.4c0.4,0-0.1,2.9,1.9,5.4c2,2.5,5.1,2.8,5.1,3.2s-0.8,0.4-2.1,0.2c-1.7-0.3-3.2-1.2-4.3-2.5
		c-1-1.3-1.5-2.9-1.4-4.5C487.3,489,487.7,488.3,487.9,488.4z"/>
	<path class="st6" d="M493.1,456.8c-0.4,0.7-2.9-0.2-6.1-0.4c-3.1-0.3-5.8,0.1-6.1-0.6c-0.1-0.3,0.5-0.9,1.6-1.4
		c1.5-0.6,3.1-0.8,4.7-0.7c1.6,0.1,3.2,0.6,4.5,1.5C492.8,455.8,493.2,456.5,493.1,456.8z"/>
	<path class="st6" d="M516.7,463.8c-0.6,0.5-2.2-0.5-4.4-0.9c-2.2-0.5-4.1-0.4-4.4-1.1c-0.1-0.3,0.3-0.9,1.2-1.3
		c1.2-0.5,2.5-0.6,3.8-0.3c1.3,0.3,2.4,0.9,3.3,1.9C516.8,462.9,517,463.5,516.7,463.8z"/>
	<path class="st11" d="M460.9,470.3c-0.3-0.2-11-5.8-12.9,5.9c-2,11.7,10.2,11.2,10.3,10.9C458.3,486.8,460.9,470.3,460.9,470.3z"/>
	<path class="st12" d="M455.4,482.1c0,0-0.2,0.1-0.6,0.2c-0.5,0.1-1.1,0-1.5-0.2c-1.4-1.2-2-3.1-1.6-4.9c0.1-1,0.5-2,1.1-2.8
		c0.3-0.7,1-1.2,1.7-1.4c0.5,0,1,0.3,1.1,0.8c0.1,0.3,0,0.6,0,0.6c0,0,0.3-0.2,0.3-0.6c0-0.3-0.1-0.6-0.3-0.8
		c-0.3-0.3-0.7-0.5-1.1-0.5c-1,0-1.9,0.6-2.4,1.4c-0.7,0.9-1.1,2-1.3,3.1c-0.3,2.4,0.5,4.8,2.1,5.5c0.6,0.3,1.3,0.3,1.9,0
		C455.4,482.4,455.5,482.1,455.4,482.1z"/>
	<path class="st6" d="M525.8,461.2c-8,0.4-15.8-3-20.8-9.3c-3.4-4.3-5.6-10-10.5-12.6c-3.4-1.7-7.3-1.9-10.9-0.7
		c-3.5,1.3-6.7,3.2-9.5,5.8c1.5,9.3-2.6,18.5-6.6,26.9c-0.3,1-1,1.8-1.9,2.4c-1.6,0.8-3.5-0.5-4.4-2c-1.3-2.5-1.9-5.4-1.7-8.2
		c0-6.5,1.4-12.9,3.9-18.8c2.6-6,6.8-11.1,12.2-14.6c7-4.2,15.3-5.6,23.3-3.9c7.9,1.8,15,6.1,20.4,12.2c2.6,2.7,4.5,6,5.5,9.6"/>
</g>
<g id="freepik--Plant--inject-4">
	<path class="st6" d="M54.6,735.3c0.1-0.2,0.2-0.5,0.3-0.7l0.9-2c1.2-2.6,2.1-5.4,2.8-8.1c1.9-7.2,2.5-18.3-0.3-31.4
		c-1.5-7.2-3.4-14.2-5.8-21.1c-2.5-7.5-5.3-15.4-7.7-24c-2.6-9-3.9-18.3-3.8-27.6c0.4-9.8,3.2-19.5,6.4-29.3
		c3.2-9.7,6.5-19.2,7.4-28.8c1.1-9.2-0.7-18.5-5.3-26.6c-4.2-7.8-9.5-14.4-13.5-21.3c-3.7-6.4-6.4-13.3-8.1-20.5
		c-2.4-10.4-2.6-21.2-0.5-31.7c0.8-3.8,1.9-7.6,3.4-11.2c0,0.3-0.1,0.5-0.2,0.8l-0.7,2.1c-4,12.9-4.4,26.7-1.2,39.8
		c1.7,7.1,4.4,13.9,8.1,20.2c4,6.7,9.3,13.5,13.6,21.3c4.6,8.2,6.5,17.7,5.4,27.1c-1,9.7-4.3,19.3-7.5,29c-3.2,9.7-6,19.4-6.4,29
		c-0.1,9.3,1.1,18.5,3.7,27.4c2.3,8.6,5.2,16.5,7.6,24c2.4,6.9,4.3,14,5.7,21.2c2.7,13.2,1.9,24.4,0,31.7c-0.7,2.8-1.7,5.5-3,8.1
		c-0.4,0.8-0.8,1.5-1,2C54.9,734.9,54.8,735.1,54.6,735.3z"/>
	<path class="st7" d="M41.6,521c0,0-8.1-25.8,6.4-40.8c0.3-0.4,0.9-0.4,1.3-0.1c0.1,0.1,0.2,0.3,0.3,0.5
		C50.3,484.9,51.3,497.8,41.6,521z"/>
	<path class="st6" d="M46.4,488.8c0,1.6-0.2,3.2-0.6,4.7c-0.5,3.4-1.1,7.1-1.8,11.4c-0.7,4.2-1.3,8.1-1.8,11.4
		c-0.1,1.6-0.4,3.2-0.9,4.7c-0.1-1.6-0.1-3.2,0.2-4.8c0.3-2.9,0.8-7,1.5-11.4c0.7-4.4,1.5-8.4,2.1-11.3
		C45.4,491.8,45.9,490.3,46.4,488.8z"/>
	<path class="st7" d="M51.1,581.8c0,0,4.9-26.5,24.8-33.1c0.5-0.2,1,0.1,1.1,0.5c0.1,0.2,0.1,0.4,0,0.6
		C75.7,553.9,70.5,565.8,51.1,581.8z"/>
	<path class="st6" d="M70.4,555.5c-0.8,1.4-1.7,2.7-2.7,3.9c-2,2.7-4.3,5.8-6.9,9.2l-7,9.2c-0.9,1.3-1.9,2.6-3,3.8
		c0.6-1.5,1.4-2.9,2.4-4.2c1.7-2.5,4-5.8,6.7-9.4c2.8-3.6,5.3-6.7,7.2-9C68.1,557.7,69.2,556.6,70.4,555.5z"/>
	<path class="st7" d="M45.7,648.4c0,0-3-26.8,14.1-38.9c0.4-0.3,1-0.2,1.2,0.2c0.1,0.2,0.2,0.3,0.2,0.5
		C61.2,614.5,59.6,627.5,45.7,648.4z"/>
	<path class="st6" d="M56.6,617.6c-0.3,1.6-0.8,3.1-1.4,4.6c-1.1,3.1-2.5,6.7-4,10.8l-3.9,10.8c-0.4,1.5-1,3-1.7,4.5
		c0.2-1.6,0.5-3.2,1.1-4.7c0.8-2.8,2.1-6.7,3.7-10.9c1.6-4.2,3.1-8,4.3-10.7C55.1,620.4,55.8,619,56.6,617.6z"/>
	<path class="st7" d="M60.7,715.4c0,0-2-26.9,15.5-38.4c0.4-0.3,1-0.2,1.2,0.2c0.1,0.2,0.2,0.4,0.2,0.5
		C77.3,682.1,75.3,695,60.7,715.4z"/>
	<path class="st6" d="M72.6,685.1c-0.4,1.6-1,3.1-1.7,4.5c-1.3,3.1-2.7,6.7-4.4,10.6l-4.3,10.7c-0.4,1.5-1,2.9-1.7,4.3
		c0.2-1.6,0.6-3.1,1.2-4.6c0.9-2.8,2.3-6.6,4.1-10.8c1.7-4.2,3.4-7.9,4.6-10.6C71,687.8,71.8,686.4,72.6,685.1z"/>
	<path class="st7" d="M30,498.4c0,0-23.9-12.5-24.4-33.4c0-0.5,0.4-0.9,0.9-0.9c0.2,0,0.4,0,0.5,0.2C10.6,466.7,20.4,475.2,30,498.4
		z"/>
	<path class="st6" d="M10.6,472.2c1.1,1.1,2.1,2.4,3,3.7l6.7,9.3l6.7,9.3c1,1.2,1.9,2.5,2.7,3.9c-1.3-1-2.4-2.2-3.4-3.5
		c-1.9-2.3-4.4-5.5-7-9.1c-2.6-3.7-4.9-7-6.5-9.5C12,475,11.2,473.6,10.6,472.2z"/>
	<path class="st7" d="M55.7,553.8c0,0-24.6-11-26.4-31.8c0-0.5,0.3-0.9,0.8-1c0.2,0,0.4,0,0.5,0.1C34.4,523.3,44.7,531.1,55.7,553.8
		z"/>
	<path class="st6" d="M34.7,528.8c1.2,1.1,2.3,2.3,3.2,3.6l7.3,8.9l7.3,8.9c1.1,1.1,2.1,2.4,2.9,3.7c-1.3-1-2.5-2.1-3.5-3.4
		c-2-2.2-4.7-5.2-7.6-8.7c-2.8-3.5-5.3-6.7-7.1-9.1C36.4,531.4,35.5,530.1,34.7,528.8z"/>
	<path class="st7" d="M41.5,615.5c0,0-16.9-21-9-40.4c0.2-0.5,0.7-0.7,1.2-0.5c0.2,0.1,0.3,0.2,0.4,0.4
		C36.4,578.6,42,590.3,41.5,615.5z"/>
	<path class="st6" d="M34.2,583.7c0.6,1.5,1,3,1.2,4.6c0.7,3.2,1.5,7.1,2.5,11.3c0.9,4.2,1.7,8,2.5,11.2c0.5,1.5,0.8,3.1,0.9,4.7
		c-0.7-1.4-1.3-2.9-1.7-4.5c-0.8-2.8-1.8-6.7-2.8-11.2s-1.7-8.4-2.2-11.3C34.4,586.9,34.2,585.3,34.2,583.7z"/>
	<path class="st7" d="M58.3,688.1c0,0-24.5-11.4-25.8-32.3c0-0.5,0.3-0.9,0.8-0.9c0.2,0,0.4,0,0.5,0.1
		C37.5,657.3,47.7,665.3,58.3,688.1z"/>
	<path class="st6" d="M37.7,662.7c1.2,1.1,2.2,2.3,3.1,3.6c2.1,2.6,4.5,5.7,7.2,9l7.2,9c1.1,1.2,2,2.5,2.9,3.8
		c-1.3-1-2.4-2.1-3.4-3.4c-2-2.2-4.6-5.3-7.4-8.8c-2.8-3.5-5.3-6.8-7-9.2C39.3,665.5,38.5,664.2,37.7,662.7z"/>
	<path class="st6" d="M107,581.9c0,0.2,0,0.4,0,0.6c0,0.5,0,1,0,1.7c0,1.7-0.2,3.8-0.3,6.5c-0.3,5.8-0.8,13.8-1.3,23.4l0,0l0,0
		c-1.7,9.8-6.7,20.6-13.5,31.1c-4.9,7.7-10.1,14.8-14.5,21.3c-4,5.7-7.7,11.7-10.9,17.9c-2.1,4.2-3.8,8.6-5.1,13.2
		c-0.4,1.6-0.8,2.9-0.9,3.7c-0.1,0.4-0.2,0.9-0.4,1.3c0-0.4,0.1-0.9,0.2-1.3c0.1-0.9,0.4-2.2,0.8-3.8c1.1-4.6,2.8-9.2,4.8-13.5
		c3.1-6.3,6.7-12.4,10.7-18.1c4.4-6.6,9.5-13.7,14.4-21.3c6.7-10.5,11.6-21.1,13.5-30.7l0,0c0.7-9.6,1.2-17.6,1.7-23.4
		c0.2-2.7,0.4-4.9,0.5-6.5c0-0.7,0.1-1.2,0.2-1.7C107,582.2,107,582.1,107,581.9z"/>
	<path class="st7" d="M92.5,643.3c0,0,10.4-24.9-2.7-41.3c-0.3-0.4-0.9-0.5-1.3-0.2c-0.2,0.1-0.3,0.3-0.3,0.5
		C87.1,606.6,84.9,619.4,92.5,643.3z"/>
	<path class="st6" d="M90.6,610.8c0.4,1.5,0.7,3.1,0.8,4.7c0.4,2.9,0.8,7,1.1,11.5s0.5,8.6,0.5,11.5c0.1,1.6,0,3.2-0.3,4.8
		c-0.3-1.6-0.4-3.2-0.4-4.7c-0.2-3.4-0.5-7.2-0.8-11.5c-0.3-4.3-0.6-8.2-0.8-11.5C90.5,614,90.5,612.4,90.6,610.8z"/>
	<g class="st9">
		<path d="M92.5,643.3c0,0,10.4-24.9-2.7-41.3c-0.3-0.4-0.9-0.5-1.3-0.2c-0.2,0.1-0.3,0.3-0.3,0.5C87.1,606.6,84.9,619.4,92.5,643.3
			z"/>
	</g>
	<path class="st7" d="M60.4,703.4c0,0,8.3-25.7-6-40.9c-0.3-0.4-0.9-0.4-1.3-0.1c-0.1,0.1-0.2,0.3-0.3,0.5
		C52,667.2,50.9,680.1,60.4,703.4z"/>
	<path class="st6" d="M55.9,671.1c0.6,1.5,1,3.1,1.2,4.6c0.6,2.9,1.3,6.9,2,11.3c0.7,4.5,1.2,8.5,1.4,11.4c0.2,1.6,0.3,3.2,0.1,4.8
		c-0.4-1.5-0.7-3.1-0.8-4.7c-0.5-3.4-1.1-7.1-1.7-11.4s-1.2-8.1-1.7-11.4C56.1,674.3,55.9,672.7,55.9,671.1z"/>
	<g class="st9">
		<path d="M60.4,703.4c0,0,8.3-25.7-6-40.9c-0.3-0.4-0.9-0.4-1.3-0.1c-0.1,0.1-0.2,0.3-0.3,0.5C52,667.2,50.9,680.1,60.4,703.4z"/>
	</g>
	<path class="st7" d="M105.6,612.9c0,0,22.1-15.5,19.9-36.3c0-0.5-0.5-0.9-1-0.8c-0.2,0-0.4,0.1-0.5,0.2
		C120.8,579,112.2,588.6,105.6,612.9z"/>
	<g class="st9">
		<path d="M105.6,612.9c0,0,22.1-15.5,19.9-36.3c0-0.5-0.5-0.9-1-0.8c-0.2,0-0.4,0.1-0.5,0.2C120.8,579,112.2,588.6,105.6,612.9z"/>
	</g>
	<path class="st6" d="M121.5,584.4c-0.4,1.5-1.1,3-1.8,4.4c-1.3,2.7-3.1,6.3-5.2,10.3s-4.2,7.5-5.8,10c-0.8,1.4-1.7,2.7-2.8,3.9
		c0.6-1.5,1.3-2.9,2.2-4.2l5.5-10.1l5.5-10.1C119.7,587,120.6,585.7,121.5,584.4z"/>
	<path class="st7" d="M69.3,678c0,0,26.6-4.2,33.8-23.8c0.2-0.5-0.1-1-0.5-1.2c-0.2-0.1-0.4-0.1-0.6,0C97.9,654.2,85.8,659,69.3,678
		z"/>
	<g class="st9">
		<path d="M69.3,678c0,0,26.6-4.2,33.8-23.8c0.2-0.5-0.1-1-0.5-1.2c-0.2-0.1-0.4-0.1-0.6,0C97.9,654.2,85.8,659,69.3,678z"/>
	</g>
	<path class="st6" d="M96.1,659.4c-1.1,1.2-2.3,2.2-3.6,3.1c-2.3,1.9-5.6,4.3-9.2,6.9c-3.7,2.6-7.1,4.9-9.6,6.4
		c-1.3,0.9-2.7,1.7-4.2,2.2c1.2-1.1,2.5-2,3.8-2.8l9.4-6.6l9.4-6.7C93.4,660.9,94.7,660.1,96.1,659.4z"/>
	<polygon class="st10" points="43.9,727 36.1,779.4 84.6,779.4 78.3,727 	"/>
	<path class="st6" d="M80.2,743.3c0,0.3-8.8,0.5-19.6,0.5s-19.5-0.2-19.5-0.5c6.5-0.5,13-0.7,19.5-0.5
		C67.2,742.6,73.7,742.8,80.2,743.3z"/>
	<path class="st6" d="M81.2,747.4c0,0.3-9,0.5-20.2,0.5s-20.2-0.2-20.2-0.5s9-0.5,20.2-0.5S81.2,747.1,81.2,747.4z"/>
</g>
</svg>
