<?xml version="1.0" encoding="utf-8"?>
<!-- Generator: Adobe Illustrator 24.2.0, SVG Export Plug-In . SVG Version: 6.00 Build 0)  -->
<svg version="1.1" id="Layer_1" xmlns="http://www.w3.org/2000/svg" xmlns:xlink="http://www.w3.org/1999/xlink" x="0px" y="0px"
	 viewBox="0 0 739.3 820.9" style="enable-background:new 0 0 739.3 820.9;" xml:space="preserve">
<style type="text/css">
	.st0{fill:#E0E0E0;}
	.st1{fill:#EBEBEB;}
	.st2{fill:#F5F5F5;}
	.st3{fill:#FF725E;}
	.st4{opacity:0.8;}
	.st5{fill:#FFFFFF;}
	.st6{fill:#FFBE9D;}
	.st7{fill:#263238;}
	.st8{fill:#FAFAFA;}
	.st9{fill:#455A64;}
	.st10{opacity:0.4;}
	.st11{opacity:0.4;enable-background:new    ;}
	.st12{opacity:0.6;}
	.st13{opacity:0.6;fill:#FFFFFF;enable-background:new    ;}
	.st14{fill:#EB996E;}
	.st15{opacity:0.2;}
	.st16{opacity:0.3;}
</style>
<g id="freepik--background-complete--inject-2">
	<path class="st0" d="M507.1,107h123c0,0-10.9-19.8-42.5-16.8c-30.2,2.7-31.8-9.7-47.1-11.2S512.2,89.1,507.1,107z"/>
	<path class="st1" d="M185.6,432.1c0,0-12.3,6.7,5.6,32.4s29.6,38.1,29.6,38.1s3.4,6.1-1.9,7.8c-5.3,1.7-17.5,1.5-18.9,8.4
		c-1.6,7.2,4.3,13.1,15.2,17.3c10.9,4.2,34.4,14.6,36.5,15.5s4.4,3.6,1,5.4s-29.8,8.2-26,20.6c3.8,12.3,36.1,19.3,39.7,20.1
		s4.5,2.1,4.5,4c0,1.9-9.1,3.2-16.5,5.4c-7.4,2.2-15.7,6-12.9,12.9c2.8,6.9,23.1,19.5,68,17.7l20.7-2.2l8.8-19
		c16.4-41.8,11.2-65.1,5.6-70c-5.6-4.9-11.9,1.6-16.4,7.9c-4.5,6.3-8.7,14.4-10.5,13.8c-1.8-0.6-2.7-2-2.3-5.6
		c0.4-3.6,4.4-36.4-6-44.1c-10.4-7.7-25.2,15.1-28.1,17.7c-2.8,2.6-4.6-0.5-4.8-2.7s-2.2-27.9-2.6-39.6s-4-19.2-11.3-20
		c-7.3-0.9-10.8,10.7-14.2,15.1c-3.4,4.4-8-0.8-8-0.8s-7.8-15.1-26.2-40.5c-18.3-25.4-29-15.6-29-15.6"/>
	<path class="st0" d="M332,640.3c-13.4-18.7-36.8-52.4-57-81.2c-20.2-28.8-38.5-54.8-51.8-73.6c-6.7-9.4-12.1-16.9-15.8-22.2
		l-4.3-6.1l-1.1-1.6c-0.2-0.4-0.4-0.6-0.4-0.6s0.1,0.2,0.4,0.5l1.2,1.5l4.4,6c3.7,5.2,9.4,12.7,16,22.1c13.4,18.7,31.8,44.7,52,73.5
		s43.4,62.5,56.8,81.2"/>
	<path class="st0" d="M217.1,519.9c0.5,0,1,0.1,1.5,0.2c1,0.2,2.3,0.4,4,0.8c3.4,0.7,8,1.9,13.1,3.2l13.1,3.5l4,1
		c0.5,0.1,1,0.2,1.4,0.4c-0.5,0-1-0.1-1.5-0.2c-1-0.2-2.3-0.4-4-0.8c-3.4-0.8-8-1.9-13.1-3.3l-13.1-3.4l-4-1
		C218,520.3,217.5,520.1,217.1,519.9z"/>
	<path class="st0" d="M255.4,527.7c-0.2,0,1.7-9.7,4.3-21.6s4.8-21.5,4.9-21.5c0.2,0-1.7,9.7-4.3,21.6
		C257.8,518.1,255.6,527.7,255.4,527.7z"/>
	<path class="st0" d="M284.4,573.2c0.2-0.5,0.4-1,0.7-1.4l2-3.7c1.7-3.1,4-7.5,6.3-12.3c2.3-4.8,4.4-9.4,5.8-12.5l1.7-3.8
		c0.2-0.5,0.4-1,0.7-1.4c-0.1,0.5-0.3,1-0.4,1.5c-0.3,0.9-0.8,2.3-1.5,3.9c-1.3,3.3-3.2,7.8-5.6,12.6c-2.4,4.9-4.7,9.1-6.5,12.2
		c-0.9,1.5-1.6,2.7-2.2,3.6C285,572.4,284.7,572.8,284.4,573.2z"/>
	<path class="st0" d="M248.2,573.9c0.5-0.1,0.9-0.2,1.4-0.2l3.9-0.2c3.3-0.2,7.8-0.3,12.7-0.5s9.5-0.3,12.8-0.3h3.9
		c0.5,0,0.9,0,1.4,0c-0.5,0.1-0.9,0.2-1.4,0.2l-3.9,0.2c-3.3,0.1-7.8,0.3-12.8,0.5c-5,0.1-9.5,0.3-12.8,0.3h-3.9
		C249.1,573.9,248.7,573.9,248.2,573.9z"/>
	<path class="st0" d="M268.7,617.5c0.6-0.1,1.2-0.2,1.9-0.2l5-0.3c4.2-0.2,10-0.5,16.3-0.8c6.4-0.3,12.2-0.4,16.3-0.6l5-0.1
		c0.6,0,1.2,0,1.9,0c-0.6,0.1-1.2,0.2-1.9,0.2l-5,0.3c-4.2,0.2-10,0.5-16.3,0.8c-6.4,0.3-12.2,0.4-16.3,0.6l-5,0.1
		C269.9,617.5,269.3,617.5,268.7,617.5z"/>
	<path class="st0" d="M313.7,615.2c0.2-0.6,0.5-1.2,0.8-1.8l2.4-4.8c2-4,4.7-9.6,7.5-15.8s5.2-11.9,7-16.1l2-4.9
		c0.2-0.6,0.5-1.2,0.8-1.8c-0.1,0.6-0.3,1.3-0.6,1.9c-0.4,1.2-1,2.9-1.9,5c-1.6,4.2-4,9.9-6.8,16.2c-2.8,6.2-5.6,11.8-7.7,15.7
		c-1,2-1.9,3.6-2.5,4.7C314.4,614.2,314.1,614.7,313.7,615.2z"/>
	<path class="st2" d="M487.7,339.2c-22.3-25-20.1-61-11.7-91.9c1.4-5.2,2.1-10.8,5.6-14.7c3.5-4,10.1-5.7,14.2-2.4
		c3.4,2.7,4,7.6,5.3,11.8c1.7,5.6,4.9,10.7,9.4,14.5c2.9,2.5,6.7,4.5,10.4,3.5c5.1-1.4,7.1-7.5,8.2-12.7c2.2-9.6,4.4-19.3,6.7-28.9
		c0.9-5.2,2.7-10.3,5.2-15c2.8-4.5,7.5-8.2,12.6-8.4c5.2-0.2,10.6,4.1,10.5,9.4c-0.3,2.2-0.8,4.3-1.4,6.5c-0.6,2.2,0.2,4.5,2,5.9
		c1.9,1.1,4.3,0.1,6.2-1c6.6-3.9,11.8-9.8,16.7-15.7s9.9-11.9,16-16.5s13.9-7.5,21.4-6.1c7.5,1.3,14.3,7.8,14.4,15.5
		c0.1,7.7-5.8,14.1-11.9,18.9c-8.9,7.1-18.8,12.9-29.3,17.2c-2,0.6-3.8,1.7-5,3.4c-1.9,3.2,0.5,7.4,3.6,9.4
		c3.6,2.2,7.8,2.8,11.7,4.2c3.9,1.4,7.9,4.2,8.5,8.4c0.9,5.8-4.9,10.3-10.1,12.9c-10.4,5.2-21.6,8.5-33.2,9.9
		c-4.1,0.5-8.4,0.8-12.1,2.7c-3.7,1.9-6.6,6.2-5.6,10.2c1,4.1,5.5,6.4,9.6,6.6c4.2,0.2,8.2-1.1,12.4-1.6c7.7-1,16.8,1.6,19.9,8.9
		c1.8,5,1.2,10.5-1.7,15c-2.8,4.3-6.5,8-10.8,10.9c-14.4,10.8-31.5,17.7-49.5,19.8C518.3,351.3,502.6,349.2,487.7,339.2"/>
	<path class="st0" d="M492.2,342.2c4-12-0.2-6,8.1-20.6c9.2-15.7,19.2-30.9,30.2-45.5c2.9-3.9,5.7-7.7,8.5-11.5
		c2.8-3.7,5.6-7.5,8.5-11c5.7-6.7,11.7-13.1,18.1-19.1c6-5.8,12-11.1,17.6-16c5.6-4.9,10.9-9.4,15.9-13.2c7.9-6.1,16.3-11.6,25-16.4
		c3.1-1.7,5.6-2.9,7.2-3.7l1.9-0.9l0.7-0.3c-0.2,0.1-0.4,0.3-0.6,0.4l-1.9,1c-1.6,0.9-4.1,2.2-7.1,3.9c-8.6,4.9-16.9,10.5-24.7,16.7
		c-5,3.9-10.2,8.3-15.8,13.2s-11.5,10.2-17.5,16c-6.3,6-12.3,12.4-18,19c-2.9,3.5-5.6,7.2-8.5,11l-8.5,11.5
		c-10.9,14.5-20.9,29.6-30.1,45.3c-8.3,14.5-4.2,8.4-8.3,20.4"/>
	<path class="st0" d="M547.9,253.7c-0.1-0.8-0.1-1.5,0-2.3c0-1.5,0.2-3.7,0.5-6.3c0.5-5.3,1.4-12.6,2.5-20.7
		c1-8.1,1.9-15.4,2.3-20.7c0.2-2.7,0.4-4.8,0.4-6.3c0-0.8,0.1-1.5,0.2-2.3c0.1,0.8,0.2,1.5,0.1,2.3c0,1.5,0,3.7-0.1,6.3
		c-0.2,5.3-0.9,12.7-2,20.8s-2,15.1-2.7,20.6c-0.3,2.5-0.6,4.6-0.8,6.3C548.2,252.1,548.1,252.9,547.9,253.7z"/>
	<path class="st0" d="M617.1,257c-0.9,0-1.8-0.1-2.7-0.3c-1.7-0.3-4.3-0.6-7.4-1c-6.2-0.8-15-1.6-24.5-2c-9.5-0.4-18.3-0.4-24.6-0.3
		c-3.1,0-5.6,0.2-7.5,0.3c-0.9,0.1-1.8,0.1-2.7,0c0.9-0.2,1.8-0.4,2.7-0.4c1.8-0.2,4.3-0.4,7.5-0.6c6.3-0.4,15-0.4,24.7,0
		c8.2,0.4,16.4,1.1,24.5,2.3c3.1,0.5,5.6,1,7.4,1.3C615.4,256.4,616.2,256.7,617.1,257z"/>
	<path class="st0" d="M501.4,320.6c-0.1-0.3-0.2-0.6-0.3-0.9c-0.1-0.7-0.3-1.6-0.6-2.7c-0.5-2.3-1.1-5.6-1.8-9.9
		c-1.4-8.4-3-20-4.5-32.8c-1.6-12.8-3-24.5-4.2-32.8c-0.6-4.1-1.1-7.5-1.5-9.9c-0.1-1.1-0.3-2-0.4-2.7c0-0.3,0-0.6,0-1
		c0.1,0.3,0.2,0.6,0.3,0.9l0.6,2.7c0.5,2.3,1.1,5.6,1.8,9.9c1.4,8.4,3,20,4.5,32.8c1.6,12.8,3,24.5,4.2,32.8
		c0.6,4.1,1.1,7.5,1.5,9.9c0.2,1.1,0.3,2,0.4,2.7C501.5,319.9,501.5,320.3,501.4,320.6z"/>
	<path class="st0" d="M596.4,313c-0.3,0.1-0.6,0.1-1,0.1l-2.8,0.3l-10.2,0.8c-8.6,0.7-20.4,1.9-33.5,3c-13.1,1.2-25,2.2-33.7,2.7
		c-4.3,0.3-7.8,0.4-10.2,0.5h-2.8c-0.3,0-0.7,0-1,0c0.3-0.1,0.6-0.1,1-0.1l2.8-0.3l10.2-0.8c8.6-0.7,20.4-1.9,33.5-3
		c13.1-1.2,25-2.2,33.7-2.7c4.3-0.3,7.8-0.4,10.2-0.5h2.8C595.8,313,596.1,313,596.4,313z"/>
	<path class="st0" d="M670,503.4c-0.1,0.3-0.2,0.6-0.3,0.9l-1,2.5c-1,2.2-2.3,5.4-4,9.4l-14.4,33.3l-0.1,0.2H650l-45.3,7.5
		l-15.2,2.5l-0.7,0.1l0.2-0.7c3.7-14.6,7.1-28.1,10-39.4l0.2,0.4l-26.6-11.9l-7.4-3.3l-1.9-0.9c-0.2-0.1-0.4-0.2-0.6-0.4l0.7,0.2
		l2,0.8l7.5,3.2l26.7,11.6l0.3,0.1v0.3c-2.8,11.4-6.2,24.8-9.8,39.4l-0.5-0.6l15.2-2.5l45.3-7.4l-0.3,0.2l14.7-33.2
		c1.8-4,3.2-7.1,4.2-9.4l1.1-2.5C669.9,503.8,669.9,503.6,670,503.4z"/>
	<polygon class="st0" points="594.8,554.4 593.6,557.6 595.6,560.5 592.1,560.3 590,563.1 589.1,559.7 585.8,558.6 588.7,556.7 
		588.8,553.2 591.5,555.4 	"/>
	<polygon class="st0" points="563.7,501.5 563.1,503.1 564.1,504.6 562.4,504.5 561.3,505.9 560.9,504.2 559.2,503.6 560.7,502.7 
		560.7,500.9 562.1,502 	"/>
	<polygon class="st0" points="651.6,547.5 651,549.1 651.9,550.5 650.2,550.4 649.2,551.8 648.7,550.1 647.1,549.6 648.5,548.6 
		648.6,546.9 649.9,548 	"/>
	<polygon class="st0" points="600.9,518.3 600.3,519.9 601.3,521.3 599.5,521.3 598.5,522.6 598,521 596.4,520.4 597.8,519.4 
		597.9,517.7 599.2,518.8 	"/>
	<polygon class="st0" points="672.2,501.8 671.5,503.4 672.5,504.8 670.8,504.7 669.7,506.1 669.3,504.4 667.6,503.9 669.1,502.9 
		669.1,501.2 670.5,502.3 	"/>
	<path class="st0" d="M105.3,637.9h97.9c0,0-8.7-15.8-33.9-13.5c-24.1,2.2-25.3-7.8-37.5-9S109.4,623.6,105.3,637.9z"/>
	<path class="st2" d="M124.7,252.4h97.9c0,0-8.7-15.7-33.9-13.5c-24.1,2.2-25.3-7.7-37.5-9S128.8,238.1,124.7,252.4z"/>
	<path class="st2" d="M622,320.5h80.4c0,0-7.1-12.9-27.8-11.1c-19.8,1.9-20.8-6.4-30.8-7.4C633.7,301,625.3,308.7,622,320.5z"/>
</g>
<g id="freepik--Pencil--inject-2">
	<path class="st3" d="M461.4,479.2c4-30.1-17.2-55-43.7-70s-57.2-20-86.5-28.3c-27.6-7.8-55-19.3-75.4-39.4s-32.7-50.4-25.4-78.1
		c1.9-7,5.1-14,11.1-18s15.1-3.9,19.6,1.7c9.5,12-9,33.7,2.6,43.7c2.7,2.3,6.3,3.2,9.1,5.3c7.3,5.9,5,17.2,6,26.5
		c2,18.4,19.3,31.2,36.3,38.7c22.7,10,47.3,14.7,71.4,20.6c24.1,5.9,48.4,13.4,68.5,28.1c20.1,14.7,37.5,37.4,37.4,62.3
		c0,6.9-0.9,15.5-5.3,20.9c-4.4,5.4-9.9,6.5-16.2,3.6C464.6,493.9,460.2,489.3,461.4,479.2"/>
	<g class="st4">
		<path class="st5" d="M461.4,479.2c4-30.1-17.2-55-43.7-70s-57.2-20-86.5-28.3c-27.6-7.8-55-19.3-75.4-39.4s-32.7-50.4-25.4-78.1
			c1.9-7,5.1-14,11.1-18s15.1-3.9,19.6,1.7c9.5,12-9,33.7,2.6,43.7c2.7,2.3,6.3,3.2,9.1,5.3c7.3,5.9,5,17.2,6,26.5
			c2,18.4,19.3,31.2,36.3,38.7c22.7,10,47.3,14.7,71.4,20.6c24.1,5.9,48.4,13.4,68.5,28.1c20.1,14.7,37.5,37.4,37.4,62.3
			c0,6.9-0.9,15.5-5.3,20.9c-4.4,5.4-9.9,6.5-16.2,3.6C464.6,493.9,460.2,489.3,461.4,479.2"/>
	</g>
	<path class="st3" d="M333.2,239.7c-1-11.2,7.4-20.9,16.8-26.1c9.5-5.2,20.3-7.3,30.1-12c24.2-11.5,39.6-38.5,40.8-66.2
		S410,80,391.2,59.7c-7.6-8.3-17-16.9-17.2-28.2c-0.1-11.8,11.2-21.1,22.7-20.9c11.5,0.1,21.9,7.8,28.7,17.4s10.6,21,14.3,32.2
		c-2.6-4.7,2.7-10.5,7.9-10c5.2,0.5,9.4,4.8,12.5,9.1c13.8,18.8,20.5,41.9,18.7,65.2c-1.9,22.8-12.2,44.1-29,59.7
		c-18.5,16.8-42.9,24.7-66.5,32.2L334,231.9"/>
	<g class="st4">
		<path class="st5" d="M333.2,239.7c-1-11.2,7.4-20.9,16.8-26.1c9.5-5.2,20.3-7.3,30.1-12c24.2-11.5,39.6-38.5,40.8-66.2
			S410,80,391.2,59.7c-7.6-8.3-17-16.9-17.2-28.2c-0.1-11.8,11.2-21.1,22.7-20.9c11.5,0.1,21.9,7.8,28.7,17.4s10.6,21,14.3,32.2
			c-2.6-4.7,2.7-10.5,7.9-10c5.2,0.5,9.4,4.8,12.5,9.1c13.8,18.8,20.5,41.9,18.7,65.2c-1.9,22.8-12.2,44.1-29,59.7
			c-18.5,16.8-42.9,24.7-66.5,32.2L334,231.9"/>
	</g>
	<path class="st3" d="M319.5,5c-5.4,2.2-7.9,8.4-5.7,13.7c2.2,5.4,8.4,7.9,13.7,5.7c5.4-2.2,7.9-8.4,5.7-13.7c-1.9-4.7-7-7.4-12-6.3
		"/>
	<g class="st4">
		<path class="st5" d="M319.5,5c-5.4,2.2-7.9,8.4-5.7,13.7c2.2,5.4,8.4,7.9,13.7,5.7c5.4-2.2,7.9-8.4,5.7-13.7
			c-1.9-4.7-7-7.4-12-6.3"/>
	</g>
	<path class="st3" d="M380.4,725.7c-6.1-12.5-0.8-28.2,8.9-38.3c9.7-10.1,22.8-15.8,35.5-21.4c28.2-12.4,58-27.2,72.3-54.4
		c4.8-9.2,7.6-19.3,10.3-29.3c5.3-19.4,10.2-41.4-0.4-58.5c-3-4.9-7.6-9.4-13.3-10.3c-6.5-1.2-13.1,2.4-17.1,7.6
		c-3.7,5.5-6,11.8-6.5,18.4c-1.6,12.4-0.3,25-1.6,37.4c-1.3,12.4-5.8,25.6-16,32.7c-12.5,8.7-30.3,6.8-42.4,15.9
		c-9.8,7.5-13.5,20.3-21.1,29.9c-6.4,8.1-15.4,13.6-23.7,19.8c-8.2,6.2-16.2,13.8-19,23.7c-4.2,14.9,4.4,30.4,19.3,34.6
		c6.6,1.9,13.6,1.3,19.7-1.7"/>
	<g class="st4">
		<path class="st5" d="M380.4,725.7c-6.1-12.5-0.8-28.2,8.9-38.3c9.7-10.1,22.8-15.8,35.5-21.4c28.2-12.4,58-27.2,72.3-54.4
			c4.8-9.2,7.6-19.3,10.3-29.3c5.3-19.4,10.2-41.4-0.4-58.5c-3-4.9-7.6-9.4-13.3-10.3c-6.5-1.2-13.1,2.4-17.1,7.6
			c-3.7,5.5-6,11.8-6.5,18.4c-1.6,12.4-0.3,25-1.6,37.4c-1.3,12.4-5.8,25.6-16,32.7c-12.5,8.7-30.3,6.8-42.4,15.9
			c-9.8,7.5-13.5,20.3-21.1,29.9c-6.4,8.1-15.4,13.6-23.7,19.8c-8.2,6.2-16.2,13.8-19,23.7c-4.2,14.9,4.4,30.4,19.3,34.6
			c6.6,1.9,13.6,1.3,19.7-1.7"/>
	</g>
	<path class="st3" d="M193.1,91.7c-17.3-12.8-20.9-37.3-8.1-54.6c2.6-3.4,5.7-6.4,9.2-8.9c5.8-3.9,12.6-6.4,17.7-11.2
		c4.5-4.2,7.5-10.1,12.6-13.6c8.3-5.9,19.7-3.9,25.6,4.3c3.5,4.9,4.3,11.2,2.3,16.9c-2.3,6.6-8.2,11.4-10.7,17.9
		c-2.7,7-0.9,15-1.9,22.3c-2.3,16.9-17.8,28.7-34.6,26.5c-2.3-0.3-4.5-0.9-6.6-1.7"/>
	<g class="st4">
		<path class="st5" d="M193.1,91.7c-17.3-12.8-20.9-37.3-8.1-54.6c2.6-3.4,5.7-6.4,9.2-8.9c5.8-3.9,12.6-6.4,17.7-11.2
			c4.5-4.2,7.5-10.1,12.6-13.6c8.3-5.9,19.7-3.9,25.6,4.3c3.5,4.9,4.3,11.2,2.3,16.9c-2.3,6.6-8.2,11.4-10.7,17.9
			c-2.7,7-0.9,15-1.9,22.3c-2.3,16.9-17.8,28.7-34.6,26.5c-2.3-0.3-4.5-0.9-6.6-1.7"/>
	</g>
	<path class="st3" d="M193.9,51.6h23l0,0v47.4c0,5.6-4.5,10.1-10.1,10.1l0,0H204c-5.6,0-10.1-4.5-10.1-10.1v0L193.9,51.6L193.9,51.6
		z"/>
	<polygon class="st6" points="193.9,51.6 205.3,30.5 216.8,51.6 	"/>
	<path class="st3" d="M200.8,38.8c0,0,3.5,5.3,9.1,0l-4.5-8.3L200.8,38.8z"/>
	<path class="st7" d="M217.2,96.6c-3.9,0.5-7.8,0.6-11.7,0.5c-3.9,0.2-7.8,0-11.7-0.5c3.9-0.5,7.8-0.6,11.7-0.5
		C209.4,96,213.3,96.2,217.2,96.6z"/>
	<path class="st7" d="M216.8,93.1c-3.8,0.5-7.6,0.6-11.4,0.5c-3.8,0.2-7.7,0-11.4-0.5c3.8-0.4,7.6-0.6,11.4-0.4
		C209.2,92.5,213,92.7,216.8,93.1z"/>
	<path class="st8" d="M200.6,51.9c0.2,0,0.5,9.2,0.5,20.5s-0.2,20.6-0.5,20.6s-0.5-9.2-0.5-20.6S200.3,51.9,200.6,51.9z"/>
	<path class="st8" d="M209.9,51.9c0.3,0,0.5,9.2,0.5,20.5s-0.2,20.6-0.5,20.6s-0.5-9.2-0.5-20.6S209.6,51.9,209.9,51.9z"/>
</g>
<g id="freepik--Notebook--inject-2">
	<polygon class="st7" points="393.6,699.3 498,703.7 500.5,709.8 432.1,820.9 308.5,817.3 	"/>
	<polygon class="st0" points="303.8,806.5 428.1,813.6 493.1,712.8 447.5,716.5 332.1,757.1 	"/>
	<path class="st1" d="M286.4,799l114.1,1.9c-4.7-14.6,6.4-35.2,21.8-42.1c10.2-4.6,29.3-10.5,39.2-15.6
		c18.7-9.6,35.7-27.8,34.2-43.5l-46.9-1.6l-59.9-2.3c-5,14.9-15.7,24.6-32,30.4c-14.6,5.2-31.1,5.2-45.3,11.2
		C288.7,747,277.8,778.1,286.4,799"/>
	<path class="st7" d="M286.4,799c0,0-0.1-0.2-0.3-0.7l-0.8-2.2c-0.4-1.2-0.7-2.5-1-3.7c-0.4-1.7-0.6-3.5-0.8-5.2
		c-0.4-4.9-0.1-9.7,0.9-14.5c1.3-6.4,3.8-12.6,7.3-18.1c1-1.6,2.1-3.1,3.3-4.6c0.6-0.7,1.2-1.5,1.9-2.2l2.1-2.2
		c0.7-0.7,1.5-1.4,2.3-2c0.8-0.7,1.6-1.3,2.5-2c1.8-1.3,3.7-2.4,5.6-3.3c7.9-4,17.4-5.6,27.2-7.5c4.9-0.9,10-1.9,15.1-3.2
		c5.2-1.4,10.3-3.5,15.1-6.1c2.5-1.3,4.8-2.9,7-4.6c2.3-1.7,4.4-3.7,6.2-5.9c3.9-4.5,6.8-9.7,8.7-15.3l0.1-0.3h0.3l49.8,1.9
		c17.3,0.7,35.2,1.1,53.5,1.8l3.3,0.1h0.4v0.4c0.3,3.6-0.3,7.2-1.5,10.5c-0.6,1.7-1.3,3.3-2.1,4.9c-0.8,1.5-1.7,3-2.7,4.5
		c-3.9,5.7-8.7,10.7-14.1,15c-5.3,4.2-11,7.7-17.1,10.5c-6,2.7-12.1,4.9-18.1,7.1c-6,2.2-11.9,4.3-17.5,6.7
		c-2.8,1.2-5.3,2.8-7.7,4.7c-1.2,0.9-2.2,2-3.3,2.9c-1.1,1-2.1,2.1-2.9,3.3c-3.6,4.4-6.4,9.5-8,15c-1.7,5.2-1.7,10.7-0.3,16l0.2,0.5
		h-0.5l-83-1.5l-23-0.5l-6-0.2L286.4,799c0-0.1,0.7-0.1,2.1-0.1h6l23,0.3l83,1.2l-0.4,0.5c-1.5-5.4-1.5-11.1,0.2-16.4
		c1.6-5.6,4.4-10.8,8.1-15.3c0.9-1.2,2-2.2,3-3.3s2.2-2.1,3.4-3c2.4-1.9,5-3.5,7.9-4.8c5.6-2.5,11.6-4.6,17.5-6.8
		c6-2.2,12-4.4,18-7.1c6-2.8,11.7-6.3,16.8-10.4c5.4-4.2,10.1-9.2,14-14.7c1-1.4,1.9-2.8,2.7-4.3c0.8-1.5,1.5-3.1,2-4.7
		c1.2-3.2,1.7-6.7,1.5-10.2l0.4,0.4l-3.3-0.1c-18.3-0.6-36.2-1.1-53.5-1.9l-49.9-1.9l0.4-0.3c-1.9,5.7-4.9,11-8.9,15.6
		c-1.9,2.2-4,4.2-6.4,6c-2.2,1.8-4.6,3.3-7.1,4.7c-4.8,2.6-9.9,4.7-15.2,6.1c-5.1,1.4-10.2,2.3-15.2,3.2c-9.8,1.8-19.2,3.4-27,7.3
		c-1.9,0.9-3.7,2-5.5,3.3c-0.9,0.6-1.6,1.3-2.4,1.9c-0.8,0.6-1.6,1.3-2.3,2l-2.2,2.2c-0.7,0.7-1.3,1.5-1.9,2.2
		c-1.2,1.4-2.3,2.9-3.3,4.5c-3.5,5.5-6,11.5-7.4,17.9c-1,4.7-1.4,9.6-1,14.4c0.1,1.7,0.3,3.5,0.7,5.2c0.2,1.3,0.5,2.5,0.9,3.7
		c0.3,1,0.5,1.7,0.7,2.2C286.2,798.8,286.4,799,286.4,799z"/>
	<path class="st7" d="M421.1,697.7c0,0,0.1-0.7,0.3-2c0.1-1.8-0.2-3.7-0.9-5.4c-1-2.5-2.9-4.6-5.4-5.8c-6.2-2.9-13.5-0.2-16.4,6
		c-0.1,0.1-0.1,0.3-0.2,0.4c-1.1,2.5-1.5,5.2-1.1,7.9c0.3,1.8,0.9,3.6,1.9,5.1c0.7,1.1,1.2,1.6,1.2,1.7c-0.6-0.4-1.1-0.9-1.5-1.5
		c-1.2-1.5-1.9-3.3-2.3-5.2c-0.6-2.8-0.2-5.8,1-8.4c2.8-6.7,10.5-9.8,17.1-7c0.2,0.1,0.4,0.2,0.6,0.3c2.6,1.3,4.6,3.6,5.6,6.3
		c0.7,1.8,0.9,3.7,0.6,5.6c-0.1,0.5-0.2,1-0.4,1.5C421.2,697.5,421.1,697.7,421.1,697.7z"/>
	<path class="st7" d="M439,697.7c-0.1,0,0.1-0.7,0.3-2c0.1-1.8-0.2-3.7-0.9-5.4c-1-2.5-3-4.6-5.4-5.8c-6.2-2.9-13.5-0.2-16.4,6
		c-0.1,0.1-0.1,0.2-0.2,0.3c-1.1,2.5-1.5,5.3-1.1,7.9c0.3,1.8,0.9,3.6,1.9,5.1c0.7,1.1,1.2,1.6,1.2,1.7c-0.6-0.4-1.1-0.9-1.5-1.5
		c-1.2-1.5-1.9-3.3-2.3-5.2c-0.5-2.8-0.2-5.8,1-8.4c2.8-6.7,10.5-9.8,17.1-7c0.2,0.1,0.4,0.2,0.6,0.3c2.6,1.3,4.6,3.6,5.6,6.3
		c0.7,1.8,0.9,3.7,0.7,5.6c-0.1,0.5-0.2,1-0.4,1.5C439.1,697.3,439,697.5,439,697.7z"/>
	<path class="st7" d="M452.5,698.6c0,0,0.1-0.7,0.1-2.1c0-1.8-0.4-3.7-1.2-5.3c-1.2-2.5-3.2-4.4-5.7-5.5c-3.1-1.2-6.6-1.2-9.6,0.2
		c-3,1.4-5.4,3.9-6.6,7.1c-1,2.5-1.2,5.3-0.7,8c0.4,1.8,1.2,3.5,2.2,5c0.8,1.1,1.3,1.6,1.3,1.6c-0.6-0.4-1.1-0.8-1.6-1.4
		c-1.2-1.5-2.1-3.2-2.6-5.1c-0.7-2.8-0.5-5.8,0.5-8.5c2.4-6.8,9.9-10.4,16.7-8c0.2,0.1,0.4,0.2,0.6,0.2c2.7,1.2,4.8,3.3,6,6
		c0.8,1.8,1.1,3.7,1,5.6c0,0.5-0.1,1-0.3,1.5C452.7,698.4,452.5,698.6,452.5,698.6z"/>
	<path class="st7" d="M467.1,699.4c0,0,0-0.7,0-2.1c-0.1-1.8-0.6-3.6-1.5-5.3c-1.3-2.4-3.4-4.2-6-5.2c-6.5-2.2-13.5,1.3-15.6,7.7
		c0,0.1-0.1,0.2-0.1,0.4c-0.9,2.6-0.9,5.4-0.2,8c0.5,1.8,1.3,3.5,2.5,4.9c0.8,1,1.4,1.5,1.3,1.6c-0.6-0.3-1.2-0.8-1.6-1.3
		c-1.3-1.4-2.3-3.1-2.9-4.9c-0.9-2.8-0.9-5.7,0-8.5c1-3.4,3.4-6.3,6.6-8c3.2-1.6,6.9-1.9,10.3-0.7c2.7,1,5,3,6.3,5.6
		c0.9,1.7,1.3,3.7,1.3,5.6c0,0.5-0.1,1-0.2,1.5C467.2,699.3,467.1,699.4,467.1,699.4z"/>
	<path class="st7" d="M481.7,699.1c0,0,0-0.7,0-2.1c-0.1-1.8-0.7-3.6-1.6-5.2c-1.4-2.4-3.5-4.1-6.1-5c-6.5-2-13.4,1.6-15.4,8.1
		c0,0.1-0.1,0.3-0.1,0.4c-1.4,4.5-0.4,9.3,2.6,12.8c0.9,1,1.5,1.4,1.4,1.5c-0.6-0.3-1.2-0.7-1.7-1.3c-1.3-1.4-2.4-3-3-4.9
		c-0.9-2.7-1-5.7-0.2-8.5c0.9-3.5,3.2-6.4,6.3-8.2c3.2-1.7,6.9-2.1,10.3-1c2.8,0.9,5.1,2.9,6.5,5.5c1,1.7,1.4,3.6,1.4,5.6
		c0,0.5-0.1,1-0.2,1.6C481.8,698.9,481.7,699.1,481.7,699.1z"/>
	<path class="st7" d="M494,700.7c0,0,0-0.7,0-2.1c0-1.8-0.5-3.7-1.4-5.3c-1.3-2.4-3.4-4.3-5.9-5.2c-6.4-2.3-13.5,1.1-15.7,7.5
		c0,0.1-0.1,0.3-0.1,0.4c-1.5,4.4-0.7,9.3,2.1,12.9c0.8,1,1.4,1.5,1.3,1.6c-0.6-0.3-1.2-0.8-1.6-1.3c-1.3-1.4-2.3-3.1-2.8-5
		c-0.8-2.8-0.8-5.7,0.1-8.5c1.1-3.4,3.5-6.3,6.7-7.9c3.2-1.6,7-1.8,10.3-0.6c2.7,1,4.9,3.1,6.2,5.7c0.9,1.7,1.3,3.7,1.2,5.6
		c0,0.5-0.1,1-0.2,1.5C494.1,700.5,494,700.7,494,700.7z"/>
</g>
<g id="freepik--air-balloon--inject-2">
	<path class="st3" d="M547.9,317.6c-5.2-0.2-10.3,0.1-15.5,0.7c-32.2,4.1-56.3,31.7-56.1,64.1c-0.1,10.3,1.3,20.6,4,30.6
		c9,31.9,11.8,60,10.7,73.7l30.1,16.2c0,0,13.9-20,27.4-28.7c13.5-8.6,58.3-31.8,76-55.5c11.4-15.3,13.6-46.8-13.6-74.2
		C594.2,327.8,571.6,318.2,547.9,317.6z"/>
	<polygon class="st9" points="476.6,521.6 503.8,536.3 486.1,558.7 468,550.5 	"/>
	<path class="st7" d="M478,522.5c-0.2-0.1,2.5-8.2,6-18c3.6-9.9,6.7-17.8,6.9-17.7c0.2,0.1-2.5,8.2-6,18
		C481.3,514.6,478.2,522.5,478,522.5z"/>
	<path class="st7" d="M502.1,535.2c-0.2-0.1,4-7.8,9.5-17c5.5-9.3,10.1-16.6,10.3-16.6s-4,7.8-9.5,17
		C506.9,527.8,502.3,535.3,502.1,535.2z"/>
	<g class="st10">
		<path d="M556.9,318.4c-1.2,0-16.2,17.6-22.8,29.4c-22.3,39.9-23.3,78.7-29.5,124c-0.9,6.5-4.1,20.4-4,20.1
			c3.3,2.6,14.4,7.7,14.4,7.7s10.5-12.6,14.6-18.9c16.6-25.4,34.7-45.2,48.9-72c14.2-26.8,27.9-50.5,14.8-77.9
			C593.2,330.8,570.3,317.7,556.9,318.4z"/>
	</g>
	<path class="st7" d="M624.6,422.8c-0.2-0.3-0.3-0.6-0.4-0.9c-0.2-0.6-0.5-1.4-1-2.5c-1.4-3.1-3.2-6.1-5.3-8.8
		c-3.2-4.2-7.1-7.9-11.5-10.8c-5.7-3.8-12.2-6.2-18.9-7h-0.2l-0.1-0.1c-3.6-5-7.7-9.7-12.1-14c-4.9-4.7-10.5-8.5-16.6-11.4
		c-6.2-2.8-12.9-4.1-19.6-3.7c-6.1,0.2-12.1,2.2-17.2,5.7l-0.3,0.2l-0.2-0.2c-5.1-4.5-11.5-7.3-18.3-8.1c-5.3-0.6-10.6,0.1-15.6,2
		c-3.2,1.2-6.2,2.9-8.9,5c-0.9,0.7-1.6,1.3-2.1,1.8c-0.2,0.2-0.5,0.4-0.7,0.6c0.2-0.2,0.4-0.5,0.6-0.7c0.4-0.4,1.1-1.1,2-1.9
		c2.7-2.2,5.7-4,8.9-5.3c5-2,10.5-2.8,15.8-2.2c7,0.7,13.5,3.6,18.8,8.2h-0.5c5.2-3.6,11.3-5.7,17.6-5.9c6.9-0.4,13.7,0.9,20,3.7
		c6.2,2.9,11.9,6.8,16.8,11.6c4.5,4.3,8.6,9.1,12.2,14.1l-0.3-0.2c6.9,0.9,13.5,3.4,19.2,7.3c4.5,3,8.4,6.7,11.6,11.1
		c2.1,2.8,3.8,5.8,5.1,9.1c0.5,1.1,0.7,2,0.9,2.6C624.4,422.2,624.5,422.5,624.6,422.8z"/>
	<path class="st7" d="M568.6,462.5c-0.5-2.3-1.3-4.5-2.6-6.5c-1.5-2.3-3.4-4.2-5.8-5.6c-3-1.8-6.5-2.7-10-2.4h-0.4v-0.4
		c-1.5-9.1-7.6-16.8-16.1-20.3c-3.7-1.5-7.7-2.1-11.7-1.8c-3.7,0.3-7.2,1.3-10.5,3l-0.3,0.1l-0.2-0.2c-2.8-2.9-6.5-4.9-10.5-5.6
		c-3.1-0.6-6.3-0.5-9.4,0.3c-2.7,0.8-5.3,2-7.5,3.7c0,0,0.1-0.2,0.4-0.4c0.3-0.2,0.7-0.6,1.3-1.1c1.7-1.2,3.6-2.1,5.6-2.7
		c3.1-0.9,6.4-1.1,9.6-0.5c4.2,0.7,8,2.7,10.9,5.8l-0.5-0.1c3.3-1.8,7-2.8,10.7-3.1c4.1-0.3,8.2,0.4,12.1,1.9c4.6,1.9,8.6,5,11.5,9
		c2.6,3.5,4.4,7.7,5,12l-0.4-0.3c3.7-0.3,7.3,0.6,10.4,2.6c2.4,1.5,4.4,3.5,5.8,5.9c0.9,1.5,1.6,3.2,2,4.9c0.1,0.5,0.2,0.9,0.2,1.4
		C568.5,462.3,568.6,462.4,568.6,462.5z"/>
	<path class="st7" d="M498.6,543.3c0,0-0.3-0.4-1-0.7c-1-0.3-2.2-0.3-3.2,0.1c-0.8,0.2-1.6,0.4-2.4,0.4c-1,0-2-0.4-2.7-1.2
		c-1.4-1.5-2-3.7-3.3-5.2c-0.6-0.7-1.6-1.1-2.5-1.1c-1,0.1-1.9,0.3-2.8,0.6c-0.9,0.3-1.9,0.3-2.8,0.1c-2-0.5-3.6-2.1-4-4.2
		c-0.1-0.4-0.1-0.9,0-1.3c0,0,0,0.4,0.3,1.2c0.4,1,1,1.9,1.9,2.6c0.6,0.5,1.2,0.8,2,0.9c0.8,0.1,1.7,0,2.5-0.2c1-0.3,2-0.5,3-0.6
		c1.2-0.1,2.4,0.4,3.2,1.3c1.6,1.9,2.1,3.9,3.3,5.2c0.5,0.6,1.3,1,2.1,1c0.8,0,1.5-0.1,2.2-0.3c1.2-0.4,2.4-0.3,3.5,0.2
		C498.5,542.8,498.6,543.3,498.6,543.3z"/>
	<path class="st7" d="M501.7,538.9c-4.6-1.9-9-4.1-13.3-6.5c-4.4-2.2-8.7-4.7-12.8-7.4c4.6,1.9,9,4.1,13.3,6.5
		C493.3,533.8,497.6,536.2,501.7,538.9z"/>
	<path class="st7" d="M496.3,545.8c0,0-0.4,0.2-1,0.5c-0.3,0.1-0.7,0.4-1.2,0.6c-0.6,0.2-1.2,0.3-1.9,0.2c-1.6-0.1-3.2-0.7-4.5-1.7
		c-0.7-0.6-1.3-1.4-1.7-2.3c-0.3-0.9-0.8-1.7-1.3-2.5c-1.4-1.1-3.2-1.7-4.9-1.4c-1.6,0.2-3.2,0-4.7-0.4c-1-0.4-1.9-1.2-2.4-2.2
		c-0.3-0.7-0.2-1.2-0.1-1.2c0,0,0.1,0.4,0.5,1c0.5,0.8,1.4,1.4,2.3,1.7c1.5,0.4,3,0.4,4.5,0.2c2-0.3,4.1,0.3,5.6,1.6
		c0.6,0.8,1.1,1.7,1.5,2.7c0.3,0.8,0.8,1.5,1.4,2.1c1.1,0.9,2.5,1.5,4,1.7c1,0.1,2-0.1,2.9-0.5C495.9,545.8,496.3,545.8,496.3,545.8
		z"/>
</g>
<g id="freepik--Character--inject-2">
	<path class="st3" d="M290.9,371.2l47-7l-22.4-31.8l-12,0.7c-8.1,0.5-15.3,5.5-18.5,12.9l0,0c-1.7,4-2.2,8.4-1.4,12.6L290.9,371.2z"
		/>
	<path class="st11" d="M290.9,371.2l47-7l-22.4-31.8l-12,0.7c-8.1,0.5-15.3,5.5-18.5,12.9l0,0c-1.7,4-2.2,8.4-1.4,12.6L290.9,371.2z
		"/>
	<path class="st6" d="M493,423.3c0.5,1.3,1,2.9,1.6,4.8c0.4,1.6,0.6,3.4,0.5,5c-0.1,2.1-0.4,4.2-1.1,6.2c-0.8,1.9,1,3.6,2.5,2.7
		c1.5-0.9,3.7-5.8,3.7-12s6.2,1.2,8.6,3.9c2.4,2.7,10.1,10.7,11.5,10.6c2.1-0.1,2.3-2.3-0.1-5c-2.4-2.6-9.2-11-7.7-12.2
		c1.5-1.2,13.4,12.7,13.4,12.7s2.1,3.4,3.7,2.1c3.2-2.4-10.6-16.2-11.9-17.5c-0.9-0.9,0.6-2.2,1.6-1.2c1,1,11.6,14.1,14.8,11.7
		c2.5-1.9-11.2-11.5-11.9-15.4c-0.7-3.9,9.7,8.4,12,6.5c0.9-0.7,1.4-1.3-5.6-7.5c-3.4-3-16.2-12-16.2-12l-38.6-110.5L444,313.4
		L493,423.3z"/>
	<path class="st6" d="M263.2,214.2L220,162.8l0,0c-0.5-1.8-1.3-3.5-2.1-5.1c-2-4.2-5.7-7.2-10.2-8.5c-2.7-0.6-5.9-0.3-8-2.1
		c-1-0.8-1.6-1.9-2.6-2.7s-2.7-0.9-3.3,0.2c-0.3,0.8-0.3,1.8,0.2,2.6c1.6,3.8,4.2,7.1,7.5,9.7c-4,1.2-9.8,3.1-9.8,3.1
		s-9.1-9.9-13.8-9.9s3.7,8.8,3.7,8.8s-7.5-6.9-9.8-5s3.6,7.1,3.6,7.1c-1.8-1.2-3.9-1.8-6.1-1.7c-2.1,0.4-3.9,2.8-2.8,4.7
		c0.5,0.7,1.1,1.2,1.9,1.5l11.5,6.4c1.8,1.2,3.9,2,6.1,2.2c5.8,0.2,10.3-3.4,16.1-3.3c0,0,32.5,68.5,35.8,72s74.8,8.3,74.8,8.3
		l41.4-35.6L263.2,214.2z"/>
	<path class="st3" d="M392.7,587.2l44,19.2l-23.6,54.9c-5.1-2.6-3.4-35.5-3.4-35.5l-28.7-11.1L392.7,587.2z"/>
	<g class="st12">
		<path class="st5" d="M414.7,607.8c0.8-1,2.2-1.2,3.2-0.5c1,0.8,1.2,2.2,0.5,3.2c-0.8,1-2.3,1.2-3.4,0.5c-1-0.9-1-2.4-0.1-3.4"/>
	</g>
	<path class="st13" d="M436.8,606.4l-4.5-1.8L411.4,658c0,0,0,2.9,1.9,3.4L436.8,606.4z"/>
	<path class="st7" d="M409.1,626.6c0.3,0.1,1-1.2,2.4-2.1c1.4-0.9,2.8-1.2,2.8-1.5s-1.7-0.6-3.4,0.6
		C409.2,624.8,408.8,626.6,409.1,626.6z"/>
	<path class="st7" d="M409,633.4c0.2,0.2,1.2-0.8,2.7-1.2c1.5-0.4,2.8-0.2,2.9-0.4c0.1-0.3-1.3-1.1-3.2-0.5
		C409.5,631.8,408.8,633.3,409,633.4z"/>
	<path class="st7" d="M414.5,639.6c0.2-0.2-1-1.2-2.8-1.1c-1.8,0.1-2.9,1.1-2.7,1.3c0.2,0.2,1.3-0.2,2.7-0.2
		C413.2,639.5,414.3,639.9,414.5,639.6z"/>
	<path class="st7" d="M402.8,623.3c0.3,0,0.4-1.4,1.2-2.9c0.8-1.5,1.7-2.5,1.6-2.7c-0.2-0.2-1.6,0.5-2.5,2.2
		C402.3,621.7,402.6,623.4,402.8,623.3z"/>
	<path class="st7" d="M396.9,619.2c0.1,0,0.7-0.9,1.2-2.7c0.3-1.1,0.4-2.2,0.4-3.3c0-0.6-0.1-1.3-0.1-1.9c0-0.4-0.1-0.8-0.3-1.1
		c-0.2-0.5-0.8-0.8-1.4-0.7c-0.5,0.1-0.9,0.4-1.1,0.9c-0.2,0.4-0.3,0.7-0.3,1.1c-0.3,1.7-0.2,3.5,0.4,5.2c0.6,1.8,1.4,2.6,1.5,2.6
		s-0.4-1.1-0.9-2.8c-0.2-1-0.3-2-0.3-3c0-0.6,0.1-1.3,0.2-1.9c0.1-0.6,0.3-1.1,0.6-1.2c0.3,0,0.1,0,0.3,0.2c0.1,0.3,0.2,0.5,0.2,0.8
		c0.1,0.6,0.2,1.2,0.2,1.9c0.1,1,0,2.1-0.1,3.1C397.1,617.3,397,618.3,396.9,619.2z"/>
	<path class="st7" d="M397.4,619.1c0,0-0.6-1-2.3-1.9c-1-0.5-2.1-0.8-3.2-0.9c-0.6-0.1-1.2-0.1-1.9,0c-0.9,0-1.7,0.4-2.2,1.2
		c-0.2,0.5-0.1,1.1,0.3,1.5c0.3,0.3,0.6,0.5,0.9,0.7c0.6,0.4,1.2,0.6,1.9,0.8c1.1,0.3,2.2,0.3,3.3,0c1.9-0.5,2.7-1.4,2.6-1.5
		c-0.9,0.3-1.8,0.6-2.7,0.8c-1,0.1-2,0.1-3-0.2c-0.6-0.2-1.1-0.4-1.6-0.7c-0.5-0.3-0.9-0.7-0.8-0.9c0.3-0.4,0.8-0.6,1.3-0.6
		c0.6-0.1,1.2-0.1,1.9,0c1,0.1,2,0.3,3,0.6C396.4,618.5,397.3,619.2,397.4,619.1z"/>
	<path class="st3" d="M358.8,662.7l18.2,38.2l5.7,34.5c0.4,2.4,2.6,3.9,5,3.6c0.1,0,0.2,0,0.3-0.1l0,0c1.4-0.3,2.5-1.3,3-2.6
		c3.3-8.3,15.5-38.9,14-41.6c-1.7-3.1-16.6-41.5-16.6-41.5L358.8,662.7z"/>
	<path class="st13" d="M388,738.7l15.9-46.8l0.7,1.6c0.6,1.4,0.7,3,0.3,4.5c-1.2,4-4.6,15-13.8,38
		C390.6,737.4,389.4,738.4,388,738.7z"/>
	<g class="st12">
		<path class="st5" d="M390.4,683.1c-0.7,1.2-0.3,2.6,0.7,3.4c1.1,0.7,2.6,0.4,3.4-0.7c0.7-1.2,0.3-2.8-0.8-3.6
			c-1.3-0.6-2.8-0.1-3.4,1.1"/>
	</g>
	<path class="st7" d="M389.2,717.9c-2.9-1.9-6.6-2-9.6-0.3c0,0,0.3-0.6,1.1-1.1c1.1-0.7,2.4-1,3.7-1c1.3,0,2.6,0.5,3.6,1.2
		C389,717.3,389.3,717.8,389.2,717.9z"/>
	<path class="st7" d="M388.9,724.3c-1.4-0.1-2.8-0.2-4.2-0.1c-1.4,0.3-2.7,0.7-4,1.2c-0.2-0.1,1.3-1.9,3.9-2.1
		C386.1,722.9,387.7,723.3,388.9,724.3z"/>
	<path class="st7" d="M391.4,709c-2.1-0.4-4.3-0.6-6.4-0.6c-2.1,0.2-4.3,0.7-6.3,1.2C382.4,706.9,387.4,706.7,391.4,709L391.4,709z"
		/>
	<path class="st7" d="M386.8,696.9c0,0.3-2.5,0.3-5.3,1.5s-4.7,2.8-4.9,2.6c1.1-1.7,2.7-2.9,4.6-3.5
		C382.9,696.7,384.9,696.4,386.8,696.9z"/>
	<path class="st7" d="M381.7,685.6c-1.9,0.2-3.8,0.7-5.6,1.4c-1.7,1-3.2,2.2-4.5,3.6c-0.1,0,0.1-0.7,0.8-1.6c0.9-1.2,2-2.1,3.4-2.8
		c1.3-0.7,2.8-1,4.2-1C381.1,685.2,381.8,685.5,381.7,685.6z"/>
	<path class="st7" d="M375.2,684.8c-0.3-0.4-0.6-0.9-0.7-1.4c-0.5-1.4-0.6-2.9-0.5-4.3c0-1.1,0.3-2.1,1-3c0.5-0.5,1.2-0.7,1.9-0.5
		c0.6,0.3,1.1,0.8,1.4,1.5c1,2.8-0.1,5.9-2.6,7.4c-2.5,1.4-5.6,1.2-7.9-0.5c-0.6-0.5-0.9-1.1-0.9-1.9c0-0.7,0.5-1.4,1.3-1.6
		c1-0.2,2.1-0.1,3.1,0.2c1.4,0.4,2.8,1,4,1.9c0.8,0.6,1.2,1,1.2,1.1c-1.6-1-3.4-1.8-5.3-2.2c-0.9-0.3-1.8-0.3-2.7-0.1
		c-0.4,0.1-0.7,0.4-0.7,0.8c0.1,0.5,0.3,0.9,0.7,1.2c2,1.5,4.7,1.6,6.8,0.4c2.2-1.3,3.2-3.9,2.4-6.3c-0.2-0.5-0.5-0.8-0.9-1.1
		c-0.4-0.2-0.8-0.1-1.1,0.2c-0.5,0.7-0.8,1.6-0.9,2.5C374.5,681,374.7,682.9,375.2,684.8z"/>
	<path class="st7" d="M420.2,591.9l-50-33.7l16.5-162.3l-47.3-27.6l-43.3-10c0,0-18.1,37.6-26.2,61.7
		c-17.1,51.2-29.1,69.5-26.3,106.6c0.9,11.7,44.2,41.1,71.6,57.4c0.3,3.3,0.8,6.5,1.5,9.7c9.4,42.3,37.9,98.6,37.9,98.6l43.4-20.2
		l-14-48l14.6,8.5L420.2,591.9z M312.8,487.2l5.8-26c-1.2,16.6-2.4,33.8-3.2,50.4C312.7,503.7,311.8,495.4,312.8,487.2L312.8,487.2z
		"/>
	<path class="st9" d="M354.7,692.3c-0.1-0.2-0.2-0.5-0.3-0.7l-0.9-2l-3.3-7.9c-2.9-6.9-7-16.8-12-29.3s-10.8-27.2-16.8-43.8
		c-1.5-4.2-2.9-8.5-4.3-12.9c-0.6-2.2-1.4-4.5-1.8-6.8c-0.1-0.6-0.2-1.2-0.3-1.8l-0.2-1.8l-0.4-3.6c-0.5-4.8-0.9-9.7-1.3-14.6
		c-0.1-2.5-0.3-5-0.4-7.5s-0.2-5.1,0-7.6c0.7-20.4,2.5-39.7,3.9-57.3s2.8-33.4,3.9-46.8c1.1-13.3,1.9-24.1,2.2-31.5
		c0.2-3.7,0.4-6.6,0.4-8.6l0.1-2.2c0-0.2,0-0.5,0-0.7c0,0.2,0,0.5,0,0.7c0,0.6,0,1.3,0,2.2c0,2-0.1,4.9-0.3,8.6
		c-0.3,7.5-1,18.3-2,31.6c-1,13.3-2.3,29.2-3.7,46.8c-1.4,17.6-3,36.9-3.7,57.3c-0.1,2.5,0,5,0,7.6s0.2,5,0.4,7.5
		c0.3,5,0.7,9.8,1.2,14.6l0.4,3.6l0.2,1.8c0.1,0.6,0.2,1.1,0.3,1.7c0.4,2.3,1.1,4.5,1.7,6.7c1.3,4.4,2.8,8.7,4.2,12.8
		c5.9,16.6,11.7,31.4,16.6,43.9s8.9,22.4,11.7,29.4c1.4,3.4,2.5,6.1,3.2,8c0.3,0.9,0.6,1.6,0.8,2.1
		C354.6,692.1,354.7,692.3,354.7,692.3z"/>
	<path class="st9" d="M321.3,399.3c0,0-0.4-0.3-1.1-0.9c-0.9-1-1.6-2.2-2.1-3.4c-1.5-4.1-2.2-8.5-2.1-12.9
		c-0.1-4.4,0.1-8.7,0.6-13.1c0.1-1.8,0.3-3.6,0.7-5.3c0.2,1.8,0.2,3.6,0,5.4c-0.2,3.3-0.4,7.9-0.4,12.9c0,4.3,0.6,8.6,1.9,12.7
		c0.4,1.2,1,2.3,1.8,3.4C321.1,398.9,321.4,399.3,321.3,399.3z"/>
	<path class="st9" d="M302.7,360.7c0.4,1.5,0.6,3,0.4,4.5c-0.5,7.6-5.1,14.3-12,17.5c-1.3,0.7-2.8,1.2-4.4,1.3
		c0-0.1,1.6-0.6,4.1-1.9c6.4-3.4,10.8-9.8,11.6-17C302.7,362.5,302.5,360.7,302.7,360.7z"/>
	<path class="st9" d="M380.3,455.1c0,0,0,0.2,0,0.5c0,0.3,0,0.9-0.1,1.4c-0.1,1.3-0.3,3.2-0.6,5.6c-0.5,4.9-1.3,11.8-2.2,20.3
		c-1.9,17.3-4.6,41-7.6,67.2c-1.1,12.3-0.2,24.8,2.5,36.8c1.2,5.3,2.7,10.4,4.5,15.5c1.7,4.8,3.2,9.3,4.7,13.4
		c2.8,8.1,5.1,14.7,6.7,19.4c0.7,2.2,1.3,4,1.9,5.3l0.4,1.4c0.1,0.1,0.1,0.3,0.1,0.5c0,0,0-0.1-0.2-0.4c-0.2-0.3-0.3-0.8-0.5-1.3
		c-0.5-1.3-1.1-3-1.9-5.2l-7-19.2c-1.5-4.1-3.1-8.5-4.8-13.3c-1.9-5.1-3.4-10.3-4.6-15.6c-2.8-12.2-3.6-24.7-2.6-37.1
		c2.9-26.3,5.8-50,7.9-67.1c1.1-8.5,1.9-15.5,2.5-20.3c0.3-2.4,0.5-4.2,0.7-5.6c0-0.6,0.1-1,0.2-1.4
		C380.3,455.4,380.3,455.3,380.3,455.1z"/>
	<polyline class="st6" points="296.2,358 303.9,338.4 321.4,364.5 298,358.6 	"/>
	<path class="st3" d="M479.2,299.1l-20.7-46.5c-2.5-7.5-7.1-8.6-11-13l-52-29.3c-37.9-15.5-58.5,36.5-58.5,36.5l-34.4,78.6
		c-40.5,13.4-11.8,44.5-11.8,44.5s-11-19.2-0.2-26.1c11.3-7.2,23.9,11.8,36,29.9c14.3,21.4,60.6,35.2,60.6,35.2
		c5.4-5.7,3.9-25.7,8.2-36.5c1.3-3.4,33.4-77.7,33.4-77.7l12.4,30.1c0,0,15.9-18.7,23.7-21.7C469.4,301.5,474.3,300.1,479.2,299.1z"
		/>
	<path class="st7" d="M387,332.2c-0.5,0.4-1,0.8-1.6,1.1c-1.5,0.9-3.1,1.6-4.7,2.2c-11.1,4.2-23.5,2.3-32.8-5.1
		c-1.4-1.1-2.7-2.3-3.8-3.6c-0.5-0.4-0.9-1-1.2-1.5c0.1-0.1,1.9,2,5.4,4.5c9.3,6.8,21.3,8.7,32.2,5C384.7,333.5,387,332,387,332.2z"
		/>
	<path class="st3" d="M301,258.4L301,258.4l32.1,3l51.3-54.2l-30.2-1l-53.7,5.3C303.3,226.9,303.5,242.8,301,258.4z"/>
	<path class="st7" d="M345.5,229.8c-0.1,0.3-0.2,0.7-0.4,1l-1.3,2.8c-1.2,2.5-2.8,6-4.8,10.2c-4,8.6-9.4,20.6-15,33.9
		c-5.6,13.3-11,25.3-15,33.9c-2,4.3-3.6,7.8-4.8,10.2l-1.4,2.7c-0.1,0.3-0.3,0.6-0.5,0.9c0.1-0.3,0.2-0.7,0.4-1l1.2-2.8l4.5-10.3
		c3.7-8.8,9-20.8,14.6-34c5.7-13.2,11.2-25.2,15.3-33.8c2.1-4.3,3.7-7.7,5-10c0.6-1.1,1.1-2,1.4-2.7
		C345.1,230.4,345.2,230.1,345.5,229.8z"/>
	<path class="st7" d="M443.4,245.6c0.1,0.2-1.9,1.2-4.6,3.5c-1.6,1.4-3,2.8-4.3,4.5c-1.6,2-2.9,4.2-4.1,6.5
		c-1.1,2.3-1.9,4.7-2.5,7.2c-0.5,2-0.7,4.1-0.8,6.2c-0.1,3.6,0.3,5.8,0.1,5.8c-0.2-0.5-0.3-1-0.4-1.5c-0.1-0.6-0.2-1.2-0.3-1.9
		c-0.1-0.8-0.1-1.6-0.1-2.5c0-2.1,0.2-4.3,0.7-6.4c0.6-2.6,1.4-5.1,2.5-7.5c1.2-2.3,2.6-4.6,4.2-6.6c1.4-1.6,2.9-3.1,4.6-4.4
		c0.6-0.5,1.3-1,2-1.4c0.5-0.4,1-0.7,1.6-1C442.4,245.9,442.9,245.7,443.4,245.6z"/>
	<path class="st6" d="M452.3,171.1l-30.1,56.3c-4.9,9.2-16.1,13-25.6,8.8l0,0c-10-4.5-14.4-16.3-9.9-26.3c0.2-0.4,0.4-0.8,0.6-1.1
		l5.2-9.8c0,0-13.1-8.5-7-22.6c5.5-12.6,25.5-48.2,29.8-55.7l25.4,11.4c13.9,7.3,19.4,24.5,12.1,38.4
		C452.6,170.6,452.5,170.9,452.3,171.1z"/>
	<path class="st14" d="M392.5,198.8c6.4,3,13.6,4.1,20.7,3c0,0-8.9,8.2-22.3,0.6L392.5,198.8z"/>
	<path class="st7" d="M402.1,153.8c-0.5,1.1,0,2.4,1,2.9c1,0.6,2.3,0.2,2.9-0.9c0,0,0,0,0,0c0.5-1.1,0-2.4-1-2.9
		C404,152.4,402.7,152.7,402.1,153.8C402.1,153.8,402.1,153.8,402.1,153.8z"/>
	<path class="st7" d="M402.2,152c0.1,0.4,2.2,0,4.3,0.9c2.2,0.9,3.3,2.7,3.6,2.6c0.4-0.1,0.1-0.7-0.3-1.5c-0.6-1.1-1.6-1.9-2.7-2.4
		c-1.1-0.5-2.4-0.6-3.6-0.4C402.6,151.5,402.2,151.8,402.2,152z"/>
	<path class="st7" d="M422.4,163.7c-0.5,1.1-0.1,2.4,1,2.9c1,0.6,2.3,0.2,2.9-0.9c0,0,0,0,0,0c0.5-1.1,0-2.4-1-2.9
		C424.2,162.3,422.9,162.7,422.4,163.7C422.4,163.7,422.4,163.7,422.4,163.7z"/>
	<path class="st7" d="M423.3,161.9c0.1,0.4,2.2,0,4.3,0.9s3.3,2.8,3.6,2.6s0.1-0.7-0.3-1.5c-0.7-1.1-1.6-1.9-2.7-2.4
		c-1.1-0.5-2.4-0.7-3.6-0.4C423.7,161.4,423.2,161.7,423.3,161.9z"/>
	<path class="st7" d="M408.3,174.4c-1-0.9-2.1-1.6-3.2-2.2c-0.5-0.3-1-0.7-0.9-1.1c0.1-0.4,0.6-1,1.1-1.5l3.5-3.5
		c3.1-2.9,6-6,8.6-9.4c-3.3,2.6-6.5,5.5-9.4,8.6l-3.5,3.5c-0.6,0.5-1.1,1.2-1.3,2c0,0.5,0.2,0.9,0.5,1.2c0.3,0.2,0.6,0.4,0.9,0.5
		C405.8,173.5,407,174.1,408.3,174.4z"/>
	<path class="st7" d="M414,178.8c-0.3-0.2-1.4,2.2-4.1,2.9c-2.7,0.8-5.1-0.6-5.3-0.3c-0.2,0.3,0.4,0.7,1.4,1.2
		c1.4,0.6,2.9,0.8,4.4,0.4c1.4-0.4,2.6-1.3,3.3-2.5C414.1,179.5,414.1,178.8,414,178.8z"/>
	<path class="st7" d="M426.5,153.2c0,0.7,2.2,1.4,4.6,2.8c2.4,1.4,4.2,3,4.7,2.7c0.3-0.2,0.1-0.9-0.4-1.9c-1.6-2.4-4.2-3.9-7.1-4.2
		C427.3,152.6,426.6,152.9,426.5,153.2z"/>
	<path class="st7" d="M405.8,146.2c0.2,0.7,1.9,0.8,3.7,1.6s3.2,1.9,3.7,1.5c0.6-0.4,0.3-0.8-0.2-1.5c-0.6-1-1.5-1.7-2.6-2.1
		c-1.1-0.5-2.2-0.6-3.4-0.3C406.2,145.4,405.7,145.8,405.8,146.2z"/>
	<path class="st6" d="M442.9,179.5c0.3,0,10.9,1.5,6.3,10.9c-4.6,9.5-13.1,2.9-13.1,2.6S442.9,179.5,442.9,179.5z"/>
	<path class="st14" d="M440.8,190.9c0,0,0.1,0.2,0.3,0.5c0.3,0.4,0.8,0.6,1.2,0.6c1.7-0.2,3.1-1.2,3.7-2.7c0.4-0.8,0.7-1.7,0.7-2.6
		c0.1-0.7-0.1-1.4-0.6-1.9c-0.3-0.3-0.9-0.3-1.2,0c-0.2,0.2-0.3,0.4-0.3,0.4c-0.1,0-0.1-0.3,0.1-0.6c0.2-0.2,0.4-0.4,0.7-0.4
		c0.4-0.1,0.7,0,1,0.2c0.7,0.5,1.1,1.4,1,2.3c0,1-0.2,2-0.7,2.9c-0.7,1.8-2.5,2.9-4.4,2.9c-0.6-0.1-1.1-0.5-1.4-1
		C440.7,191.2,440.8,190.9,440.8,190.9z"/>
	<path class="st7" d="M448.4,181.7c-1.8-0.9-3.9-0.8-5.6,0.3c-1.2,1.1-2.1,2.6-3.3,3.7c-1.2,1.2-3,1.5-4.5,0.7c-0.9-0.8-1.3-2-1-3.1
		c0.3-1.1,0.7-2.2,1.4-3.1c2.6-4.2,5.5-8.3,7.7-12.7c2.4-4.4,3.4-9.4,3-14.3c-0.5-5-3.7-9.4-8.4-11.4c-3.1-1.1-6.5-0.8-9.7-1.7
		c-3.8-1.1-6.9-3.9-8.3-7.6c-0.4-0.7-0.8-1.4-1.2-2.1c0.1-0.2,1.2-2.1,2.3-2.5c8.3-2.8,19.6,0.4,26.5,5.9c7.1,5.5,11.5,13.9,11.8,23
		C459.1,165.5,453.6,175.2,448.4,181.7"/>
	<path class="st7" d="M448.5,180.7c2.6-4.5,6.9-7.7,10.2-11.8c3.3-4,5.6-9.7,3.2-14.4c-0.8-1.6-2.1-2.9-2.7-4.6
		c-0.5-1.7-0.8-3.5-0.9-5.3c-0.9-5.5-4.2-10.3-9.1-13.1c-3.3-1.9-7.2-2.6-10.5-4.4c-5.3-2.8-9.2-8-15-10.2c-1.8-0.9-3.9-1-5.8-0.2
		c-1.7,0.8-2.5,3-1.6,4.7c0.1,0.1,0.1,0.2,0.2,0.3c-0.4-1.6-2.1-2.6-3.7-2.2c-0.2,0-0.3,0.1-0.5,0.2c-1.6,0.9-2.6,2.7-2.4,4.5
		c0.2,1.8,0.9,3.5,2,4.9c3.5,4.9,8.6,8.4,14.4,9.9l12.9-1l10.6,7.8l7.8,12.5l-14.2,18.4L448.5,180.7z"/>
</g>
<g id="freepik--light-bulb--inject-2">
	<path class="st3" d="M367.7,107.1c-1.6-25.1-23.3-44.2-48.4-42.6c-25.1,1.6-44.2,23.3-42.6,48.4c1.1,17.6,12.4,33,28.8,39.5
		c0.4,5.4,0.7,11.5,0.7,11.5l39.9-2.6c0,0-0.2-6.5-0.5-12.2C360.3,140.3,368.8,124.1,367.7,107.1z"/>
	<path class="st7" d="M331.6,162.1c0,0,0-0.2,0-0.6s0-1,0-1.7c0-1.4,0.2-3.6,0.4-6.3s0.5-6.1,1.2-10c0.7-4.4,1.8-8.7,3.3-12.9
		c0.9-2.4,2-4.8,3.3-7.1c0.7-1.2,1.7-2.3,2.9-3c1.3-0.7,2.9-0.8,4.3-0.1c0.7,0.3,1.3,1,1.6,1.7c0.3,0.8,0.3,1.6,0,2.4
		c-0.7,1.5-1.8,2.6-3.3,3.3c-6.4,2.5-13.7-0.7-16.2-7.1c0,0,0-0.1-0.1-0.1c-0.7-1.7-0.9-3.5-0.6-5.2c0.3-1.9,2-3.4,3.9-3.4
		c1,0,1.9,0.6,2.4,1.5c0.5,0.8,0.7,1.8,0.5,2.8c-0.4,1.8-1.5,3.5-2.9,4.7c-2.8,2.7-6.6,4-10.4,3.7c-3.9-0.4-7.3-2.6-9.2-6
		c-1-1.7-1.2-3.7-0.7-5.5c0.5-1.8,2.4-2.8,4.1-2.3c0.2,0.1,0.4,0.1,0.6,0.2c0.9,0.4,1.6,1.1,2.1,1.9c0.4,0.8,0.7,1.7,0.9,2.6
		c0.2,1.8,0.1,3.5-0.4,5.2c-0.9,3.3-3,6.2-5.9,8c-2.8,1.7-6.1,2.4-9.4,1.9c-1.6-0.1-3.1-0.8-4.2-1.9c-1.2-1.1-1.4-3-0.5-4.4
		c0.5-0.6,1.2-1,2-1.1c0.7-0.1,1.5,0,2.2,0.3c1.3,0.6,2.3,1.7,3,3c1.3,2.4,2.4,4.7,3.5,7c4.2,8.9,7.3,16.3,9.4,21.5
		c1,2.6,1.9,4.6,2.3,5.9c0.2,0.7,0.4,1.2,0.6,1.6c0.1,0.2,0.1,0.4,0.2,0.5l-0.2-0.5l-0.6-1.5l-2.4-5.9c-2.1-5.1-5.3-12.5-9.5-21.4
		c-1.1-2.2-2.2-4.6-3.5-6.9c-0.6-1.2-1.6-2.2-2.8-2.7c-1.2-0.6-2.7-0.3-3.6,0.7c-0.7,1.2-0.5,2.8,0.5,3.7c1.1,1,2.5,1.6,3.9,1.7
		c3.1,0.5,6.3-0.2,9-1.9c2.8-1.8,4.8-4.5,5.6-7.7c0.5-1.6,0.6-3.3,0.3-5c-0.1-1.7-1.1-3.2-2.6-4c-0.8-0.3-1.6-0.3-2.4,0
		c-0.8,0.4-1.3,1-1.6,1.9c-0.5,1.7-0.3,3.5,0.6,5c1.8,3.2,5.1,5.3,8.8,5.6c3.7,0.3,7.3-1,10-3.6c1.3-1.1,2.3-2.7,2.7-4.4
		c0.1-0.8,0-1.7-0.5-2.4c-0.4-0.7-1.1-1.2-2-1.2c-0.8,0-1.6,0.3-2.2,0.9c-0.6,0.6-1,1.3-1.2,2.1c-0.3,1.7-0.1,3.4,0.6,4.9
		c2.3,6.2,9.2,9.4,15.5,7.1c0.1,0,0.2-0.1,0.2-0.1c1.4-0.6,2.4-1.7,3.1-3c0.6-1.3,0-2.8-1.3-3.5c-1.2-0.6-2.7-0.6-3.9,0.1
		c-1.1,0.7-2.1,1.7-2.7,2.8c-1.3,2.2-2.4,4.5-3.3,7c-1.5,4.2-2.7,8.5-3.4,12.8c-0.7,3.9-1,7.2-1.3,10s-0.4,4.9-0.5,6.3
		c0,0.7-0.1,1.3-0.1,1.6C331.7,161.9,331.6,162.1,331.6,162.1z"/>
	<path class="st7" d="M343.5,168.9l-34.2,2.2c-1.4,0.1-2.6-1-2.7-2.4l0,0c-0.1-1.4,1-2.6,2.4-2.7l34.2-2.2c1.4-0.1,2.6,1,2.7,2.4
		c0,0,0,0,0,0l0,0C346,167.6,344.9,168.8,343.5,168.9z"/>
	<path class="st7" d="M343.6,171.1l-34.2,2.2c-1.4,0.1-2.5,1.3-2.4,2.7c0.1,1.4,1.3,2.5,2.7,2.4l3.7-0.2l5.6,9.2
		c0.7,1,1.8,1.6,3,1.6l12.2-0.8c1.2-0.1,2.3-0.9,2.8-2l4.2-9.8l2.6-0.2c1.4-0.2,2.4-1.5,2.3-2.9
		C346.1,172.1,344.9,171.1,343.6,171.1L343.6,171.1z"/>
	<g class="st15">
		<path class="st5" d="M291.1,82.9c2.5-2.7,5.5-4.9,8.7-6.6c2.1-1.2,4.4-2,6.8-2.5c1.7-0.3,2.7-0.2,2.8,0.2c0.2,0.8-3.1,2.3-7.5,5.6
			c-11.9,8.7-17.6,23.5-14.7,37.9c1,5.5,2.5,8.8,1.9,9.4c-0.3,0.2-1.1-0.4-2.2-1.8c-1.5-2-2.6-4.2-3.4-6.5
			c-1.2-3.5-1.8-7.1-1.9-10.8c-0.1-4.6,0.7-9.1,2.3-13.4"/>
	</g>
	<g class="st15">
		<path class="st5" d="M320.6,75.2c-2.9,0.1-5.5-0.5-5.9-2c-0.2-0.7,0.3-1.6,1.3-2.3c2.6-1.6,5.8-1.8,8.6-0.5
			c1.1,0.6,1.6,1.4,1.6,2.1"/>
	</g>
	<path class="st9" d="M336.5,187.1c-0.8-0.1-1.6-0.3-2.4-0.6c-1.9-0.4-3.9-0.5-5.9-0.4c-1.9,0.2-3.8,0.7-5.6,1.4
		c-1.4,0.6-2.2,1.1-2.2,1c0.6-0.6,1.3-1,2.1-1.4c1.8-0.9,3.8-1.4,5.8-1.6c2-0.2,4.1,0,6,0.5C335.1,186.3,335.9,186.6,336.5,187.1z"
		/>
	<path class="st9" d="M341.5,176.6c0,0.1-6.2,0.7-13.8,1.2c-7.6,0.5-13.8,0.8-13.8,0.6c0-0.2,6.2-0.7,13.8-1.2
		C335.3,176.7,341.5,176.4,341.5,176.6z"/>
	<path class="st9" d="M339.6,180.8c-1.1,0.3-2.2,0.5-3.3,0.5c-2.1,0.3-5,0.6-8.2,0.8c-3.2,0.3-6.1,0.4-8.2,0.4
		c-1.1,0.1-2.3,0.1-3.4,0c1.1-0.2,2.2-0.4,3.4-0.4l8.2-0.6l8.2-0.7C337.3,180.8,338.5,180.7,339.6,180.8z"/>
</g>
<g id="freepik--Book--inject-2">
	<path class="st3" d="M93,409.9l7.5,11.9c0,0,31.8-29.2,63.2-20.9C163.6,400.8,135.4,376.8,93,409.9z"/>
	<path class="st3" d="M163.6,400.8c0,0,23.3-25.3,57.4-19.5l9.4,1.4l-3-5.4C227.5,377.3,168,357,163.6,400.8z"/>
	<path class="st2" d="M114.5,315.5c0,0-46.6-8-77.2,8.5l48.6,91.4c0,0,39.8-38.3,77.8-14.7L114.5,315.5z"/>
	<path class="st7" d="M114.5,315.5c0.1,0.1,0.2,0.2,0.3,0.4l0.7,1.2l2.7,4.5l10.1,17.3l35.8,61.7c0.1,0.2,0,0.4-0.2,0.6
		c-0.1,0.1-0.3,0.1-0.4,0c-5.5-3.4-11.6-5.7-17.9-6.9c-3.3-0.5-6.7-0.8-10.1-0.7c-3.5,0.2-6.9,0.6-10.3,1.3
		c-14.4,3.5-27.6,10.6-38.6,20.6l-0.4,0.4c-0.2,0.2-0.5,0.2-0.6,0c0,0,0,0,0,0v-0.1l-48.6-91.6c-0.1-0.2,0-0.4,0.1-0.5c0,0,0,0,0,0
		l0,0c9.7-4.9,20.3-8,31.1-9.3c8.3-1,16.6-1.4,24.9-1.1c6.9,0.2,12.3,0.8,15.9,1.2c1.9,0.2,3.2,0.4,4.2,0.6l1.1,0.2h0.3h-0.4
		l-1.1-0.1c-0.9-0.1-2.3-0.3-4.2-0.5c-3.7-0.4-9-0.8-15.9-1c-8.3-0.2-16.6,0.2-24.8,1.3c-10.7,1.3-21.2,4.5-30.8,9.4l0.1-0.5
		l48.6,91.4l-0.7-0.1l0.4-0.4c5.7-5.1,11.9-9.5,18.6-13.1c6.4-3.5,13.3-6.1,20.4-7.7c3.5-0.7,7-1.2,10.5-1.3
		c3.4-0.1,6.9,0.2,10.2,0.7c6.4,1.2,12.6,3.6,18.2,7l-0.6,0.6l-35.4-61.7l-10-17.5l-2.6-4.6c-0.3-0.5-0.5-0.9-0.7-1.2
		C114.6,315.8,114.6,315.7,114.5,315.5z"/>
	<path class="st2" d="M187.8,296.8c0,0-35.3-22.4-72.7,18.7l49.2,85.3c0,0,10-34.6,68.7-22.6L187.8,296.8z"/>
	<path class="st7" d="M187.8,296.8c0.1,0.1,0.2,0.2,0.2,0.4c0.1,0.3,0.4,0.6,0.6,1.1l2.5,4.3l9.4,16.5l32.8,59
		c0.1,0.2,0,0.4-0.1,0.5c0,0,0,0,0,0c-0.1,0-0.2,0-0.3,0l0,0l-8.7-1.4c-1.5-0.3-3-0.4-4.5-0.5l-4.6-0.4c-1.6-0.1-3.1-0.2-4.7-0.1
		l-4.7,0c-1.6,0-3.2,0.3-4.8,0.5c-1.6,0.1-3.2,0.4-4.8,0.7l-4.8,1.1l-4.7,1.7c-1.6,0.6-3.1,1.3-4.6,2.1c-0.8,0.4-1.5,0.8-2.2,1.3
		l-2.2,1.4c-1.4,1-2.7,2.1-4,3.2c-1.3,1.2-2.4,2.4-3.5,3.7c-2.3,2.7-4,5.7-5.2,9l0,0c-0.1,0.2-0.4,0.4-0.6,0.3
		c-0.1,0-0.2-0.1-0.2-0.2l-2-3.4c-17.4-30.2-33.7-58.4-47.1-81.9c-0.1-0.1-0.1-0.3,0-0.5c7.4-8.4,16.5-15.2,26.6-20
		c7.9-3.6,16.5-5.2,25.1-4.7c5.5,0.3,10.9,1.5,16.1,3.6c1.3,0.6,2.7,1.2,3.9,1.9l1,0.6l0.3,0.2l-0.3-0.2l-1-0.5
		c-0.9-0.4-2.2-1.1-3.9-1.7c-13.3-5-28-4.5-40.8,1.5c-10,4.8-19,11.6-26.3,20v-0.4l47.2,81.9l2.1,3.4l-0.9,0.1
		c1.2-3.4,3.1-6.6,5.4-9.4c1.1-1.4,2.4-2.6,3.6-3.9c1.4-1.1,2.7-2.3,4.1-3.3l2.2-1.4c0.7-0.5,1.5-0.9,2.3-1.3c1.6-0.7,3-1.6,4.7-2.2
		l4.8-1.7l4.9-1.1c1.6-0.4,3.3-0.6,4.9-0.7c1.6-0.1,3.2-0.4,4.8-0.5h4.8c1.6-0.1,3.2,0,4.7,0.1l4.6,0.4c1.5,0.1,3,0.2,4.5,0.5
		l8.8,1.5l-0.4,0.6c-13.4-24.3-24.6-44.7-32.5-59c-3.9-7.1-7-12.8-9.1-16.7l-2.4-4.4c-0.2-0.5-0.4-0.9-0.6-1.1
		S187.8,296.8,187.8,296.8z"/>
	<path class="st2" d="M50.4,280.1L103,381.4c0,0,42.7-1.9,60.8,19l-48.7-84.8C115.1,315.5,86.5,280.1,50.4,280.1z"/>
	<path class="st7" d="M50.4,280.1h1.3l4,0.2c0.4,0,0.9,0,1.4,0l1.6,0.3l3.5,0.6c1.4,0.2,2.7,0.6,4,1c1.5,0.4,3,0.8,4.5,1.3
		c12.6,4.2,29.4,14.3,44.6,31.8l0,0l0,0l48.8,84.8c0.1,0.2,0.1,0.5-0.2,0.6c-0.2,0.1-0.4,0.1-0.6,0l0,0l-2.1-2.1
		c-3.9-3.8-8.5-6.8-13.5-8.9c-4.8-2.2-9.9-3.8-15.1-4.9c-9.8-2.2-19.9-3.2-29.9-3l0,0c-0.2,0-0.3-0.1-0.4-0.2
		c-15.3-29.7-28.4-55.2-37.7-73.1c-4.5-8.9-8.2-16-10.7-20.9c-1.2-2.4-2.2-4.2-2.8-5.6l-0.7-1.4L50.4,280.1c0.1,0.1,0.2,0.3,0.3,0.4
		l0.8,1.4l3,5.6l11,21l38,72.6l-0.4-0.2c10.1-0.2,20.2,0.7,30.1,2.9c5.2,1.1,10.3,2.8,15.2,5c5.1,2.2,9.7,5.3,13.7,9.1l2.1,2.1
		l-0.8,0.5c-18.1-31.5-34.8-60.7-48.6-84.8l0,0c-6.8-7.9-14.5-14.9-23-20.8c-6.5-4.6-13.6-8.3-21.1-11c-1.5-0.5-3-1-4.5-1.4
		c-1.3-0.4-2.6-0.8-4-1l-3.5-0.6l-1.5-0.3l-1.4-0.1L50.4,280.1z"/>
</g>
<g id="freepik--Stars--inject-2">
	<path class="st3" d="M214.6,567.4l1.1,1.9c1.3,2.1,3.1,3.8,5.3,4.9l1.9,1l-1.9,1.1c-2.1,1.3-3.8,3.1-4.9,5.3l-1,2l-1.1-1.9
		c-1.3-2.1-3.1-3.8-5.3-4.9l-2-1l1.9-1.1c2.1-1.3,3.8-3.1,4.9-5.3L214.6,567.4z"/>
	<path class="st3" d="M110.9,181.6l1.1,1.9c1.3,2.1,3.1,3.8,5.3,4.9l1.9,1l-1.9,1.1c-2.1,1.3-3.8,3.1-4.9,5.3l-1,1.9l-1.1-1.9
		c-1.3-2.1-3.1-3.8-5.3-4.9l-2-1l1.9-1.1c2.1-1.3,3.8-3.1,4.9-5.3L110.9,181.6z"/>
	<path class="st3" d="M590.8,248.1l1.1,1.9c1.3,2.1,3.1,3.8,5.3,4.9l2,1l-1.9,1.1c-2.1,1.3-3.8,3.1-4.9,5.3l-1,1.9l-1.1-1.9
		c-1.3-2.1-3.1-3.8-5.3-4.9l-2-0.9l1.9-1.1c2.1-1.3,3.8-3.1,4.9-5.3L590.8,248.1z"/>
	<path class="st3" d="M534.1,591.6l1.1,1.9c1.3,2.1,3.1,3.8,5.3,4.9l2,1l-1.9,1.1c-2.1,1.3-3.8,3.1-4.9,5.3l-1,2l-1.1-1.9
		c-1.3-2.1-3.1-3.8-5.3-4.9l-2-1l1.9-1.1c2.1-1.3,3.8-3.1,4.9-5.3L534.1,591.6z"/>
	<path class="st3" d="M544.9,663.8l0.5,0.2c0.6,0.2,1.2,0.3,1.9,0.2l0.6-0.1l-0.2,0.5c-0.2,0.6-0.3,1.2-0.2,1.9l0.1,0.6l-0.5-0.2
		c-0.6-0.2-1.2-0.3-1.9-0.2l-0.6,0.1l0.2-0.5c0.2-0.6,0.3-1.2,0.2-1.9L544.9,663.8z"/>
	<path class="st3" d="M577.6,175.7l0.5,0.2c0.6,0.2,1.2,0.3,1.9,0.2l0.6-0.1l-0.2,0.5c-0.2,0.6-0.3,1.2-0.2,1.9l0.1,0.6l-0.5-0.2
		c-0.6-0.2-1.2-0.3-1.9-0.2l-0.6,0.1l0.2-0.5c0.2-0.6,0.3-1.2,0.2-1.9L577.6,175.7z"/>
	<path class="st3" d="M132,131.2l0.5,0.2c0.6,0.2,1.2,0.3,1.9,0.2h0.6l-0.2,0.5c-0.2,0.6-0.3,1.2-0.2,1.9l0.1,0.6l-0.5-0.2
		c-0.6-0.2-1.2-0.3-1.9-0.2h-0.6l0.2-0.5c0.2-0.6,0.3-1.2,0.2-1.9L132,131.2z"/>
	<path class="st3" d="M186.9,511.2l0.5,0.2c0.6,0.2,1.2,0.3,1.9,0.2l0.6-0.1l-0.2,0.5c-0.2,0.6-0.3,1.2-0.2,1.9l0.1,0.6l-0.5-0.2
		c-0.6-0.2-1.2-0.3-1.9-0.2l-0.6,0.1l0.2-0.5c0.2-0.6,0.3-1.2,0.2-1.9L186.9,511.2z"/>
	<path class="st3" d="M246.6,658.1l-0.5,0.5l-1.6,1.6l-6,6L216,687.8v-0.2c1.2,23.5,2.7,55.3,4.2,90.8v0.8l-0.7-0.4l-8.1-5.4
		l-51.3-34.4h-0.1v-0.1c-7.7-22.9-14.1-42.2-18.7-55.8c-2.2-6.8-4-12.1-5.2-15.8l-1.3-4.2c-0.1-0.4-0.3-0.8-0.3-1.1
		c0-0.3-0.1-0.4-0.1-0.4l0.1,0.3l0.4,1.1c0.3,1,0.8,2.4,1.5,4.2l5.4,15.8c4.6,13.6,11.2,32.8,19,55.7l-0.1-0.2l51.4,34.3l8.1,5.4
		l-0.6,0.4c-1.5-35.5-2.9-67.3-3.9-90.8v-0.1h0.1l22.6-21.4l6.2-5.8l1.6-1.5C246.4,658.2,246.6,658.1,246.6,658.1z"/>
	<polygon class="st3" points="222.7,767.6 222.5,772.9 226.8,776 221.7,777.5 220.1,782.5 217.1,778.1 211.8,778.1 215,773.9 
		213.4,768.9 218.4,770.7 	"/>
	<polygon class="st3" points="160.9,731.6 161,735.1 163.9,736.9 160.6,738.1 159.7,741.4 157.6,738.7 154.2,738.9 156.1,736 
		154.9,732.8 158.2,733.8 	"/>
	<polygon class="st3" points="134.2,655.1 136.8,658.4 141,658.2 138.7,661.7 140.2,665.6 136.2,664.4 132.9,667.1 132.8,662.9 
		129.2,660.6 133.2,659.2 	"/>
	<polygon class="st3" points="244,651.8 246.6,655.1 250.8,654.9 248.4,658.3 250,662.3 245.9,661.1 242.7,663.8 242.5,659.5 
		239,657.3 243,655.8 	"/>
	<polygon class="st3" points="215.2,683.8 216.8,686 219.5,685.8 218,688 219,690.5 216.4,689.8 214.3,691.5 214.2,688.8 212,687.4 
		214.5,686.4 	"/>
</g>
<g id="freepik--Planets--inject-2">
	<circle class="st3" cx="116.2" cy="505.1" r="37.3"/>
	<g class="st16">
		<path class="st5" d="M111.4,516.7c0,3.4-2.7,6.1-6.1,6.1c-3.4,0-6.1-2.7-6.1-6.1c0-3.4,2.7-6.1,6.1-6.1c0,0,0,0,0,0
			C108.6,510.7,111.3,513.4,111.4,516.7z"/>
	</g>
	<g class="st16">
		<path class="st5" d="M102.8,499.2c0,2-1.6,3.6-3.5,3.6c-2,0-3.6-1.6-3.6-3.5c0-2,1.6-3.6,3.5-3.6c0,0,0,0,0,0
			C101.2,495.6,102.7,497.2,102.8,499.2z"/>
	</g>
	<path class="st3" d="M80,514.2c0.2,0.7-31.9,31.4-23.6,38s43-10.3,72.7-34.2c29.7-24,56.8-53.1,49.3-60.8
		c-7.4-7.7-44.5,15.1-44.5,15.1l4.4,2.8c0,0,22.4-14.4,29.5-8.8c7.1,5.6-13.1,27.4-41.7,48.2c-28.6,20.8-56.1,35.4-60.4,29.7
		c-4.2-5.7,15.9-24.7,15.9-24.7L80,514.2z"/>
	<g class="st16">
		<path d="M80,514.2c0.2,0.7-31.9,31.4-23.6,38s43-10.3,72.7-34.2c29.7-24,56.8-53.1,49.3-60.8c-7.4-7.7-44.5,15.1-44.5,15.1
			l4.4,2.8c0,0,22.4-14.4,29.5-8.8c7.1,5.6-13.1,27.4-41.7,48.2c-28.6,20.8-56.1,35.4-60.4,29.7c-4.2-5.7,15.9-24.7,15.9-24.7
			L80,514.2z"/>
	</g>
	<g class="st16">
		<path class="st5" d="M95.6,478.8c0.3,0.4-2.2,2.5-5.1,6.8c-7.8,11.3-8.1,26.1-0.7,37.7c2.7,4.4,5.1,6.7,4.8,7
			c-0.3,0.3-3.2-1.5-6.5-5.9c-1.9-2.6-3.4-5.4-4.5-8.5c-2.7-7.6-2.6-15.8,0.5-23.3c1.2-3,2.8-5.8,4.9-8.3
			C92.4,480.2,95.5,478.6,95.6,478.8z"/>
	</g>
	
		<ellipse transform="matrix(0.7071 -0.7071 0.7071 0.7071 44.3577 418.4151)" class="st3" cx="527.3" cy="155.7" rx="30.8" ry="30.8"/>
	<g class="st10">
		<path d="M537.3,143.9c0.1-2.8,2.4-5,5.1-4.9s5,2.4,4.9,5.1c-0.1,2.8-2.4,5-5.1,4.9C539.4,149,537.2,146.7,537.3,143.9
			C537.3,143.9,537.3,143.9,537.3,143.9z"/>
	</g>
	<g class="st10">
		<path d="M547.3,155.6c0-1.6,1.4-2.9,3-2.9s2.9,1.4,2.9,3c0,1.6-1.4,2.9-3,2.9c0,0,0,0,0,0C548.6,158.6,547.3,157.3,547.3,155.6
			C547.3,155.6,547.3,155.6,547.3,155.6z"/>
	</g>
	<g class="st10">
		<path d="M543.4,164.6c0.6,0,1,0.5,1,1c0,0,0,0,0,0c0,0.6-0.5,1.1-1.1,1.1c-0.6,0-1.1-0.5-1-1.1
			C542.3,165.1,542.8,164.6,543.4,164.6C543.4,164.6,543.4,164.6,543.4,164.6z"/>
	</g>
</g>
</svg>
